<svg width="35" height="35" viewBox="0 0 35 35" fill="none" xmlns="http://www.w3.org/2000/svg">
<g id="Group 75904">
<g id="Group 75899">
<circle id="Ellipse 35" cx="17.5" cy="17.5" r="17.5" fill="#EBEBEB"/>
</g>
<g id="Group">
<path id="Vector" d="M17.5476 8C18.4869 9.93733 19.3411 11.7015 20.2261 13.5258C18.7877 14.0674 17.7633 14.97 17.2981 16.4024C16.9796 17.3799 17.0163 18.3603 17.392 19.3216C18.2418 21.4908 20.1409 22.3333 23.0954 21.8181C23.1042 23.1845 22.6653 24.3719 21.8112 25.4095C20.1923 27.3703 17.4096 27.9559 15.1083 26.8288C12.7879 25.6913 11.4582 23.1464 12.2111 20.6719C12.967 18.1886 13.9826 15.7787 14.9865 13.379C15.7262 11.6105 16.6303 9.91091 17.5476 8ZM13.4968 19.8016C12.6602 21.4644 12.9215 23.4605 14.1572 24.8459C15.1964 26.0113 16.9796 26.638 18.0935 26.2285C15.0452 25.3772 13.2957 22.7897 13.4968 19.8016Z" fill="#515050"/>
<path id="Vector_2" d="M21.4766 13.8692C23.5841 13.8794 25.2852 15.5937 25.2955 17.7189C25.3057 19.8881 23.5607 21.6156 21.3782 21.5979C19.2721 21.5803 17.5447 19.8441 17.5476 17.7482C17.5505 15.5849 19.2971 13.8604 21.4766 13.8692ZM20.8337 18.3382C20.8337 18.7492 20.822 19.097 20.8367 19.4434C20.8528 19.8323 21.0847 20.1259 21.4546 20.0393C21.6762 19.9879 21.9213 19.6724 21.9932 19.4273C22.0857 19.1088 22.0152 18.7433 22.0152 18.3412C22.4159 18.3412 22.7432 18.35 23.069 18.3382C23.4726 18.3236 23.816 18.1254 23.7177 17.7101C23.6634 17.4767 23.3244 17.2301 23.0631 17.148C22.752 17.0511 22.388 17.1245 22.0137 17.1245C22.0137 16.693 22.0181 16.3642 22.0123 16.0355C22.0064 15.6377 21.7745 15.3515 21.4076 15.4264C21.1845 15.4719 20.9262 15.7816 20.8543 16.0237C20.7589 16.3422 20.8308 16.7121 20.8308 17.1274C20.414 17.1274 20.0676 17.1127 19.7227 17.1318C19.3382 17.1524 19.0402 17.3725 19.1327 17.7541C19.1885 17.9831 19.4835 18.2428 19.7227 18.3148C20.0441 18.4116 20.4125 18.3382 20.8337 18.3382Z" fill="#515050"/>
</g>
</g>
</svg>
