<svg width="35" height="35" viewBox="0 0 35 35" fill="none" xmlns="http://www.w3.org/2000/svg">
<g id="Group 75909">
<g id="Group 75899">
<circle id="Ellipse 35" cx="17.5" cy="17.5" r="17.5" fill="#EBEBEB"/>
</g>
<g id="Group">
<path id="Vector" d="M9.37671 12.2607C10.1086 12.7806 10.7657 13.2464 11.4228 13.7121C13.3109 15.0596 15.1989 16.407 17.087 17.7586C17.7607 18.241 18.6756 18.1911 19.3826 17.6837C21.8653 15.8996 24.3606 14.1363 26.8516 12.3647C26.8766 12.3439 26.914 12.3398 26.9473 12.3314C27.0263 12.4645 26.993 12.6018 26.993 12.7348C26.993 15.7582 26.9972 18.7816 26.993 21.8092C26.993 22.8904 26.5273 23.3562 25.4418 23.3562C20.6094 23.3562 15.777 23.3562 10.9487 23.3562C9.84249 23.352 9.37671 22.8904 9.37671 21.7925C9.37671 18.7816 9.37671 15.7665 9.37671 12.7556C9.37671 12.6226 9.37671 12.4853 9.37671 12.2607Z" fill="#515050"/>
<path id="Vector_2" d="M26.2319 10.9509C23.9155 12.577 21.6365 14.1781 19.3576 15.7792C19.1288 15.9414 18.9167 16.1285 18.688 16.2949C18.3345 16.5485 18.0476 16.5652 17.7066 16.3115C15.2321 14.4775 12.6662 12.7766 10.1377 10.9509C10.3373 10.8053 10.5577 10.8137 10.7657 10.8137C15.7062 10.8095 20.6509 10.8095 25.5915 10.8137C25.7953 10.8137 26.0115 10.8053 26.2319 10.9509Z" fill="#515050"/>
</g>
</g>
</svg>
