<svg width="35" height="35" viewBox="0 0 35 35" fill="none" xmlns="http://www.w3.org/2000/svg">
<g id="Group 75908">
<g id="Group 75899">
<circle id="Ellipse 35" cx="17.5" cy="17.5" r="17.5" fill="#EBEBEB"/>
</g>
<path id="Vector" d="M12.9314 15.7883C14.0965 18.8187 16.1724 20.8813 19.1868 22.0226C19.6228 20.7933 19.6228 20.7933 20.8701 20.9943C22.4322 21.2462 23.9926 21.5058 25.5565 21.7413C25.8212 21.781 25.9059 21.8776 25.9535 22.1304C26.2649 23.7927 24.9735 25.6172 23.2444 25.907C21.9547 26.1236 20.6728 25.9372 19.4394 25.6017C13.8188 24.0722 10.3702 20.4474 9.19555 14.7496C8.99315 13.7688 8.94125 12.7095 9.07099 11.7183C9.30194 9.94558 11.2196 8.68526 12.8898 9.06914C13.0109 9.09674 13.1718 9.25719 13.1917 9.37537C13.5005 11.2439 13.7808 13.1167 14.093 14.9851C14.1354 15.2413 14.087 15.3604 13.8612 15.4415C13.5645 15.5484 13.2704 15.6614 12.9314 15.7883Z" fill="#515050"/>
</g>
</svg>
