<svg width="35" height="35" viewBox="0 0 35 35" fill="none" xmlns="http://www.w3.org/2000/svg">
<g id="Group 75920">
<g id="Group 75901">
<circle id="Ellipse 35" cx="17.5" cy="17.5" r="17.5" fill="#EBEBEB"/>
</g>
<g id="Group">
<path id="Vector" d="M12.2397 21.1431C12.3949 19.9825 12.0265 19.0445 10.9941 18.4494C10.1196 17.946 9.22351 18 8.37195 18.5385C7.67963 18.9771 7.06019 19.9285 7.29636 21.1741C7.20594 21.1741 7.11687 21.1741 7.02915 21.1741C6.81052 21.1741 6.5892 21.1917 6.37327 21.1701C5.93737 21.1255 5.59863 20.7639 5.59863 20.328C5.59863 19.6276 5.61213 18.9258 5.63642 18.2254C5.64857 17.8785 5.73494 17.5425 5.87394 17.22C6.04263 16.8245 6.32604 16.5506 6.72685 16.4143C7.11552 16.282 7.51499 16.1822 7.90905 16.0688C8.23429 15.9757 8.55953 15.8853 8.88342 15.7881C9.29773 15.6639 9.64592 15.421 9.9941 15.1754C10.3328 14.9365 10.6756 14.7044 11.0157 14.4696C11.484 14.1471 12.0049 13.9365 12.5447 13.7692C13.2182 13.5614 13.9078 13.4493 14.6095 13.4035C15.5083 13.3441 16.4004 13.4102 17.2897 13.5317C18.3167 13.6707 19.3222 13.9082 20.2898 14.282C20.9834 14.5506 21.6636 14.8542 22.2736 15.2915C22.6015 15.5263 22.9322 15.7557 23.2601 15.9905C23.3195 16.0324 23.3708 16.0863 23.4248 16.1349C23.6137 16.3104 23.835 16.4008 24.0941 16.4291C24.4545 16.4696 24.8134 16.5223 25.1697 16.5897C25.719 16.6936 26.2696 16.8016 26.8121 16.9339C27.2453 17.0391 27.661 17.2024 28.0551 17.421C28.5018 17.668 28.7528 18.0459 28.8688 18.5304C28.9889 19.0351 29.0146 19.5466 28.993 20.0635C28.9795 20.3658 28.9512 20.6627 28.827 20.9434C28.746 21.1269 28.6961 21.1579 28.4937 21.1566C28.0551 21.1525 27.6165 21.1539 27.1779 21.1525C27.1482 21.1525 27.1198 21.1525 27.082 21.1525C27.2372 20.1728 26.9714 19.3414 26.2143 18.6991C25.6745 18.2416 25.0361 18.058 24.3317 18.1336C22.947 18.2821 21.8566 19.5803 22.14 21.1431C18.8377 21.1431 15.538 21.1431 12.2397 21.1431ZM19.5448 16.4116C20.2021 16.4372 20.8593 16.4615 21.5165 16.4872C21.6731 16.4926 21.831 16.5007 21.9875 16.5047C22.0928 16.5074 22.1589 16.4183 22.1144 16.3347C22.0982 16.305 22.0698 16.2807 22.0442 16.2564C21.5934 15.8434 21.082 15.5209 20.5354 15.2523C19.6838 14.8353 18.7904 14.5506 17.8552 14.4008C17.5192 14.3468 17.1791 14.3171 16.8403 14.282C16.7324 14.2712 16.6865 14.3252 16.6959 14.4345C16.6986 14.4615 16.7013 14.4885 16.7054 14.5155C16.7783 15.0512 16.8538 15.587 16.9254 16.1241C16.9483 16.2982 16.9645 16.3185 17.1426 16.3252C17.9429 16.3536 18.7445 16.3819 19.5448 16.4116ZM13.3207 16.224C13.3207 16.2321 13.3207 16.2388 13.3207 16.2469C14.152 16.2564 14.9834 16.2645 15.8133 16.2739C15.9469 16.2753 15.9726 16.2456 15.9564 16.1174C15.8876 15.5506 15.8201 14.9838 15.754 14.417C15.7391 14.2874 15.7216 14.2685 15.5947 14.2672C14.9064 14.2645 14.2303 14.3535 13.5609 14.5087C12.48 14.7597 11.5366 15.255 10.7458 16.0364C10.7094 16.0729 10.6648 16.1079 10.6878 16.1673C10.7107 16.2267 10.766 16.2254 10.8187 16.2254C11.654 16.224 12.4867 16.224 13.3207 16.224Z" fill="#515050"/>
<path id="Vector_2" d="M7.81201 20.6343C7.81066 19.5614 8.68787 18.6842 9.76076 18.6855C10.8336 18.6855 11.7081 19.5574 11.7095 20.6248C11.7095 21.7085 10.8417 22.5817 9.76345 22.583C8.68922 22.583 7.81336 21.7072 7.81201 20.6343Z" fill="#515050"/>
<path id="Vector_3" d="M22.6621 20.6289C22.6621 19.5601 23.5353 18.6869 24.6055 18.6855C25.6824 18.6842 26.5623 19.5641 26.5582 20.6383C26.5542 21.7099 25.6797 22.583 24.6122 22.5817C23.5312 22.5817 22.6621 21.7099 22.6621 20.6289Z" fill="#515050"/>
</g>
</g>
</svg>
