<svg width="35" height="35" viewBox="0 0 35 35" fill="none" xmlns="http://www.w3.org/2000/svg">
<g id="Group 75919">
<g id="Group 75917">
<circle id="Ellipse 35" cx="17.5" cy="17.5" r="17.5" fill="#EBEBEB"/>
</g>
<g id="Group 75918">
<g id="Group 75916">
<g id="Group">
<path id="Vector" d="M28.277 19.9182C27.8129 18.5302 27.7484 17.1423 28.2469 15.9691C28.4102 15.2902 28.118 14.9808 27.8472 14.6972C27.0136 13.8248 26.5065 12.8107 26.3862 11.5946C26.3346 11.0403 26.0252 10.6836 25.4752 10.4817C24.388 10.0863 23.477 9.44604 22.8668 8.42762C22.5145 7.8389 21.9902 7.551 21.2984 7.6928C19.8116 7.98931 18.6341 6.70445 17.3579 6.76032C16.0687 6.82048 14.8913 7.97212 13.4088 7.6885C12.8115 7.57248 12.3345 7.79164 12.0122 8.32019C11.359 9.39448 10.4008 10.0906 9.23625 10.5074C8.72488 10.6922 8.45846 11.0532 8.4026 11.5602C8.27368 12.8064 7.76232 13.8635 6.8857 14.7487C6.48177 15.1527 6.40872 15.5867 6.5892 16.141C6.93297 17.1938 7.05329 18.2767 6.62357 19.3467C6.32707 20.0901 6.53333 20.6874 7.08337 21.216C7.82248 21.9293 8.23931 22.8231 8.33814 23.8243C8.41549 24.6279 8.81083 25.0834 9.54135 25.3326C10.5469 25.6721 11.3204 26.321 11.8704 27.2148C12.2357 27.8121 12.7255 28.0699 13.4217 27.9883C14.5518 27.8551 15.596 28.1043 16.55 28.7231C17.1 29.0755 17.6372 29.1012 18.1872 28.7446C19.1799 28.1086 20.2542 27.8551 21.423 27.984C22.0203 28.0527 22.4887 27.868 22.8153 27.3351C23.4255 26.3382 24.2892 25.642 25.3979 25.2596C25.9651 25.0662 26.3303 24.6924 26.3862 24.0736C26.4936 22.8618 27.0265 21.8519 27.8644 20.9796C28.1437 20.7046 28.436 20.3866 28.277 19.9182ZM17.3493 25.9342C12.9447 25.9042 9.39094 22.2731 9.42102 17.8384C9.44681 13.4596 13.022 9.88435 17.3794 9.88006C21.7797 9.87146 25.3721 13.4897 25.3635 17.9243C25.3592 22.3461 21.741 25.9643 17.3493 25.9342ZM17.3966 10.5375C13.3228 10.5375 9.97966 13.8506 9.97106 17.8986C9.96247 21.9422 13.3142 25.2725 17.3837 25.2768C21.4617 25.2768 24.8006 21.968 24.8134 17.9114C24.8177 13.8678 21.4746 10.5375 17.3966 10.5375ZM17.418 13.8893C17.7661 13.8936 18.0282 14.1514 18.0282 14.5124C18.0282 14.8734 17.7747 15.0796 17.4309 15.1613C17.0528 15.1398 16.7907 14.9163 16.7649 14.5811C16.7262 14.1686 17.0141 13.8893 17.418 13.8893ZM12.7384 16.8844C12.3775 16.8629 12.1153 16.6051 12.1411 16.2313C12.1669 15.8746 12.4204 15.6082 12.7943 15.6297C13.1553 15.6511 13.3615 15.9176 13.4174 16.2785C13.3143 16.6266 13.1166 16.9102 12.7384 16.8844ZM21.423 17.8126C21.2382 18.9685 21.0792 20.1202 20.8772 21.2718C20.787 21.7703 20.4432 21.9894 19.9233 21.9766C19.0467 21.9594 18.1657 21.9723 17.2848 21.9723H16.0773C14.0147 21.9723 14.0104 21.9723 13.6795 19.987C13.5592 19.2693 13.4775 18.5431 13.3572 17.8212C13.3057 17.5075 13.3357 17.2368 13.5979 17.0305C13.933 16.7684 14.251 16.9274 14.4831 17.1594C15.4413 18.1005 15.9269 17.6235 16.4469 16.6567C17.186 15.2902 17.5298 15.3203 18.3333 16.6309C18.4665 16.8457 18.6298 17.052 18.7287 17.2841C18.9564 17.8255 19.2658 17.92 19.7213 17.529C19.8846 17.3872 20.0823 17.2755 20.2671 17.1637C20.5421 16.9919 20.8214 16.7727 21.1609 17.0262C21.4359 17.2282 21.4703 17.5075 21.423 17.8126ZM22.0289 16.9059C21.6679 16.85 21.4015 16.6481 21.38 16.2828C21.3628 15.909 21.625 15.6511 21.9859 15.6297C22.3598 15.6039 22.6176 15.8703 22.6391 16.2313C22.6649 16.6051 22.3813 16.8028 22.0289 16.9059Z" fill="#515050"/>
<path id="Vector_2" d="M17.3967 10.5376C13.323 10.5376 9.9798 13.8507 9.97121 17.8986C9.96261 21.9423 13.3144 25.2726 17.3838 25.2769C21.4618 25.2769 24.8007 21.968 24.8136 17.9115C24.8179 13.8679 21.4747 10.5376 17.3967 10.5376ZM17.4182 13.8894C17.7663 13.8937 18.0284 14.1515 18.0284 14.5125C18.0284 14.8734 17.7748 15.0797 17.4311 15.1613C17.0529 15.1399 16.7908 14.9164 16.765 14.5812C16.7263 14.1687 17.0142 13.8894 17.4182 13.8894ZM12.7386 16.8845C12.3776 16.863 12.1155 16.6052 12.1413 16.2313C12.1671 15.8747 12.4206 15.6082 12.7944 15.6297C13.1554 15.6512 13.3617 15.9176 13.4175 16.2786C13.3144 16.6267 13.1167 16.9103 12.7386 16.8845ZM21.4231 17.8127C21.2384 18.9686 21.0794 20.1203 20.8774 21.2719C20.7872 21.7704 20.4434 21.9895 19.9234 21.9766C19.0468 21.9594 18.1659 21.9723 17.285 21.9723H16.0775C14.0148 21.9723 14.0105 21.9723 13.6797 19.9871C13.5593 19.2694 13.4777 18.5432 13.3574 17.8213C13.3058 17.5076 13.3359 17.2369 13.598 17.0306C13.9332 16.7685 14.2512 16.9275 14.4832 17.1595C15.4415 18.1006 15.9271 17.6236 16.447 16.6568C17.1861 15.2903 17.5299 15.3203 18.3335 16.631C18.4667 16.8458 18.63 17.0521 18.7288 17.2841C18.9566 17.8256 19.266 17.9201 19.7215 17.5291C19.8848 17.3873 20.0824 17.2755 20.2672 17.1638C20.5422 16.9919 20.8215 16.7728 21.161 17.0263C21.436 17.2283 21.4704 17.5076 21.4231 17.8127ZM22.029 16.906C21.6681 16.8501 21.4016 16.6482 21.3802 16.2829C21.363 15.909 21.6251 15.6512 21.9861 15.6297C22.3599 15.6039 22.6177 15.8704 22.6392 16.2313C22.665 16.6052 22.3814 16.8029 22.029 16.906Z" fill="#515050"/>
<path id="Vector_3" d="M17.3967 10.5376C13.323 10.5376 9.9798 13.8507 9.97121 17.8986C9.96261 21.9423 13.3144 25.2726 17.3838 25.2769C21.4618 25.2769 24.8007 21.968 24.8136 17.9115C24.8179 13.8679 21.4747 10.5376 17.3967 10.5376ZM17.4182 13.8894C17.7663 13.8937 18.0284 14.1515 18.0284 14.5125C18.0284 14.8734 17.7748 15.0797 17.4311 15.1613C17.0529 15.1399 16.7908 14.9164 16.765 14.5812C16.7263 14.1687 17.0142 13.8894 17.4182 13.8894ZM12.7386 16.8845C12.3776 16.863 12.1155 16.6052 12.1413 16.2313C12.1671 15.8747 12.4206 15.6082 12.7944 15.6297C13.1554 15.6512 13.3617 15.9176 13.4175 16.2786C13.3144 16.6267 13.1167 16.9103 12.7386 16.8845ZM21.4231 17.8127C21.2384 18.9686 21.0794 20.1203 20.8774 21.2719C20.7872 21.7704 20.4434 21.9895 19.9234 21.9766C19.0468 21.9594 18.1659 21.9723 17.285 21.9723H16.0775C14.0148 21.9723 14.0105 21.9723 13.6797 19.9871C13.5593 19.2694 13.4777 18.5432 13.3574 17.8213C13.3058 17.5076 13.3359 17.2369 13.598 17.0306C13.9332 16.7685 14.2512 16.9275 14.4832 17.1595C15.4415 18.1006 15.9271 17.6236 16.447 16.6568C17.1861 15.2903 17.5299 15.3203 18.3335 16.631C18.4667 16.8458 18.63 17.0521 18.7288 17.2841C18.9566 17.8256 19.266 17.9201 19.7215 17.5291C19.8848 17.3873 20.0824 17.2755 20.2672 17.1638C20.5422 16.9919 20.8215 16.7728 21.161 17.0263C21.436 17.2283 21.4704 17.5076 21.4231 17.8127ZM22.029 16.906C21.6681 16.8501 21.4016 16.6482 21.3802 16.2829C21.363 15.909 21.6251 15.6512 21.9861 15.6297C22.3599 15.6039 22.6177 15.8704 22.6392 16.2313C22.665 16.6052 22.3814 16.8029 22.029 16.906Z" fill="#515050"/>
</g>
</g>
</g>
</g>
</svg>
