<svg width="38" height="17" viewBox="0 0 38 17" fill="none" xmlns="http://www.w3.org/2000/svg">
<g clip-path="url(#clip0_2225_2100)">
<path d="M6.73744 17H5.47218C5.15635 17 4.84833 16.8778 4.61158 16.6479C4.23766 16.2843 3.77051 15.6228 3.77051 14.5873C3.77051 12.8615 6.40648 15.2767 6.73744 17Z" fill="#433C48"/>
<path d="M6.61102 17.0001C7.69074 17.0001 8.56603 15.8527 8.56603 14.4374C8.56603 13.0221 7.69074 11.8748 6.61102 11.8748C5.5313 11.8748 4.65601 13.0221 4.65601 14.4374C4.65601 15.8527 5.5313 17.0001 6.61102 17.0001Z" fill="#4E454F"/>
<path d="M6.75258 16.0466C7.43061 16.0466 7.98026 15.3262 7.98026 14.4375C7.98026 13.5488 7.43061 12.8284 6.75258 12.8284C6.07455 12.8284 5.5249 13.5488 5.5249 14.4375C5.5249 15.3262 6.07455 16.0466 6.75258 16.0466Z" fill="#7A7382"/>
<path d="M6.59003 15.9697C7.17829 15.9697 7.65516 15.3113 7.65516 14.4991C7.65516 13.687 7.17829 13.0286 6.59003 13.0286C6.00178 13.0286 5.5249 13.687 5.5249 14.4991C5.5249 15.3113 6.00178 15.9697 6.59003 15.9697Z" fill="#595266"/>
<path d="M8.06375 15.6566C8.09938 15.6566 8.13404 15.6322 8.15259 15.589C8.3044 15.2399 8.38494 14.8421 8.38494 14.4378C8.38494 13.1555 7.58927 12.1125 6.61103 12.1125C5.95301 12.1125 5.35211 12.5858 5.04312 13.3482C5.01676 13.4137 5.03579 13.4947 5.08558 13.5295C5.13537 13.5642 5.19737 13.5394 5.22373 13.4738C5.49709 12.7994 6.02868 12.3802 6.61054 12.3802C7.47602 12.3802 8.17992 13.303 8.17992 14.4373C8.17992 14.7949 8.10865 15.147 7.97442 15.4554C7.94659 15.52 7.96368 15.6014 8.01249 15.6382C8.0286 15.6501 8.04568 15.6561 8.06326 15.6561L8.06375 15.6566Z" fill="#5A4F5D"/>
<path d="M23.6492 17H22.3839C22.0681 17 21.7601 16.8778 21.5233 16.6479C21.1494 16.2843 20.6823 15.6228 20.6823 14.5873C20.6823 12.8615 23.3182 15.2767 23.6492 17Z" fill="#433C48"/>
<path d="M23.5233 17.0001C24.603 17.0001 25.4783 15.8527 25.4783 14.4374C25.4783 13.0221 24.603 11.8748 23.5233 11.8748C22.4435 11.8748 21.5682 13.0221 21.5682 14.4374C21.5682 15.8527 22.4435 17.0001 23.5233 17.0001Z" fill="#4E454F"/>
<path d="M23.6643 16.0466C24.3424 16.0466 24.892 15.3262 24.892 14.4375C24.892 13.5488 24.3424 12.8284 23.6643 12.8284C22.9863 12.8284 22.4366 13.5488 22.4366 14.4375C22.4366 15.3262 22.9863 16.0466 23.6643 16.0466Z" fill="#7A7382"/>
<path d="M23.5018 15.9697C24.09 15.9697 24.5669 15.3113 24.5669 14.4991C24.5669 13.687 24.09 13.0286 23.5018 13.0286C22.9135 13.0286 22.4366 13.687 22.4366 14.4991C22.4366 15.3113 22.9135 15.9697 23.5018 15.9697Z" fill="#595266"/>
<path d="M24.976 15.6566C25.0116 15.6566 25.0463 15.6322 25.0648 15.589C25.2166 15.2399 25.2972 14.8421 25.2972 14.4378C25.2972 13.1555 24.5015 12.1125 23.5233 12.1125C22.8652 12.1125 22.2643 12.5858 21.9553 13.3482C21.929 13.4137 21.948 13.4947 21.9978 13.5295C22.0476 13.5642 22.1096 13.5394 22.136 13.4738C22.4093 12.7994 22.9409 12.3802 23.5228 12.3802C24.3883 12.3802 25.0922 13.303 25.0922 14.4373C25.0922 14.7949 25.0209 15.147 24.8866 15.4554C24.8588 15.52 24.8759 15.6014 24.9247 15.6382C24.9408 15.6501 24.9579 15.6561 24.9755 15.6561L24.976 15.6566Z" fill="#5A4F5D"/>
<path d="M14.6419 17H13.2732C12.9315 17 12.5985 16.8778 12.3423 16.6479C11.9381 16.2843 11.4329 15.6228 11.4329 14.5873C11.4329 12.8615 14.2841 15.2767 14.6419 17Z" fill="#433C48"/>
<path d="M32.4377 17H31.0689C30.7272 17 30.3943 16.8778 30.138 16.6479C29.7339 16.2843 29.2286 15.6228 29.2286 14.5873C29.2286 12.8615 32.0799 15.2767 32.4377 17Z" fill="#433C48"/>
<path d="M22.7329 0.0153809L21.9138 1.30267L13.3981 14.6842H1.0691C0.852849 14.4542 0.662473 14.0782 0.504803 13.6228C0.35055 13.1768 0.226561 12.6539 0.141136 12.1165C0.0976914 11.8424 0.0630332 11.5643 0.0396024 11.2911C0.0234936 11.1054 0.0122663 10.9216 0.00592049 10.7428C-0.000913519 10.5387 -0.00140166 10.3395 0.00592049 10.1513C0.00738492 10.1046 0.00933749 10.0579 0.0117782 10.0128C0.0156834 9.94273 0.0205648 9.87469 0.0269106 9.80863C0.0542467 9.49873 0.104525 9.22657 0.179699 9.01401C0.231443 8.86899 0.294901 8.75178 0.372028 8.66934C0.635137 8.38625 0.987088 8.13247 1.39322 7.90501C2.56526 7.24696 2.94991 7.08655 4.63254 6.98573L8.76321 2.27956C8.96725 2.04068 9.21084 1.8455 9.48029 1.70147C9.81321 1.52268 10.1857 1.42137 10.5713 1.41094L12.9832 1.34538C13.0525 1.34439 13.1199 1.32999 13.1819 1.30416C13.3127 1.25053 13.4206 1.14623 13.4782 1.00916L13.6998 0.484706C13.8199 0.200628 14.0942 0.0168708 14.3978 0.0168708H22.7344L22.7329 0.0153809Z" fill="#30D0A7"/>
<path d="M22.7329 0.0153809L21.9138 1.30267H13.1804C13.3112 1.24904 13.4191 1.14474 13.4767 1.00767L13.6983 0.483216C13.8184 0.199138 14.0928 0.0153809 14.3964 0.0153809H22.7329Z" fill="#00C795"/>
<path d="M12.8001 1.116H18.6276V1.48898H19.1021V1.116H19.6576C19.7313 1.116 19.7913 1.0574 19.7913 0.985387V0.852784C19.7913 0.780275 19.7313 0.722168 19.6576 0.722168H11.0911C11.017 0.722168 10.9569 0.780772 10.9569 0.852784V0.985387C10.9569 1.0579 11.017 1.116 11.0911 1.116H11.6969V1.48898H12.1714V1.116H12.8001Z" fill="#00845E"/>
<path d="M19.1016 1.11597H18.6271V1.48894H19.1016V1.11597Z" fill="#9FA1B6"/>
<path d="M12.1709 1.11597H11.6964V1.48894H12.1709V1.11597Z" fill="#9FA1B6"/>
<path d="M11.4172 0.722115H18.4831L18.7882 0H11.8693L11.4172 0.722115Z" fill="#00FEBE"/>
<path d="M15.751 0.722115H18.4831L18.7882 0H16.1971L15.751 0.722115Z" fill="#00C795"/>
<path d="M19.5517 0.722115L19.1861 0H18.6867L18.3821 0.722115H19.5517Z" fill="#029369"/>
<path d="M11.4172 0.722115H13.6217L14.1352 0H11.8693L11.4172 0.722115Z" fill="#00C795"/>
<path d="M16.6174 1.69995V2.31628H8.729L8.76171 2.27854C8.96575 2.03965 9.20934 1.84447 9.47879 1.70045H16.6174V1.69995Z" fill="#F15B6A"/>
<path d="M10.501 7.90405V9.01355H0.178711C0.230454 8.86853 0.293913 8.75132 0.371039 8.66888C0.634149 8.38579 0.9861 8.13201 1.39224 7.90455H10.501V7.90405Z" fill="#F15B6A"/>
<path d="M37.6418 10.4001C37.6335 10.9499 37.5934 11.4575 37.5402 11.9054C37.3982 13.0954 37.159 13.8617 37.159 13.8617H6.69691C6.50068 13.303 6.261 12.3996 6.29322 11.2732C6.29322 11.2702 6.29322 11.2663 6.29322 11.2633C6.30981 10.711 6.3884 10.2208 6.48701 9.80814C6.55193 9.53598 8.31413 9.29759 8.38442 9.09595L8.47522 9.01351L8.80764 8.71255C9.15081 8.40215 9.52472 8.13098 9.92256 7.90402C10.4312 7.61398 9.29041 7.39496 9.86252 7.2559L12.4897 6.61623C12.8534 6.52733 13.1741 6.3098 13.3933 6.00238L16.0258 2.31632L16.1361 2.16136C16.2684 1.97612 16.432 1.82017 16.617 1.69999C16.9011 1.51474 17.2349 1.41243 17.581 1.41243H20.6925C20.8892 1.41243 21.0678 1.29572 21.1484 1.11345L21.186 1.02902C21.4608 0.4117 22.0656 0.0153809 22.7314 0.0153809H34.896C34.896 0.0153809 34.9057 0.0153809 34.9238 0.0163741C35.0375 0.0218372 35.4822 0.0680247 35.8747 0.433055C36.0958 0.638168 36.3004 0.944595 36.4195 1.4025C36.4409 1.48494 36.4624 1.58476 36.4849 1.70048C36.5176 1.87083 36.5522 2.07743 36.5884 2.31681C36.7709 3.50478 37.013 5.49581 37.4426 7.90451C37.4451 7.91792 37.447 7.93084 37.4494 7.94425C37.5144 8.30779 37.5607 8.66537 37.591 9.01401C37.6096 9.22309 37.6222 9.4287 37.6305 9.63034C37.6418 9.89455 37.6442 10.1523 37.6403 10.4006L37.6418 10.4001Z" fill="#30D0A7"/>
<path d="M12.2744 13.8616H6.69686C6.54504 13.7449 6.29609 13.5229 6.13159 13.1862C6.05202 13.0238 6.01053 12.8718 5.98954 12.7417C5.96855 12.6106 6.09839 12.4949 6.26436 12.4954C7.12886 12.4969 7.99336 12.4993 8.85787 12.4993C10.7196 12.4993 12.6005 12.844 12.6005 12.844L12.2739 13.8616H12.2744Z" fill="#00845E"/>
<path d="M37.9947 14.2705C37.9439 14.5118 37.7345 14.6837 37.4924 14.6837H7.09913C6.82919 14.6837 6.59244 14.5009 6.51922 14.2367L6.39132 13.7748C6.35032 13.6268 6.42989 13.4803 6.56022 13.4297C6.59195 13.4167 6.62661 13.4098 6.66273 13.4098H37.1858C37.1858 13.4098 37.3806 13.0001 37.4465 12.5615H37.6271C37.6872 12.5615 37.7399 12.6018 37.7565 12.6609C37.7565 12.6609 38.0435 13.6725 37.9947 14.2705Z" fill="#009175"/>
<path d="M35.8762 0.43255C35.4837 0.0680164 35.039 0.0218288 34.9253 0.0158691C35.2973 0.0228221 35.6336 0.180754 35.8762 0.43255Z" fill="#E7E6EF"/>
<path d="M9.85471 7.90405H15.7466L15.8154 9.01355H8.47571L8.78958 8.71258C9.11322 8.40218 9.47054 8.13102 9.85422 7.90405H9.85471Z" fill="#E04D4A"/>
<path d="M37.5924 9.01355H18.3137L18.2449 7.90405H37.4455C37.4455 7.90405 37.5817 8.61773 37.5924 9.01355Z" fill="#E04D4A"/>
<g style="mix-blend-mode:multiply">
<path d="M27.565 2.53736H21.9479C21.6672 2.53736 21.4222 2.71963 21.3387 2.99079L21.3236 3.04046C21.2201 2.74843 20.9438 2.53736 20.6241 2.53736H16.6213C16.2733 2.53736 15.9579 2.73055 15.7983 3.04145L14.227 6.10026C14.0893 6.36994 14.019 6.67338 14.0249 6.97981L14.1318 12.492H14.2226L14.1157 6.97981C14.1098 6.68927 14.1762 6.40023 14.3075 6.14446L15.8788 3.08516C16.0233 2.80406 16.3084 2.62924 16.6228 2.62924H20.6255C20.9546 2.62924 21.2308 2.88402 21.2704 3.20981C21.2728 3.22968 21.2743 3.25004 21.2753 3.2704L21.4632 12.942H14.9968L14.9987 13.0344H28.3895L28.1976 3.16859C28.1908 2.81995 27.9067 2.53687 27.5645 2.53687L27.565 2.53736ZM28.2972 12.9425H21.5545L21.367 3.27835C21.367 3.25898 21.3656 3.23961 21.3636 3.22074L21.4256 3.0196C21.4974 2.78618 21.7078 2.62924 21.9494 2.62924H27.5665C27.8584 2.62924 28.1015 2.8711 28.1073 3.16859L28.2972 12.942V12.9425Z" fill="#CCCCCC"/>
</g>
<path d="M36.5898 2.31628H16.0267L16.1371 2.16133C16.2693 1.97608 16.4329 1.82014 16.6179 1.69995H36.4863C36.519 1.8703 36.5536 2.0769 36.5898 2.31628Z" fill="#E04D4A"/>
<path d="M16.0175 3.50243L14.6145 6.35662C14.4842 6.62133 14.6804 6.93868 14.9738 6.93868H20.3356C20.6534 6.93868 20.9052 6.67646 20.8979 6.35314L20.8291 3.32413C20.8237 3.08624 20.6299 2.89404 20.3966 2.89404H16.9918C16.5769 2.89404 16.2015 3.12846 16.018 3.50243H16.0175Z" fill="black"/>
<path d="M27.173 6.93845H22.5542C22.2232 6.93845 21.9484 6.66529 21.9411 6.32857L21.8771 3.50319C21.8693 3.16646 22.1314 2.89331 22.4624 2.89331H27.0812C27.4122 2.89331 27.687 3.16646 27.6943 3.50319L27.7588 6.32857C27.7666 6.66529 27.5044 6.93845 27.1735 6.93845H27.173Z" fill="black"/>
<path d="M18.3587 2.84718L18.344 2.89336L18.3294 2.93955L17.0553 6.89182L17.0407 6.938L17.026 6.98419H15.0168L15.032 6.938L15.0466 6.89182L16.2035 3.3021L16.2362 3.20029L16.2655 3.1099C16.4642 2.94253 16.7185 2.84668 16.9904 2.84668H18.3587V2.84718Z" fill="#2C3B44"/>
<path d="M20.8746 3.32393L20.8756 3.37509L20.7907 3.6388L19.7421 6.8923L19.7275 6.93848L19.7128 6.98467H18.2196L18.2342 6.93848L18.2489 6.8923L19.5225 2.94003L19.5376 2.89384L19.5522 2.84766H20.3948C20.653 2.84766 20.8683 3.06171 20.8741 3.32443L20.8746 3.32393Z" fill="#2C3B44"/>
<path d="M25.1731 2.84717L25.1599 2.89336L25.1468 2.93954L24.0182 6.89181L24.005 6.93799L23.9918 6.98418H22.442C22.3609 6.98418 22.2838 6.96332 22.214 6.92707L22.2262 6.88386L22.2384 6.84016L23.3519 2.94004L23.365 2.89385L23.3782 2.84766H25.1726L25.1731 2.84717Z" fill="#2C3B44"/>
<path d="M27.7008 3.46104L27.7667 6.37135C27.7745 6.70957 27.5387 6.9847 27.2414 6.9847H26.356L26.3691 6.93852L26.3823 6.89233L27.4694 3.08558L27.4836 3.0379L27.4967 2.99072C27.6173 3.10346 27.6964 3.27281 27.7008 3.46104Z" fill="#2C3B44"/>
<path d="M20.3951 2.84717H16.9899C16.718 2.84717 16.4636 2.94302 16.265 3.11039C16.1463 3.20972 16.0477 3.33487 15.9765 3.48088L14.574 6.33557C14.5057 6.47413 14.5145 6.63703 14.597 6.77112C14.68 6.90522 14.8215 6.98518 14.9753 6.98518H20.3366C20.6792 6.98518 20.9511 6.70159 20.9433 6.35345L20.8745 3.32444C20.8686 3.06172 20.6534 2.84766 20.3951 2.84766V2.84717ZM20.8525 6.35246C20.8594 6.64994 20.6265 6.89181 20.3346 6.89181H14.9733C14.8513 6.89181 14.7395 6.82873 14.6736 6.72245C14.6082 6.61617 14.6014 6.48705 14.6556 6.37729L16.058 3.5231C16.098 3.44214 16.1468 3.36814 16.2035 3.30209C16.3982 3.07364 16.6828 2.93905 16.9923 2.93905H20.3976C20.6055 2.93905 20.7788 3.11138 20.7837 3.32295L20.8525 6.35196V6.35246Z" fill="#362E42"/>
<path d="M27.4855 2.9907C27.362 2.9013 27.2048 2.84717 27.0349 2.84717H22.5059C22.1222 2.84717 21.8157 3.1228 21.823 3.46102L21.8889 6.37133C21.8943 6.61717 22.0646 6.82973 22.3048 6.92757C22.3951 6.96432 22.4947 6.98468 22.5996 6.98468H27.1286C27.5128 6.98468 27.8194 6.70954 27.812 6.37133L27.7461 3.46102C27.7417 3.27229 27.6407 3.10343 27.4855 2.9907ZM27.7071 6.37133C27.7134 6.65839 27.4532 6.8923 27.1267 6.8923H22.5977C22.5049 6.8923 22.4166 6.87343 22.3375 6.84016C22.1388 6.75523 21.9987 6.57694 21.9939 6.37133L21.928 3.46102C21.9216 3.17346 22.1818 2.93954 22.5079 2.93954H27.0369C27.196 2.93954 27.3415 2.99517 27.4498 3.08506C27.565 3.17992 27.6378 3.31351 27.6412 3.46102L27.7071 6.37133Z" fill="#362E42"/>
<path d="M15.7339 6.93859H15.5524L15.4972 4.50704L15.6719 4.21948L15.7339 6.93859Z" fill="#362E42"/>
<path d="M15.8293 6.92154C15.8293 6.92154 15.577 7.02236 15.0273 6.97071C14.8482 6.95382 14.7603 6.89522 14.729 6.82022C14.6641 6.66428 14.8408 6.43582 14.9468 6.35189C15.1449 6.19396 15.7253 5.93521 15.8733 6.25008C15.8933 6.2918 15.9074 6.33352 15.9172 6.37474C15.9894 6.67123 15.8298 6.92154 15.8298 6.92154H15.8293Z" fill="#362E42"/>
<path d="M15.9165 6.374C15.462 6.39834 14.9987 6.64666 14.7283 6.81949C14.6634 6.66354 14.8401 6.43509 14.946 6.35116C15.1442 6.19323 15.7246 5.93448 15.8725 6.24935C15.8925 6.29106 15.9067 6.33278 15.9165 6.374Z" fill="#484057"/>
<path d="M15.1047 7.5042C15.091 7.5042 15.0778 7.50022 15.0656 7.49178C14.7249 7.25041 14.7791 6.87197 14.7815 6.85558C14.7874 6.81784 14.822 6.79201 14.8596 6.79797C14.8967 6.80393 14.9221 6.8392 14.9163 6.87694C14.9143 6.88985 14.8748 7.18734 15.1437 7.37805C15.1745 7.3999 15.1823 7.44311 15.1608 7.4744C15.1476 7.49377 15.1262 7.5042 15.1047 7.5042Z" fill="#362E42"/>
<path d="M33.1631 4.98913L34.0891 5.50465L33.7034 6.31963L32.7765 5.80362C32.7106 5.76687 32.6364 5.81306 32.6437 5.88656L32.7408 6.91709H31.8158L31.7187 5.88507C31.7118 5.81157 31.6293 5.76538 31.5703 5.80213L30.7414 6.31765L30.202 5.50266L31.0314 4.98665C31.0904 4.9499 31.0816 4.85802 31.0157 4.82127L30.0897 4.30576L30.4754 3.49077L31.4023 4.00678C31.4682 4.04353 31.5424 3.99734 31.5351 3.92384L31.438 2.89331H32.363L32.4601 3.92483C32.467 3.99834 32.5495 4.04452 32.6085 4.00777L33.4369 3.49276L33.9768 4.30774L33.1475 4.82375C33.0884 4.8605 33.0972 4.95238 33.1631 4.98913Z" fill="#009175"/>
<path d="M12.9949 8.21948H11.5935C11.518 8.21948 11.4568 8.28174 11.4568 8.35854V8.38188C11.4568 8.45868 11.518 8.52094 11.5935 8.52094H12.9949C13.0704 8.52094 13.1316 8.45868 13.1316 8.38188V8.35854C13.1316 8.28174 13.0704 8.21948 12.9949 8.21948Z" fill="#FFBD55"/>
<path d="M36.4644 8.21948H35.3075C35.2382 8.21948 35.182 8.27663 35.182 8.34712V8.39331C35.182 8.4638 35.2382 8.52094 35.3075 8.52094H36.4644C36.5336 8.52094 36.5898 8.4638 36.5898 8.39331V8.34712C36.5898 8.27663 36.5336 8.21948 36.4644 8.21948Z" fill="#FFBD55"/>
<path d="M24.1075 1.26902H22.7041C22.5171 1.26902 22.3404 1.11506 22.3097 0.92485L22.2774 0.72967C22.2462 0.539457 22.3726 0.385498 22.5591 0.385498H23.9625C24.1495 0.385498 24.3262 0.539457 24.3569 0.72967L24.3892 0.92485C24.4204 1.11506 24.294 1.26902 24.1075 1.26902Z" fill="#E04D4A"/>
<path d="M35.0351 1.26902H33.6317C33.4447 1.26902 33.268 1.11506 33.2373 0.92485L33.2051 0.72967C33.1738 0.539457 33.3002 0.385498 33.4867 0.385498H34.8901C35.0771 0.385498 35.2538 0.539457 35.2846 0.72967L35.3168 0.92485C35.348 1.11506 35.2216 1.26902 35.0351 1.26902Z" fill="#E04D4A"/>
<path d="M25.9673 1.26901H25.0291C24.8695 1.26901 24.7187 1.1374 24.6923 0.975498L24.644 0.679501C24.6176 0.517099 24.725 0.385986 24.8846 0.385986H25.8229C25.9825 0.385986 26.1333 0.517596 26.1597 0.679501L26.208 0.975498C26.2344 1.1379 26.127 1.26901 25.9673 1.26901Z" fill="#00C795"/>
<path d="M31.7567 1.26901H32.6949C32.8545 1.26901 32.9619 1.1374 32.9355 0.975498L32.8872 0.679501C32.8609 0.517099 32.71 0.385986 32.5504 0.385986H31.6122C31.4526 0.385986 31.3452 0.517596 31.3715 0.679501L31.4199 0.975498C31.4462 1.1379 31.5971 1.26901 31.7567 1.26901Z" fill="#00C795"/>
<path d="M21.038 8.30639V8.58153C21.038 8.62921 20.9994 8.66844 20.9521 8.66844H19.5292C19.4818 8.66844 19.4432 8.62921 19.4432 8.58153V8.30639C19.4432 8.25872 19.4818 8.21948 19.5292 8.21948H20.9521C20.9994 8.21948 21.038 8.25872 21.038 8.30639Z" fill="#DBD3E0"/>
<path d="M21.038 8.44336V8.58143C21.038 8.6291 20.9994 8.66834 20.9521 8.66834H19.5292C19.4818 8.66834 19.4432 8.6291 19.4432 8.58143V8.44336H21.0385H21.038Z" fill="#CAC0CF"/>
<path d="M28.079 8.30639V8.58153C28.079 8.62921 28.0405 8.66844 27.9931 8.66844H26.5702C26.5228 8.66844 26.4843 8.62921 26.4843 8.58153V8.30639C26.4843 8.25872 26.5228 8.21948 26.5702 8.21948H27.9931C28.0405 8.21948 28.079 8.25872 28.079 8.30639Z" fill="#DBD3E0"/>
<path d="M28.079 8.44336V8.58143C28.079 8.6291 28.0405 8.66834 27.9931 8.66834H26.5702C26.5228 8.66834 26.4843 8.6291 26.4843 8.58143V8.44336H28.0795H28.079Z" fill="#CAC0CF"/>
<path d="M37.6419 10.4002C37.6336 10.95 37.5936 11.4575 37.5404 11.9055C37.2993 11.8886 37.1084 11.6835 37.1084 11.4337V10.1027C37.1084 9.84145 37.3163 9.62988 37.5731 9.62988H37.6322C37.6434 9.8941 37.6458 10.1519 37.6419 10.4002Z" fill="#E04D4A"/>
<path d="M37.6417 10.4002H37.1077V10.1027C37.1077 9.84145 37.3156 9.62988 37.5724 9.62988H37.6314C37.6427 9.8941 37.6451 10.1519 37.6412 10.4002H37.6417Z" fill="#FFBD55"/>
<path d="M17.5371 8.48718L18.018 8.75636L17.812 9.18248L17.3307 8.9128C17.2965 8.89343 17.2574 8.91777 17.2609 8.95601L17.3058 9.49437H16.8225L16.7776 8.95551C16.7742 8.91727 16.7317 8.89294 16.7005 8.91231L16.2646 9.18149L15.9873 8.75537L16.4237 8.48569C16.4549 8.46632 16.4505 8.41865 16.4164 8.39928L15.9355 8.1301L16.1415 7.70398L16.6229 7.97366C16.657 7.99303 16.6961 7.96869 16.6927 7.93045L16.6477 7.39209H17.131L17.1759 7.93095C17.1793 7.96919 17.2218 7.99352 17.253 7.97415L17.689 7.70497L17.9662 8.13109L17.5298 8.40077C17.4986 8.42014 17.503 8.46781 17.5371 8.48718Z" fill="#E04D4A"/>
<path d="M21.8977 8.56326L21.885 8.76391H21.8152L21.8601 8.12622H21.9416L22.2535 8.76391H22.1813L22.0832 8.56326H21.8972H21.8977ZM22.0558 8.4992L21.966 8.31594C21.9455 8.27422 21.9299 8.23648 21.9143 8.19972H21.9128C21.9128 8.23747 21.9128 8.27621 21.9104 8.31494L21.8977 8.4992H22.0554H22.0558Z" fill="#ECEAF1"/>
<path d="M22.7495 8.4838C22.727 8.3949 22.7002 8.28813 22.6841 8.20866H22.6816C22.6792 8.28316 22.6743 8.36262 22.666 8.45102L22.6382 8.76043H22.5869L22.4385 8.45698C22.3951 8.36709 22.3565 8.28515 22.3263 8.20916H22.3248C22.3399 8.28862 22.3585 8.3954 22.3736 8.49076L22.4166 8.76391H22.3521L22.2555 8.12622H22.3419L22.4957 8.43463C22.5337 8.5131 22.5664 8.58313 22.5933 8.64918H22.5957C22.5957 8.58512 22.5996 8.51509 22.606 8.43463L22.6348 8.12622H22.7212L22.8871 8.76391H22.8213L22.7495 8.4838Z" fill="#ECEAF1"/>
<path d="M22.8988 8.1345C22.9266 8.12705 22.972 8.12109 23.0199 8.12109C23.0877 8.12109 23.1341 8.1355 23.1736 8.16728C23.2058 8.19211 23.2303 8.22986 23.2405 8.28002C23.2532 8.3416 23.2312 8.39524 23.181 8.42007V8.42206C23.2342 8.43696 23.303 8.48712 23.323 8.58198C23.3342 8.63661 23.3254 8.67832 23.3054 8.70961C23.2776 8.75034 23.2224 8.76921 23.1365 8.76921C23.0897 8.76921 23.0535 8.76524 23.0301 8.76176L22.8988 8.135V8.1345ZM23.0208 8.39524H23.0823C23.1541 8.39524 23.1863 8.35004 23.1736 8.28846C23.158 8.21397 23.1053 8.18466 23.0369 8.18466C23.0057 8.18466 22.9886 8.18764 22.9784 8.19013L23.0213 8.39524H23.0208ZM23.0848 8.70067C23.0985 8.70365 23.1185 8.70465 23.1424 8.70465C23.2122 8.70465 23.2703 8.67336 23.2512 8.58049C23.2332 8.49357 23.1639 8.45732 23.0902 8.45732H23.034L23.0848 8.70018V8.70067Z" fill="#ECEAF1"/>
<path d="M23.4245 8.12623L23.5036 8.50368C23.5334 8.64671 23.5983 8.7068 23.6681 8.7068C23.7457 8.7068 23.7824 8.64423 23.7531 8.50368L23.674 8.12623H23.7423L23.8199 8.49772C23.8609 8.69339 23.7931 8.77385 23.6794 8.77385C23.572 8.77385 23.4753 8.69935 23.4343 8.50119L23.3557 8.12573H23.4241L23.4245 8.12623Z" fill="#ECEAF1"/>
<path d="M23.899 8.12622H23.9669L24.086 8.69487H24.3101L24.3247 8.76391H24.0333L23.9 8.12622H23.899Z" fill="#ECEAF1"/>
<path d="M24.4809 8.56326L24.4682 8.76391H24.3984L24.4433 8.12622H24.5249L24.8368 8.76391H24.7645L24.6664 8.56326H24.4804H24.4809ZM24.6391 8.4992L24.5493 8.31594C24.5288 8.27422 24.5132 8.23648 24.4975 8.19972H24.4961C24.4961 8.23747 24.4961 8.27621 24.4936 8.31494L24.4809 8.4992H24.6386H24.6391Z" fill="#ECEAF1"/>
<path d="M24.9525 8.76342L24.8192 8.12573H24.8929L25.1282 8.44805C25.1829 8.52255 25.2273 8.59009 25.2654 8.65515L25.2668 8.65416C25.2429 8.56923 25.2249 8.49126 25.2044 8.39243L25.1487 8.12573H25.2127L25.3459 8.76342H25.2776L25.0438 8.44011C24.9925 8.36909 24.9422 8.29658 24.9012 8.22705L24.8993 8.22804C24.9198 8.3085 24.9373 8.38498 24.9598 8.49076L25.0169 8.76342H24.953H24.9525Z" fill="#ECEAF1"/>
<path d="M25.8649 8.74248C25.8429 8.75738 25.7965 8.77278 25.7326 8.77278C25.5847 8.77278 25.4499 8.65954 25.406 8.45046C25.3645 8.25081 25.447 8.11572 25.6096 8.11572C25.675 8.11572 25.7199 8.13261 25.7399 8.14403L25.7375 8.21108C25.7087 8.19568 25.6696 8.18476 25.6262 8.18476C25.5032 8.18476 25.4416 8.28011 25.4768 8.44748C25.5095 8.60342 25.6042 8.70374 25.7316 8.70374C25.7726 8.70374 25.8126 8.69332 25.8366 8.67742L25.8644 8.74248H25.8649Z" fill="#ECEAF1"/>
<path d="M26.2017 8.46493H25.9981L26.046 8.69487H26.273L26.2876 8.76391H25.9928L25.8595 8.12622H26.1426L26.1573 8.19525H25.942L25.984 8.39689H26.1875L26.2017 8.46493Z" fill="#ECEAF1"/>
<path d="M12.0786 14.4374C12.0786 14.5914 12.0889 14.7434 12.1069 14.8909H16.9039C16.9225 14.7439 16.9322 14.5919 16.9322 14.4379C16.9322 14.3128 16.9259 14.1891 16.9132 14.0679C16.8971 13.913 16.8712 13.762 16.8361 13.616C16.5427 12.3918 15.6103 11.4968 14.5057 11.4968C13.4005 11.4968 12.4682 12.3913 12.1748 13.6155C12.1396 13.7615 12.1138 13.9125 12.0977 14.0674C12.085 14.1886 12.0786 14.3118 12.0786 14.4374Z" fill="#542D43"/>
<path d="M14.5051 17.0001C15.673 17.0001 16.6198 15.8527 16.6198 14.4374C16.6198 13.0221 15.673 11.8748 14.5051 11.8748C13.3373 11.8748 12.3905 13.0221 12.3905 14.4374C12.3905 15.8527 13.3373 17.0001 14.5051 17.0001Z" fill="#4E454F"/>
<path d="M14.658 16.0466C15.3912 16.0466 15.9857 15.3262 15.9857 14.4375C15.9857 13.5488 15.3912 12.8284 14.658 12.8284C13.9247 12.8284 13.3302 13.5488 13.3302 14.4375C13.3302 15.3262 13.9247 16.0466 14.658 16.0466Z" fill="#7A7382"/>
<path d="M14.658 15.8051C15.2813 15.8051 15.7866 15.1927 15.7866 14.4373C15.7866 13.6819 15.2813 13.0696 14.658 13.0696C14.0347 13.0696 13.5294 13.6819 13.5294 14.4373C13.5294 15.1927 14.0347 15.8051 14.658 15.8051Z" fill="#595266"/>
<path d="M14.658 15.2902C15.0468 15.2902 15.3619 14.9084 15.3619 14.4374C15.3619 13.9665 15.0468 13.5847 14.658 13.5847C14.2693 13.5847 13.9541 13.9665 13.9541 14.4374C13.9541 14.9084 14.2693 15.2902 14.658 15.2902Z" fill="#30D0A7"/>
<path d="M16.0766 15.6566C16.1151 15.6566 16.1522 15.6322 16.1727 15.589C16.3372 15.2399 16.4241 14.8421 16.4241 14.4378C16.4241 13.1555 15.5635 12.1125 14.5052 12.1125C13.7935 12.1125 13.1438 12.5858 12.8094 13.3482C12.7806 13.4137 12.8011 13.4947 12.8553 13.5295C12.9095 13.5642 12.9764 13.5394 13.0052 13.4738C13.301 12.7994 13.876 12.3802 14.5057 12.3802C15.442 12.3802 16.2035 13.303 16.203 14.4373C16.203 14.7949 16.1264 15.147 15.9809 15.4554C15.9506 15.52 15.9692 15.6014 16.0219 15.6382C16.039 15.6501 16.058 15.6561 16.0766 15.6561V15.6566Z" fill="#5A4F5D"/>
<path d="M30.1151 14.4374C30.1151 14.5914 30.1254 14.7434 30.1434 14.8909H34.9404C34.959 14.7439 34.9687 14.5919 34.9687 14.4379C34.9687 14.3128 34.9624 14.1891 34.9497 14.0679C34.9336 13.913 34.9077 13.762 34.8726 13.616C34.5792 12.3918 33.6468 11.4968 32.5422 11.4968C31.437 11.4968 30.5047 12.3913 30.2113 13.6155C30.1761 13.7615 30.1503 13.9125 30.1342 14.0674C30.1215 14.1886 30.1151 14.3118 30.1151 14.4374Z" fill="#542D43"/>
<path d="M32.5416 17.0001C33.7095 17.0001 34.6563 15.8527 34.6563 14.4374C34.6563 13.0221 33.7095 11.8748 32.5416 11.8748C31.3738 11.8748 30.427 13.0221 30.427 14.4374C30.427 15.8527 31.3738 17.0001 32.5416 17.0001Z" fill="#4E454F"/>
<path d="M32.6949 16.0466C33.4282 16.0466 34.0227 15.3262 34.0227 14.4375C34.0227 13.5488 33.4282 12.8284 32.6949 12.8284C31.9616 12.8284 31.3672 13.5488 31.3672 14.4375C31.3672 15.3262 31.9616 16.0466 32.6949 16.0466Z" fill="#7A7382"/>
<path d="M32.695 15.8051C33.3183 15.8051 33.8236 15.1927 33.8236 14.4373C33.8236 13.6819 33.3183 13.0696 32.695 13.0696C32.0717 13.0696 31.5664 13.6819 31.5664 14.4373C31.5664 15.1927 32.0717 15.8051 32.695 15.8051Z" fill="#595266"/>
<path d="M32.695 15.2902C33.0837 15.2902 33.3989 14.9084 33.3989 14.4374C33.3989 13.9665 33.0837 13.5847 32.695 13.5847C32.3062 13.5847 31.9911 13.9665 31.9911 14.4374C31.9911 14.9084 32.3062 15.2902 32.695 15.2902Z" fill="#30D0A7"/>
<path d="M34.1129 15.6566C34.1515 15.6566 34.1886 15.6322 34.2091 15.589C34.3736 15.2399 34.4605 14.8421 34.4605 14.4378C34.4605 13.1555 33.5999 12.1125 32.5416 12.1125C31.8299 12.1125 31.1802 12.5858 30.8458 13.3482C30.817 13.4137 30.8375 13.4947 30.8917 13.5295C30.9459 13.5642 31.0127 13.5394 31.0415 13.4738C31.3374 12.7994 31.9119 12.3802 32.5421 12.3802C33.4784 12.3802 34.2399 13.303 34.2394 14.4373C34.2394 14.7949 34.1627 15.147 34.0173 15.4554C33.987 15.52 34.0056 15.6014 34.0583 15.6382C34.0754 15.6501 34.0944 15.6561 34.1129 15.6561V15.6566Z" fill="#5A4F5D"/>
<path d="M6.98191 12.4954V13.6744H0.363665C0.25725 13.4335 0.164991 13.1638 0.0903048 12.8813C0.0385616 12.6871 0.180611 12.4949 0.378798 12.4949H6.98191V12.4954Z" fill="#00845E"/>
<path d="M0.855808 14.6843H7.32468V13.4104H0.559505C0.355949 13.4104 0.196814 13.5897 0.217805 13.7958L0.251975 14.1305C0.284192 14.4454 0.544861 14.6843 0.855808 14.6843Z" fill="#00C795"/>
<path d="M9.2245 10.3484L9.19912 10.4537L9.17276 10.563C9.06732 11.001 8.79933 11.2911 8.50058 11.2911H7.23483C6.94292 11.2911 6.70373 11.0611 6.68323 10.7691C6.68176 10.7557 6.68127 10.7418 6.68127 10.7279V10.3713C6.68127 10.0609 6.92876 9.80811 7.23483 9.80811H8.98629C9.16446 9.80811 9.28747 10.0872 9.2245 10.3484Z" fill="#47DBB3"/>
<path d="M9.22475 10.3484L9.19936 10.4537C8.48081 10.7284 7.40397 10.7741 6.68396 10.7691C6.68249 10.7557 6.68201 10.7418 6.68201 10.7279V10.3713C6.68201 10.0609 6.9295 9.80811 7.23556 9.80811H8.98702C9.16519 9.80811 9.2882 10.0872 9.22523 10.3484H9.22475Z" fill="#5BE3C9"/>
<path d="M8.6377 10.1508H7.00486C6.96728 10.1508 6.93652 10.1195 6.93652 10.0812C6.93652 10.043 6.96728 10.0117 7.00486 10.0117H8.6377C8.67529 10.0117 8.70604 10.043 8.70604 10.0812C8.70604 10.1195 8.67578 10.1508 8.6377 10.1508Z" fill="#6CF5D1"/>
<path d="M0.946572 10.3708V10.7274C0.946572 10.7413 0.946572 10.7552 0.94462 10.7686C0.924118 11.0601 0.685416 11.2906 0.393018 11.2906H0.0391141C0.0230054 11.1048 0.0117781 10.9211 0.00543221 10.7423C-0.0014018 10.5382 -0.00188994 10.339 0.00543221 10.1508C0.00689664 10.1041 0.00884921 10.0574 0.0112899 10.0122C0.0151951 9.9422 0.0200765 9.87416 0.0264224 9.80811H0.393994C0.699572 9.80811 0.947549 10.0604 0.947549 10.3713L0.946572 10.3708Z" fill="#9DFCE1"/>
<path d="M0.946572 10.3708V10.7274C0.946572 10.7413 0.946572 10.7552 0.94462 10.7686C0.670283 10.7706 0.343715 10.7651 0.00494392 10.7423C-0.00189008 10.5382 -0.00237822 10.339 0.00494392 10.1508C0.00640835 10.1041 0.00836093 10.0574 0.0108016 10.0122C0.0147068 9.9422 0.0195882 9.87416 0.0259341 9.80811H0.393506C0.699084 9.80811 0.94706 10.0604 0.94706 10.3713L0.946572 10.3708Z" fill="#5BE3C9"/>
<path d="M0.691212 10.0817C0.691212 10.12 0.660947 10.1513 0.622872 10.1513H0.00488281C0.00634724 10.1046 0.00829982 10.0579 0.0107405 10.0127H0.62336C0.660947 10.0127 0.6917 10.0435 0.6917 10.0822L0.691212 10.0817Z" fill="#DAE7F5"/>
<path d="M6.35034 10.3361V10.9301C6.35034 10.953 6.34937 10.9753 6.34742 10.9977C6.34205 11.0727 6.32691 11.1452 6.30348 11.2137C6.28737 11.2619 6.26687 11.3081 6.24246 11.3518C6.19853 11.4327 6.14142 11.5057 6.07503 11.5678C5.92322 11.7108 5.72064 11.7977 5.49805 11.7977H2.02881C1.80622 11.7977 1.60364 11.7108 1.45183 11.5678C1.38495 11.5057 1.32833 11.4327 1.28439 11.3518C1.26047 11.3081 1.23997 11.2619 1.22338 11.2137C1.19994 11.1452 1.18481 11.0727 1.17944 10.9977C1.17749 10.9753 1.17651 10.953 1.17651 10.9301V10.3361C1.17651 10.3202 1.17651 10.3048 1.17749 10.289C1.18042 10.2418 1.18676 10.1951 1.19653 10.1504C1.21264 10.0739 1.239 10.0014 1.27365 9.93435C1.29757 9.88717 1.32589 9.84248 1.35859 9.80076C1.42498 9.71434 1.50747 9.64084 1.60169 9.58522C1.72714 9.51122 1.87309 9.46851 2.02881 9.46851H5.49805C5.65376 9.46851 5.79972 9.51122 5.92517 9.58522C6.01938 9.64084 6.10188 9.71434 6.16827 9.80076C6.20097 9.84248 6.22928 9.88717 6.2532 9.93435C6.28835 10.0014 6.31471 10.0739 6.33033 10.1504C6.34009 10.1951 6.34693 10.2418 6.34937 10.289C6.34937 10.3048 6.35034 10.3202 6.35034 10.3361Z" fill="#00845E"/>
<path d="M14.7919 3.40066L13.0248 6.54291C12.8398 6.93873 12.4966 6.98491 12.2936 6.98491H6.08634C5.79101 6.98491 5.63627 6.60846 5.83495 6.37454L8.3152 3.45579L8.73061 2.96709C8.79456 2.89111 8.88584 2.8479 8.982 2.8479H14.5005C14.765 2.8479 14.9286 3.1583 14.7919 3.40116V3.40066Z" fill="black"/>
<path d="M10.9979 2.84717L9.0014 6.98468H6.61243L8.31507 3.45506L8.73048 2.96636C8.79443 2.89038 8.88571 2.84717 8.98187 2.84717H10.9979Z" fill="#2C3B44"/>
<path d="M14.1455 2.84717L12.149 6.98468H10.5684L12.5649 2.84717H14.1455Z" fill="#2C3B44"/>
<path d="M14.515 2.94004C14.6028 2.94004 14.6653 2.98672 14.7117 3.06817C14.7629 3.15806 14.7629 3.26484 14.7127 3.35473L12.9456 6.49698L12.9436 6.49996L12.9422 6.50294C12.8196 6.76467 12.6073 6.89181 12.2934 6.89181H6.08619C5.98905 6.89181 5.90558 6.83519 5.86262 6.73984C5.82601 6.65839 5.81771 6.53522 5.90362 6.43391L8.38388 3.51515L8.79929 3.02646C8.84615 2.97133 8.91254 2.93954 8.98185 2.93954H14.515V2.94004ZM14.5003 2.84766H8.98185C8.88618 2.84766 8.7949 2.89137 8.73046 2.96686L8.31505 3.45555L5.8348 6.37431C5.63563 6.60872 5.79086 6.98468 6.08619 6.98468H12.2934C12.496 6.98468 12.8397 6.93849 13.0247 6.54267L14.7917 3.40043C14.9284 3.15707 14.7649 2.84717 14.5003 2.84717V2.84766Z" fill="#362E42"/>
<path d="M6.16832 9.80075H1.35913C1.42552 9.71433 1.50801 9.64083 1.60223 9.58521H5.92571C6.01992 9.64083 6.10242 9.71433 6.16881 9.80075H6.16832Z" fill="#00C795"/>
<path d="M6.33034 10.1499H1.19653C1.21264 10.0734 1.239 10.0009 1.27366 9.93384H6.25321C6.28836 10.0009 6.31471 10.0734 6.33034 10.1499Z" fill="#00C795"/>
<path d="M6.35034 10.3362V10.5051H1.17651V10.3362C1.17651 10.3204 1.17651 10.305 1.17749 10.2891H6.34937C6.34937 10.305 6.35034 10.3204 6.35034 10.3362Z" fill="#00C795"/>
<path d="M6.35034 10.6431H1.17651V10.8591H6.35034V10.6431Z" fill="#00C795"/>
<path d="M6.3479 10.9971C6.34253 11.0721 6.3274 11.1446 6.30397 11.2131H1.22338C1.19995 11.1446 1.18481 11.0721 1.17944 10.9971H6.3479Z" fill="#00C795"/>
<path d="M6.24298 11.3513C6.19905 11.4323 6.14194 11.5053 6.07555 11.5674H1.45186C1.38498 11.5053 1.32836 11.4323 1.28442 11.3513H6.24298Z" fill="#00C795"/>
</g>
<defs>
<clipPath id="clip0_2225_2100">
<rect width="38" height="17" fill="white"/>
</clipPath>
</defs>
</svg>
