<svg width="47" height="16" viewBox="0 0 47 16" fill="none" xmlns="http://www.w3.org/2000/svg">
<g clip-path="url(#clip0_2226_3787)">
<path d="M17.2407 5.94476H10.885V2.68725C10.885 2.09475 11.6756 1.61133 12.2447 1.61133H16.2072C16.7764 1.61133 17.2407 2.09475 17.2407 2.68725V5.94476ZM11.4184 5.72661H16.6526V2.68725C16.6526 2.21375 16.6597 1.82949 16.2049 1.82949H12.2424C11.7875 1.82949 11.4184 2.21375 11.4184 2.68725V5.72661Z" fill="#414042"/>
<path d="M16.8383 5.94476H10.8088V2.68725C10.8088 2.09475 11.2732 1.61133 11.8423 1.61133H15.8048C16.374 1.61133 16.8383 2.09475 16.8383 2.68725V5.94476ZM11.016 5.72661H16.6288V2.68725C16.6288 2.21375 16.2597 1.82949 15.8048 1.82949H11.8423C11.3875 1.82949 11.0184 2.21375 11.0184 2.68725V5.72661H11.016Z" fill="#58595B"/>
<path d="M15.6286 0C15.9358 0 16.1859 0.260304 16.1859 0.580105V1.25689H15.0714V0.580105C15.0714 0.260304 15.3214 0 15.6286 0Z" fill="#F7941D"/>
<g style="mix-blend-mode:multiply">
<path d="M15.6287 1.13552C15.872 1.13552 16.0692 0.930187 16.0692 0.676892C16.0692 0.423597 15.872 0.218262 15.6287 0.218262C15.3853 0.218262 15.1881 0.423597 15.1881 0.676892C15.1881 0.930187 15.3853 1.13552 15.6287 1.13552Z" fill="#D1D3D4"/>
</g>
<g style="mix-blend-mode:multiply">
<path d="M16.0131 0.81314C16.0365 0.663127 15.9387 0.521777 15.7946 0.497426C15.6505 0.473076 15.5147 0.574946 15.4913 0.724959C15.4679 0.874972 15.5658 1.01632 15.7099 1.04067C15.854 1.06502 15.9898 0.963153 16.0131 0.81314Z" fill="#D1D3D4"/>
</g>
<path d="M15.6287 0.493511C15.6287 0.595153 15.5501 0.676963 15.4525 0.676963C15.3548 0.676963 15.2762 0.595153 15.2762 0.493511C15.2762 0.391868 15.3548 0.310059 15.4525 0.310059C15.5501 0.310059 15.6287 0.391868 15.6287 0.493511Z" fill="white"/>
<path d="M16.2669 1.25684H14.9905V1.60391H16.2669V1.25684Z" fill="#414042"/>
<path d="M16.2644 1.25684H15.2738V1.60391H16.2644V1.25684Z" fill="#231F20"/>
<path d="M16.2668 1.25684H15.7524V1.60391H16.2668V1.25684Z" fill="black"/>
<path d="M12.5185 0C12.8257 0 13.0758 0.260304 13.0758 0.580105V1.25689H11.9613V0.580105C11.9613 0.260304 12.209 0 12.5185 0Z" fill="#F7941D"/>
<g style="mix-blend-mode:multiply">
<path d="M12.5185 1.13552C12.7619 1.13552 12.9591 0.930187 12.9591 0.676892C12.9591 0.423597 12.7619 0.218262 12.5185 0.218262C12.2752 0.218262 12.078 0.423597 12.078 0.676892C12.078 0.930187 12.2752 1.13552 12.5185 1.13552Z" fill="#D1D3D4"/>
</g>
<g style="mix-blend-mode:multiply">
<path d="M12.6424 1.04376C12.7884 1.04376 12.9067 0.920563 12.9067 0.768586C12.9067 0.61661 12.7884 0.493408 12.6424 0.493408C12.4964 0.493408 12.3781 0.61661 12.3781 0.768586C12.3781 0.920563 12.4964 1.04376 12.6424 1.04376Z" fill="#D1D3D4"/>
</g>
<path d="M12.5186 0.493511C12.5186 0.595153 12.44 0.676963 12.3424 0.676963C12.2447 0.676963 12.1661 0.595153 12.1661 0.493511C12.1661 0.391868 12.2447 0.310059 12.3424 0.310059C12.44 0.310059 12.5186 0.391868 12.5186 0.493511Z" fill="white"/>
<path d="M13.1568 1.25684H11.8804V1.60391H13.1568V1.25684Z" fill="#414042"/>
<path d="M13.1543 1.25684H12.1637V1.60391H13.1543V1.25684Z" fill="#231F20"/>
<path d="M13.1567 1.25684H12.6423V1.60391H13.1567V1.25684Z" fill="black"/>
<path d="M18.1004 4.37305H13.2449V10.3501H18.1004V4.37305Z" fill="black"/>
<mask id="mask0_2226_3787" style="mask-type:luminance" maskUnits="userSpaceOnUse" x="25" y="11" width="4" height="5">
<path d="M28.0923 15.9999H26.9921C25.942 15.9999 25.0895 14.9761 25.0895 13.7117C25.0895 12.4474 25.942 11.426 26.9921 11.426H28.0923C27.0422 11.426 26.1896 12.4499 26.1896 13.7117C26.1896 14.9736 27.0422 15.9999 28.0923 15.9999Z" fill="white"/>
</mask>
<g mask="url(#mask0_2226_3787)">
<path d="M26.1896 13.7118C26.1896 13.5878 26.1992 13.4688 26.2135 13.3499H25.1133C25.0966 13.4688 25.0895 13.5878 25.0895 13.7118C25.0895 14.9761 25.942 16 26.9921 16H28.0923C27.0422 16 26.1896 14.9761 26.1896 13.7118Z" fill="#231F20"/>
<path d="M25.5444 12.2292C25.4039 12.4276 25.2896 12.6556 25.2134 12.9036C25.1681 13.0449 25.1348 13.1961 25.1157 13.3498H26.2159C26.2373 13.1961 26.2683 13.0449 26.3135 12.9036C26.3921 12.6556 26.504 12.4276 26.6445 12.2292H25.5444Z" fill="black"/>
<path d="M25.911 11.8301C25.7753 11.9441 25.6515 12.078 25.5443 12.2292H26.6445C26.7516 12.078 26.8755 11.9441 27.0112 11.8301H25.911Z" fill="black"/>
<path d="M28.0923 11.426H26.9921C26.5897 11.426 26.2182 11.5748 25.911 11.8301H27.0112C27.3184 11.5748 27.6899 11.426 28.0923 11.426Z" fill="black"/>
</g>
<path d="M28.0494 11.426C29.1234 11.426 29.9949 12.4499 29.9949 13.7117C29.9949 14.9736 29.1234 15.9999 28.0494 15.9999C26.9754 15.9999 26.1039 14.9761 26.1039 13.7117C26.1039 12.4474 26.9754 11.426 28.0494 11.426Z" fill="#939598"/>
<path d="M28.0924 11.426C29.1425 11.426 29.995 12.4499 29.995 13.7117C29.995 14.9736 29.1425 15.9999 28.0924 15.9999C27.0422 15.9999 26.1897 14.9761 26.1897 13.7117C26.1897 12.4474 27.0422 11.426 28.0924 11.426Z" fill="#414042"/>
<mask id="mask1_2226_3787" style="mask-type:luminance" maskUnits="userSpaceOnUse" x="26" y="11" width="4" height="5">
<path d="M29.2639 15.9999H28.1638C27.1136 15.9999 26.2611 14.9761 26.2611 13.7117C26.2611 12.4474 27.1136 11.426 28.1638 11.426H29.2639C28.2138 11.426 27.3613 12.4499 27.3613 13.7117C27.3613 14.9736 28.2138 15.9999 29.2639 15.9999Z" fill="white"/>
</mask>
<g mask="url(#mask1_2226_3787)">
<path d="M27.3613 13.7118C27.3613 13.5878 27.3708 13.4688 27.3851 13.3499H26.2849C26.2683 13.4688 26.2611 13.5878 26.2611 13.7118C26.2611 14.9761 27.1136 16 28.1638 16H29.2639C28.2138 16 27.3613 14.9761 27.3613 13.7118Z" fill="#231F20"/>
<path d="M26.716 12.2292C26.5755 12.4276 26.4612 12.6556 26.385 12.9036C26.3397 13.0449 26.3064 13.1961 26.2874 13.3498H27.3875C27.409 13.1961 27.4399 13.0449 27.4852 12.9036C27.5637 12.6556 27.6757 12.4276 27.8162 12.2292H26.716Z" fill="black"/>
<path d="M27.0827 11.8301C26.9469 11.9441 26.8231 12.078 26.7159 12.2292H27.8161C27.9233 12.078 28.0471 11.9441 28.1828 11.8301H27.0827Z" fill="black"/>
<path d="M29.2639 11.426H28.1638C27.7613 11.426 27.3898 11.5748 27.0826 11.8301H28.1828C28.49 11.5748 28.8615 11.426 29.2639 11.426Z" fill="black"/>
</g>
<path d="M29.221 11.426C30.295 11.426 31.1666 12.4499 31.1666 13.7117C31.1666 14.9736 30.295 15.9999 29.221 15.9999C28.1471 15.9999 27.2755 14.9761 27.2755 13.7117C27.2755 12.4474 28.1471 11.426 29.221 11.426Z" fill="#939598"/>
<path d="M29.264 11.426C30.3142 11.426 31.1667 12.4499 31.1667 13.7117C31.1667 14.9736 30.3142 15.9999 29.264 15.9999C28.2138 15.9999 27.3613 14.9761 27.3613 13.7117C27.3613 12.4474 28.2138 11.426 29.264 11.426Z" fill="black"/>
<path d="M35.2625 9.34106H1.79077V14.0364H35.2625V9.34106Z" fill="black"/>
<mask id="mask2_2226_3787" style="mask-type:luminance" maskUnits="userSpaceOnUse" x="4" y="11" width="4" height="5">
<path d="M7.49881 15.9999H6.39864C5.34848 15.9999 4.49597 14.9761 4.49597 13.7117C4.49597 12.4474 5.34848 11.426 6.39864 11.426H7.49881C6.44865 11.426 5.59614 12.4499 5.59614 13.7117C5.59614 14.9736 6.44865 15.9999 7.49881 15.9999Z" fill="white"/>
</mask>
<g mask="url(#mask2_2226_3787)">
<path d="M5.59614 13.7118C5.59614 13.5878 5.60566 13.4688 5.61995 13.3499H4.51978C4.50312 13.4688 4.49597 13.5878 4.49597 13.7118C4.49597 14.9761 5.34848 16 6.39864 16H7.49881C6.44865 16 5.59614 14.9761 5.59614 13.7118Z" fill="#231F20"/>
<path d="M4.95085 12.2292C4.81036 12.4276 4.69605 12.6556 4.61985 12.9036C4.57461 13.0449 4.54127 13.1961 4.52222 13.3498H5.62238C5.64382 13.1961 5.67477 13.0449 5.72002 12.9036C5.7986 12.6556 5.91052 12.4276 6.05102 12.2292H4.95085Z" fill="#231F20"/>
<path d="M5.31753 11.8301C5.18179 11.9441 5.05796 12.078 4.95081 12.2292H6.05097C6.15813 12.078 6.28196 11.9441 6.4177 11.8301H5.31753Z" fill="#231F20"/>
<path d="M7.49879 11.426H6.39862C5.99618 11.426 5.62469 11.5748 5.3175 11.8301H6.41767C6.72486 11.5748 7.09635 11.426 7.49879 11.426Z" fill="#231F20"/>
</g>
<path d="M7.45591 11.426C8.52988 11.426 9.40144 12.4499 9.40144 13.7117C9.40144 14.9736 8.52988 15.9999 7.45591 15.9999C6.38194 15.9999 5.51038 14.9761 5.51038 13.7117C5.51038 12.4474 6.38194 11.426 7.45591 11.426Z" fill="#414042"/>
<path d="M7.49886 11.426C8.54902 11.426 9.40153 12.4499 9.40153 13.7117C9.40153 14.9736 8.54902 15.9999 7.49886 15.9999C6.4487 15.9999 5.59619 14.9761 5.59619 13.7117C5.59619 12.4474 6.4487 11.426 7.49886 11.426Z" fill="black"/>
<mask id="mask3_2226_3787" style="mask-type:luminance" maskUnits="userSpaceOnUse" x="11" y="11" width="4" height="5">
<path d="M14.1521 15.9999H13.052C12.0018 15.9999 11.1493 14.9761 11.1493 13.7117C11.1493 12.4474 12.0018 11.426 13.052 11.426H14.1521C13.102 11.426 12.2495 12.4499 12.2495 13.7117C12.2495 14.9736 13.102 15.9999 14.1521 15.9999Z" fill="white"/>
</mask>
<g mask="url(#mask3_2226_3787)">
<path d="M12.2495 13.7118C12.2495 13.5878 12.259 13.4688 12.2733 13.3499H11.1731C11.1564 13.4688 11.1493 13.5878 11.1493 13.7118C11.1493 14.9761 12.0018 16 13.052 16H14.1521C13.102 16 12.2495 14.9761 12.2495 13.7118Z" fill="black"/>
<path d="M11.6042 12.2292C11.4637 12.4276 11.3494 12.6556 11.2732 12.9036C11.2279 13.0449 11.1946 13.1961 11.1755 13.3498H12.2757C12.2971 13.1961 12.3281 13.0449 12.3733 12.9036C12.4519 12.6556 12.5638 12.4276 12.7043 12.2292H11.6042Z" fill="black"/>
<path d="M11.9708 11.8301C11.8351 11.9441 11.7113 12.078 11.6041 12.2292H12.7043C12.8115 12.078 12.9353 11.9441 13.071 11.8301H11.9708Z" fill="black"/>
<path d="M14.1521 11.426H13.0519C12.6495 11.426 12.278 11.5748 11.9708 11.8301H13.071C13.3782 11.5748 13.7497 11.426 14.1521 11.426Z" fill="black"/>
</g>
<path d="M14.1092 11.426C15.1832 11.426 16.0548 12.4499 16.0548 13.7117C16.0548 14.9736 15.1832 15.9999 14.1092 15.9999C13.0353 15.9999 12.1637 14.9761 12.1637 13.7117C12.1637 12.4474 13.0353 11.426 14.1092 11.426Z" fill="#939598"/>
<path d="M14.1522 11.426C15.2023 11.426 16.0549 12.4499 16.0549 13.7117C16.0549 14.9736 15.2023 15.9999 14.1522 15.9999C13.102 15.9999 12.2495 14.9761 12.2495 13.7117C12.2495 12.4474 13.102 11.426 14.1522 11.426Z" fill="#414042"/>
<path d="M14.1521 12.1721C14.8594 12.1721 15.4333 12.8613 15.4333 13.7141C15.4333 14.5669 14.8594 15.2561 14.1521 15.2561C13.4449 15.2561 12.871 14.5669 12.871 13.7141C12.871 12.8613 13.4449 12.1721 14.1521 12.1721Z" fill="#231F20"/>
<path d="M14.1521 12.3037C14.7998 12.3037 15.3237 12.9334 15.3237 13.7118C15.3237 14.4903 14.7998 15.1199 14.1521 15.1199C13.5044 15.1199 12.9805 14.4903 12.9805 13.7118C12.9805 12.9334 13.5044 12.3037 14.1521 12.3037Z" fill="#D1D3D4"/>
<path d="M14.1521 12.4722C14.7212 12.4722 15.1832 13.0275 15.1832 13.7117C15.1832 14.3959 14.7212 14.9513 14.1521 14.9513C13.5829 14.9513 13.121 14.3959 13.121 13.7117C13.121 13.0275 13.5829 12.4722 14.1521 12.4722Z" fill="#939598"/>
<path d="M14.1521 14.9513C14.7215 14.9513 15.1832 14.3963 15.1832 13.7117C15.1832 13.0271 14.7215 12.4722 14.1521 12.4722C13.5826 12.4722 13.121 13.0271 13.121 13.7117C13.121 14.3963 13.5826 14.9513 14.1521 14.9513Z" fill="#E6E7E8"/>
<g style="mix-blend-mode:multiply">
<path d="M14.1521 13.8283C14.5307 13.8283 14.8831 13.7539 15.1784 13.625C15.1784 13.6547 15.1832 13.6845 15.1832 13.7142C15.1832 14.3985 14.7212 14.9538 14.1521 14.9538C13.5829 14.9538 13.121 14.3985 13.121 13.7142C13.121 13.6845 13.121 13.6547 13.1257 13.625C13.421 13.7539 13.7735 13.8283 14.1521 13.8283Z" fill="#BCBEC0"/>
</g>
<path d="M13.3401 13.9523C13.2806 13.9945 13.2901 14.1556 13.3615 14.3118C13.433 14.468 13.5401 14.5572 13.5997 14.5151C13.6592 14.4729 13.6497 14.3118 13.5782 14.1556C13.5068 13.9994 13.3996 13.9102 13.3401 13.9523Z" fill="black"/>
<path d="M15.0903 13.4539C15.126 13.4044 15.0975 13.2457 15.0213 13.1019C14.9474 12.9556 14.857 12.8788 14.8189 12.9284C14.7831 12.978 14.8117 13.1366 14.8879 13.2804C14.9617 13.4267 15.0522 13.5035 15.0903 13.4539Z" fill="black"/>
<path d="M13.3615 13.1143C13.2901 13.2705 13.2806 13.4317 13.3401 13.4738C13.3996 13.516 13.5068 13.4267 13.5782 13.2705C13.6497 13.1143 13.6592 12.9532 13.5997 12.9111C13.5401 12.8689 13.433 12.9582 13.3615 13.1143Z" fill="black"/>
<path d="M14.1902 14.5994C14.0473 14.5994 13.9307 14.6688 13.9307 14.7555C13.9307 14.8423 14.0473 14.9117 14.1902 14.9117C14.3331 14.9117 14.4498 14.8423 14.4498 14.7555C14.4498 14.6688 14.3331 14.5994 14.1902 14.5994Z" fill="black"/>
<path d="M14.8641 14.1457C14.7927 14.2944 14.7689 14.4531 14.807 14.5002C14.8451 14.5498 14.9332 14.468 15.0046 14.3217C15.0761 14.173 15.0999 14.0143 15.0618 13.9672C15.0237 13.9201 14.9356 13.9994 14.8641 14.1457Z" fill="black"/>
<path d="M14.1902 12.5144C14.0473 12.5144 13.9307 12.5838 13.9307 12.6706C13.9307 12.7574 14.0473 12.8268 14.1902 12.8268C14.3331 12.8268 14.4498 12.7574 14.4498 12.6706C14.4498 12.5838 14.3331 12.5144 14.1902 12.5144Z" fill="black"/>
<g style="mix-blend-mode:multiply">
<path d="M14.2141 13.1814C14.457 13.1814 14.6546 13.4194 14.6546 13.7119C14.6546 14.0045 14.457 14.6168 14.2141 14.6168C13.9712 14.6168 13.7736 14.0045 13.7736 13.7119C13.7736 13.4194 13.9712 13.1814 14.2141 13.1814Z" fill="#939598"/>
</g>
<mask id="mask4_2226_3787" style="mask-type:luminance" maskUnits="userSpaceOnUse" x="13" y="13" width="2" height="2">
<path d="M14.3451 14.2454H14.2141C13.9712 14.2454 13.7736 14.0074 13.7736 13.7148C13.7736 13.4223 13.9712 13.1843 14.2141 13.1843H14.3451C14.1022 13.1843 13.9045 13.4223 13.9045 13.7148C13.9045 14.0074 14.1022 14.2454 14.3451 14.2454Z" fill="white"/>
</mask>
<g mask="url(#mask4_2226_3787)">
<path d="M14.3451 14.2448H14.2141C13.9712 14.2448 13.7736 14.0068 13.7736 13.7143C13.7736 13.6474 13.7831 13.5854 13.8021 13.5259H13.9331C13.9141 13.5854 13.9045 13.6474 13.9045 13.7143C13.9045 14.0068 14.1022 14.2448 14.3451 14.2448Z" fill="#231F20"/>
<path d="M13.9331 13.5261H13.8021C13.8212 13.469 13.8474 13.4145 13.8783 13.3699H14.0093C13.976 13.417 13.9498 13.469 13.9331 13.5261Z" fill="#BCBEC0"/>
<path d="M14.0093 13.3673H13.8783C13.9593 13.2533 14.0807 13.1814 14.2141 13.1814H14.345C14.2093 13.1814 14.0902 13.2533 14.0093 13.3673Z" fill="#F1F2F2"/>
</g>
<path d="M14.3451 13.1814C14.588 13.1814 14.7856 13.4194 14.7856 13.7119C14.7856 14.0045 14.588 14.2424 14.3451 14.2424C14.1022 14.2424 13.9045 14.0045 13.9045 13.7119C13.9045 13.4194 14.1022 13.1814 14.3451 13.1814Z" fill="white"/>
<path d="M34.6362 10.2188H32.293C30.8023 10.2188 29.5759 11.5649 29.4069 13.3002H32.0906C32.2049 12.2789 32.7312 11.4161 33.4646 10.965C34.1981 11.4161 34.7243 12.2789 34.8386 13.3002H37.5224C37.3533 11.5649 36.1269 10.2188 34.6362 10.2188Z" fill="#58595B"/>
<mask id="mask5_2226_3787" style="mask-type:luminance" maskUnits="userSpaceOnUse" x="30" y="11" width="4" height="5">
<path d="M33.5766 15.9999H32.4764C31.4262 15.9999 30.5737 14.9761 30.5737 13.7117C30.5737 12.4474 31.4262 11.426 32.4764 11.426H33.5766C32.5264 11.426 31.6739 12.4499 31.6739 13.7117C31.6739 14.9736 32.5264 15.9999 33.5766 15.9999Z" fill="white"/>
</mask>
<g mask="url(#mask5_2226_3787)">
<path d="M31.6739 13.7118C31.6739 13.5878 31.6834 13.4688 31.6977 13.3499H30.5975C30.5809 13.4688 30.5737 13.5878 30.5737 13.7118C30.5737 14.9761 31.4262 16 32.4764 16H33.5766C32.5264 16 31.6739 14.9761 31.6739 13.7118Z" fill="black"/>
<path d="M31.0262 12.2292C30.8857 12.4276 30.7714 12.6556 30.6952 12.9036C30.6499 13.0449 30.6166 13.1961 30.5975 13.3498H31.6977C31.7191 13.1961 31.7501 13.0449 31.7953 12.9036C31.8739 12.6556 31.9858 12.4276 32.1263 12.2292H31.0262Z" fill="black"/>
<path d="M31.3953 11.8301C31.2596 11.9441 31.1357 12.078 31.0286 12.2292H32.1287C32.2359 12.078 32.3597 11.9441 32.4955 11.8301H31.3953Z" fill="black"/>
<path d="M33.5765 11.426H32.4764C32.0739 11.426 31.7025 11.5748 31.3953 11.8301H32.4954C32.8026 11.5748 33.1741 11.426 33.5765 11.426Z" fill="black"/>
</g>
<path d="M33.5337 11.426C34.6076 11.426 35.4792 12.4499 35.4792 13.7117C35.4792 14.9736 34.6076 15.9999 33.5337 15.9999C32.4597 15.9999 31.5881 14.9761 31.5881 13.7117C31.5881 12.4474 32.4597 11.426 33.5337 11.426Z" fill="#939598"/>
<path d="M33.5766 11.426C34.6268 11.426 35.4793 12.4499 35.4793 13.7117C35.4793 14.9736 34.6268 15.9999 33.5766 15.9999C32.5265 15.9999 31.674 14.9761 31.674 13.7117C31.674 12.4474 32.5265 11.426 33.5766 11.426Z" fill="#414042"/>
<mask id="mask6_2226_3787" style="mask-type:luminance" maskUnits="userSpaceOnUse" x="31" y="11" width="4" height="5">
<path d="M34.7458 15.9999H33.6456C32.5954 15.9999 31.7429 14.9761 31.7429 13.7117C31.7429 12.4474 32.5954 11.426 33.6456 11.426H34.7458C33.6956 11.426 32.8431 12.4499 32.8431 13.7117C32.8431 14.9736 33.6956 15.9999 34.7458 15.9999Z" fill="white"/>
</mask>
<g mask="url(#mask6_2226_3787)">
<path d="M32.8454 13.7118C32.8454 13.5878 32.8549 13.4688 32.8692 13.3499H31.7691C31.7524 13.4688 31.7452 13.5878 31.7452 13.7118C31.7452 14.9761 32.5978 16 33.6479 16H34.7481C33.6979 16 32.8454 14.9761 32.8454 13.7118Z" fill="black"/>
<path d="M32.1977 12.2292C32.0572 12.4276 31.9429 12.6556 31.8667 12.9036C31.8214 13.0449 31.7881 13.1961 31.769 13.3498H32.8692C32.8906 13.1961 32.9216 13.0449 32.9668 12.9036C33.0454 12.6556 33.1573 12.4276 33.2978 12.2292H32.1977Z" fill="black"/>
<path d="M32.5668 11.8301C32.4311 11.9441 32.3072 12.078 32.2001 12.2292H33.3002C33.4074 12.078 33.5312 11.9441 33.667 11.8301H32.5668Z" fill="black"/>
<path d="M34.7457 11.426H33.6456C33.2431 11.426 32.8716 11.5748 32.5645 11.8301H33.6646C33.9718 11.5748 34.3433 11.426 34.7457 11.426Z" fill="black"/>
</g>
<path d="M34.7029 11.426C35.7768 11.426 36.6484 12.4499 36.6484 13.7117C36.6484 14.9736 35.7768 15.9999 34.7029 15.9999C33.6289 15.9999 32.7573 14.9761 32.7573 13.7117C32.7573 12.4474 33.6289 11.426 34.7029 11.426Z" fill="#939598"/>
<path d="M34.7458 11.426C35.796 11.426 36.6485 12.4499 36.6485 13.7117C36.6485 14.9736 35.796 15.9999 34.7458 15.9999C33.6957 15.9999 32.8431 14.9761 32.8431 13.7117C32.8431 12.4474 33.6957 11.426 34.7458 11.426Z" fill="#414042"/>
<path d="M34.7457 12.1721C35.453 12.1721 36.0269 12.8613 36.0269 13.7141C36.0269 14.5669 35.453 15.2561 34.7457 15.2561C34.0385 15.2561 33.4646 14.5669 33.4646 13.7141C33.4646 12.8613 34.0385 12.1721 34.7457 12.1721Z" fill="#231F20"/>
<path d="M34.7457 12.3037C35.3934 12.3037 35.9173 12.9334 35.9173 13.7118C35.9173 14.4903 35.3934 15.1199 34.7457 15.1199C34.098 15.1199 33.5741 14.4903 33.5741 13.7118C33.5741 12.9334 34.098 12.3037 34.7457 12.3037Z" fill="#D1D3D4"/>
<path d="M34.7457 12.4722C35.3148 12.4722 35.7768 13.0275 35.7768 13.7117C35.7768 14.3959 35.3148 14.9513 34.7457 14.9513C34.1766 14.9513 33.7146 14.3959 33.7146 13.7117C33.7146 13.0275 34.1766 12.4722 34.7457 12.4722Z" fill="#939598"/>
<path d="M34.5266 12.502C34.0646 12.6234 33.7169 13.1192 33.7169 13.7117C33.7169 14.3042 34.0646 14.8001 34.5266 14.9215C34.9885 14.8001 35.3362 14.3042 35.3362 13.7117C35.3362 13.1192 34.9885 12.6234 34.5266 12.502Z" fill="#6D6E71"/>
<path d="M34.5051 14.7778C34.5409 14.8522 34.6742 14.8398 34.8028 14.7505C34.9314 14.6613 35.0076 14.5274 34.9719 14.453C34.9362 14.3787 34.8028 14.3911 34.6742 14.4803C34.5456 14.5696 34.4694 14.7034 34.5051 14.7778ZM35.0433 13.7118C35.0433 13.8903 35.1005 14.0366 35.1719 14.0366C35.2434 14.0366 35.3005 13.8903 35.3005 13.7118C35.3005 13.5333 35.2434 13.387 35.1719 13.387C35.1005 13.387 35.0433 13.5333 35.0433 13.7118ZM34.5051 12.6458C34.4694 12.7202 34.5456 12.854 34.6742 12.9433C34.8028 13.0325 34.9362 13.0449 34.9719 12.9705C35.0076 12.8962 34.9314 12.7623 34.8028 12.6731C34.6742 12.5838 34.5409 12.5714 34.5051 12.6458Z" fill="black"/>
<g style="mix-blend-mode:multiply">
<path d="M34.7457 13.5977C35.1243 13.5977 35.4768 13.672 35.7721 13.801C35.7721 13.7712 35.7768 13.7415 35.7768 13.7117C35.7768 13.0275 35.3148 12.4722 34.7457 12.4722C34.1766 12.4722 33.7146 13.0275 33.7146 13.7117C33.7146 13.7415 33.7146 13.7712 33.7194 13.801C34.0146 13.672 34.3671 13.5977 34.7457 13.5977Z" fill="#939598"/>
</g>
<g style="mix-blend-mode:multiply">
<path d="M34.3052 13.1812C34.5481 13.1812 34.7457 13.4191 34.7457 13.7117C34.7457 14.0042 34.5481 14.6165 34.3052 14.6165C34.0623 14.6165 33.8646 14.0042 33.8646 13.7117C33.8646 13.4191 34.0623 13.1812 34.3052 13.1812Z" fill="#939598"/>
</g>
<mask id="mask7_2226_3787" style="mask-type:luminance" maskUnits="userSpaceOnUse" x="33" y="13" width="2" height="2">
<path d="M34.7457 14.2451H34.3052C34.0623 14.2451 33.8646 14.0071 33.8646 13.7146C33.8646 13.4221 34.0623 13.1841 34.3052 13.1841H34.7457C34.5028 13.1841 34.3052 13.4221 34.3052 13.7146C34.3052 14.0071 34.5028 14.2451 34.7457 14.2451Z" fill="white"/>
</mask>
<g mask="url(#mask7_2226_3787)">
<path d="M34.7457 14.2446H34.3052C34.0623 14.2446 33.8646 14.0066 33.8646 13.714C33.8646 13.6471 33.8741 13.5851 33.8932 13.5256H34.3337C34.3147 13.5851 34.3052 13.6471 34.3052 13.714C34.3052 14.0066 34.5028 14.2446 34.7457 14.2446Z" fill="#231F20"/>
<path d="M34.3337 13.5258H33.8932C33.9122 13.4688 33.9384 13.4143 33.9694 13.3696H34.4099C34.3766 13.4167 34.3504 13.4688 34.3337 13.5258Z" fill="#939598"/>
<path d="M34.4099 13.3671H33.9694C34.0503 13.253 34.1718 13.1812 34.3051 13.1812H34.7457C34.6099 13.1812 34.4909 13.253 34.4099 13.3671Z" fill="#939598"/>
</g>
<path d="M34.7457 13.1812C34.9886 13.1812 35.1863 13.4191 35.1863 13.7117C35.1863 14.0042 34.9886 14.2422 34.7457 14.2422C34.5028 14.2422 34.3052 14.0042 34.3052 13.7117C34.3052 13.4191 34.5028 13.1812 34.7457 13.1812Z" fill="white"/>
<path d="M1.1978 5.4885C1.1978 5.14347 0.929664 4.86377 0.598901 4.86377C0.268137 4.86377 0 5.14347 0 5.4885V6.32147C0 6.6665 0.268137 6.9462 0.598901 6.9462C0.929664 6.9462 1.1978 6.6665 1.1978 6.32147V5.4885Z" fill="black"/>
<path d="M0.569134 6.9462C0.254801 6.9462 0 6.68094 0 6.3537V5.45627C0 5.12903 0.254801 4.86377 0.569134 4.86377C0.883468 4.86377 1.13827 5.12903 1.13827 5.45627V6.3537C1.13827 6.68094 0.883468 6.9462 0.569134 6.9462Z" fill="#30D0A7"/>
<path d="M2.24556 8.65933C2.23366 8.65933 2.21937 8.65438 2.20746 8.64694L0.89774 7.71728C0.650083 7.54127 0.502441 7.24874 0.502441 6.93637V4.84403C0.502441 4.4672 0.759623 4.14492 1.11444 4.07303L4.06727 3.48301C4.10299 3.47557 4.13871 3.50036 4.14347 3.53755C4.14823 3.57474 4.1268 3.61192 4.09108 3.61688L1.13825 4.2069C0.845351 4.2664 0.633414 4.53414 0.633414 4.84403V6.93637C0.633414 7.20411 0.759623 7.45202 0.97156 7.60324L2.28128 8.5329C2.31224 8.55521 2.31938 8.59736 2.29795 8.6271C2.28605 8.64694 2.26461 8.65685 2.24318 8.65685L2.24556 8.65933Z" fill="black"/>
<path d="M2.24575 8.58992L0.936023 7.66026C0.707417 7.49664 0.5693 7.22642 0.5693 6.93637V4.84403C0.5693 4.49943 0.802669 4.20442 1.12891 4.13997L4.08174 3.54994H4.14603C4.14603 3.54994 4.14603 3.54251 4.14603 3.53755C4.13889 3.50036 4.10555 3.47557 4.06983 3.48301L1.117 4.07303C0.762187 4.14492 0.505005 4.4672 0.505005 4.84403V6.93637C0.505005 7.24874 0.652646 7.54127 0.900303 7.71728L2.21003 8.64694C2.21003 8.64694 2.23384 8.65933 2.24813 8.65933C2.26956 8.65933 2.24813 8.58992 2.24813 8.58992H2.24575Z" fill="#231F20"/>
<path d="M10.735 12.9754C10.735 11.6293 11.7828 10.536 13.0782 10.536H16.3097V7.26855L15.8524 3.46068C15.8143 3.14832 15.5619 2.91528 15.2595 2.91528H5.60565C2.26943 2.91528 1.44788 8.41141 1.44788 8.41141V13.3002H10.735V12.9754Z" fill="#30D0A7"/>
<path d="M11.197 12.3532C11.197 11.3492 11.978 10.536 12.9425 10.536H16.7716V7.4446L16.1644 3.22769C16.1382 3.04671 15.9882 2.91284 15.812 2.91284H11.528C8.43702 2.91284 8.10364 8.40897 8.10364 8.40897V13.2977H11.1993V12.3507L11.197 12.3532Z" fill="#009175"/>
<path d="M16.7644 7.39994L16.1643 3.23013C16.1381 3.04915 15.9881 2.91528 15.8119 2.91528H11.5279C9.28472 2.91528 8.49174 5.81333 8.22742 7.39994H16.7644Z" fill="#30D0A7"/>
<g style="mix-blend-mode:multiply">
<path d="M10.723 11.8921H9.02991V12.9457H10.723V11.8921Z" fill="#BCBEC0"/>
</g>
<g style="mix-blend-mode:multiply">
<path d="M10.1944 11.8921H9.02991V12.9457H10.1944V11.8921Z" fill="#BCBEC0"/>
</g>
<g style="mix-blend-mode:multiply">
<path d="M10.1968 12.3086H9.02991V11.8921H10.7254L10.1968 12.3086Z" fill="#939598"/>
</g>
<path d="M14.2331 10.5361V7.44471L13.7449 3.70873C13.7235 3.55255 13.5925 3.43604 13.4425 3.43604H11.5541C10.0777 3.43604 9.30617 5.03752 8.91802 6.37871C8.83705 6.66132 8.79419 6.95137 8.79419 7.24143V13.3003H8.82753V11.3319H11.9113V11.2972H8.82753V7.24391C8.82753 6.95633 8.86801 6.67124 8.94898 6.3911C9.33475 5.05983 10.0968 3.47322 11.5541 3.47322H13.4425C13.5783 3.47322 13.6926 3.57734 13.7116 3.71617L14.1998 7.44967V10.5386H14.2331V10.5361Z" fill="black"/>
<path d="M13.583 10.2188C12.1185 10.2188 10.9302 11.4558 10.9302 12.9804V13.3002H11.485V12.9755C11.485 11.6293 12.5328 10.5361 13.8282 10.5361H17.2907V10.2188H13.5853H13.583Z" fill="#30D0A7"/>
<path d="M14.0045 10.2188C12.54 10.2188 11.3517 11.4558 11.3517 12.9804V13.3002H11.716V12.9755C11.716 11.6293 12.7638 10.5361 14.0592 10.5361H17.2907V10.2188H14.0069H14.0045Z" fill="#009175"/>
<path d="M7.70117 11.0691H1.8479V12.3086H7.70117V11.0691Z" fill="black"/>
<path d="M7.29871 2.07495H7.37967C7.82736 2.07495 8.18932 2.45177 8.18932 2.91784H7.29871V2.07495Z" fill="black"/>
<path d="M8.03691 2.07495H7.29871V2.91784H8.03691V2.07495Z" fill="#231F20"/>
<path d="M7.55116 2.14921H7.95122V2.84087H7.55116C7.3678 2.84087 7.21777 2.68469 7.21777 2.4938C7.21777 2.30291 7.3678 2.14673 7.55116 2.14673V2.14921Z" fill="#009444"/>
<path d="M7.95122 2.14921V2.84087C7.8893 2.84087 7.83691 2.78881 7.83691 2.72188V2.26572C7.83691 2.20127 7.88692 2.14673 7.95122 2.14673V2.14921Z" fill="#006838"/>
<path d="M9.08228 2.07495H9.16324C9.61093 2.07495 9.97289 2.45177 9.97289 2.91784H9.08228V2.07495Z" fill="black"/>
<path d="M9.82048 2.07495H9.08228V2.91784H9.82048V2.07495Z" fill="#231F20"/>
<path d="M9.33473 2.14921H9.73479V2.84087H9.33473C9.15137 2.84087 9.00134 2.68469 9.00134 2.4938C9.00134 2.30291 9.15137 2.14673 9.33473 2.14673V2.14921Z" fill="#009444"/>
<path d="M9.73479 2.14921V2.84087C9.67287 2.84087 9.62048 2.78881 9.62048 2.72188V2.26572C9.62048 2.20127 9.67049 2.14673 9.73479 2.14673V2.14921Z" fill="#006838"/>
<path d="M10.866 2.07495H10.9469C11.3946 2.07495 11.7566 2.45177 11.7566 2.91784H10.866V2.07495Z" fill="black"/>
<path d="M11.6042 2.07495H10.866V2.91784H11.6042V2.07495Z" fill="#231F20"/>
<path d="M11.1184 2.14921H11.5185V2.84087H11.1184C10.9351 2.84087 10.785 2.68469 10.785 2.4938C10.785 2.30291 10.9351 2.14673 11.1184 2.14673V2.14921Z" fill="#009444"/>
<path d="M11.5185 2.14921V2.84087C11.4566 2.84087 11.4042 2.78881 11.4042 2.72188V2.26572C11.4042 2.20127 11.4542 2.14673 11.5185 2.14673V2.14921Z" fill="#006838"/>
<path d="M12.6495 2.07495H12.7305C13.1782 2.07495 13.5401 2.45177 13.5401 2.91784H12.6495V2.07495Z" fill="black"/>
<path d="M13.3877 2.07495H12.6495V2.91784H13.3877V2.07495Z" fill="#231F20"/>
<path d="M12.902 2.14921H13.302V2.84087H12.902C12.7186 2.84087 12.5686 2.68469 12.5686 2.4938C12.5686 2.30291 12.7186 2.14673 12.902 2.14673V2.14921Z" fill="#009444"/>
<path d="M13.302 2.14921V2.84087C13.2401 2.84087 13.1877 2.78881 13.1877 2.72188V2.26572C13.1877 2.20127 13.2378 2.14673 13.302 2.14673V2.14921Z" fill="#006838"/>
<path d="M8.33696 8.41153C8.33696 8.41153 8.53937 5.09204 10.0801 3.61203C10.1396 3.55501 10.0991 3.45337 10.0182 3.45337H3.93629C1.98123 4.8367 1.44543 8.41153 1.44543 8.41153V8.49087H8.14169C8.21313 8.49087 8.28219 8.46112 8.33458 8.41153H8.33696Z" fill="black"/>
<path d="M1.44788 10.2188H7.65596C8.06555 10.2188 8.39655 10.5633 8.39655 10.9897C8.39655 11.4161 8.06555 11.7607 7.65596 11.7607H1.44788V10.2188Z" fill="#231F20"/>
<path d="M8.1012 10.2188C8.26313 10.2188 8.3941 10.3551 8.3941 10.5237V11.4558C8.3941 11.6244 8.26313 11.7607 8.1012 11.7607V10.2188Z" fill="black"/>
<path d="M0.85492 11.8921H8.39416V13.7291H2.61709C1.64314 13.7291 0.852539 12.906 0.852539 11.8921H0.85492Z" fill="#30D0A7"/>
<g style="mix-blend-mode:multiply">
<path d="M0.876343 13.3374C0.940638 13.563 1.14067 13.7291 1.3788 13.7291H8.39653V13.3374H0.876343Z" fill="#808285"/>
</g>
<path d="M7.49646 11.8921H8.39422V13.7291C7.8989 13.7291 7.49646 13.3101 7.49646 12.7945V11.8946V11.8921Z" fill="#009175"/>
<path d="M3.53151 3.99368C2.52898 5.08696 2.017 6.75042 1.79077 7.69495H7.95599C8.09173 6.74051 8.44655 5.04481 9.31334 3.95154C9.38716 3.85981 9.32287 3.71851 9.20857 3.71851H4.1578C3.92205 3.71851 3.69344 3.81519 3.53151 3.99368Z" fill="#6D6E71"/>
<path d="M13.3401 3.98377C13.3187 3.83254 13.1924 3.71851 13.0424 3.71851H11.7708C10.3182 3.71851 9.54665 5.27537 9.15135 6.64878C9.07039 6.92644 9.02991 7.21649 9.02991 7.50654V7.98749C9.02991 8.26762 9.24661 8.49322 9.5157 8.49322H10.1777C10.4182 8.49322 10.6397 8.35935 10.7587 8.14367L10.8326 8.0098C11.085 7.55117 11.5517 7.26855 12.0589 7.26855H13.4758C13.6592 7.26855 13.7997 7.0975 13.7735 6.90909L13.3425 3.98377H13.3401Z" fill="#3C2415"/>
<path d="M9.20857 3.71851H4.1578C3.92205 3.71851 3.69344 3.81519 3.53151 3.99368C2.52898 5.08696 2.017 6.75042 1.79077 7.69495H2.25513V7.55117C2.25513 7.27351 2.29799 6.99585 2.37657 6.73059C2.77425 5.41668 3.54342 3.92675 4.99602 3.92675H6.13191C6.34146 3.92675 6.50815 4.10772 6.4891 4.31596L6.24383 7.00081C6.22716 7.18426 6.07237 7.32557 5.88663 7.32557H5.28178C4.9222 7.32557 4.58167 7.46192 4.32449 7.69743H7.95361C7.97028 7.58587 7.98933 7.46688 8.01076 7.33797H7.31066C7.07253 7.33797 6.88678 7.13468 6.90822 6.89917L7.14397 4.29365C7.16302 4.08541 7.33685 3.92675 7.54641 3.92675H8.35844C8.59657 3.92675 8.78231 4.13003 8.76088 4.36555L8.70611 4.96548C8.8728 4.60106 9.07283 4.25399 9.31334 3.95154C9.38716 3.85981 9.32287 3.71851 9.20857 3.71851Z" fill="#3C2415"/>
<path d="M2.5028 11.5231H1.44788V10.4844H2.19561C2.3623 10.4844 2.51232 10.5835 2.58376 10.7397L2.75284 11.1091C2.84095 11.3025 2.70521 11.5231 2.50042 11.5231H2.5028Z" fill="#BCBEC0"/>
<path d="M1.44788 10.6624C1.57647 10.6624 1.68363 10.7714 1.68363 10.9078V11.1284C1.68363 11.2623 1.57885 11.3739 1.44788 11.3739V10.6648V10.6624Z" fill="#FBB040"/>
<path d="M2.19556 10.6252C2.37416 10.6252 2.51942 10.7988 2.51942 11.0145C2.51942 11.2301 2.37416 11.4037 2.19556 11.4037C2.01696 11.4037 1.8717 11.2301 1.8717 11.0145C1.8717 10.7988 2.01696 10.6252 2.19556 10.6252Z" fill="#E6E7E8"/>
<path d="M2.19556 10.6252C2.22414 10.6252 2.25033 10.6302 2.27891 10.6401C2.14079 10.6847 2.03601 10.836 2.03601 11.0169C2.03601 11.1979 2.13841 11.3491 2.27891 11.3938C2.25271 11.4012 2.22414 11.4086 2.19556 11.4086C2.01696 11.4086 1.8717 11.2351 1.8717 11.0194C1.8717 10.8037 2.01696 10.6302 2.19556 10.6302V10.6252Z" fill="white"/>
<path d="M7.87024 10.4814C8.11551 10.4814 8.31316 10.6872 8.31316 10.9426V11.0616C8.31316 11.3169 8.11551 11.5227 7.87024 11.5227V10.4839V10.4814Z" fill="#939598"/>
<path d="M8.31321 10.6624H8.06079V11.3714H8.31321V10.6624Z" fill="#F7941D"/>
<path d="M7.04629 11.5231H8.10121V10.4844H7.35348C7.18679 10.4844 7.03676 10.5835 6.96532 10.7397L6.79625 11.1091C6.70814 11.3025 6.84388 11.5231 7.04867 11.5231H7.04629Z" fill="#BCBEC0"/>
<path d="M8.1012 11.374C7.97261 11.374 7.86545 11.2649 7.86545 11.1286V10.908C7.86545 10.7741 7.97022 10.6625 8.1012 10.6625V11.3715V11.374Z" fill="#FBB040"/>
<path d="M7.35352 10.6252C7.53212 10.6252 7.67738 10.7988 7.67738 11.0145C7.67738 11.2301 7.53212 11.4037 7.35352 11.4037C7.17492 11.4037 7.02966 11.2301 7.02966 11.0145C7.02966 10.7988 7.17492 10.6252 7.35352 10.6252Z" fill="#E6E7E8"/>
<path d="M7.35352 10.6252C7.3821 10.6252 7.40829 10.6302 7.43687 10.6401C7.29875 10.6847 7.19397 10.836 7.19397 11.0169C7.19397 11.1979 7.29637 11.3491 7.43687 11.3938C7.41067 11.4012 7.3821 11.4086 7.35352 11.4086C7.17492 11.4086 7.02966 11.2351 7.02966 11.0194C7.02966 10.8037 7.17492 10.6302 7.35352 10.6302V10.6252Z" fill="white"/>
<path d="M7.10589 9.34866H2.44089C2.30516 9.34866 2.19324 9.23462 2.19324 9.09083C2.19324 8.94952 2.30278 8.83301 2.44089 8.83301H7.10589C7.24162 8.83301 7.35355 8.94704 7.35355 9.09083C7.35355 9.23214 7.24401 9.34866 7.10589 9.34866Z" fill="black"/>
<path d="M6.44865 10.4294H3.09814V10.7369H6.44865V10.4294Z" fill="#414042"/>
<path d="M6.44865 10.8359H3.09814V11.1433H6.44865V10.8359Z" fill="#414042"/>
<path d="M6.44865 11.2427H3.09814V11.5501H6.44865V11.2427Z" fill="#414042"/>
<path d="M6.44861 10.4294H3.20764V10.7369H6.44861V10.4294Z" fill="black"/>
<path d="M6.44861 10.8359H3.20764V11.1433H6.44861V10.8359Z" fill="black"/>
<path d="M6.44861 11.2427H3.20764V11.5501H6.44861V11.2427Z" fill="black"/>
<path d="M9.15373 6.64886C9.07277 6.92652 9.03228 7.21657 9.03228 7.50663V7.98757C9.03228 8.19333 9.15135 8.37183 9.32042 8.44868L9.51331 6.15801C9.52284 6.03405 9.49426 5.91753 9.43711 5.82333C9.32757 6.09603 9.23231 6.37617 9.15373 6.64886ZM12.54 5.58534C12.6162 5.49857 12.6662 5.38949 12.6781 5.26802L12.7138 4.85153C12.7376 4.57883 12.5423 4.35571 12.2804 4.35571H11.0731C10.8111 4.35571 10.5778 4.57635 10.5563 4.85153L10.5206 5.26802C10.5111 5.38949 10.542 5.49857 10.604 5.58534C10.3158 5.60517 10.0682 5.85308 10.0443 6.15553L9.84908 8.49082H10.1825C10.423 8.49082 10.6444 8.35695 10.7635 8.14127L10.8373 8.0074C11.0897 7.54877 11.5565 7.26616 12.0637 7.26616H12.9138L13.0067 6.15553C13.0329 5.85308 12.8257 5.60517 12.5423 5.58534H12.54ZM7.57968 4.35571C7.31774 4.35571 7.08437 4.57635 7.06294 4.85153L7.02722 5.26802C7.01769 5.38949 7.04865 5.49857 7.11056 5.58534C6.82242 5.60517 6.57477 5.85308 6.55095 6.15553L6.42236 7.69256H7.95831C8.07738 6.86207 8.36075 5.47626 9.00133 4.41025C8.93941 4.37555 8.86797 4.35571 8.78939 4.35571H7.58206H7.57968Z" fill="#754C29"/>
<path d="M3.179 6.94629C2.70512 6.94629 2.30267 7.25617 2.14551 7.69249H7.95591C7.98687 7.47681 8.02974 7.22147 8.08689 6.94629H3.179Z" fill="#A97C50"/>
<g opacity="0.5">
<path d="M9.20857 3.71851H4.1578C3.92205 3.71851 3.69344 3.81519 3.53151 3.99368C2.52898 5.08696 2.017 6.75042 1.79077 7.69495H3.42197C4.03635 5.54063 6.55578 5.38197 8.50132 5.46626C8.70373 4.92334 8.96805 4.39034 9.31334 3.95402C9.38716 3.86229 9.32287 3.72098 9.20857 3.72098V3.71851Z" fill="white"/>
<path d="M13.0449 3.71851H11.7732C10.3206 3.71851 9.54909 5.27537 9.1538 6.64878C9.07283 6.92644 9.03235 7.21649 9.03235 7.50654V7.98749C9.03235 8.26762 9.24905 8.49322 9.51814 8.49322H9.76341C10.1825 7.33301 10.6064 6.07363 11.697 5.5679C12.2971 5.31751 12.9234 5.31999 13.5426 5.34726L13.3425 3.98625C13.3211 3.83502 13.1949 3.72098 13.0449 3.72098V3.71851Z" fill="white"/>
</g>
<g style="mix-blend-mode:multiply">
<path d="M13.5997 8.59005H12.8282C12.7306 8.59005 12.652 8.50824 12.652 8.4066C12.652 8.30495 12.7306 8.22314 12.8282 8.22314H13.5997C13.6974 8.22314 13.776 8.30495 13.776 8.4066C13.776 8.50824 13.6974 8.59005 13.5997 8.59005Z" fill="#939598"/>
</g>
<path d="M13.7951 8.59005H13.0235C12.9259 8.59005 12.8473 8.50824 12.8473 8.4066C12.8473 8.30495 12.9259 8.22314 13.0235 8.22314H13.7951C13.8927 8.22314 13.9713 8.30495 13.9713 8.4066C13.9713 8.50824 13.8927 8.59005 13.7951 8.59005Z" fill="white"/>
<path d="M15.4929 3.71851H14.538C14.3355 3.71851 14.1808 3.90692 14.2117 4.11516L14.6356 6.9909C14.6594 7.15947 14.7999 7.28343 14.9618 7.28343H15.9167C16.1191 7.28343 16.2739 7.09502 16.243 6.88677L15.8191 4.01104C15.7953 3.84246 15.6548 3.71851 15.4929 3.71851Z" fill="black"/>
<path d="M10.1777 8.52552H9.51571C9.22995 8.52552 8.99658 8.28257 8.99658 7.98508V7.50414C8.99658 7.21161 9.03706 6.92156 9.12041 6.63646C9.51095 5.28784 10.2849 3.6814 11.7732 3.6814H13.0448C13.2115 3.6814 13.3496 3.80535 13.3734 3.97641L13.8045 6.90172C13.8187 7.00089 13.7902 7.10253 13.7283 7.17938C13.6663 7.25623 13.5735 7.30086 13.4758 7.30086H12.059C11.566 7.30086 11.1064 7.57851 10.8612 8.02475L10.7873 8.15862C10.6635 8.38422 10.4301 8.52552 10.1777 8.52552ZM11.7732 3.75081C10.3277 3.75081 9.5681 5.32999 9.18471 6.6563C9.10374 6.93395 9.06326 7.21905 9.06326 7.50414V7.98508C9.06326 8.24539 9.26567 8.45611 9.51571 8.45611H10.1777C10.4063 8.45611 10.6159 8.3272 10.7302 8.12391L10.804 7.99004C11.0612 7.52397 11.5422 7.23144 12.059 7.23144H13.4758C13.5544 7.23144 13.6282 7.19674 13.6782 7.13476C13.7283 7.07278 13.7521 6.99097 13.7402 6.91164L13.3091 3.98632C13.2901 3.84997 13.1782 3.75081 13.0448 3.75081H11.7732Z" fill="black"/>
<path d="M10.4302 3.66655C10.3945 3.66655 10.3635 3.6368 10.3635 3.59714V3.47566C10.3635 3.43848 10.3921 3.40625 10.4302 3.40625C10.4659 3.40625 10.4969 3.436 10.4969 3.47566V3.59714C10.4969 3.63433 10.4683 3.66655 10.4302 3.66655Z" fill="black"/>
<path d="M8.58706 8.73369C8.55134 8.73369 8.52039 8.70394 8.52039 8.66428V8.5428C8.52039 8.50562 8.54896 8.47339 8.58706 8.47339C8.62278 8.47339 8.65374 8.50314 8.65374 8.5428V8.66428C8.65374 8.70146 8.62516 8.73369 8.58706 8.73369Z" fill="black"/>
<path d="M7.51787 5.4885C7.51787 5.14347 7.24973 4.86377 6.91897 4.86377C6.58821 4.86377 6.32007 5.14347 6.32007 5.4885V6.32147C6.32007 6.6665 6.58821 6.9462 6.91897 6.9462C7.24973 6.9462 7.51787 6.6665 7.51787 6.32147V5.4885Z" fill="black"/>
<path d="M6.89177 6.9462C6.57743 6.9462 6.32263 6.68094 6.32263 6.3537V5.45627C6.32263 5.12903 6.57743 4.86377 6.89177 4.86377C7.2061 4.86377 7.4609 5.12903 7.4609 5.45627V6.3537C7.4609 6.68094 7.2061 6.9462 6.89177 6.9462Z" fill="#30D0A7"/>
<path d="M8.56807 8.65933C8.55617 8.65933 8.54188 8.65438 8.52997 8.64694L7.22025 7.71728C6.97259 7.54127 6.82495 7.24874 6.82495 6.93637V4.84403C6.82495 4.4672 7.08213 4.14492 7.43695 4.07303L10.3898 3.48301C10.4255 3.47557 10.4612 3.50036 10.466 3.53755C10.4731 3.57474 10.4493 3.61192 10.4136 3.61688L7.46076 4.2069C7.16786 4.2664 6.95592 4.53414 6.95592 4.84403V6.93637C6.95592 7.20411 7.08213 7.45202 7.29407 7.60324L8.60379 8.5329C8.63475 8.55521 8.64189 8.59736 8.62046 8.6271C8.60856 8.64694 8.58712 8.65685 8.56569 8.65685L8.56807 8.65933Z" fill="black"/>
<path d="M8.56826 8.58992L7.25853 7.66026C7.02993 7.49664 6.89181 7.22642 6.89181 6.93637V4.84403C6.89181 4.49943 7.12518 4.20442 7.45142 4.13997L10.4042 3.54994H10.4685C10.4685 3.54994 10.4685 3.54251 10.4685 3.53755C10.4614 3.50036 10.4281 3.47557 10.3923 3.48301L7.43951 4.07303C7.0847 4.14492 6.82751 4.4672 6.82751 4.84403V6.93637C6.82751 7.24874 6.97516 7.54127 7.22281 7.71728L8.53254 8.64694C8.53254 8.64694 8.55635 8.65933 8.57064 8.65933C8.59207 8.65933 8.57064 8.58992 8.57064 8.58992H8.56826Z" fill="#231F20"/>
<path d="M17.6931 10.2188V13.3002H32.0048C32.1691 11.6616 33.2907 10.3898 34.6552 10.3898C36.0197 10.3898 37.1437 11.6591 37.3056 13.3002H39.425C41.061 13.3002 42.385 11.9194 42.385 10.2188H17.6931Z" fill="#A7A9AC"/>
<path d="M32.0906 13.3002C32.2573 11.7905 33.3337 10.6253 34.6363 10.6253C35.9389 10.6253 37.0128 11.7905 37.1819 13.3002H37.5224C37.3534 11.5649 36.127 10.2188 34.6363 10.2188C33.1456 10.2188 31.9192 11.5649 31.7501 13.3002H32.0906Z" fill="#F1F2F2"/>
<path d="M32.0906 13.3002C32.2573 11.7905 33.3337 10.6253 34.6363 10.6253C35.9389 10.6253 37.0128 11.7905 37.1819 13.3002H37.5224C37.3534 11.5649 36.127 10.2188 34.6363 10.2188C33.1456 10.2188 31.9192 11.5649 31.7501 13.3002H32.0906Z" fill="#F1F2F2"/>
<path d="M20.1364 10.2187H17.6931L16.8668 4.37305H18.1027L20.1364 10.2187Z" fill="#D1D3D4"/>
<g style="mix-blend-mode:multiply">
<path d="M22.232 12.46V12.7103H21.5771V12.46H21.4843V12.8169H22.3272V12.46H22.232Z" fill="#939598"/>
</g>
<path d="M21.4842 12.4846H22.6915V12.1946H21.4842V12.4846Z" fill="black"/>
<path d="M21.8581 12.4846H22.6915V12.1946H21.8581V12.4846Z" fill="#231F20"/>
<path d="M22.0272 12.4326H21.9057V12.2466H22.0272C22.0772 12.2466 22.1177 12.2888 22.1177 12.3409C22.1177 12.3929 22.0772 12.4351 22.0272 12.4351V12.4326Z" fill="#FBB040"/>
<path d="M21.9058 12.4326V12.2467C21.932 12.2467 21.951 12.269 21.951 12.2938V12.3855C21.951 12.4128 21.9296 12.4326 21.9058 12.4326Z" fill="#F7941D"/>
<path d="M22.6153 12.4326H22.4939V12.2466H22.6153C22.6653 12.2466 22.7058 12.2888 22.7058 12.3409C22.7058 12.3929 22.6653 12.4351 22.6153 12.4351V12.4326Z" fill="#FBB040"/>
<path d="M22.4939 12.4326V12.2467C22.5201 12.2467 22.5392 12.269 22.5392 12.2938V12.3855C22.5392 12.4128 22.5178 12.4326 22.4939 12.4326Z" fill="#F7941D"/>
<path d="M23.2441 12.9854H20.3531V10.7988H23.2441V12.9854ZM20.3889 12.9482H23.2107V10.8335H20.3889V12.9482Z" fill="black"/>
<g style="mix-blend-mode:multiply">
<path d="M25.4825 12.46V12.7103H24.8277V12.46H24.7324V12.8169H25.5754V12.46H25.4825Z" fill="#939598"/>
</g>
<path d="M24.7348 12.4846H25.9421V12.1946H24.7348V12.4846Z" fill="black"/>
<path d="M25.1087 12.4846H25.9421V12.1946H25.1087V12.4846Z" fill="#231F20"/>
<path d="M25.2778 12.4326H25.1563V12.2466H25.2778C25.3278 12.2466 25.3683 12.2888 25.3683 12.3409C25.3683 12.3929 25.3278 12.4351 25.2778 12.4351V12.4326Z" fill="#FBB040"/>
<path d="M25.154 12.4326V12.2467C25.1802 12.2467 25.1992 12.269 25.1992 12.2938V12.3855C25.1992 12.4128 25.1778 12.4326 25.154 12.4326Z" fill="#F7941D"/>
<path d="M25.8659 12.4326H25.7445V12.2466H25.8659C25.9159 12.2466 25.9564 12.2888 25.9564 12.3409C25.9564 12.3929 25.9159 12.4351 25.8659 12.4351V12.4326Z" fill="#FBB040"/>
<path d="M25.7421 12.4326V12.2467C25.7683 12.2467 25.7874 12.269 25.7874 12.2938V12.3855C25.7874 12.4128 25.7659 12.4326 25.7421 12.4326Z" fill="#F7941D"/>
<path d="M26.4922 12.9854H23.6013V10.7988H26.4922V12.9854ZM23.637 12.9482H26.4589V10.8335H23.637V12.9482Z" fill="black"/>
<g style="mix-blend-mode:multiply">
<path d="M28.733 12.46V12.7103H28.0758V12.46H27.9829V12.8169H28.8259V12.46H28.733Z" fill="#939598"/>
</g>
<path d="M27.9829 12.4846H29.1902V12.1946H27.9829V12.4846Z" fill="black"/>
<path d="M28.3592 12.4846H29.1926V12.1946H28.3592V12.4846Z" fill="#231F20"/>
<path d="M28.5283 12.4326H28.4068V12.2466H28.5283C28.5783 12.2466 28.6188 12.2888 28.6188 12.3409C28.6188 12.3929 28.5783 12.4351 28.5283 12.4351V12.4326Z" fill="#FBB040"/>
<path d="M28.4045 12.4326V12.2467C28.4307 12.2467 28.4497 12.269 28.4497 12.2938V12.3855C28.4497 12.4128 28.4283 12.4326 28.4045 12.4326Z" fill="#F7941D"/>
<path d="M29.1164 12.4326H28.995V12.2466H29.1164C29.1664 12.2466 29.2069 12.2888 29.2069 12.3409C29.2069 12.3929 29.1664 12.4351 29.1164 12.4351V12.4326Z" fill="#FBB040"/>
<path d="M28.9926 12.4326V12.2467C29.0188 12.2467 29.0378 12.269 29.0378 12.2938V12.3855C29.0378 12.4128 29.0164 12.4326 28.9926 12.4326Z" fill="#F7941D"/>
<path d="M29.7427 12.9854H26.8518V10.7988H29.7427V12.9854ZM26.8875 12.9482H29.7094V10.8335H26.8875V12.9482Z" fill="black"/>
<path d="M47.0001 9.34106H20.8223V9.88894H47.0001V9.34106Z" fill="#E6E7E8"/>
<path d="M46.5309 10.2186H20.3507L20.8222 9.89136H47L46.5309 10.2186Z" fill="#939598"/>
<g style="mix-blend-mode:multiply">
<path d="M42.385 10.2188H20.1364V10.5162H42.385V10.2188Z" fill="#808285"/>
</g>
<path d="M21.7866 9.47266H21.0746V9.75775H21.7866V9.47266Z" fill="black"/>
<path d="M22.4986 9.47266H21.7866V9.75775H22.4986V9.47266Z" fill="#FFDE17"/>
<path d="M23.2107 9.47266H22.4987V9.75775H23.2107V9.47266Z" fill="black"/>
<path d="M23.9227 9.47266H23.2107V9.75775H23.9227V9.47266Z" fill="#FFDE17"/>
<path d="M24.6346 9.47266H23.9226V9.75775H24.6346V9.47266Z" fill="black"/>
<path d="M25.3467 9.47266H24.6346V9.75775H25.3467V9.47266Z" fill="#FFDE17"/>
<path d="M26.0563 9.47266H25.3442V9.75775H26.0563V9.47266Z" fill="black"/>
<path d="M26.7683 9.47266H26.0563V9.75775H26.7683V9.47266Z" fill="#FFDE17"/>
<path d="M27.4803 9.47266H26.7683V9.75775H27.4803V9.47266Z" fill="black"/>
<path d="M28.1924 9.47266H27.4803V9.75775H28.1924V9.47266Z" fill="#FFDE17"/>
<path d="M28.9044 9.47266H28.1924V9.75775H28.9044V9.47266Z" fill="black"/>
<path d="M29.6164 9.47266H28.9044V9.75775H29.6164V9.47266Z" fill="#FFDE17"/>
<path d="M30.3283 9.47266H29.6163V9.75775H30.3283V9.47266Z" fill="black"/>
<path d="M31.0379 9.47266H30.3259V9.75775H31.0379V9.47266Z" fill="#FFDE17"/>
<path d="M31.75 9.47266H31.038V9.75775H31.75V9.47266Z" fill="black"/>
<path d="M32.462 9.47266H31.75V9.75775H32.462V9.47266Z" fill="#FFDE17"/>
<path d="M33.174 9.47266H32.462V9.75775H33.174V9.47266Z" fill="black"/>
<path d="M33.8861 9.47266H33.1741V9.75775H33.8861V9.47266Z" fill="#FFDE17"/>
<path d="M34.5981 9.47266H33.8861V9.75775H34.5981V9.47266Z" fill="black"/>
<path d="M35.3077 9.47266H34.5957V9.75775H35.3077V9.47266Z" fill="#FFDE17"/>
<path d="M36.0197 9.47266H35.3077V9.75775H36.0197V9.47266Z" fill="black"/>
<path d="M36.7318 9.47266H36.0198V9.75775H36.7318V9.47266Z" fill="#FFDE17"/>
<path d="M37.4438 9.47266H36.7318V9.75775H37.4438V9.47266Z" fill="black"/>
<path d="M38.1559 9.47266H37.4438V9.75775H38.1559V9.47266Z" fill="#FFDE17"/>
<path d="M38.8678 9.47266H38.1558V9.75775H38.8678V9.47266Z" fill="black"/>
<path d="M39.5798 9.47266H38.8678V9.75775H39.5798V9.47266Z" fill="#FFDE17"/>
<path d="M40.2894 9.47266H39.5774V9.75775H40.2894V9.47266Z" fill="black"/>
<path d="M41.0014 9.47266H40.2894V9.75775H41.0014V9.47266Z" fill="#FFDE17"/>
<path d="M41.7135 9.47266H41.0015V9.75775H41.7135V9.47266Z" fill="black"/>
<path d="M42.4255 9.47266H41.7135V9.75775H42.4255V9.47266Z" fill="#FFDE17"/>
<path d="M43.1375 9.47266H42.4255V9.75775H43.1375V9.47266Z" fill="black"/>
<path d="M43.8496 9.47266H43.1376V9.75775H43.8496V9.47266Z" fill="#FFDE17"/>
<path d="M44.5615 9.47266H43.8495V9.75775H44.5615V9.47266Z" fill="black"/>
<path d="M45.2711 9.47266H44.5591V9.75775H45.2711V9.47266Z" fill="#FFDE17"/>
<path d="M45.9831 9.47266H45.2711V9.75775H45.9831V9.47266Z" fill="black"/>
<path d="M46.6952 9.47266H45.9832V9.75775H46.6952V9.47266Z" fill="#FFDE17"/>
</g>
<defs>
<clipPath id="clip0_2226_3787">
<rect width="47" height="16" fill="white"/>
</clipPath>
</defs>
</svg>
