<svg width="75" height="61" viewBox="0 0 75 61" fill="none" xmlns="http://www.w3.org/2000/svg">
<g id="Group 13897">
<g id="Group">
<g id="Group_2">
<path id="Vector" d="M20.8061 32.6791L19.8484 32.6169L0 31.6592L17.6503 30.769L20.8061 32.6791Z" fill="#30D0A7"/>
<path id="Vector_2" d="M11.2478 26.9432L1.91272 26.1465L10.3576 25.3809C10.2305 25.9544 10.1656 26.3048 10.1656 26.3048L11.2478 26.9432Z" fill="#30D0A7"/>
<path id="Vector_3" d="M12.5221 20.1562C12.2341 20.6649 11.9486 21.1762 11.7254 21.6537L3.56854 20.9841L12.5221 20.1562Z" fill="#30D0A7"/>
<path id="Vector_4" d="M28.6437 14.7743L20.8372 32.6166L20.8061 32.6815L17.6529 30.7688L12.9685 27.9971L11.2478 26.946L10.1656 26.3076C10.1656 26.3076 10.2305 25.9572 10.3576 25.3837C10.5808 24.5246 10.9935 23.1543 11.7279 21.6569C11.9511 21.1794 12.2366 20.6681 12.5247 20.1594C14.9434 16.142 19.6901 12.1609 28.6437 14.7743Z" fill="#30D0A7"/>
</g>
</g>
<g id="Group_3">
<g id="Group_4">
<g id="Group_5">
<path id="Vector_5" d="M20.8372 32.8164V32.8787H20.806L20.8372 32.8164Z" fill="black"/>
<g id="Group_6">
<g id="Group_7">
<path id="Vector_6" d="M24.5639 36.5129C24.3719 36.2248 24.1824 35.9393 24.0552 35.6201H24.2135C24.3096 35.9393 24.4056 36.2274 24.5639 36.5129Z" fill="black"/>
</g>
</g>
<g id="Group_8">
<g id="Group_9">
<path id="Vector_7" d="M25.2984 37.3714H25.2024C24.9792 37.1171 24.7872 36.8628 24.5977 36.5747C24.7872 36.8628 25.0415 37.1171 25.2984 37.3714Z" fill="black"/>
</g>
</g>
<path id="Vector_8" d="M35.6535 45.5612C35.5574 46.1996 35.2719 46.8043 34.7295 47.2507L34.2832 47.6322L20.0093 59.9934C19.4669 60.4709 18.7973 60.7252 18.0966 60.7252C17.2999 60.7252 16.5031 60.3749 15.8984 59.7053C14.8474 58.4933 14.9745 56.6792 16.1839 55.5944L28.7683 44.697L30.3617 43.2956L30.8081 42.9141H30.8393L30.9976 43.0101L35.3628 45.4003L35.6535 45.5612Z" fill="black"/>
<g id="Group_10">
<path id="Vector_9" d="M30.8108 42.9175L30.3644 43.299L28.7709 44.7004L11.375 43.8725L30.8108 42.9175Z" fill="black"/>
</g>
<g id="Group_11">
<path id="Vector_10" d="M25.2985 37.3719H25.2025L6.81775 36.4791L24.0554 35.6201H24.2137C24.3097 35.9393 24.4057 36.2248 24.564 36.5129C24.5952 36.544 24.5952 36.544 24.5952 36.5778C24.7872 36.8632 25.0416 37.1176 25.2985 37.3719Z" fill="black"/>
</g>
<g id="Group_12">
<g id="Group_13">
<path id="Vector_11" d="M50.1504 7.10578H47.9834C47.5682 10.2279 44.9236 12.6804 41.7392 12.6804C38.2019 12.6804 35.3679 9.81262 35.3679 6.30904C35.3679 2.8366 38.2045 0 41.7392 0C43.7142 0 45.5309 0.955048 46.678 2.42136C46.774 2.54853 46.8363 2.64455 46.9661 2.77172L50.1504 7.10578Z" fill="black"/>
<path id="Vector_12" d="M46.9634 2.77158C46.8362 2.64441 46.7713 2.54839 46.6753 2.42122V2.3252L46.9634 2.77158Z" fill="black"/>
</g>
</g>
<g id="Group_14">
<path id="Vector_13" d="M69.0932 23.222C68.7922 23.6398 68.3665 23.9616 67.8657 24.1174L46.2006 30.4264L45.8813 30.5224C45.6556 30.5847 45.4972 30.6158 45.3389 30.6158C45.1157 30.6158 44.9886 30.6158 44.8614 30.5847C43.9375 30.5536 43.0447 30.1072 42.4375 29.3442L38.5524 24.4677L34.5998 33.8365L43.0759 38.4561C43.5638 38.7441 43.9998 39.1282 44.3346 39.5876C44.4981 39.8108 44.6382 40.0521 44.7498 40.3065C44.8043 40.4311 44.8536 40.5608 44.89 40.6932C45.1365 41.5237 45.2455 42.3879 44.8614 43.2028L44.6071 43.7452L37.5013 59.0364C37.0238 60.09 35.9701 60.7259 34.8567 60.7259C34.4415 60.7259 34.0289 60.6298 33.6474 60.4404C32.1785 59.7708 31.5426 58.0502 32.2122 56.5839L37.8517 44.4459L26.0952 38.0408C25.776 37.8488 25.4594 37.6256 25.2024 37.3713C25.0805 37.1818 24.9092 36.9898 24.7509 36.7847C24.6964 36.7173 24.6445 36.6472 24.5977 36.5745C24.5874 36.5538 24.5744 36.533 24.5666 36.5122C24.564 36.5096 24.5614 36.507 24.5614 36.5045C24.3927 36.1852 24.3045 35.9179 24.2136 35.6195H24.0553C23.4818 34.3452 23.4195 32.8166 24.0242 31.4126L30.4293 16.2486C31.5738 13.508 34.7296 12.2649 37.4364 13.412C37.5013 13.4431 37.5973 13.4768 37.6596 13.508C38.3292 13.7 38.9365 14.0815 39.4114 14.6551L47.6331 24.979L49.4161 24.4677V23.222H69.0932Z" fill="black"/>
</g>
<g id="Group_15">
<path id="Vector_14" d="M74.9999 38.0746C74.9999 44.8611 72.8017 50.5966 68.5948 54.6115C64.4839 58.6574 58.0815 60.7933 50.0518 60.7933C46.8648 60.7933 43.9348 60.6662 41.3214 60.3781L39.7279 60.1861L45.2402 48.4607H50.7214V48.4919H50.9446C51.23 48.4919 51.5181 48.4919 51.8036 48.4607C58.4318 48.2064 61.5202 44.9234 61.5202 38.2329C61.5202 35.334 60.8195 33.167 59.418 31.7344C58.463 30.7793 57.1238 30.1098 55.4681 29.7283L70.9539 25.0127C73.6296 28.5163 74.9999 32.8789 74.9999 38.0746Z" fill="black"/>
</g>
</g>
</g>
<g id="Group_16">
<g id="Group_17">
<g id="Group_18">
<path id="Vector_15" d="M59.6361 13.7024V13.4324C60.0202 13.2767 60.2901 12.9056 60.2901 12.4722C60.2901 11.9038 59.8229 11.4419 59.2468 11.4419C58.6732 11.4419 58.2113 11.9038 58.2113 12.4722C58.2113 12.9056 58.4786 13.2767 58.8627 13.4324V13.6998C54.4897 13.8996 51.0043 17.5096 51.0043 21.9319H67.4867C67.4867 17.5148 64.0064 13.9074 59.6361 13.7024ZM57.9595 15.8382C53.9888 16.6739 53.3114 20.8523 53.3063 20.8938C53.2725 21.1248 53.0727 21.2882 52.8495 21.2882C52.8287 21.2882 52.8028 21.2857 52.782 21.2831C52.5277 21.2441 52.3538 21.008 52.3953 20.7588C52.4005 20.7069 52.5848 19.5235 53.3322 18.2207C54.3314 16.4715 55.8652 15.3348 57.7727 14.9351C58.0192 14.8832 58.2658 15.0415 58.3177 15.2906C58.3696 15.5424 58.2113 15.7837 57.9595 15.8382Z" fill="black"/>
</g>
</g>
<g id="Group_19">
<g id="Group_20">
<path id="Vector_16" d="M59.6284 5.77393C59.6284 5.77393 59.7504 7.02483 59.1353 8.07072C58.5202 9.1166 58.7434 10.448 59.3714 10.9566C59.3714 10.9566 59.3066 9.66939 59.7633 8.81036C60.2201 7.94874 60.3005 6.43571 59.6284 5.77393Z" fill="black"/>
</g>
</g>
<g id="Group_21">
<g id="Group_22">
<path id="Vector_17" d="M61.816 6.03369C61.816 6.03369 61.938 7.2846 61.3229 8.33048C60.7078 9.37637 60.931 10.7077 61.5591 11.2164C61.5591 11.2164 61.4942 9.92915 61.951 9.07013C62.4077 8.20591 62.4908 6.69288 61.816 6.03369Z" fill="black"/>
</g>
</g>
<g id="Group_23">
<g id="Group_24">
<path id="Vector_18" d="M57.6975 6.63037C57.6975 6.63037 57.8194 7.88128 57.2044 8.92716C56.5893 9.97305 56.8125 11.3044 57.4405 11.8131C57.4405 11.8131 57.3757 10.5258 57.8324 9.66681C58.2918 8.80519 58.3722 7.29216 57.6975 6.63037Z" fill="black"/>
</g>
</g>
</g>
</g>
</g>
</svg>
