<svg width="62" height="62" viewBox="0 0 62 62" fill="none" xmlns="http://www.w3.org/2000/svg">
<g id="noto:package" clip-path="url(#clip0_1046_4476)">
<path id="Vector" d="M30.3068 2.74458L5.41974 15.5746C4.87581 15.8943 4.71836 16.3714 4.72313 17.0632L4.77084 17.9268L31.0463 31.401L57.2598 18.1415C57.2598 18.1415 57.2885 18.0079 57.2885 17.5404C57.2885 17.5404 57.2646 16.9249 57.1262 16.6386C56.9736 16.3141 56.6491 16.0231 56.4392 15.8465C55.8809 15.3837 55.3227 14.9734 54.3732 14.439C40.7607 6.74292 31.8098 2.77797 31.8098 2.77797C31.2324 2.56327 30.7553 2.48693 30.3068 2.74458Z" fill="#30D0A7"/>
<path id="Vector_2" d="M5.11434 46.3159C6.56481 47.2749 9.21288 48.5345 11.8896 49.985C18.1113 53.3535 25.9744 57.4473 29.8869 59.0552C30.4165 59.2747 30.7314 59.3797 31.0988 59.3988C31.3708 59.4131 31.8193 59.2318 31.8193 59.2318C31.8193 59.2318 31.0893 32.899 31.0463 31.396C31.0034 29.9265 30.3879 29.4398 29.8439 29.0867C28.9947 28.5428 27.1529 27.6935 27.1529 27.6935C27.1529 27.6935 20.7022 24.4872 14.2609 21.1091C11.1977 19.5012 8.6117 17.8551 5.83003 16.5001C5.31951 16.2567 4.71832 16.5621 4.71832 17.1347L4.71832 45.667C4.71832 45.9389 4.88532 46.168 5.11434 46.3159Z" fill="#14B289"/>
<path id="Vector_3" d="M56.568 46.4829L31.8718 59.2175C31.4758 59.4226 31.0034 59.1363 31.0034 58.6878L31.0463 31.4056C31.0463 31.1432 30.9652 30.5658 30.8841 30.3368C30.6599 29.6688 31.1465 29.4016 31.366 29.2919L55.8618 16.6766C56.5107 16.3426 57.2884 16.815 57.2884 17.545V45.3091C57.2884 45.8006 57.0117 46.2539 56.568 46.4829Z" fill="#009175"/>
<path id="Vector_4" opacity="0.5" d="M45.5368 23.1417C45.5368 23.1417 32.0006 30.0648 31.7811 30.6517C31.5616 31.2338 42.402 26.0235 43.6712 25.3699C45.1073 24.6303 56.3867 18.5994 56.3867 17.9362C56.3914 17.3923 45.5368 23.1417 45.5368 23.1417Z" fill="#212121"/>
<g id="Group" opacity="0.5">
<path id="Vector_5" opacity="0.5" d="M6.5791 44.737C8.33971 45.6244 10.086 46.5405 12.2617 47.6522V46.803C10.0955 45.696 8.34448 44.7847 6.5791 43.8877V44.737Z" fill="#212121"/>
<path id="Vector_6" opacity="0.5" d="M10.2864 45.1232C10.7827 45.376 11.0308 45.5049 11.4983 45.7434C11.5031 44.2643 11.5031 43.5248 11.5079 42.0457C11.0403 41.8071 10.797 41.6831 10.3055 41.4302C10.296 42.9093 10.2912 43.6441 10.2864 45.1232Z" fill="#212121"/>
<path id="Vector_7" opacity="0.5" d="M7.2041 43.5392C7.61443 43.7491 7.84346 43.8684 8.31104 44.107L8.3349 40.4235C7.86254 40.1802 7.63352 40.0657 7.21842 39.8462C7.21364 41.3253 7.20887 42.0648 7.2041 43.5392Z" fill="#212121"/>
<path id="Vector_8" opacity="0.5" d="M9.50867 41.4635C10.6395 42.0408 11.2406 42.351 12.2378 42.8567C11.7416 41.955 11.4697 41.4969 10.9257 40.5713C10.3675 40.9339 10.0765 41.1104 9.50867 41.4635Z" fill="#212121"/>
<path id="Vector_9" opacity="0.5" d="M6.5791 39.9607C7.42362 40.3997 7.9914 40.6907 9.10789 41.2633C8.55442 40.3329 8.27768 39.8701 7.76715 38.9587C7.24708 39.3357 7.00375 39.5313 6.5791 39.9607Z" fill="#212121"/>
</g>
<g id="Group_2" opacity="0.5">
<path id="Vector_10" opacity="0.5" d="M15.6447 48.8162C16.0407 49.0213 16.2458 49.1311 16.6419 49.3362C16.6132 47.5804 16.5989 46.7025 16.5655 44.9467C16.1838 44.7463 15.993 44.6461 15.6113 44.4504C15.6256 46.1967 15.6304 47.0699 15.6447 48.8162Z" fill="#212121"/>
<path id="Vector_11" opacity="0.5" d="M14.1894 48.5061C15.6399 49.2695 16.7659 49.8421 18.1591 50.5864C18.1496 50.0854 17.7631 49.4795 17.2382 49.198C16.4176 48.7638 15.95 48.5252 15.1198 48.091C14.5854 47.8191 14.1894 48.0147 14.1894 48.5061Z" fill="#212121"/>
<path id="Vector_12" opacity="0.5" d="M16.952 43.5486L17.5627 44.8416C17.3718 45.2472 17.2717 45.4524 17.0713 45.8532C17.243 45.8388 17.3289 45.8341 17.5007 45.8198C17.7297 45.5144 17.8442 45.3617 18.0637 45.0563C17.8633 44.584 17.7583 44.3454 17.5484 43.8731C18.1305 44.1927 18.4168 44.355 18.9464 44.6651C18.9464 46.3732 17.8299 47.1271 16.1504 46.2492C14.4709 45.376 13.3592 43.4246 13.3592 41.7117C14.6093 42.3367 15.449 42.747 16.952 43.5486Z" fill="#212121"/>
</g>
<path id="Vector_13" d="M48.5331 20.2314C48.2946 20.0549 22.6775 6.67139 22.6775 6.67139L14.7285 10.7795L40.9945 24.3252L41.0088 24.3395L48.6953 20.4032C48.6953 20.4032 48.681 20.365 48.6381 20.3173C48.6047 20.2887 48.5474 20.2457 48.5331 20.2314Z" fill="#94E1E1"/>
<path id="Vector_14" d="M48.6571 20.3459C44.3057 22.4883 40.9944 24.3252 40.9944 24.3252C41.1042 24.4349 41.1089 24.5781 41.1089 24.6497C41.0946 25.2031 41.0851 25.6421 41.0708 26.1908C41.004 29.0297 40.9658 31.8734 40.8704 34.7123C41.19 34.5215 41.5765 34.9413 41.8676 34.7123C42.3161 34.3592 43.2703 32.8038 43.4135 32.7561C43.6043 32.6941 43.8095 32.7418 44.0051 32.7322C44.8639 32.6845 46.7868 30.9334 47.1971 30.8523C47.5931 30.776 48.9004 31.0289 48.9004 31.0289C48.9004 31.0289 48.8098 22.369 48.7764 20.9137C48.7668 20.3984 48.6571 20.3459 48.6571 20.3459Z" fill="#94E1E1"/>
</g>
<defs>
<clipPath id="clip0_1046_4476">
<rect width="61.0725" height="61.0725" fill="white" transform="translate(0.467102 0.435303)"/>
</clipPath>
</defs>
</svg>
