<svg width="56" height="55" viewBox="0 0 56 55" fill="none" xmlns="http://www.w3.org/2000/svg">
<g id="emojione-v1:shopping-bags" clip-path="url(#clip0_1046_4398)">
<path id="Vector" d="M37.3018 27.9546C37.2084 28.31 37.5664 28.7031 38.0948 28.8367C38.6241 28.9686 39.1225 28.7862 39.2132 28.4316L42.3159 16.0132C42.4059 15.6586 42.0487 15.2604 41.5229 15.1328C40.9937 14.9958 40.4918 15.1782 40.4045 15.5344L37.3018 27.9546Z" fill="#808285"/>
<path id="Vector_2" d="M38.1146 28.0378C38.0931 28.1225 38.0886 28.2106 38.1012 28.297C38.1139 28.3835 38.1434 28.4665 38.1882 28.5416C38.233 28.6166 38.2921 28.682 38.3622 28.7341C38.4323 28.7863 38.512 28.8241 38.5967 28.8454C38.7675 28.8868 38.9477 28.8592 39.0981 28.7684C39.2486 28.6776 39.3571 28.5311 39.4 28.3607L42.5061 15.9439C42.5408 15.7765 42.5095 15.6021 42.4187 15.4572C42.3278 15.3123 42.1845 15.2082 42.0186 15.1665C41.8528 15.1248 41.6773 15.1488 41.5287 15.2335C41.3802 15.3183 41.2701 15.4571 41.2215 15.6211L38.1146 28.0378Z" fill="#9D9EA4"/>
<path id="Vector_3" d="M35.6919 11.5002C35.8726 8.64845 37.5631 6.67362 39.43 5.72475C40.3943 5.23061 41.5324 4.88977 42.8556 4.94801C45.8923 5.07989 47.79 7.03673 48.5154 9.11861C48.8939 10.1977 49.0147 11.5867 48.5051 12.9629C47.6256 15.3668 45.3022 16.7867 42.805 16.439C41.3355 16.2317 40.3421 15.4953 39.6518 14.4907C38.8759 13.3646 38.4297 11.2459 39.6047 9.64956C40.5827 8.3136 43.0731 7.3947 44.743 8.96103C45.3519 9.5271 45.918 10.655 45.5189 11.8393C45.1841 12.8584 44.1033 13.5487 43.0859 13.2721C42.3392 13.0717 41.9444 12.521 42.0917 11.6655C42.1816 11.6441 42.2056 11.9233 42.3023 12.0586C42.3991 12.1939 42.5695 12.3395 42.7571 12.408C43.8421 12.8199 44.5452 11.8745 44.4279 10.887C44.3405 10.0906 43.6075 9.42947 42.6235 9.41577C41.6095 9.39607 40.6992 10.0701 40.3549 10.9907C39.7083 12.7231 40.8362 14.6089 42.6372 15.0679C44.5992 15.568 46.3659 14.4282 47.0998 12.879C47.7858 11.4334 47.5109 10.0486 46.985 8.97388C46.2494 7.46749 44.5289 6.13753 42.1756 6.30795C39.9259 6.4698 37.5836 8.02072 37.1109 11.0326C36.9533 12.0492 37.0373 12.7754 37.2591 13.5864C37.647 15.0319 38.44 16.3114 39.9096 17.2782C41.3594 18.2305 43.5047 18.5705 45.1284 18.1749C46.6476 17.8049 48.0067 16.9974 48.9847 15.8018C50.1548 14.3698 50.7556 12.5564 50.6718 10.7089C50.5868 9.13922 50.055 7.62652 49.1389 6.34905C48.2987 5.18266 46.759 3.99399 45.095 3.4656L44.1341 3.22239C42.2501 2.99288 40.563 3.20441 39.1106 3.80645C40.03 3.23801 41.0542 2.85985 42.1225 2.69437C43.1907 2.52888 44.2813 2.57942 45.3297 2.84301C49.6707 3.92805 52.3118 8.33416 51.2276 12.6769C50.14 17.0213 45.7381 19.6624 41.3946 18.5782C39.863 18.1959 38.4764 17.3745 37.4054 16.2149C36.3343 15.0552 35.6253 13.6079 35.3656 12.0509C35.4949 11.9121 35.6097 11.7332 35.6936 11.5002" fill="#DEB5E5"/>
<path id="Vector_4" d="M47.1151 12.8797C46.7528 13.6416 46.1662 14.2745 45.434 14.6936L45.0289 12.6785C45.2533 12.4404 45.434 12.1561 45.5376 11.8401C45.6955 11.3613 45.7119 10.8472 45.5847 10.3594L47.2153 9.46704C47.5861 10.4562 47.7 11.644 47.1151 12.8797Z" fill="#29ABE2"/>
<g id="Group">
<path id="Vector_5" d="M45.1437 18.1732C44.6246 18.2923 44.0926 18.3458 43.5602 18.3324L43.4232 16.4827C44.3909 16.5092 45.3073 16.2771 46.1114 15.8267L47.8413 16.9066C47.0374 17.5081 46.1192 17.9391 45.1428 18.1732" fill="#93278F"/>
<path id="Vector_6" d="M49.1534 6.34884C49.8505 7.32262 50.328 8.43617 50.5527 9.61253L48.7149 9.77524C48.4475 8.6235 47.8669 7.5681 47.0372 6.72565L48.2293 5.31689C48.5873 5.65088 48.9024 6.002 49.1534 6.34884Z" fill="#93278F"/>
</g>
<g id="Group_2">
<path id="Vector_7" d="M42.6533 15.0688C40.8523 14.608 39.7244 12.724 40.371 10.9898C40.7153 10.0692 41.623 9.39692 42.637 9.4149C43.6244 9.43032 44.3583 10.0914 44.4448 10.8879C44.5587 11.877 43.8556 12.8207 42.774 12.4071C42.5925 12.3351 42.434 12.2149 42.3159 12.0594C42.2225 11.9241 42.1985 11.6406 42.1086 11.6663C41.9579 12.5227 42.3561 13.0725 43.1029 13.2729C43.1594 13.29 43.2168 13.302 43.2733 13.3097L43.645 15.1852C43.3107 15.1904 42.9772 15.1513 42.6533 15.0688Z" fill="#29ABE2"/>
<path id="Vector_8" d="M49.1842 15.5698L47.5973 14.5789C47.9934 14.0936 48.3054 13.5453 48.5205 12.9569C48.6799 12.5246 48.7835 12.0736 48.8288 11.615L50.6828 11.4514C50.5997 12.9418 50.0783 14.3745 49.1842 15.5698Z" fill="#29ABE2"/>
<path id="Vector_9" d="M39.9215 17.2825C39.0822 16.7284 38.4588 16.069 38.0109 15.3377L39.668 14.4976C40.1373 15.1741 40.7462 15.7359 41.5495 16.0844L41.6899 18.0627C41.0643 17.8939 40.468 17.6308 39.9215 17.2825Z" fill="#29ABE2"/>
</g>
<path id="Vector_10" d="M37.271 13.5854C37.0526 12.7753 36.9661 12.0491 37.1263 11.0334C37.4012 9.28807 38.3046 8.02919 39.4565 7.25073L40.2701 8.98834C40.0238 9.17871 39.8041 9.40104 39.6166 9.64947C38.9075 10.6129 38.7902 11.7647 38.9778 12.7753L37.2873 13.6317C37.2813 13.6188 37.2778 13.6025 37.271 13.5837" fill="#93278F"/>
<g id="Group_3">
<path id="Vector_11" d="M42.1909 6.30724C43.9517 6.1822 45.3536 6.893 46.2613 7.88727L44.5811 8.80446C43.7838 8.16217 42.8298 8.03285 41.9469 8.21441L41.1367 6.48451C41.4878 6.39031 41.839 6.33207 42.1909 6.30638" fill="#29ABE2"/>
<path id="Vector_12" d="M40.7557 3.31665L40.9192 5.15445C40.3874 5.2949 39.8916 5.49101 39.4394 5.72566C38.8215 6.04119 38.2549 6.44861 37.7592 6.93402L36.3701 5.69912C37.5391 4.47448 39.0146 3.66006 40.7557 3.31665Z" fill="#29ABE2"/>
<path id="Vector_13" d="M35.7046 11.5003C35.2088 12.8363 33.836 12.4475 33.8266 12.2496C33.7795 10.4975 34.343 8.6297 35.2422 7.16528L36.6244 8.3942C36.0805 9.34399 35.7656 10.4075 35.7046 11.5003Z" fill="#29ABE2"/>
</g>
<path id="Vector_14" d="M44.146 3.22399L45.1103 3.46549C45.6789 3.64619 46.2322 3.90568 46.7469 4.21226L45.5454 5.63472C44.7134 5.21352 43.7994 4.9794 42.8674 4.94875C42.8306 4.94533 42.7904 4.94533 42.7535 4.94533L42.59 3.13407C43.1101 3.12911 43.6299 3.15915 44.146 3.22399Z" fill="#93278F"/>
<g id="Group_4">
<path id="Vector_15" d="M35.2456 7.16609C35.3118 7.05367 35.3821 6.9437 35.4563 6.83638C35.738 6.42446 36.0429 6.04593 36.3735 5.69824L37.7625 6.93315C37.3204 7.36703 36.9388 7.85844 36.6278 8.39414L35.2456 7.16609Z" fill="#FBB03B"/>
<path id="Vector_16" d="M42.5891 3.13428L42.7527 4.94553C42.1345 4.92875 41.517 4.99909 40.9183 5.15449L40.7548 3.31669C41.3371 3.20279 41.9503 3.13942 42.5891 3.13428Z" fill="#FBB03B"/>
<path id="Vector_17" d="M48.2285 5.31714L47.0372 6.72589C46.5989 6.28748 46.0954 5.91945 45.5446 5.63486L46.7461 4.2124C47.2924 4.53869 47.7934 4.91464 48.2285 5.31714Z" fill="#FBB03B"/>
<path id="Vector_18" d="M50.6862 10.7107C50.6999 10.9616 50.6999 11.2065 50.6862 11.454L48.8322 11.6176C48.8919 11.0014 48.8535 10.3796 48.7183 9.77551L50.5561 9.61279C50.6229 9.97761 50.6665 10.3424 50.6862 10.7107Z" fill="#FBB03B"/>
<path id="Vector_19" d="M48.9992 15.8036C48.6583 16.2171 48.2693 16.5886 47.8405 16.9101L46.1106 15.8302C46.6778 15.508 47.1814 15.0848 47.5964 14.5815L49.1833 15.5724C49.1234 15.6512 49.0634 15.73 49 15.8036" fill="#FBB03B"/>
<path id="Vector_20" d="M41.69 18.0617L41.5496 16.0835C41.9272 16.2513 42.3494 16.3747 42.8204 16.4389C43.0251 16.4689 43.2264 16.486 43.4233 16.4894L43.5604 18.3392C42.9279 18.3233 42.2998 18.2301 41.69 18.0617Z" fill="#FBB03B"/>
<path id="Vector_21" d="M37.2881 13.6342L38.9786 12.7778C39.1053 13.4424 39.3563 14.0479 39.668 14.4992L38.0109 15.3393C37.69 14.8097 37.4467 14.237 37.2881 13.6385" fill="#FBB03B"/>
<path id="Vector_22" d="M41.1291 6.48438L41.9392 8.21427C41.3301 8.34306 40.758 8.60802 40.2658 8.9893L39.4523 7.2517C39.9657 6.90659 40.5321 6.64769 41.1291 6.48523" fill="#FBB03B"/>
<path id="Vector_23" d="M46.9952 8.97482C47.0723 9.13068 47.1468 9.29596 47.2102 9.46724L45.5796 10.3596C45.4382 9.82626 45.1536 9.34176 44.7566 8.95855C44.6975 8.90593 44.6372 8.85453 44.5759 8.8044L46.2562 7.88721C46.5602 8.22377 46.8111 8.59201 46.9952 8.97482Z" fill="#FBB03B"/>
<path id="Vector_24" d="M43.6467 15.1861L43.275 13.3106C43.9207 13.4176 44.5742 13.1513 45.0289 12.6794L45.434 14.6945C44.8881 15.0039 44.274 15.1728 43.6467 15.1861Z" fill="#FBB03B"/>
</g>
<path id="Vector_25" d="M28.5419 6.22827L45.107 10.5239L40.7805 27.2114L24.2146 22.9158L28.5419 6.22827Z" fill="#00A79D"/>
<g id="Group_5">
<path id="Vector_26" d="M35.4743 7.54712L38.3997 8.30588L33.8403 25.896L30.9149 25.1381L35.4743 7.54712Z" fill="#EF4136"/>
<path id="Vector_27" d="M25.5428 15.6724L26.3025 12.7495L43.8918 17.3175L43.1322 20.2412L25.5428 15.6724Z" fill="#EF4136"/>
</g>
<path id="Vector_28" d="M4.15881 6.25394L27.521 -0.000244141L33.8206 23.5332L10.4584 29.7874L4.15881 6.25394Z" fill="#FFF200"/>
<g id="Group_6">
<path id="Vector_29" d="M24.3739 26.7457L20.2538 27.8513L13.6049 3.03834L17.7301 1.93188L24.3739 26.7457Z" fill="#27AAE1"/>
<path id="Vector_30" d="M7.0492 19.9572L5.94446 15.8311L30.7617 9.18555L31.8664 13.3108L7.0492 19.9572Z" fill="#27AAE1"/>
</g>
<path id="Vector_31" d="M8.03311 18.0448L4.22048 17.6072L1.22827 51.2631L6.23898 50.6774L13.6048 31.8626L8.03311 18.0448Z" fill="#009175"/>
<path id="Vector_32" d="M1.22827 51.2589L8.48186 54.5611L6.23898 50.6731L1.22827 51.2589Z" fill="#3B9981"/>
<path id="Vector_33" d="M8.03314 18.0447L6.23901 50.673L8.48189 54.561L15.2576 29.1948L9.4556 16.9922L8.03314 18.0447Z" fill="#016751"/>
<path id="Vector_34" d="M51.2 17.6071L9.45552 16.9922L8.48181 54.561L53.8463 51.8634L51.2 17.6071Z" fill="#14B289"/>
<path id="Vector_35" d="M25.4118 21.1696C32.8392 22.855 39.8744 26.3508 47.4765 23.2789C48.8391 22.7274 50.1742 22.1134 51.4998 21.4822L51.201 17.6062L9.45472 16.9922L9.22778 25.7188C14.0184 22.36 19.0086 19.7155 25.4118 21.1696Z" fill="#009175"/>
<path id="Vector_36" d="M30.7153 29.4175C21.1358 26.5957 16.3623 28.6202 9.02903 33.4674L8.65393 47.9942C11.2779 45.9295 13.6946 43.4622 16.4599 41.2699C20.818 37.8187 24.9116 38.8326 29.9634 39.7901C37.1433 41.1526 44.5305 42.2359 51.57 39.5092C52.0179 39.3345 52.423 39.1401 52.8486 38.9534L52.0179 28.2092C45.5136 30.8699 38.797 31.7974 30.7127 29.4175" fill="#30D0A7"/>
<path id="Vector_37" d="M35.6216 47.6413C32.1001 47.071 27.8456 45.4678 24.3044 45.5714C18.9991 45.7222 16.4822 48.9816 12.8734 52.1648C11.9677 52.9645 11.0334 53.7312 10.0721 54.4633L53.842 51.8642L53.3736 45.7761C47.6187 47.7861 41.7713 48.6373 35.6198 47.6413" fill="#30D0A7"/>
<path id="Vector_38" d="M53.4919 46.6138L8.62581 48.1638L8.47852 54.561L54.9203 51.9491L53.4919 46.6138Z" fill="#009175"/>
<g id="Group_7">
<path id="Vector_39" d="M20.7822 22.6598C20.7822 24.0104 19.477 25.11 17.8704 25.11C16.2673 25.11 14.9622 24.0104 14.9622 22.6598C14.9622 21.3059 16.2673 20.2114 17.8704 20.2114C19.477 20.2106 20.7822 21.3059 20.7822 22.6598Z" fill="#C4C4C4"/>
<path id="Vector_40" d="M48.5042 22.1039C48.5042 23.4527 47.2025 24.5523 45.5959 24.5523C43.9893 24.5523 42.6842 23.4527 42.6842 22.1039C42.6842 20.75 43.9893 19.6555 45.5959 19.6555C47.2025 19.6547 48.5042 20.75 48.5042 22.1039Z" fill="#C4C4C4"/>
</g>
<path id="Vector_41" d="M19.2226 23.3631C20.0156 27.5277 19.4932 32.7088 28.1701 35.7755C29.6226 36.2876 31.4741 36.7321 33.3256 36.8391C35.3372 36.9599 37.0568 36.6353 38.4031 36.0667C41.5032 34.7376 42.6405 32.6411 43.3641 30.811C44.3849 28.2248 44.9108 25.516 44.7129 22.8569C44.6624 22.0836 47.4679 22.0939 47.5244 22.8706C47.6949 25.1743 47.2136 27.4609 46.5935 29.7217C46.0549 31.6974 45.1608 33.6885 43.0061 35.4184C41.9519 36.2654 40.556 37.0558 38.6352 37.5679C36.8838 38.0364 34.7823 38.1263 32.6833 37.9824C28.4724 37.6878 24.754 36.202 22.321 34.753C19.6936 33.1901 18.4853 31.2452 17.7222 29.4237C16.8787 27.406 16.805 25.3636 16.4231 23.3511C16.2758 22.5803 19.0839 22.5906 19.2277 23.3622" fill="#E6E7E8"/>
</g>
<defs>
<clipPath id="clip0_1046_4398">
<rect width="54.8087" height="54.8087" fill="white" transform="translate(0.67334 0.0605469)"/>
</clipPath>
</defs>
</svg>
