<svg width="47" height="17" viewBox="0 0 47 17" fill="none" xmlns="http://www.w3.org/2000/svg">
<g clip-path="url(#clip0_2226_4959)">
<path d="M27.6052 15.3215L35.5536 15.3215V13.89H27.6052V15.3215Z" fill="#3B2739"/>
<path d="M27.4979 16.8766H25.9524C25.2017 16.8766 24.4952 16.4632 24.1293 15.7844C23.9401 15.4327 23.8013 14.9884 23.8013 14.4578C23.8013 12.8225 26.9239 14.3158 27.4979 16.8766Z" fill="#542D43"/>
<path d="M27.4979 16.8766C28.7835 16.8766 29.8257 15.6666 29.8257 14.1739C29.8257 12.6812 28.7835 11.4712 27.4979 11.4712C26.2123 11.4712 25.1702 12.6812 25.1702 14.1739C25.1702 15.6666 26.2123 16.8766 27.4979 16.8766Z" fill="#3B2739"/>
<path d="M8.59197 15.3215L16.5404 15.3215V13.89H8.59197V15.3215Z" fill="#3B2739"/>
<path d="M8.48474 16.8766H6.93921C6.18852 16.8766 5.482 16.4632 5.11612 15.7844C4.92687 15.4327 4.78809 14.9884 4.78809 14.4578C4.78809 12.8225 7.91069 14.3158 8.48474 16.8766Z" fill="#542D43"/>
<path d="M8.48474 16.8766C9.77032 16.8766 10.8125 15.6666 10.8125 14.1739C10.8125 12.6812 9.77032 11.4712 8.48474 11.4712C7.19915 11.4712 6.15698 12.6812 6.15698 14.1739C6.15698 15.6666 7.19915 16.8766 8.48474 16.8766Z" fill="#3B2739"/>
<path d="M4.42214 7.76253H3.90486C3.69669 7.76253 3.52637 7.57742 3.52637 7.3491V3.0482C3.52637 2.81988 3.69669 2.63477 3.90486 2.63477H6.35248C6.40294 2.63477 6.44079 2.67179 6.44079 2.72115C6.44079 2.77052 6.40294 2.80754 6.35248 2.80754H3.90486C3.79762 2.80754 3.703 2.91244 3.703 3.04203V7.34293C3.703 7.47252 3.79132 7.57742 3.90486 7.57742H4.42214C4.47261 7.57742 4.51046 7.61444 4.51046 7.6638C4.51046 7.71317 4.47261 7.75019 4.42214 7.75019V7.76253Z" fill="#362E42"/>
<path d="M4.44102 4.50445C4.44102 4.2659 4.24332 4.07251 3.99944 4.07251C3.75556 4.07251 3.55786 4.2659 3.55786 4.50445V5.59048C3.55786 5.82903 3.75556 6.02242 3.99944 6.02242C4.24332 6.02242 4.44102 5.82903 4.44102 5.59048V4.50445Z" fill="#362E42"/>
<path d="M11.519 14.4886C11.4686 14.6614 11.3109 14.7786 11.1279 14.7786H1.86737C1.6592 14.7786 1.31855 14.6243 1.29332 14.4207L1.08514 10.9528C1.03468 10.4777 1.21131 10.0087 1.56457 9.67552H1.57088C1.63396 9.60764 1.69705 9.53976 1.74751 9.47189C1.81059 9.39167 1.86106 9.30528 1.90522 9.21272L4.83857 2.7953C5.13506 2.14121 5.79743 1.72778 6.52288 1.72778H13.4746C13.6765 1.72778 13.8468 1.87588 13.8783 2.06717C14.2884 4.82542 11.9922 12.8657 11.519 14.4886Z" fill="#00E8B9"/>
<path d="M13.8783 2.06721L10.4403 9.4781H1.74744C1.81052 9.39789 1.86099 9.3115 1.90514 9.21894L4.8385 2.79535C5.13498 2.14126 5.79735 1.72783 6.52281 1.72783L13.5818 1.67847C13.7836 1.67847 13.8467 1.86976 13.8783 2.06721Z" fill="#CCF4EA"/>
<path d="M16.6097 16.9999H15.0642C14.3135 16.9999 13.607 16.5865 13.2411 15.9077C13.0519 15.556 12.9131 15.1117 12.9131 14.581C12.9131 12.9458 16.0357 14.4391 16.6097 16.9999Z" fill="#542D43"/>
<path d="M35.6924 16.9999H34.1469C33.3962 16.9999 32.6896 16.5865 32.3238 15.9077C32.1345 15.556 31.9957 15.1117 31.9957 14.581C31.9957 12.9458 35.1183 14.4391 35.6924 16.9999Z" fill="#542D43"/>
<path d="M40.7958 1.06763L18.1175 1.06763C17.9094 1.06763 17.739 0.901021 17.739 0.697391C17.739 0.493761 17.9094 0.327155 18.1175 0.327155L40.7958 0.327155C41.004 0.327155 41.1743 0.493761 41.1743 0.697391C41.1743 0.901021 41.004 1.06763 40.7958 1.06763Z" fill="#B1ACBE"/>
<path d="M18.1932 1.43169V1.44403C18.1932 1.44403 18.1932 1.50574 18.2059 1.53042C18.2248 1.5983 18.2626 1.66 18.3131 1.70937C18.3762 1.77108 18.4645 1.8081 18.5654 1.8081H41.2563C41.4582 1.8081 41.6285 1.64766 41.6285 1.44403V1.43169C41.6285 1.23423 41.4645 1.06763 41.2563 1.06763H18.5654C18.3636 1.06763 18.1932 1.22806 18.1932 1.43169Z" fill="#B1ACBE"/>
<path d="M40.7958 2.54248L18.1175 2.54248C17.9094 2.54248 17.739 2.37587 17.739 2.17224C17.739 1.96861 17.9094 1.80201 18.1175 1.80201L40.7958 1.80201C41.004 1.80201 41.1743 1.96861 41.1743 2.17224C41.1743 2.37587 41.004 2.54248 40.7958 2.54248Z" fill="#B1ACBE"/>
<path d="M19.0511 1.0306L22.4829 1.16018V0.573975H19.1395C19.089 0.573975 19.0511 0.610998 19.0511 0.660363V1.0306Z" fill="#9D91AC"/>
<path d="M22.4829 1.16016L19.2846 1.16016C19.1521 1.16016 19.0512 1.05526 19.0512 0.931844L22.4829 0.931844V1.16016Z" fill="#9083A2"/>
<path d="M19.0511 1.69083L22.4829 1.85126V1.16016H19.1395C19.089 1.16016 19.0511 1.19718 19.0511 1.24654V1.69083Z" fill="#9D91AC"/>
<path d="M22.4829 1.85742L19.3288 1.85742C19.1774 1.85742 19.0512 1.73401 19.0512 1.58592L22.4829 1.58592V1.85742Z" fill="#9083A2"/>
<path d="M22.4829 2.54248L19.0512 2.54248C19.0512 2.1599 19.3666 1.85137 19.7577 1.85137L22.4829 1.85137V2.54248Z" fill="#9D91AC"/>
<path d="M19.0512 2.54248L22.4829 2.54248V2.27097L19.0512 2.27097V2.54248Z" fill="#9083A2"/>
<path d="M17.1522 0.277588H16.799V1.20935H17.1522V0.277588Z" fill="#BFACBE"/>
<path d="M16.8873 0.906982H16.635V1.71533H16.8873V0.906982Z" fill="#CFC2D2"/>
<path d="M17.228 0.401089V1.07368L16.5908 1.08603L15.3796 1.54882V0L16.5908 0.401089H17.228Z" fill="#DBD3E0"/>
<path d="M17.228 0.845459V1.07377L16.5908 1.08611L15.3796 1.54891V1.20335L16.5908 0.845459H17.228Z" fill="#CFC2D2"/>
<path d="M17.5055 0.277588H17.1522V1.20935H17.5055V0.277588Z" fill="#B1ACBE"/>
<path d="M15.3796 1.55499C15.6618 1.55499 15.8906 1.20689 15.8906 0.777495C15.8906 0.348097 15.6618 0 15.3796 0C15.0974 0 14.8687 0.348097 14.8687 0.777495C14.8687 1.20689 15.0974 1.55499 15.3796 1.55499Z" fill="#DBD3E0"/>
<path d="M15.8275 0.777576C15.8275 0.92567 15.7959 1.06142 15.7391 1.17249C15.6571 1.3391 15.531 1.444 15.3796 1.444C15.1335 1.444 14.938 1.14164 14.938 0.777576C14.938 0.41351 15.1335 0.10498 15.3796 0.10498C15.5499 0.10498 15.695 0.246904 15.7707 0.450534C15.8022 0.543093 15.8275 0.654164 15.8275 0.771405V0.777576Z" fill="#EAE3EF"/>
<path d="M15.8275 0.777414C15.8275 0.925508 15.7959 1.06126 15.7392 1.17233C15.5373 1.16616 15.3733 1.00573 15.3733 0.814438C15.3733 0.623149 15.5436 0.456543 15.7581 0.456543H15.7707C15.8023 0.549102 15.8275 0.660173 15.8275 0.777414Z" fill="#B1ACBE"/>
<path d="M46.4038 5.61537V14.7725H10.188L10.0302 12.3598C9.97978 11.5823 10.0618 10.7987 10.2826 10.0459L10.4466 9.47199L12.3075 8.16382L14.1622 2.61646H44.2716C44.5681 2.61646 44.8394 2.78306 44.9971 3.06074L45.4386 3.85675L45.6216 4.17762L46.4164 5.6092L46.4038 5.61537Z" fill="#00C795"/>
<path d="M21.7573 2.4683V6.46685C21.7573 7.29371 21.2211 7.96631 20.5524 7.96631H13.4746C12.8248 7.96631 12.1687 8.25015 11.601 8.65741L10.434 9.4781L10.7809 8.19462L12.175 3.04217C12.2003 2.9311 12.2318 2.82003 12.276 2.7213C12.5283 2.0919 13.0456 1.67847 13.626 1.67847H21.0256C21.4293 1.67847 21.751 2.03636 21.751 2.47447L21.7573 2.4683Z" fill="#CCF4EA"/>
<g style="mix-blend-mode:multiply">
<path d="M21.2401 2.87541V14.0195C21.2401 14.2046 21.1013 14.3589 20.931 14.3589H18.7042V14.2417H20.931C21.0383 14.2417 21.1329 14.1429 21.1329 14.0195V2.87541C21.1329 2.70881 21.0067 2.56688 20.8553 2.56688H16.5972V11.3045H16.49V2.57305H13.4305C13.1908 2.57305 12.9763 2.752 12.9195 3.00499C12.5978 4.33167 11.5506 8.80536 11.5506 10.6442V13.8961C11.5506 14.0072 11.6326 14.0936 11.7272 14.0936H12.9826V14.2108H11.7272C11.5695 14.2108 11.4434 14.0689 11.4434 13.8961V10.6442C11.4434 8.78685 12.4905 4.30699 12.8123 2.97414C12.888 2.66561 13.1403 2.45581 13.4305 2.45581H20.8616C21.0761 2.45581 21.2464 2.6471 21.2464 2.88158L21.2401 2.87541Z" fill="#CCCCCC"/>
</g>
<path d="M46.4102 5.57202H21.4357V6.03482H46.4102V5.57202Z" fill="#E04D4A"/>
<path d="M44.2653 2.25238C44.2653 2.35728 44.2275 2.44367 44.1644 2.51155C44.1013 2.57943 44.0193 2.62262 43.9247 2.62262H22.9559C22.773 2.62262 22.6216 2.45601 22.6216 2.25238C22.6216 2.20302 22.6279 2.15982 22.6468 2.11663C22.6657 2.06727 22.691 2.02407 22.7225 1.98705C22.7856 1.91917 22.8676 1.87598 22.9622 1.87598H43.931C44.0761 1.87598 44.1959 1.97471 44.2464 2.11046C44.259 2.15365 44.2716 2.19685 44.2716 2.24621L44.2653 2.25238Z" fill="#DBD3E0"/>
<path d="M44.2401 2.11663H22.6469C22.6658 2.06727 22.691 2.02407 22.7225 1.98705C22.7856 1.91917 22.8676 1.87598 22.9623 1.87598H43.931C44.0761 1.87598 44.1959 1.97471 44.2464 2.11046L44.2401 2.11663Z" fill="#CFC2D2"/>
<path d="M23.4101 2.25233C23.4101 2.39425 23.3029 2.51149 23.1704 2.51149C23.0379 2.51149 22.9307 2.39425 22.9307 2.25233C22.9307 2.11041 23.0379 1.99316 23.1704 1.99316C23.3029 1.99316 23.4101 2.11041 23.4101 2.25233Z" fill="#B1ACBE"/>
<path d="M24.3058 2.25233C24.3058 2.39425 24.1986 2.51149 24.0661 2.51149C23.9337 2.51149 23.8264 2.39425 23.8264 2.25233C23.8264 2.11041 23.9337 1.99316 24.0661 1.99316C24.1986 1.99316 24.3058 2.11041 24.3058 2.25233Z" fill="#B1ACBE"/>
<path d="M25.2016 2.25233C25.2016 2.39425 25.0944 2.51149 24.9619 2.51149C24.8294 2.51149 24.7222 2.39425 24.7222 2.25233C24.7222 2.11041 24.8294 1.99316 24.9619 1.99316C25.0944 1.99316 25.2016 2.11041 25.2016 2.25233Z" fill="#B1ACBE"/>
<path d="M26.0975 2.25233C26.0975 2.39425 25.9902 2.51149 25.8578 2.51149C25.7253 2.51149 25.618 2.39425 25.618 2.25233C25.618 2.11041 25.7253 1.99316 25.8578 1.99316C25.9902 1.99316 26.0975 2.11041 26.0975 2.25233Z" fill="#B1ACBE"/>
<path d="M26.7535 2.51149C26.8859 2.51149 26.9932 2.39546 26.9932 2.25233C26.9932 2.1092 26.8859 1.99316 26.7535 1.99316C26.6211 1.99316 26.5138 2.1092 26.5138 2.25233C26.5138 2.39546 26.6211 2.51149 26.7535 2.51149Z" fill="#B1ACBE"/>
<path d="M27.889 2.25233C27.889 2.39425 27.7817 2.51149 27.6493 2.51149C27.5168 2.51149 27.4095 2.39425 27.4095 2.25233C27.4095 2.11041 27.5168 1.99316 27.6493 1.99316C27.7817 1.99316 27.889 2.11041 27.889 2.25233Z" fill="#B1ACBE"/>
<path d="M28.7847 2.25233C28.7847 2.39425 28.6775 2.51149 28.545 2.51149C28.4125 2.51149 28.3053 2.39425 28.3053 2.25233C28.3053 2.11041 28.4125 1.99316 28.545 1.99316C28.6775 1.99316 28.7847 2.11041 28.7847 2.25233Z" fill="#B1ACBE"/>
<path d="M29.6805 2.25233C29.6805 2.39425 29.5732 2.51149 29.4408 2.51149C29.3083 2.51149 29.201 2.39425 29.201 2.25233C29.201 2.11041 29.3083 1.99316 29.4408 1.99316C29.5732 1.99316 29.6805 2.11041 29.6805 2.25233Z" fill="#B1ACBE"/>
<path d="M30.5764 2.25233C30.5764 2.39425 30.4691 2.51149 30.3366 2.51149C30.2042 2.51149 30.0969 2.39425 30.0969 2.25233C30.0969 2.11041 30.2042 1.99316 30.3366 1.99316C30.4691 1.99316 30.5764 2.11041 30.5764 2.25233Z" fill="#B1ACBE"/>
<path d="M31.4721 2.25233C31.4721 2.39425 31.3649 2.51149 31.2324 2.51149C31.0999 2.51149 30.9927 2.39425 30.9927 2.25233C30.9927 2.11041 31.0999 1.99316 31.2324 1.99316C31.3649 1.99316 31.4721 2.11041 31.4721 2.25233Z" fill="#B1ACBE"/>
<path d="M32.1281 2.51149C32.2605 2.51149 32.3679 2.39546 32.3679 2.25233C32.3679 2.1092 32.2605 1.99316 32.1281 1.99316C31.9958 1.99316 31.8884 2.1092 31.8884 2.25233C31.8884 2.39546 31.9958 2.51149 32.1281 2.51149Z" fill="#B1ACBE"/>
<path d="M33.0239 2.51149C33.1563 2.51149 33.2636 2.39546 33.2636 2.25233C33.2636 2.1092 33.1563 1.99316 33.0239 1.99316C32.8915 1.99316 32.7842 2.1092 32.7842 2.25233C32.7842 2.39546 32.8915 2.51149 33.0239 2.51149Z" fill="#B1ACBE"/>
<path d="M34.1594 2.25233C34.1594 2.39425 34.0521 2.51149 33.9196 2.51149C33.7872 2.51149 33.6799 2.39425 33.6799 2.25233C33.6799 2.11041 33.7872 1.99316 33.9196 1.99316C34.0521 1.99316 34.1594 2.11041 34.1594 2.25233Z" fill="#B1ACBE"/>
<path d="M35.0552 2.25233C35.0552 2.39425 34.948 2.51149 34.8155 2.51149C34.683 2.51149 34.5758 2.39425 34.5758 2.25233C34.5758 2.11041 34.683 1.99316 34.8155 1.99316C34.948 1.99316 35.0552 2.11041 35.0552 2.25233Z" fill="#B1ACBE"/>
<path d="M35.951 2.25233C35.951 2.39425 35.8437 2.51149 35.7113 2.51149C35.5788 2.51149 35.4716 2.39425 35.4716 2.25233C35.4716 2.11041 35.5788 1.99316 35.7113 1.99316C35.8437 1.99316 35.951 2.11041 35.951 2.25233Z" fill="#B1ACBE"/>
<path d="M36.607 2.51149C36.7394 2.51149 36.8467 2.39546 36.8467 2.25233C36.8467 2.1092 36.7394 1.99316 36.607 1.99316C36.4746 1.99316 36.3673 2.1092 36.3673 2.25233C36.3673 2.39546 36.4746 2.51149 36.607 2.51149Z" fill="#B1ACBE"/>
<path d="M37.5028 2.51149C37.6352 2.51149 37.7425 2.39546 37.7425 2.25233C37.7425 2.1092 37.6352 1.99316 37.5028 1.99316C37.3704 1.99316 37.2631 2.1092 37.2631 2.25233C37.2631 2.39546 37.3704 2.51149 37.5028 2.51149Z" fill="#B1ACBE"/>
<path d="M38.3985 2.51149C38.5309 2.51149 38.6382 2.39546 38.6382 2.25233C38.6382 2.1092 38.5309 1.99316 38.3985 1.99316C38.2661 1.99316 38.1588 2.1092 38.1588 2.25233C38.1588 2.39546 38.2661 2.51149 38.3985 2.51149Z" fill="#B1ACBE"/>
<path d="M39.5341 2.25233C39.5341 2.39425 39.4269 2.51149 39.2944 2.51149C39.1619 2.51149 39.0547 2.39425 39.0547 2.25233C39.0547 2.11041 39.1619 1.99316 39.2944 1.99316C39.4269 1.99316 39.5341 2.11041 39.5341 2.25233Z" fill="#B1ACBE"/>
<path d="M40.4299 2.25233C40.4299 2.39425 40.3226 2.51149 40.1902 2.51149C40.0577 2.51149 39.9504 2.39425 39.9504 2.25233C39.9504 2.11041 40.0577 1.99316 40.1902 1.99316C40.3226 1.99316 40.4299 2.11041 40.4299 2.25233Z" fill="#B1ACBE"/>
<path d="M41.3256 2.25233C41.3256 2.39425 41.2184 2.51149 41.0859 2.51149C40.9534 2.51149 40.8462 2.39425 40.8462 2.25233C40.8462 2.11041 40.9534 1.99316 41.0859 1.99316C41.2184 1.99316 41.3256 2.11041 41.3256 2.25233Z" fill="#B1ACBE"/>
<path d="M42.2214 2.25233C42.2214 2.39425 42.1141 2.51149 41.9817 2.51149C41.8492 2.51149 41.7419 2.39425 41.7419 2.25233C41.7419 2.11041 41.8492 1.99316 41.9817 1.99316C42.1141 1.99316 42.2214 2.11041 42.2214 2.25233Z" fill="#B1ACBE"/>
<path d="M42.8774 2.51149C43.0098 2.51149 43.1171 2.39546 43.1171 2.25233C43.1171 2.1092 43.0098 1.99316 42.8774 1.99316C42.745 1.99316 42.6377 2.1092 42.6377 2.25233C42.6377 2.39546 42.745 2.51149 42.8774 2.51149Z" fill="#B1ACBE"/>
<path d="M43.7733 2.51149C43.9057 2.51149 44.013 2.39546 44.013 2.25233C44.013 2.1092 43.9057 1.99316 43.7733 1.99316C43.6409 1.99316 43.5336 2.1092 43.5336 2.25233C43.5336 2.39546 43.6409 2.51149 43.7733 2.51149Z" fill="#B1ACBE"/>
<path d="M43.6093 1.51184C43.6093 1.61057 43.5714 1.7093 43.5084 1.771C43.4453 1.83888 43.3633 1.88207 43.2687 1.88207H22.2999C22.117 1.88207 21.9656 1.71547 21.9656 1.51184C21.9656 1.41311 22.0034 1.31438 22.0665 1.25267C22.1296 1.1848 22.2116 1.1416 22.3062 1.1416H43.275C43.4579 1.1416 43.6093 1.30821 43.6093 1.51184Z" fill="#DBD3E0"/>
<path d="M43.6093 1.51184H21.9656C21.9656 1.41311 22.0034 1.31438 22.0665 1.25267C22.1296 1.1848 22.2116 1.1416 22.3062 1.1416H43.275C43.4579 1.1416 43.6093 1.30821 43.6093 1.51184Z" fill="#CFC2D2"/>
<path d="M22.7541 1.51185C22.7541 1.65377 22.6468 1.77102 22.5144 1.77102C22.3819 1.77102 22.2747 1.65377 22.2747 1.51185C22.2747 1.36993 22.3819 1.25269 22.5144 1.25269C22.6468 1.25269 22.7541 1.36993 22.7541 1.51185Z" fill="#B1ACBE"/>
<path d="M23.6498 1.51185C23.6498 1.65377 23.5426 1.77102 23.4101 1.77102C23.2777 1.77102 23.1704 1.65377 23.1704 1.51185C23.1704 1.36993 23.2777 1.25269 23.4101 1.25269C23.5426 1.25269 23.6498 1.36993 23.6498 1.51185Z" fill="#B1ACBE"/>
<path d="M24.5456 1.51185C24.5456 1.65377 24.4383 1.77102 24.3059 1.77102C24.1734 1.77102 24.0662 1.65377 24.0662 1.51185C24.0662 1.36993 24.1734 1.25269 24.3059 1.25269C24.4383 1.25269 24.5456 1.36993 24.5456 1.51185Z" fill="#B1ACBE"/>
<path d="M25.4415 1.51185C25.4415 1.65377 25.3342 1.77102 25.2018 1.77102C25.0693 1.77102 24.962 1.65377 24.962 1.51185C24.962 1.36993 25.0693 1.25269 25.2018 1.25269C25.3342 1.25269 25.4415 1.36993 25.4415 1.51185Z" fill="#B1ACBE"/>
<path d="M26.3372 1.51185C26.3372 1.65377 26.23 1.77102 26.0975 1.77102C25.965 1.77102 25.8578 1.65377 25.8578 1.51185C25.8578 1.36993 25.965 1.25269 26.0975 1.25269C26.23 1.25269 26.3372 1.36993 26.3372 1.51185Z" fill="#B1ACBE"/>
<path d="M26.9933 1.77102C27.1256 1.77102 27.233 1.65498 27.233 1.51185C27.233 1.36872 27.1256 1.25269 26.9933 1.25269C26.8609 1.25269 26.7535 1.36872 26.7535 1.51185C26.7535 1.65498 26.8609 1.77102 26.9933 1.77102Z" fill="#B1ACBE"/>
<path d="M28.1287 1.51185C28.1287 1.65377 28.0215 1.77102 27.889 1.77102C27.7565 1.77102 27.6493 1.65377 27.6493 1.51185C27.6493 1.36993 27.7565 1.25269 27.889 1.25269C28.0215 1.25269 28.1287 1.36993 28.1287 1.51185Z" fill="#B1ACBE"/>
<path d="M29.0245 1.51185C29.0245 1.65377 28.9172 1.77102 28.7848 1.77102C28.6523 1.77102 28.545 1.65377 28.545 1.51185C28.545 1.36993 28.6523 1.25269 28.7848 1.25269C28.9172 1.25269 29.0245 1.36993 29.0245 1.51185Z" fill="#B1ACBE"/>
<path d="M29.9203 1.51185C29.9203 1.65377 29.8131 1.77102 29.6806 1.77102C29.5482 1.77102 29.4409 1.65377 29.4409 1.51185C29.4409 1.36993 29.5482 1.25269 29.6806 1.25269C29.8131 1.25269 29.9203 1.36993 29.9203 1.51185Z" fill="#B1ACBE"/>
<path d="M30.8161 1.51185C30.8161 1.65377 30.7089 1.77102 30.5764 1.77102C30.4439 1.77102 30.3367 1.65377 30.3367 1.51185C30.3367 1.36993 30.4439 1.25269 30.5764 1.25269C30.7089 1.25269 30.8161 1.36993 30.8161 1.51185Z" fill="#B1ACBE"/>
<path d="M31.7119 1.51185C31.7119 1.65377 31.6046 1.77102 31.4721 1.77102C31.3397 1.77102 31.2324 1.65377 31.2324 1.51185C31.2324 1.36993 31.3397 1.25269 31.4721 1.25269C31.6046 1.25269 31.7119 1.36993 31.7119 1.51185Z" fill="#B1ACBE"/>
<path d="M32.3679 1.77102C32.5003 1.77102 32.6076 1.65498 32.6076 1.51185C32.6076 1.36872 32.5003 1.25269 32.3679 1.25269C32.2355 1.25269 32.1282 1.36872 32.1282 1.51185C32.1282 1.65498 32.2355 1.77102 32.3679 1.77102Z" fill="#B1ACBE"/>
<path d="M33.2636 1.77102C33.396 1.77102 33.5034 1.65498 33.5034 1.51185C33.5034 1.36872 33.396 1.25269 33.2636 1.25269C33.1313 1.25269 33.0239 1.36872 33.0239 1.51185C33.0239 1.65498 33.1313 1.77102 33.2636 1.77102Z" fill="#B1ACBE"/>
<path d="M34.3992 1.51185C34.3992 1.65377 34.292 1.77102 34.1595 1.77102C34.027 1.77102 33.9198 1.65377 33.9198 1.51185C33.9198 1.36993 34.027 1.25269 34.1595 1.25269C34.292 1.25269 34.3992 1.36993 34.3992 1.51185Z" fill="#B1ACBE"/>
<path d="M35.295 1.51185C35.295 1.65377 35.1877 1.77102 35.0553 1.77102C34.9228 1.77102 34.8156 1.65377 34.8156 1.51185C34.8156 1.36993 34.9228 1.25269 35.0553 1.25269C35.1877 1.25269 35.295 1.36993 35.295 1.51185Z" fill="#B1ACBE"/>
<path d="M36.1907 1.51185C36.1907 1.65377 36.0835 1.77102 35.951 1.77102C35.8185 1.77102 35.7113 1.65377 35.7113 1.51185C35.7113 1.36993 35.8185 1.25269 35.951 1.25269C36.0835 1.25269 36.1907 1.36993 36.1907 1.51185Z" fill="#B1ACBE"/>
<path d="M37.0865 1.51185C37.0865 1.65377 36.9792 1.77102 36.8468 1.77102C36.7143 1.77102 36.6071 1.65377 36.6071 1.51185C36.6071 1.36993 36.7143 1.25269 36.8468 1.25269C36.9792 1.25269 37.0865 1.36993 37.0865 1.51185Z" fill="#B1ACBE"/>
<path d="M37.7425 1.77102C37.8749 1.77102 37.9822 1.65498 37.9822 1.51185C37.9822 1.36872 37.8749 1.25269 37.7425 1.25269C37.6101 1.25269 37.5028 1.36872 37.5028 1.51185C37.5028 1.65498 37.6101 1.77102 37.7425 1.77102Z" fill="#B1ACBE"/>
<path d="M38.6384 1.77102C38.7708 1.77102 38.8781 1.65498 38.8781 1.51185C38.8781 1.36872 38.7708 1.25269 38.6384 1.25269C38.506 1.25269 38.3987 1.36872 38.3987 1.51185C38.3987 1.65498 38.506 1.77102 38.6384 1.77102Z" fill="#B1ACBE"/>
<path d="M39.7739 1.51185C39.7739 1.65377 39.6666 1.77102 39.5341 1.77102C39.4017 1.77102 39.2944 1.65377 39.2944 1.51185C39.2944 1.36993 39.4017 1.25269 39.5341 1.25269C39.6666 1.25269 39.7739 1.36993 39.7739 1.51185Z" fill="#B1ACBE"/>
<path d="M40.6696 1.51185C40.6696 1.65377 40.5624 1.77102 40.4299 1.77102C40.2974 1.77102 40.1902 1.65377 40.1902 1.51185C40.1902 1.36993 40.2974 1.25269 40.4299 1.25269C40.5624 1.25269 40.6696 1.36993 40.6696 1.51185Z" fill="#B1ACBE"/>
<path d="M41.5654 1.51185C41.5654 1.65377 41.4581 1.77102 41.3257 1.77102C41.1932 1.77102 41.0859 1.65377 41.0859 1.51185C41.0859 1.36993 41.1932 1.25269 41.3257 1.25269C41.4581 1.25269 41.5654 1.36993 41.5654 1.51185Z" fill="#B1ACBE"/>
<path d="M42.4611 1.51185C42.4611 1.65377 42.3539 1.77102 42.2214 1.77102C42.0889 1.77102 41.9817 1.65377 41.9817 1.51185C41.9817 1.36993 42.0889 1.25269 42.2214 1.25269C42.3539 1.25269 42.4611 1.36993 42.4611 1.51185Z" fill="#B1ACBE"/>
<path d="M43.1173 1.77102C43.2497 1.77102 43.357 1.65498 43.357 1.51185C43.357 1.36872 43.2497 1.25269 43.1173 1.25269C42.9849 1.25269 42.8776 1.36872 42.8776 1.51185C42.8776 1.65498 42.9849 1.77102 43.1173 1.77102Z" fill="#B1ACBE"/>
<path d="M43.8742 0.407227H22.9875C22.7785 0.407227 22.609 0.572987 22.609 0.777462C22.609 0.981938 22.7785 1.1477 22.9875 1.1477H43.8742C44.0833 1.1477 44.2527 0.981938 44.2527 0.777462C44.2527 0.572987 44.0833 0.407227 43.8742 0.407227Z" fill="#DBD3E0"/>
<path d="M23.3975 0.777476C23.3975 0.9194 23.2903 1.03664 23.1578 1.03664C23.0253 1.03664 22.9181 0.9194 22.9181 0.777476C22.9181 0.635552 23.0253 0.518311 23.1578 0.518311C23.2903 0.518311 23.3975 0.635552 23.3975 0.777476Z" fill="#B1ACBE"/>
<path d="M24.2933 0.777476C24.2933 0.9194 24.186 1.03664 24.0536 1.03664C23.9211 1.03664 23.8138 0.9194 23.8138 0.777476C23.8138 0.635552 23.9211 0.518311 24.0536 0.518311C24.186 0.518311 24.2933 0.635552 24.2933 0.777476Z" fill="#B1ACBE"/>
<path d="M25.189 0.777476C25.189 0.9194 25.0818 1.03664 24.9493 1.03664C24.8168 1.03664 24.7096 0.9194 24.7096 0.777476C24.7096 0.635552 24.8168 0.518311 24.9493 0.518311C25.0818 0.518311 25.189 0.635552 25.189 0.777476Z" fill="#B1ACBE"/>
<path d="M26.0849 0.777476C26.0849 0.9194 25.9777 1.03664 25.8452 1.03664C25.7127 1.03664 25.6055 0.9194 25.6055 0.777476C25.6055 0.635552 25.7127 0.518311 25.8452 0.518311C25.9777 0.518311 26.0849 0.635552 26.0849 0.777476Z" fill="#B1ACBE"/>
<path d="M26.9806 0.777476C26.9806 0.9194 26.8734 1.03664 26.7409 1.03664C26.6085 1.03664 26.5012 0.9194 26.5012 0.777476C26.5012 0.635552 26.6085 0.518311 26.7409 0.518311C26.8734 0.518311 26.9806 0.635552 26.9806 0.777476Z" fill="#B1ACBE"/>
<path d="M27.8764 0.777476C27.8764 0.9194 27.7692 1.03664 27.6367 1.03664C27.5042 1.03664 27.397 0.9194 27.397 0.777476C27.397 0.635552 27.5042 0.518311 27.6367 0.518311C27.7692 0.518311 27.8764 0.635552 27.8764 0.777476Z" fill="#B1ACBE"/>
<path d="M28.7722 0.777476C28.7722 0.9194 28.6649 1.03664 28.5324 1.03664C28.4 1.03664 28.2927 0.9194 28.2927 0.777476C28.2927 0.635552 28.4 0.518311 28.5324 0.518311C28.6649 0.518311 28.7722 0.635552 28.7722 0.777476Z" fill="#B1ACBE"/>
<path d="M29.6679 0.777476C29.6679 0.9194 29.5607 1.03664 29.4282 1.03664C29.2957 1.03664 29.1885 0.9194 29.1885 0.777476C29.1885 0.635552 29.2957 0.518311 29.4282 0.518311C29.5607 0.518311 29.6679 0.635552 29.6679 0.777476Z" fill="#B1ACBE"/>
<path d="M30.5638 0.777476C30.5638 0.9194 30.4565 1.03664 30.3241 1.03664C30.1916 1.03664 30.0844 0.9194 30.0844 0.777476C30.0844 0.635552 30.1916 0.518311 30.3241 0.518311C30.4565 0.518311 30.5638 0.635552 30.5638 0.777476Z" fill="#B1ACBE"/>
<path d="M31.4595 0.777476C31.4595 0.9194 31.3523 1.03664 31.2198 1.03664C31.0873 1.03664 30.9801 0.9194 30.9801 0.777476C30.9801 0.635552 31.0873 0.518311 31.2198 0.518311C31.3523 0.518311 31.4595 0.635552 31.4595 0.777476Z" fill="#B1ACBE"/>
<path d="M32.3553 0.777476C32.3553 0.9194 32.248 1.03664 32.1156 1.03664C31.9831 1.03664 31.8759 0.9194 31.8759 0.777476C31.8759 0.635552 31.9831 0.518311 32.1156 0.518311C32.248 0.518311 32.3553 0.635552 32.3553 0.777476Z" fill="#B1ACBE"/>
<path d="M33.251 0.777476C33.251 0.9194 33.1438 1.03664 33.0113 1.03664C32.8788 1.03664 32.7716 0.9194 32.7716 0.777476C32.7716 0.635552 32.8788 0.518311 33.0113 0.518311C33.1438 0.518311 33.251 0.635552 33.251 0.777476Z" fill="#B1ACBE"/>
<path d="M34.1468 0.777476C34.1468 0.9194 34.0395 1.03664 33.9071 1.03664C33.7746 1.03664 33.6674 0.9194 33.6674 0.777476C33.6674 0.635552 33.7746 0.518311 33.9071 0.518311C34.0395 0.518311 34.1468 0.635552 34.1468 0.777476Z" fill="#B1ACBE"/>
<path d="M35.0427 0.777476C35.0427 0.9194 34.9354 1.03664 34.8029 1.03664C34.6705 1.03664 34.5632 0.9194 34.5632 0.777476C34.5632 0.635552 34.6705 0.518311 34.8029 0.518311C34.9354 0.518311 35.0427 0.635552 35.0427 0.777476Z" fill="#B1ACBE"/>
<path d="M35.9384 0.777476C35.9384 0.9194 35.8312 1.03664 35.6987 1.03664C35.5662 1.03664 35.459 0.9194 35.459 0.777476C35.459 0.635552 35.5662 0.518311 35.6987 0.518311C35.8312 0.518311 35.9384 0.635552 35.9384 0.777476Z" fill="#B1ACBE"/>
<path d="M36.8342 0.777476C36.8342 0.9194 36.7269 1.03664 36.5945 1.03664C36.462 1.03664 36.3547 0.9194 36.3547 0.777476C36.3547 0.635552 36.462 0.518311 36.5945 0.518311C36.7269 0.518311 36.8342 0.635552 36.8342 0.777476Z" fill="#B1ACBE"/>
<path d="M37.7299 0.777476C37.7299 0.9194 37.6227 1.03664 37.4902 1.03664C37.3577 1.03664 37.2505 0.9194 37.2505 0.777476C37.2505 0.635552 37.3577 0.518311 37.4902 0.518311C37.6227 0.518311 37.7299 0.635552 37.7299 0.777476Z" fill="#B1ACBE"/>
<path d="M38.6257 0.777476C38.6257 0.9194 38.5184 1.03664 38.386 1.03664C38.2535 1.03664 38.1462 0.9194 38.1462 0.777476C38.1462 0.635552 38.2535 0.518311 38.386 0.518311C38.5184 0.518311 38.6257 0.635552 38.6257 0.777476Z" fill="#B1ACBE"/>
<path d="M39.5215 0.777476C39.5215 0.9194 39.4143 1.03664 39.2818 1.03664C39.1494 1.03664 39.0421 0.9194 39.0421 0.777476C39.0421 0.635552 39.1494 0.518311 39.2818 0.518311C39.4143 0.518311 39.5215 0.635552 39.5215 0.777476Z" fill="#B1ACBE"/>
<path d="M40.4173 0.777476C40.4173 0.9194 40.3101 1.03664 40.1776 1.03664C40.0451 1.03664 39.9379 0.9194 39.9379 0.777476C39.9379 0.635552 40.0451 0.518311 40.1776 0.518311C40.3101 0.518311 40.4173 0.635552 40.4173 0.777476Z" fill="#B1ACBE"/>
<path d="M41.313 0.777476C41.313 0.9194 41.2058 1.03664 41.0733 1.03664C40.9409 1.03664 40.8336 0.9194 40.8336 0.777476C40.8336 0.635552 40.9409 0.518311 41.0733 0.518311C41.2058 0.518311 41.313 0.635552 41.313 0.777476Z" fill="#B1ACBE"/>
<path d="M42.2088 0.777476C42.2088 0.9194 42.1016 1.03664 41.9691 1.03664C41.8366 1.03664 41.7294 0.9194 41.7294 0.777476C41.7294 0.635552 41.8366 0.518311 41.9691 0.518311C42.1016 0.518311 42.2088 0.635552 42.2088 0.777476Z" fill="#B1ACBE"/>
<path d="M43.1046 0.777476C43.1046 0.9194 42.9973 1.03664 42.8648 1.03664C42.7324 1.03664 42.6251 0.9194 42.6251 0.777476C42.6251 0.635552 42.7324 0.518311 42.8648 0.518311C42.9973 0.518311 43.1046 0.635552 43.1046 0.777476Z" fill="#B1ACBE"/>
<path d="M44.0004 0.777476C44.0004 0.9194 43.8932 1.03664 43.7607 1.03664C43.6282 1.03664 43.521 0.9194 43.521 0.777476C43.521 0.635552 43.6282 0.518311 43.7607 0.518311C43.8932 0.518311 44.0004 0.635552 44.0004 0.777476Z" fill="#B1ACBE"/>
<path d="M28.7847 13.7727H25.7504C25.6808 13.7727 25.6243 13.8266 25.6243 13.893C25.6243 13.9595 25.6808 14.0134 25.7504 14.0134H28.7847C28.8544 14.0134 28.9109 13.9595 28.9109 13.893C28.9109 13.8266 28.8544 13.7727 28.7847 13.7727Z" fill="#00C795"/>
<path d="M43.3632 13.7727H40.7453C40.6756 13.7727 40.6191 13.8266 40.6191 13.893C40.6191 13.9595 40.6756 14.0134 40.7453 14.0134H43.3632C43.4329 14.0134 43.4894 13.9595 43.4894 13.893C43.4894 13.8266 43.4329 13.7727 43.3632 13.7727Z" fill="#00C795"/>
<path d="M27.9021 7.01245H28.7348L28.7474 7.19757H28.1103L28.1481 7.76526H28.7348L28.7474 7.94421H28.1607L28.2112 8.71554H28.0093L27.9021 7.01245Z" fill="#DF2C2C" fill-opacity="0.72"/>
<path d="M29.3341 7.01245L29.4413 8.71554H29.2394L29.1322 7.01245H29.3341Z" fill="#DF2C2C" fill-opacity="0.72"/>
<path d="M29.8009 7.03702C29.9018 7.01234 30.0469 7 30.1794 7C30.3938 7 30.5326 7.04319 30.6336 7.14192C30.7156 7.21597 30.766 7.33321 30.7786 7.46279C30.7913 7.68494 30.6714 7.8392 30.5137 7.89474C30.6336 7.95027 30.7156 8.06751 30.766 8.24646C30.8291 8.48711 30.8796 8.64755 30.9174 8.71543H30.7093C30.684 8.66606 30.6399 8.51797 30.5831 8.30817C30.52 8.07368 30.4317 7.9873 30.2488 7.97495H30.0595L30.1037 8.71543H29.9018L29.7946 7.03702H29.8009ZM30.0532 7.81452H30.2551C30.4695 7.81452 30.5957 7.68494 30.5831 7.49365C30.5705 7.27151 30.4191 7.17895 30.2046 7.17278C30.11 7.17278 30.0406 7.18512 30.009 7.19129L30.0469 7.81452H30.0532Z" fill="#DF2C2C" fill-opacity="0.72"/>
<path d="M32.0088 7.91946H31.4095L31.4474 8.53652H32.116L32.1287 8.72164H31.2581L31.1509 7.01855H31.9899L32.0025 7.20367H31.3654L31.3969 7.74051H31.9962L32.0088 7.91946Z" fill="#DF2C2C" fill-opacity="0.72"/>
<path d="M32.7464 7.04941C32.8221 7.0309 32.9293 7.01855 33.0303 7.01855C33.188 7.01855 33.2952 7.05558 33.3709 7.14197C33.434 7.20984 33.4718 7.31474 33.4718 7.43198C33.4781 7.62944 33.3898 7.7652 33.27 7.82073C33.3583 7.8701 33.4214 7.975 33.4529 8.13543C33.4971 8.34523 33.5349 8.49333 33.5602 8.54886H33.4024C33.3835 8.50567 33.352 8.37609 33.3078 8.1848C33.2637 7.975 33.2006 7.89478 33.0618 7.88861H32.923L32.9482 8.54269H32.7968L32.7338 7.04941H32.7464ZM32.923 7.74051H33.0744C33.2321 7.74051 33.3331 7.62327 33.3267 7.4505C33.3204 7.25304 33.2069 7.16665 33.0492 7.16665C32.9798 7.16665 32.923 7.17282 32.9041 7.18516L32.9293 7.74051H32.923Z" fill="#DF2C2C" fill-opacity="0.72"/>
<path d="M34.3928 7.83929H33.9449L33.9702 8.38847H34.4748V8.55508H33.8314L33.7683 7.03711H34.3928V7.20372H33.926L33.9449 7.68502H34.3928V7.84546V7.83929Z" fill="#DF2C2C" fill-opacity="0.72"/>
<path d="M34.7209 8.30817C34.7903 8.3637 34.8912 8.4069 34.9922 8.4069C35.1436 8.4069 35.2319 8.302 35.2256 8.14773C35.2256 8.00581 35.1562 7.92559 34.9922 7.84537C34.7966 7.75898 34.6767 7.6294 34.6704 7.41343C34.6578 7.17895 34.8029 7 35.03 7C35.1499 7 35.2382 7.03702 35.2887 7.07405L35.2508 7.23448C35.213 7.2098 35.1309 7.16044 35.03 7.16044C34.8723 7.16044 34.8155 7.28385 34.8218 7.38875C34.8218 7.53067 34.9038 7.59855 35.0616 7.67877C35.2634 7.7775 35.3644 7.90091 35.377 8.12305C35.3896 8.35753 35.2634 8.56116 34.9922 8.56116C34.8786 8.56116 34.7588 8.51797 34.6957 8.46243L34.7272 8.29583L34.7209 8.30817Z" fill="#DF2C2C" fill-opacity="0.72"/>
<path d="M36.4934 8.49957C36.443 8.53659 36.3294 8.57361 36.1907 8.57361C35.8626 8.57361 35.6103 8.30211 35.5851 7.80846C35.5661 7.33332 35.7995 7.01245 36.1591 7.01245C36.3042 7.01245 36.3988 7.05565 36.4367 7.08033L36.4051 7.24076C36.3484 7.20374 36.2664 7.17906 36.1717 7.17906C35.9005 7.17906 35.7301 7.40737 35.7428 7.80229C35.7554 8.17252 35.932 8.41318 36.2159 8.41318C36.3042 8.41318 36.3988 8.38849 36.4556 8.35147L36.4934 8.50574V8.49957Z" fill="#DF2C2C" fill-opacity="0.72"/>
<path d="M36.8531 7.03083L36.8909 7.92557C36.9036 8.26495 37.0234 8.40687 37.1811 8.40687C37.3515 8.40687 37.4587 8.25878 37.4461 7.92557L37.4082 7.03083H37.5596L37.5975 7.91322C37.6164 8.37602 37.4398 8.56731 37.1874 8.56731C36.9477 8.56731 36.7648 8.38836 36.7459 7.91939L36.708 7.02466H36.8594L36.8531 7.03083Z" fill="#DF2C2C" fill-opacity="0.72"/>
<path d="M38.5374 7.83929H38.0895L38.1147 8.38847H38.6194V8.55508H37.9759L37.9128 7.03711H38.5374V7.20372H38.0705L38.0895 7.68502H38.5374V7.84546V7.83929Z" fill="#DF2C2C" fill-opacity="0.72"/>
<path d="M38.4932 9.55249H32.9356C32.852 9.55249 32.7842 9.61741 32.7842 9.6975C32.7842 9.77759 32.852 9.84251 32.9356 9.84251H38.4932C38.5768 9.84251 38.6446 9.77759 38.6446 9.6975C38.6446 9.61741 38.5768 9.55249 38.4932 9.55249Z" fill="#ECEAF1"/>
<path d="M16.2565 3.17774V7.22566C16.2565 7.44163 16.0988 7.6144 15.9032 7.6144H12.7049C12.5283 7.6144 12.3895 7.47865 12.358 7.30587C12.3517 7.25651 12.3454 7.20097 12.358 7.14544L12.951 4.18972L13.1655 3.1037C13.2033 2.92475 13.3484 2.79517 13.5124 2.79517H15.8969C16.0925 2.79517 16.2502 2.96794 16.2502 3.18391L16.2565 3.17774Z" fill="black"/>
<path d="M20.7291 3.14061V7.25023C20.7291 7.44769 20.584 7.60812 20.4074 7.60812H17.1712C16.9946 7.60812 16.8495 7.44769 16.8495 7.25023V3.14061C16.8495 2.94315 16.9946 2.78271 17.1712 2.78271H20.4074C20.584 2.78271 20.7291 2.94315 20.7291 3.14061Z" fill="black"/>
<path d="M15.6004 2.78271L12.358 7.29342C12.3517 7.24406 12.3454 7.18852 12.358 7.13299L12.951 4.17727L13.954 2.78271H15.6004Z" fill="#2C3B44"/>
<path d="M14.118 7.60819L16.2502 4.64014V7.21945C16.2502 7.43542 16.0925 7.60819 15.897 7.60819H14.118Z" fill="#2C3B44"/>
<path d="M19.8144 2.78271L16.8495 6.91702V3.8132L17.5876 2.78271H19.8144Z" fill="#2C3B44"/>
<path d="M20.729 3.85645V5.9236L19.5178 7.60817H18.0354L20.729 3.85645Z" fill="#2C3B44"/>
<path d="M15.8969 7.66994H12.6986C12.503 7.66994 12.339 7.52185 12.2949 7.31205C12.2822 7.25034 12.2822 7.18864 12.2949 7.12693L13.1023 3.07902C13.1402 2.87539 13.3105 2.72729 13.4997 2.72729H15.8843C16.1114 2.72729 16.2943 2.93092 16.2943 3.17775V7.22566C16.2943 7.47249 16.1114 7.67612 15.8843 7.67612L15.8969 7.66994ZM13.0014 4.18356L12.4084 7.15161C12.4021 7.19481 12.3958 7.24417 12.4084 7.28737C12.44 7.44163 12.5598 7.5527 12.7049 7.5527H15.9032C16.0672 7.5527 16.206 7.40461 16.206 7.21949V3.17158C16.206 2.98646 16.0735 2.83837 15.9032 2.83837H13.5187C13.3799 2.83837 13.2537 2.94944 13.2222 3.09753L13.0077 4.17739L13.0014 4.18356Z" fill="#362E42"/>
<path d="M20.4074 7.66988H17.1712C16.963 7.66988 16.7927 7.48476 16.7927 7.25645V3.14683C16.7927 2.91852 16.963 2.7334 17.1712 2.7334H20.4074C20.6155 2.7334 20.7859 2.91852 20.7859 3.14683V7.25645C20.7859 7.48476 20.6155 7.66988 20.4074 7.66988ZM17.1712 2.84447C17.0198 2.84447 16.9 2.98022 16.9 3.14066V7.25028C16.9 7.41688 17.0198 7.54647 17.1712 7.54647H20.4074C20.5588 7.54647 20.6786 7.41071 20.6786 7.25028V3.14066C20.6786 2.97405 20.5588 2.84447 20.4074 2.84447H17.1712Z" fill="#362E42"/>
<path d="M16.0547 8.51541V8.79926C16.0547 8.84862 16.0168 8.89182 15.9727 8.89182H14.6101C14.5659 8.89182 14.5281 8.84862 14.5281 8.79926V8.51541C14.5281 8.46605 14.5659 8.42285 14.6101 8.42285H15.9727C16.0168 8.42285 16.0547 8.46605 16.0547 8.51541Z" fill="#DBD3E0"/>
<path d="M16.0547 8.65723V8.79915C16.0547 8.84852 16.0168 8.89171 15.9727 8.89171H14.6101C14.5659 8.89171 14.5281 8.84852 14.5281 8.79915V8.65723H16.061H16.0547Z" fill="#CAC0CF"/>
<path d="M20.7291 8.51541V8.79926C20.7291 8.84862 20.6913 8.89182 20.6471 8.89182H19.2845C19.2404 8.89182 19.2025 8.84862 19.2025 8.79926V8.51541C19.2025 8.46605 19.2404 8.42285 19.2845 8.42285H20.6471C20.6913 8.42285 20.7291 8.46605 20.7291 8.51541Z" fill="#DBD3E0"/>
<path d="M20.7291 8.65723V8.79915C20.7291 8.84852 20.6913 8.89171 20.6471 8.89171H19.2845C19.2404 8.89171 19.2025 8.84852 19.2025 8.79915V8.65723H20.7354H20.7291Z" fill="#CAC0CF"/>
<path d="M44.9907 14.7848H46.5552C46.6624 14.7848 46.757 14.7046 46.7823 14.5873L46.8958 14.0073C46.9148 13.9024 46.8454 13.8098 46.7507 13.8098H44.9907V14.7909V14.7848Z" fill="#00B095"/>
<path d="M15.9412 9.73096H12.2067C12.1196 9.73096 12.049 9.80002 12.049 9.88522C12.049 9.97042 12.1196 10.0395 12.2067 10.0395H15.9412C16.0283 10.0395 16.0989 9.97042 16.0989 9.88522C16.0989 9.80002 16.0283 9.73096 15.9412 9.73096Z" fill="#ECEAF1"/>
<path d="M20.7417 9.73096H17.0072C16.9201 9.73096 16.8495 9.80002 16.8495 9.88522C16.8495 9.97042 16.9201 10.0395 17.0072 10.0395H20.7417C20.8288 10.0395 20.8994 9.97042 20.8994 9.88522C20.8994 9.80002 20.8288 9.73096 20.7417 9.73096Z" fill="#ECEAF1"/>
<path d="M17.9913 11.2675L17.9724 11.0268H17.5939V10.9466L17.9093 10.3789H18.0291L18.067 10.9281H18.1805V11.0206H18.0733L18.0922 11.2613H17.9913V11.2675ZM17.9661 10.9343L17.9471 10.6381C17.9471 10.5887 17.9471 10.5455 17.9408 10.4961C17.9219 10.5455 17.903 10.5887 17.8841 10.6257L17.7074 10.9281H17.9724L17.9661 10.9343Z" fill="#ECEAF1"/>
<path d="M18.2877 11.2674V11.1934L18.3634 11.1008C18.5527 10.8849 18.641 10.7676 18.6284 10.638C18.6221 10.5455 18.5779 10.4653 18.4581 10.4653C18.3824 10.4653 18.3256 10.5084 18.294 10.5393L18.2499 10.4529C18.3003 10.4035 18.376 10.3604 18.4707 10.3604C18.6473 10.3604 18.7293 10.4899 18.7356 10.6195C18.7482 10.7861 18.6473 10.9157 18.4896 11.0947L18.4265 11.1625H18.7924V11.2613H18.2814L18.2877 11.2674Z" fill="#ECEAF1"/>
<path d="M18.9313 11.2674V11.1934L19.007 11.1008C19.1962 10.8849 19.2845 10.7676 19.2719 10.638C19.2656 10.5455 19.2215 10.4653 19.1016 10.4653C19.0259 10.4653 18.9691 10.5084 18.9376 10.5393L18.8934 10.4529C18.9439 10.4035 19.0196 10.3604 19.1142 10.3604C19.2909 10.3604 19.3729 10.4899 19.3792 10.6195C19.3918 10.7861 19.2909 10.9157 19.1331 11.0947L19.0701 11.1625H19.4359V11.2613H18.925L18.9313 11.2674Z" fill="#ECEAF1"/>
<path d="M19.7513 10.4961L19.6189 10.5764L19.5936 10.4838L19.764 10.3789H19.8586L19.9217 11.2675H19.8144L19.7576 10.49L19.7513 10.4961Z" fill="#ECEAF1"/>
<path d="M13.0961 7.75643H12.5788C12.3706 7.75643 12.2003 7.57131 12.2003 7.343V3.04209C12.2003 2.81378 12.3706 2.62866 12.5788 2.62866H13.4115C13.462 2.62866 13.4998 2.66569 13.4998 2.71505C13.4998 2.76442 13.462 2.80144 13.4115 2.80144H12.5788C12.4716 2.80144 12.3769 2.90634 12.3769 3.03592V7.33683C12.3769 7.46641 12.4653 7.57131 12.5788 7.57131H13.0961C13.1466 7.57131 13.1844 7.60834 13.1844 7.6577C13.1844 7.70706 13.1466 7.74409 13.0961 7.74409V7.75643Z" fill="#362E42"/>
<path d="M21.7573 2.46826H44.4293C44.6627 2.46826 44.8519 2.65338 44.8519 2.88169H21.7573V2.46826Z" fill="#ECEAF1"/>
<path d="M29.7752 2.46824H29.5922V2.27695C29.5922 2.01162 29.3588 1.79565 29.0686 1.79565H24.8105C24.5204 1.79565 24.2869 2.01162 24.2869 2.27695V2.46824H24.104V2.27695C24.104 1.91289 24.4194 1.6167 24.8105 1.6167H29.0686C29.4597 1.6167 29.7752 1.91289 29.7752 2.27695V2.46824Z" fill="#7A7382"/>
<path d="M45.6089 2.35091V4.18358L45.426 3.86271V2.35708C45.426 2.06089 45.1484 1.82641 44.8015 1.82641H39.8873C39.5467 1.82641 39.2691 2.06706 39.2691 2.35708V2.47432H39.0862V2.35708C39.0862 1.96833 39.4458 1.64746 39.8873 1.64746H44.8015C45.2431 1.64746 45.6026 1.96833 45.6026 2.35708L45.6089 2.35091Z" fill="#7A7382"/>
<path d="M13.115 4.49835C13.115 4.25979 12.9173 4.06641 12.6734 4.06641C12.4295 4.06641 12.2318 4.25979 12.2318 4.49835V5.58437C12.2318 5.82293 12.4295 6.01632 12.6734 6.01632C12.9173 6.01632 13.115 5.82293 13.115 5.58437V4.49835Z" fill="#362E42"/>
<path d="M12.3327 3.35676C12.2822 3.5789 12.2192 3.85041 12.1498 4.1466C11.8407 5.47328 11.3865 7.32446 11.2351 7.60831C11.1026 7.8613 10.9575 8.12664 10.5348 8.12664H3.28032C3.00906 8.12664 2.82612 7.85513 2.93336 7.61448L3.37494 6.59016L4.77538 3.35059C4.9394 2.96802 5.3242 2.72119 5.74686 2.72119H11.9794C12.2128 2.81375 12.3958 3.08526 12.3327 3.35676Z" fill="black"/>
<path d="M8.0556 2.72119L4.71221 8.12664H3.28654C3.01529 8.12664 2.83235 7.85513 2.93959 7.61448L3.38117 6.59016L5.77831 2.72119H8.0556Z" fill="#2C3B44"/>
<path d="M12.3327 3.35676C12.2822 3.5789 12.2192 3.85041 12.1498 4.1466L9.68953 8.12664H6.20105L9.54444 2.72119H11.9794C12.2128 2.81375 12.3958 3.08526 12.3327 3.35676Z" fill="#2C3B44"/>
<path d="M11.9668 2.8446C12.1371 2.92482 12.2633 3.12845 12.2128 3.33208C12.1561 3.57273 12.0867 3.86275 12.0299 4.12192V4.13426C11.3928 6.83081 11.1909 7.43553 11.1278 7.55894C11.0017 7.79959 10.8881 8.0094 10.5285 8.0094H3.28032C3.192 8.0094 3.1163 7.9662 3.06584 7.89832C3.01537 7.82428 3.00906 7.73789 3.0406 7.66384L3.48218 6.63952L4.88262 3.39996C5.02771 3.06057 5.36836 2.8446 5.74055 2.8446H11.9605H11.9668ZM11.9794 2.72119H5.74686C5.3242 2.72119 4.9457 2.96802 4.77538 3.35059L3.37494 6.59016L2.93336 7.61448C2.82612 7.85513 3.00906 8.12664 3.28032 8.12664H10.5348C10.9575 8.12664 11.1026 7.86747 11.2351 7.60831C11.3865 7.32446 11.8343 5.46711 12.1498 4.1466C12.2192 3.85041 12.2822 3.5789 12.3327 3.35676C12.3958 3.08526 12.2128 2.80758 11.9794 2.72119Z" fill="#362E42"/>
<path d="M10.7494 11.6069H10.7431C10.6037 11.6069 10.4907 11.7174 10.4907 11.8538V12.9336C10.4907 13.0699 10.6037 13.1804 10.7431 13.1804H10.7494C10.8887 13.1804 11.0017 13.0699 11.0017 12.9336V11.8538C11.0017 11.7174 10.8887 11.6069 10.7494 11.6069Z" fill="#FFBD55"/>
<path d="M13.6073 14.7723H1.24941C1.14217 14.7723 1.04755 14.6921 1.02231 14.5749L0.908764 13.9948C0.889839 13.8899 0.95923 13.7974 1.05385 13.7974H13.6073V14.7785V14.7723Z" fill="#00B095"/>
<path d="M6.98336 14.4948H4.75653C4.68714 14.4948 4.62406 14.4393 4.61775 14.3714L4.59252 14.1986C4.58621 14.1307 4.63037 14.0752 4.69976 14.0752H6.92658C6.99597 14.0752 7.05906 14.1307 7.06536 14.1986L7.0906 14.3714C7.09691 14.4393 7.05275 14.4948 6.98336 14.4948Z" fill="#9083A2"/>
<path d="M14.2316 14.2973C14.2316 14.4578 14.2442 14.6182 14.2631 14.7725H19.5431C19.5621 14.6182 19.5747 14.4578 19.5747 14.2973C19.5747 14.1678 19.5684 14.0382 19.5558 13.9086C19.5368 13.7482 19.5116 13.5877 19.4738 13.4335C19.152 12.1438 18.1238 11.1997 16.9126 11.1997C15.7014 11.1997 14.6731 12.1438 14.3514 13.4335C14.3136 13.5877 14.282 13.7482 14.2694 13.9086C14.2568 14.0382 14.2505 14.1678 14.2505 14.2973H14.2316Z" fill="#542D43"/>
<path d="M19.4422 14.7724L19.4737 14.5935C19.4863 14.4639 19.4927 14.4207 19.4927 14.2911C19.4927 14.1616 19.4863 14.0381 19.4737 13.9147C19.4548 13.7605 19.4296 13.6 19.3917 13.4519C19.07 12.1746 18.0481 11.2799 16.8999 11.2799C15.7518 11.2799 14.7299 12.1746 14.4082 13.4519C14.3703 13.6 14.3451 13.7605 14.3262 13.9147C14.3136 14.0381 14.3072 14.1677 14.3072 14.2911C14.3072 14.4146 14.3136 14.4639 14.3262 14.5935L14.3514 14.7724H14.1937L14.1811 14.6984C14.1622 14.538 14.1495 14.4577 14.1495 14.2973C14.1495 14.1616 14.1558 14.0258 14.1685 13.8962C14.1874 13.7296 14.2126 13.563 14.2568 13.4087C14.5974 12.0574 15.6761 11.1133 16.8936 11.1133C18.1111 11.1133 19.1899 12.0574 19.5305 13.4087C19.5684 13.5692 19.5999 13.7358 19.6188 13.8962C19.6314 14.0258 19.6377 14.1616 19.6377 14.2973C19.6377 14.4577 19.6251 14.538 19.6062 14.6984L19.5936 14.7724H19.4296H19.4422Z" fill="#ECEAF1"/>
<path d="M16.6097 16.9999C17.8953 16.9999 18.9375 15.7899 18.9375 14.2972C18.9375 12.8045 17.8953 11.5945 16.6097 11.5945C15.3242 11.5945 14.282 12.8045 14.282 14.2972C14.282 15.7899 15.3242 16.9999 16.6097 16.9999Z" fill="#4E454F"/>
<path d="M16.7296 15.8706C17.5379 15.8706 18.1932 15.1109 18.1932 14.1737C18.1932 13.2365 17.5379 12.4768 16.7296 12.4768C15.9214 12.4768 15.2661 13.2365 15.2661 14.1737C15.2661 15.1109 15.9214 15.8706 16.7296 15.8706Z" fill="#7A7382"/>
<path d="M16.7295 15.6178C17.4159 15.6178 17.9723 14.9714 17.9723 14.1739C17.9723 13.3764 17.4159 12.73 16.7295 12.73C16.0432 12.73 15.4868 13.3764 15.4868 14.1739C15.4868 14.9714 16.0432 15.6178 16.7295 15.6178Z" fill="#595266"/>
<path d="M16.6602 15.0748C17.0887 15.0748 17.4361 14.6714 17.4361 14.1739C17.4361 13.6763 17.0887 13.2729 16.6602 13.2729C16.2317 13.2729 15.8843 13.6763 15.8843 14.1739C15.8843 14.6714 16.2317 15.0748 16.6602 15.0748Z" fill="#00FEBE"/>
<path d="M18.3382 15.5807C18.3824 15.5807 18.4202 15.556 18.4455 15.5066C18.6284 15.1364 18.723 14.7168 18.723 14.291C18.723 12.9397 17.7768 11.8413 16.6098 11.8413C15.8275 11.8413 15.1147 12.3411 14.7425 13.1433C14.711 13.2112 14.7362 13.2976 14.793 13.3346C14.8497 13.3716 14.9254 13.3469 14.957 13.2791C15.285 12.5694 15.9158 12.1252 16.6098 12.1252C17.638 12.1252 18.477 13.1001 18.477 14.291C18.477 14.6674 18.395 15.0377 18.231 15.3647C18.1994 15.4326 18.2184 15.519 18.2751 15.556C18.2941 15.5683 18.313 15.5745 18.3382 15.5745V15.5807Z" fill="#5A4F5D"/>
<path d="M33.2448 14.2973C33.2448 14.4578 33.2574 14.6182 33.2763 14.7725H38.5563C38.5752 14.6182 38.5879 14.4578 38.5879 14.2973C38.5879 14.1678 38.5816 14.0382 38.5689 13.9086C38.55 13.7482 38.5248 13.5877 38.4869 13.4335C38.1652 12.1438 37.137 11.1997 35.9258 11.1997C34.7146 11.1997 33.6863 12.1438 33.3646 13.4335C33.3268 13.5877 33.2952 13.7482 33.2826 13.9086C33.27 14.0382 33.2637 14.1678 33.2637 14.2973H33.2448Z" fill="#542D43"/>
<path d="M38.4617 14.7724L38.4933 14.5935C38.5059 14.4639 38.5122 14.4207 38.5122 14.2911C38.5122 14.1616 38.5059 14.0381 38.4933 13.9147C38.4743 13.7605 38.4491 13.6 38.4112 13.4519C38.0895 12.1746 37.0676 11.2799 35.9195 11.2799C34.7714 11.2799 33.7494 12.1746 33.4277 13.4519C33.3899 13.6 33.3646 13.7605 33.3457 13.9147C33.3331 14.0381 33.3268 14.1677 33.3268 14.2911C33.3268 14.4146 33.3331 14.4639 33.3457 14.5935L33.3709 14.7724H33.2132L33.2006 14.6984C33.1817 14.538 33.1691 14.4577 33.1691 14.2973C33.1691 14.1616 33.1754 14.0258 33.188 13.8962C33.2069 13.7296 33.2321 13.563 33.2763 13.4087C33.617 12.0574 34.6957 11.1133 35.9132 11.1133C37.1307 11.1133 38.2094 12.0574 38.55 13.4087C38.5879 13.5692 38.6194 13.7358 38.6383 13.8962C38.651 14.0258 38.6573 14.1616 38.6573 14.2973C38.6573 14.4577 38.6447 14.538 38.6257 14.6984L38.6131 14.7724H38.4491H38.4617Z" fill="#ECEAF1"/>
<path d="M35.6293 16.9999C36.9149 16.9999 37.957 15.7899 37.957 14.2972C37.957 12.8045 36.9149 11.5945 35.6293 11.5945C34.3437 11.5945 33.3015 12.8045 33.3015 14.2972C33.3015 15.7899 34.3437 16.9999 35.6293 16.9999Z" fill="#4E454F"/>
<path d="M35.7428 15.8706C36.5511 15.8706 37.2063 15.1109 37.2063 14.1737C37.2063 13.2365 36.5511 12.4768 35.7428 12.4768C34.9345 12.4768 34.2793 13.2365 34.2793 14.1737C34.2793 15.1109 34.9345 15.8706 35.7428 15.8706Z" fill="#7A7382"/>
<path d="M35.7429 15.6178C36.4292 15.6178 36.9856 14.9714 36.9856 14.1739C36.9856 13.3764 36.4292 12.73 35.7429 12.73C35.0565 12.73 34.5001 13.3764 34.5001 14.1739C34.5001 14.9714 35.0565 15.6178 35.7429 15.6178Z" fill="#595266"/>
<path d="M35.6797 15.0748C36.1083 15.0748 36.4556 14.6714 36.4556 14.1739C36.4556 13.6763 36.1083 13.2729 35.6797 13.2729C35.2512 13.2729 34.9038 13.6763 34.9038 14.1739C34.9038 14.6714 35.2512 15.0748 35.6797 15.0748Z" fill="#00FEBE"/>
<path d="M37.3578 15.5807C37.4019 15.5807 37.4398 15.556 37.465 15.5066C37.6479 15.1364 37.7426 14.7168 37.7426 14.291C37.7426 12.9397 36.7963 11.8413 35.6293 11.8413C34.8471 11.8413 34.1342 12.3411 33.762 13.1433C33.7305 13.2112 33.7557 13.2976 33.8125 13.3346C33.8693 13.3716 33.945 13.3469 33.9765 13.2791C34.3045 12.5694 34.9354 12.1252 35.6293 12.1252C36.6575 12.1252 37.4965 13.1001 37.4965 14.291C37.4965 14.6674 37.4145 15.0377 37.2505 15.3647C37.219 15.4326 37.2379 15.519 37.2947 15.556C37.3136 15.5683 37.3325 15.5745 37.3578 15.5745V15.5807Z" fill="#5A4F5D"/>
<path d="M6.90759 0.81468C6.90759 0.81468 7.2924 0.864044 8.00523 0.913409C8.0557 0.913409 8.10617 0.91958 8.16294 0.92575C8.4342 0.944262 8.74961 0.962774 9.10918 0.975115C9.10918 0.975115 9.1218 0.975115 9.12811 0.975115C9.53815 0.993627 9.99865 1.00597 10.5096 1.01214C10.579 1.01214 10.6484 1.01214 10.7178 1.01214C10.8061 1.01214 10.9007 1.01214 10.9891 1.01214C11.2225 1.01214 11.4369 1.01214 11.6451 1.01214C11.6577 1.01214 11.664 1.01214 11.6767 1.01214C12.2066 1.00597 12.6481 0.987456 13.0203 0.968945C14.0864 0.913409 14.528 0.82085 14.528 0.82085C14.528 0.82085 14.4586 0.333373 13.853 0.228473C13.7773 0.216132 13.6953 0.209961 13.607 0.209961H7.61412C7.34917 0.209961 6.9139 0.475297 6.9139 0.827021L6.90759 0.81468Z" fill="#00FEBE"/>
<path d="M13.0203 0.96264C14.0864 0.907104 14.5279 0.814546 14.5279 0.814546C14.5279 0.814546 14.4586 0.327068 13.853 0.222168C13.5439 0.259192 13.1906 0.419627 13.0203 0.96264Z" fill="#43A3A7"/>
<path d="M10.7178 1.01196C10.8061 1.01196 10.9007 1.01196 10.989 1.01196C11.2224 1.01196 11.4369 1.01196 11.6451 1.01196C11.6577 1.01196 11.664 1.01196 11.6766 1.01196C11.7902 0.604702 12.0299 0.357878 12.257 0.203613H11.2224C10.9449 0.394902 10.7809 0.78365 10.7178 1.01196Z" fill="#F26B7A"/>
<path d="M8.16296 0.92564C8.43422 0.944152 8.74963 0.962664 9.10921 0.975005C9.22906 0.592428 9.45616 0.351775 9.67695 0.19751H8.6487C8.3459 0.364116 8.23866 0.697328 8.16927 0.92564H8.16296Z" fill="#F26B7A"/>
<path d="M6.57955 0.869988V1.11064C6.57955 1.11064 6.61109 1.16618 6.64894 1.16618H7.34285V1.86963H7.91691V1.16618H13.361V1.86345H13.9981V1.16618H14.6731C14.7109 1.16618 14.7425 1.14149 14.7425 1.11064V0.869988C14.7425 0.869988 14.7109 0.814453 14.6731 0.814453H6.64263C6.60478 0.814453 6.57324 0.839135 6.57324 0.869988H6.57955Z" fill="#CFC2D2"/>
<path d="M9.06507 13.162H2.1575C1.79793 13.162 1.48882 12.9028 1.4762 12.5758L1.43205 11.5144C1.41943 11.1936 1.7033 10.9282 2.06287 10.9282H8.97044C9.33002 10.9282 9.63912 11.1874 9.65174 11.5144L9.6959 12.5758C9.70851 12.8966 9.42464 13.162 9.06507 13.162Z" fill="#00C795"/>
<path d="M8.11886 11.6008H2.94607C2.85775 11.6008 2.78205 11.5267 2.78205 11.4403V11.3416C2.77574 11.2552 2.83883 11.1812 2.92714 11.1812H8.09993C8.18825 11.1812 8.26395 11.2552 8.26395 11.3416V11.4403C8.27026 11.5267 8.20717 11.6008 8.11886 11.6008Z" fill="#CCF4EA"/>
<path d="M8.11886 12.2548H2.94607C2.85775 12.2548 2.78205 12.1808 2.78205 12.0944V11.9956C2.77574 11.9093 2.83883 11.8352 2.92714 11.8352H8.09993C8.18825 11.8352 8.26395 11.9093 8.26395 11.9956V12.0944C8.27026 12.1808 8.20717 12.2548 8.11886 12.2548Z" fill="#CCF4EA"/>
<path d="M8.11886 12.9091H2.94607C2.85775 12.9091 2.78205 12.8351 2.78205 12.7487V12.6499C2.77574 12.5635 2.83883 12.4895 2.92714 12.4895H8.09993C8.18825 12.4895 8.26395 12.5635 8.26395 12.6499V12.7487C8.27026 12.8351 8.20717 12.9091 8.11886 12.9091Z" fill="#CCF4EA"/>
<path d="M9.14708 12.3783H8.66134C8.56671 12.3783 8.49101 12.2981 8.49101 12.1994L8.45947 11.354C8.45947 11.2553 8.52886 11.175 8.61718 11.175H9.10292C9.19754 11.175 9.27324 11.2553 9.27324 11.354L9.30478 12.1994C9.30478 12.2981 9.23539 12.3783 9.14708 12.3783Z" fill="#ECEAF1"/>
<path d="M9.22908 12.9091H8.61087C8.5541 12.9091 8.50994 12.8597 8.50363 12.8042V12.5758C8.49102 12.5141 8.53517 12.4709 8.59195 12.4709H9.21016C9.26693 12.4709 9.31109 12.5203 9.3174 12.5758V12.8042C9.33002 12.8659 9.28586 12.9091 9.22908 12.9091Z" fill="#FFBD55"/>
<path d="M2.40355 12.3783H1.91781C1.82318 12.3783 1.74748 12.2981 1.74748 12.1994L1.71594 11.354C1.71594 11.2553 1.78533 11.175 1.87365 11.175H2.35939C2.45401 11.175 2.52971 11.2553 2.52971 11.354L2.56125 12.1994C2.56125 12.2981 2.49186 12.3783 2.40355 12.3783Z" fill="#ECEAF1"/>
<path d="M2.48555 12.9091H1.86734C1.81057 12.9091 1.76641 12.8597 1.7601 12.8042V12.5758C1.74749 12.5141 1.79164 12.4709 1.84842 12.4709H2.46663C2.5234 12.4709 2.56756 12.5203 2.57387 12.5758V12.8042C2.58649 12.8659 2.54233 12.9091 2.48555 12.9091Z" fill="#FFBD55"/>
</g>
<defs>
<clipPath id="clip0_2226_4959">
<rect width="46" height="17" fill="white" transform="translate(0.9021)"/>
</clipPath>
</defs>
</svg>
