<svg width="40" height="70" viewBox="0 0 40 70" fill="none" xmlns="http://www.w3.org/2000/svg">
<g id="Group 13922">
<g id="Group">
<path id="Vector" d="M37.2763 68.0814H2.64636V26.3371C2.64636 20.6202 7.2861 15.957 13.0241 15.957H26.921C32.6366 15.957 37.2987 20.5978 37.2987 26.3371V68.0814H37.2763Z" fill="#00C795"/>
<path id="Vector_2" d="M11.0741 19.0506C11.5672 18.6919 11.1189 17.9296 10.5586 18.1538C6.38951 19.8577 4.21533 24.0276 4.21533 29.61V61.6244C4.21533 62.1849 4.66362 62.6333 5.22397 62.6333C5.78433 62.6333 6.23261 62.1849 6.23261 61.6244V29.61C6.2102 23.9155 8.78783 20.732 11.0741 19.0506Z" fill="#03A47B"/>
<path id="Vector_3" d="M37.2983 30.5103H2.17525C1.68214 30.5103 1.27869 30.1068 1.27869 29.6136C1.27869 29.1203 1.68214 28.7168 2.17525 28.7168H37.2759C37.769 28.7168 38.1725 29.1203 38.1725 29.6136C38.1725 30.1068 37.769 30.5103 37.2983 30.5103Z" fill="#03A47B" fill-opacity="0.5"/>
<path id="Vector_4" d="M37.2983 57.3907H2.17525C1.68214 57.3907 1.27869 56.9871 1.27869 56.4939C1.27869 56.0007 1.68214 55.5972 2.17525 55.5972H37.2759C37.769 55.5972 38.1725 56.0007 38.1725 56.4939C38.1725 56.9871 37.769 57.3907 37.2983 57.3907Z" fill="#03A47B" fill-opacity="0.5"/>
<path id="Vector_5" d="M24.5899 15.957H22.5502C29.5434 15.957 35.2366 21.6291 35.2366 28.6462V64.1805C34.7211 64.2926 34.34 64.853 34.34 65.5256C34.34 66.243 33.8694 66.8483 33.2866 66.8483H29.902C29.3193 66.8483 28.8486 66.2654 28.8486 65.5256C28.8486 64.7858 28.3555 64.1581 27.7503 64.1581H24.433C23.8278 64.1581 23.3347 64.7634 23.3347 65.5256C23.3347 66.243 22.864 66.8483 22.2812 66.8483H18.8967C18.3139 66.8483 17.8432 66.2654 17.8432 65.5256C17.8432 64.7858 17.3501 64.1581 16.7449 64.1581H13.4052C12.8 64.1581 12.3069 64.7634 12.3069 65.5256C12.3069 66.243 11.8362 66.8483 11.2534 66.8483H7.89129C7.30852 66.8483 6.83782 66.2654 6.83782 65.5256C6.83782 64.7858 6.34471 64.1581 5.73952 64.1581H3.54293C3.22913 64.1581 2.91533 64.2477 2.64636 64.4047V68.0814H35.2366H37.2763V28.6462C37.2763 21.6291 31.6055 15.957 24.5899 15.957Z" fill="white" fill-opacity="0.8"/>
<path id="Vector_6" d="M36.8057 64.1577H34.6091C34.0039 64.1577 33.5108 64.763 33.5108 65.5253C33.5108 66.2427 33.0401 66.848 32.4573 66.848H29.0728C28.49 66.848 28.0193 66.2651 28.0193 65.5253C28.0193 64.7854 27.5262 64.1577 26.921 64.1577H23.6037C22.9985 64.1577 22.5054 64.763 22.5054 65.5253C22.5054 66.2427 22.0347 66.848 21.4519 66.848H18.0674C17.4846 66.848 17.0139 66.2651 17.0139 65.5253C17.0139 64.7854 16.5208 64.1577 15.9156 64.1577H12.5983C11.9931 64.1577 11.5 64.763 11.5 65.5253C11.5 66.2427 11.0293 66.848 10.4466 66.848H7.06201C6.47924 66.848 6.00854 66.2651 6.00854 65.5253C6.00854 64.7854 5.51543 64.1577 4.91025 64.1577H2.71365C1.5257 64.1577 0.51706 65.3011 0.494646 66.7807C0.472232 68.2828 1.43604 69.5159 2.64641 69.5159H36.8729C38.0609 69.5159 39.0471 68.2828 39.0247 66.7807C39.0023 65.3011 37.9936 64.1577 36.8057 64.1577Z" fill="#03A47B"/>
<path id="Vector_7" d="M37.3211 30.3048H2.19808C1.70497 30.3048 1.30151 29.9012 1.30151 29.408C1.30151 28.9148 1.70497 28.5112 2.19808 28.5112H37.2987C37.7918 28.5112 38.1953 28.9148 38.1953 29.408C38.1953 29.9012 37.7918 30.3048 37.3211 30.3048Z" fill="white"/>
<path id="Vector_8" d="M37.3211 57.1856H2.19808C1.70497 57.1856 1.30151 56.7821 1.30151 56.2889C1.30151 55.7956 1.70497 55.3921 2.19808 55.3921H37.2987C37.7918 55.3921 38.1953 55.7956 38.1953 56.2889C38.1953 56.7821 37.7918 57.1856 37.3211 57.1856Z" fill="white"/>
<path id="Vector_9" d="M18.157 48.2402C10.8724 45.1464 15.019 41.1334 14.8621 39.2502C15.557 40.1245 14.907 40.954 15.4449 41.7611C15.2207 39.3623 16.857 39.0036 17.9553 37.5015C19.0312 36.0443 18.7174 34.587 18.4484 34.3853C21.6536 35.6183 23.133 40.2142 22.5278 43.2856C23.4916 42.6579 22.9985 40.7074 23.8502 40.1918C23.4468 40.8868 25.1278 43.4874 24.2537 45.7293C23.4019 47.9712 19.726 48.2402 19.726 48.2402C19.2777 45.8638 22.3709 45.7069 19.4122 41.3127C19.5019 43.8909 17.0363 43.8909 17.9105 46.0208C18.6725 47.7694 18.157 48.2402 18.157 48.2402Z" fill="white"/>
<g id="Group_2">
<path id="Vector_10" d="M32.1659 17.84C32.1659 15.5532 7.73438 15.5532 7.73438 17.84V14.4323L9.68441 14.4547V5.84578L7.73438 5.73368V2.03453C7.73438 -0.678177 32.1659 -0.678177 32.1659 2.03453V4.99385L30.4624 4.97143V14.6565L32.1659 14.7237V17.84Z" fill="#03674E"/>
<path id="Vector_11" d="M22.9312 10.1949H18.6053C18.2242 10.1949 17.9329 9.88108 17.9329 9.52238V8.58078C17.9329 8.19965 18.2467 7.9082 18.6053 7.9082H22.9312V10.1949Z" fill="#9F9F9F"/>
<path id="Vector_12" d="M21.3397 5.68896H19.4569V7.23588H21.3397V5.68896Z" fill="#9F9F9F"/>
<path id="Vector_13" d="M22.0122 11.7196H18.807V7.46002C18.807 7.19099 19.0311 6.9668 19.3001 6.9668H21.4967C21.7657 6.9668 21.9898 7.19099 21.9898 7.46002V11.7196H22.0122Z" fill="#D4D2D2"/>
<path id="Vector_14" d="M22.0122 11.3164H18.807V11.7199H22.0122V11.3164Z" fill="#CDD6E6"/>
<path id="Vector_15" d="M13.1363 3.69385H11.1638V19.4993H13.1363V3.69385Z" fill="#22F0BC"/>
<path id="Vector_16" d="M28.7365 3.69385H26.764V19.4993H28.7365V3.69385Z" fill="#22F0BC"/>
<path id="Vector_17" d="M7.73438 2.03467V6.49606C7.73438 6.63058 7.84645 6.72025 7.95852 6.72025H8.02576C8.45163 6.72025 8.78784 7.05654 8.78784 7.4825V12.4371C8.78784 12.8631 8.45163 13.1994 8.02576 13.1994H7.95852C7.82403 13.1994 7.73438 13.3115 7.73438 13.4236V17.8625C8.27232 18.5351 9.48268 19.0732 11.1637 19.4991V3.69368C9.75165 3.69368 7.73438 2.88659 7.73438 2.03467Z" fill="#0AA57E"/>
<path id="Vector_18" d="M32.1658 2.03467V6.49606C32.1658 6.63058 32.0538 6.72025 31.9417 6.72025H31.8744C31.4486 6.72025 31.1124 7.05654 31.1124 7.4825V12.4371C31.1124 12.8631 31.4486 13.1994 31.8744 13.1994H31.9417C32.0762 13.1994 32.1658 13.3115 32.1658 13.4236V17.8625C31.6279 18.5351 30.4175 19.0732 28.7365 19.4991V3.69368C30.4623 3.69368 32.1658 2.99869 32.1658 2.03467Z" fill="#0AA57E"/>
<path id="Vector_19" d="M23.3571 5.86816H17.4622C17.1932 5.86816 16.9915 5.66639 16.9915 5.39736V4.76963C16.9915 4.5006 17.1932 4.29883 17.4622 4.29883H23.3571C23.6261 4.29883 23.8278 4.5006 23.8278 4.76963V5.39736C23.8278 5.64397 23.6261 5.86816 23.3571 5.86816Z" fill="#00C795"/>
<path id="Vector_20" d="M21.407 5.86816H19.7707C19.5018 5.86816 19.3 5.66639 19.3 5.39736V4.76963C19.3 4.5006 19.5018 4.29883 19.7707 4.29883H21.3846C21.6535 4.29883 21.8553 4.5006 21.8553 4.76963V5.39736C21.8777 5.64397 21.6535 5.86816 21.407 5.86816Z" fill="#E8EBF0"/>
<path id="Vector_21" d="M21.2277 5.86816H19.6139C19.3449 5.86816 19.1432 5.66639 19.1432 5.39736V4.76963C19.1432 4.5006 19.3449 4.29883 19.6139 4.29883H21.2277C21.4967 4.29883 21.6984 4.5006 21.6984 4.76963V5.39736C21.7208 5.64397 21.4967 5.86816 21.2277 5.86816Z" fill="#00C795"/>
<path id="Vector_22" d="M23.895 11.1144H23.3346C23.1105 11.1144 22.9312 10.9351 22.9312 10.7109V7.41526C22.9312 7.19107 23.1105 7.01172 23.3346 7.01172H23.895C24.1191 7.01172 24.2984 7.19107 24.2984 7.41526V10.7109C24.2984 10.9351 24.1191 11.1144 23.895 11.1144Z" fill="#D4D2D2"/>
<path id="Vector_23" d="M22.9311 7.9082H22.7518V10.2174H22.9311V7.9082Z" fill="#D4DBDE"/>
<path id="Vector_24" d="M26.4725 16.9658C26.4725 17.6608 14.3464 17.6608 14.3464 16.9658L14.974 14.41C15.3775 12.8407 16.7896 11.7197 18.4034 11.7197H22.3931C24.0294 11.7197 25.4415 12.8183 25.8225 14.41L26.4725 16.9658Z" fill="#9F9F9F"/>
<path id="Vector_25" d="M25.845 14.41C25.4416 12.8407 24.0295 11.7197 22.4157 11.7197H21.2053C22.8415 11.7197 24.2536 12.8183 24.6347 14.41L25.2623 16.9658C25.2623 17.3021 22.6174 17.459 19.7932 17.4814C23.0209 17.5038 26.4726 17.3245 26.4726 16.9658L25.845 14.41Z" fill="#E2EAED"/>
</g>
</g>
</g>
</svg>
