<?xml version="1.0" encoding="UTF-8"?>
<svg id="Layer_1" data-name="Layer 1" xmlns="http://www.w3.org/2000/svg" viewBox="0 0 46.73 37.88">
  <defs>
    <style>
      .cls-1 {
        fill: #0f1112;
      }

      .cls-1, .cls-2 {
        stroke-width: 0px;
      }

      .cls-2 {
        fill: #00febe;
      }
    </style>
  </defs>
  <g>
    <polygon class="cls-2" points="12.96 20.49 12.37 20.45 0 19.85 11 19.3 12.96 20.49"/>
    <path class="cls-2" d="m7.01,16.91l-5.82-.5,5.26-.48c-.08.36-.12.58-.12.58l.67.4Z"/>
    <path class="cls-2" d="m7.8,12.69c-.18.32-.36.64-.5.93l-5.08-.42,5.58-.52Z"/>
    <path class="cls-2" d="m17.85,9.33l-4.86,11.12-.02.04-1.97-1.19-2.92-1.73-1.07-.66-.67-.4s.04-.22.12-.58c.14-.54.4-1.39.85-2.32.14-.3.32-.62.5-.93,1.51-2.5,4.47-4.98,10.05-3.36Z"/>
  </g>
  <g>
    <polygon class="cls-1" points="12.98 20.45 12.98 20.49 12.96 20.49 12.98 20.45"/>
    <path class="cls-1" d="m15.31,22.75c-.12-.18-.24-.36-.32-.56h.1c.06.2.12.38.22.56Z"/>
    <path class="cls-1" d="m15.76,23.29h-.06c-.14-.16-.26-.32-.38-.5.12.18.28.34.44.5Z"/>
    <path class="cls-1" d="m22.22,28.39c-.06.4-.24.77-.58,1.05l-.28.24-8.89,7.7c-.34.3-.75.46-1.19.46-.5,0-.99-.22-1.37-.64-.66-.75-.58-1.89.18-2.56l7.84-6.79.99-.87.28-.24h.02l.1.06,2.72,1.49.18.1Z"/>
    <polygon class="cls-1" points="19.2 26.74 18.92 26.98 17.93 27.85 7.09 27.34 19.2 26.74"/>
    <path class="cls-1" d="m15.76,23.29h-.06l-11.46-.56,10.74-.54h.1c.06.2.12.38.22.56t.02.04c.12.18.28.34.44.5Z"/>
    <g>
      <path class="cls-1" d="m31.25,4.43h-1.35c-.26,1.95-1.91,3.47-3.89,3.47-2.2,0-3.97-1.79-3.97-3.97s1.77-3.93,3.97-3.93c1.23,0,2.36.6,3.08,1.51.06.08.1.14.18.22l1.99,2.7Z"/>
      <path class="cls-1" d="m29.26,1.73c-.08-.08-.12-.14-.18-.22v-.06l.18.28Z"/>
    </g>
    <path class="cls-1" d="m41.66,15.21l-12.87,3.75-.21.06c-.14.03-.24.06-.33.06-.14,0-.22,0-.3-.02-.58-.01-1.13-.3-1.51-.77l-2.42-3.04-2.46,5.83,5.28,2.88c.3.18.57.42.78.71.1.14.19.29.26.45.03.08.06.16.08.24.16.51.23,1.05-.01,1.57l-.16.33-4.43,9.53c-.3.66-.96,1.05-1.65,1.05-.26,0-.51-.06-.76-.17-.92-.42-1.32-1.49-.89-2.4l3.51-7.57-7.33-3.99c-.19-.11-.39-.25-.55-.41-.05-.08-.11-.16-.18-.24s-.14-.16-.19-.25c-.01-.01-.02-.03-.02-.05-.11-.19-.16-.37-.22-.55h-.1c-.35-.8-.39-1.75-.02-2.63l3.99-9.45c.72-1.7,2.69-2.48,4.37-1.76.05.01.1.03.14.06.42.11.8.35,1.1.71l5.12,6.44,1.11-.32.96-.27c.25.16.55.24.87.24h9.04Z"/>
    <path class="cls-1" d="m46.73,23.72c0,4.23-1.37,7.8-3.99,10.3-2.56,2.52-6.55,3.85-11.55,3.85-1.99,0-3.81-.08-5.44-.26l-.99-.12,3.43-7.31h3.41v.02h.14c.18,0,.36,0,.54-.02,4.13-.16,6.06-2.2,6.06-6.37,0-1.81-.44-3.16-1.31-4.05-.6-.6-1.43-1.01-2.46-1.25l9.65-2.94c1.67,2.18,2.52,4.9,2.52,8.14Z"/>
  </g>
  <path class="cls-1" d="m37.24,13.87h-5.64c.14.24.26.33.46.54.17.18.39.21.63.22.54.01,1.03-.01,1.54-.01h6.26c.51,0,1.02.02,1.54.01.25-.01.46-.03.63-.22.19-.21.32-.3.47-.54h-5.89Zm1.14.41h-2.05c-.06,0-.11-.06-.11-.13,0-.06.06-.11.11-.11h2.05c.07,0,.11.06.11.11,0,.07-.05.13-.11.13Z"/>
  <path class="cls-1" d="m32.51,6.69v.02s.07-.02.1-.02h-.1Z"/>
  <path class="cls-1" d="m42.11,9.9c-.09.46-.38.64-.59.71v1.88c0,.19-.17.37-.37.37h-7.58c-.21,0-.37-.17-.37-.37v-4.75c0-.21.16-.37.37-.37h4.9c.11-.23.34-.39.65-.46.39-.09.78-.17,1.17-.25h-7.61c-.18,0-.32.15-.32.32v6.24c0,.18.14.33.32.33h9.37c.17,0,.32-.15.32-.33v-4.48l-.25,1.16Z"/>
  <path class="cls-2" d="m42.2,7.29c-.06.27-.13.58-.19.89-.11.55-.24,1.09-.35,1.64-.03.17-.11.31-.29.37s-.35-.01-.45-.18c-.1-.17-.21-.35-.3-.54-.06-.1-.1-.1-.18-.02-.16.16-.32.32-.48.48-.19.18-.4.18-.59,0-.08-.08-.16-.16-.24-.23-.19-.22-.21-.41,0-.62.14-.15.29-.29.42-.43.15-.14.15-.17-.05-.27-.14-.08-.27-.16-.41-.23-.19-.11-.29-.26-.25-.42.02-.18.15-.3.37-.34.61-.14,1.2-.26,1.81-.39.23-.06.45-.1.67-.15.29-.06.51.14.51.46Z"/>
  <g>
    <rect class="cls-2" x="41.07" y="5.41" width=".33" height=".98" rx=".14" ry=".14" transform="translate(2.57 21.41) rotate(-30)"/>
    <rect class="cls-2" x="42.7" y="5.46" width=".33" height=".98" rx=".14" ry=".14" transform="translate(14.08 -26.36) rotate(40.4)"/>
    <rect class="cls-2" x="43.09" y="7" width=".33" height=".98" rx=".14" ry=".14" transform="translate(66.26 -29.89) rotate(111.78)"/>
  </g>
</svg>