<svg width="16" height="19" viewBox="0 0 16 19" fill="none" xmlns="http://www.w3.org/2000/svg">
<path d="M15.7616 5.93366C14.8317 1.84209 11.2626 0 8.12751 0C8.12751 0 8.12751 0 8.11865 0C4.99238 0 1.41447 1.83324 0.48457 5.92481C-0.551607 10.4946 2.24696 14.3648 4.77983 16.8002C5.71859 17.7036 6.92306 18.1552 8.12751 18.1552C9.33195 18.1552 10.5364 17.7036 11.4663 16.8002C13.9992 14.3648 16.7977 10.5035 15.7616 5.93366ZM8.12751 10.3706C6.58653 10.3706 5.33778 9.1219 5.33778 7.58092C5.33778 6.03994 6.58653 4.79121 8.12751 4.79121C9.66849 4.79121 10.9172 6.03994 10.9172 7.58092C10.9172 9.1219 9.66849 10.3706 8.12751 10.3706Z" fill="url(#paint0_linear_1503_4775)"/>
<defs>
<linearGradient id="paint0_linear_1503_4775" x1="8.12307" y1="-8.5489" x2="8.12307" y2="18.1552" gradientUnits="userSpaceOnUse">
<stop stop-color="#6BFFDA"/>
<stop offset="1" stop-color="#00E1A9"/>
</linearGradient>
</defs>
</svg>
