<svg width="47" height="14" viewBox="0 0 47 14" fill="none" xmlns="http://www.w3.org/2000/svg">
<path d="M28.663 13.9407C28.6241 13.932 28.5821 13.9203 28.5431 13.9087C28.4651 13.8853 28.3871 13.8591 28.3091 13.827C28.2701 13.8124 28.2341 13.7949 28.1952 13.7774C28.0452 13.7075 27.9042 13.62 27.7723 13.5208C27.5083 13.3196 27.2804 13.063 27.1004 12.7685C26.8335 12.3223 26.6775 11.7858 26.6775 11.2084C26.6775 11.1384 26.6775 11.0684 26.6865 11.0014C26.6865 10.9926 26.6865 10.9839 26.6865 10.9751C26.6925 10.9051 26.6985 10.8381 26.7075 10.7681C26.7195 10.6748 26.7375 10.5814 26.7585 10.4911C26.7585 10.4911 26.7585 10.4881 26.7585 10.4852C26.7795 10.3977 26.8035 10.3132 26.8305 10.2286C26.8305 10.2199 26.8365 10.2111 26.8395 10.2024C26.8635 10.1324 26.8875 10.0653 26.9175 9.99824C26.9474 9.93117 26.9774 9.86702 27.0104 9.80286C27.0134 9.79411 27.0194 9.78537 27.0224 9.77662C27.0554 9.71538 27.0884 9.65706 27.1244 9.60166C27.1304 9.59291 27.1364 9.58124 27.1424 9.5725C27.1784 9.51709 27.2174 9.46168 27.2564 9.4092C27.2654 9.39753 27.2744 9.38878 27.2804 9.37712C27.3044 9.34504 27.3314 9.31588 27.3554 9.28381C27.3644 9.27214 27.3733 9.26339 27.3823 9.25173C27.4183 9.2109 27.4513 9.173 27.4903 9.13509C27.5263 9.09718 27.5653 9.06219 27.6013 9.03011C27.6103 9.02428 27.6163 9.01553 27.6253 9.0097C27.6613 8.98054 27.6943 8.94846 27.7333 8.92222C27.7393 8.9193 27.7423 8.91347 27.7483 8.91055C27.7962 8.87556 27.8412 8.84057 27.8922 8.80849C27.8982 8.80557 27.9042 8.79974 27.9102 8.79683C27.9552 8.76766 28.0032 8.7385 28.0512 8.71226C28.0542 8.71226 28.0602 8.70643 28.0632 8.70643C28.1142 8.67727 28.1652 8.65394 28.2162 8.62769C28.2251 8.62478 28.2341 8.61895 28.2431 8.61603C28.2911 8.59562 28.3421 8.57521 28.3931 8.55479C28.3961 8.55479 28.4021 8.55188 28.4051 8.54896C28.4591 8.53146 28.5131 8.51397 28.5671 8.49939C28.5791 8.49647 28.5911 8.49356 28.6031 8.49064C28.654 8.47606 28.708 8.4644 28.762 8.45565C28.765 8.45565 28.768 8.45565 28.771 8.45565C28.828 8.4469 28.882 8.43815 28.939 8.43232C28.954 8.43232 28.966 8.43232 28.981 8.4294C29.038 8.42357 29.0949 8.42065 29.1549 8.42065H27.7183C27.6613 8.42065 27.6013 8.42357 27.5443 8.4294C27.5293 8.4294 27.5173 8.4294 27.5023 8.43232C27.4453 8.43815 27.3883 8.44398 27.3344 8.45565C27.3314 8.45565 27.3284 8.45565 27.3254 8.45565C27.2714 8.4644 27.2204 8.47606 27.1664 8.49064C27.1544 8.49356 27.1424 8.49647 27.1304 8.49939C27.0764 8.51397 27.0224 8.53146 26.9684 8.54896C26.9654 8.54896 26.9594 8.55188 26.9564 8.55479C26.9055 8.57229 26.8575 8.5927 26.8065 8.61603C26.7975 8.61895 26.7885 8.62478 26.7795 8.62769C26.7285 8.65102 26.6745 8.67727 26.6265 8.70643C26.6235 8.70643 26.6175 8.71226 26.6145 8.71226C26.5665 8.7385 26.5185 8.76766 26.4736 8.79683C26.4676 8.79974 26.4616 8.80557 26.4556 8.80849C26.4076 8.84057 26.3596 8.87556 26.3116 8.91055C26.3116 8.91055 26.3116 8.91055 26.3086 8.91347C26.3056 8.91347 26.3026 8.9193 26.2996 8.92222C26.2636 8.95138 26.2276 8.98054 26.1916 9.01261C26.1826 9.01844 26.1766 9.02719 26.1676 9.03303C26.1286 9.06802 26.0926 9.10301 26.0567 9.14092C26.0207 9.17883 25.9847 9.21965 25.9487 9.25756C25.9397 9.26631 25.9307 9.27797 25.9217 9.28964C25.8947 9.3188 25.8707 9.35087 25.8467 9.38295C25.8407 9.38878 25.8347 9.39753 25.8287 9.40336C25.8287 9.40628 25.8227 9.41211 25.8197 9.41503C25.7807 9.46752 25.7417 9.52292 25.7057 9.57833C25.6997 9.58707 25.6937 9.59874 25.6877 9.60749C25.6517 9.66581 25.6188 9.72413 25.5858 9.78245C25.5828 9.7912 25.5768 9.79995 25.5738 9.80869C25.5408 9.87285 25.5108 9.937 25.4808 10.0041C25.4538 10.0711 25.4268 10.1382 25.4028 10.2082C25.4028 10.214 25.3968 10.2199 25.3968 10.2257C25.3968 10.2257 25.3968 10.2315 25.3968 10.2344C25.3698 10.319 25.3458 10.4036 25.3248 10.4911C25.3248 10.4911 25.3248 10.494 25.3248 10.4969C25.2888 10.6514 25.2618 10.8147 25.2498 10.978C25.2498 10.9868 25.2498 10.9955 25.2498 11.0043C25.2468 11.0713 25.2408 11.1413 25.2408 11.2113C25.2408 11.9812 25.5198 12.6781 25.9667 13.1826C26.1346 13.3721 26.3266 13.5325 26.5395 13.6637C26.7165 13.7716 26.9055 13.8562 27.1034 13.9116C27.3014 13.9699 27.5083 13.9991 27.7243 13.9991H29.1609C29.074 13.9991 28.99 13.9932 28.906 13.9845C28.822 13.9757 28.741 13.9612 28.66 13.9437L28.663 13.9407Z" fill="#231F20"/>
<path d="M29.11 8.42065C30.5137 8.42065 31.6474 9.66872 31.6474 11.2084C31.6474 12.7481 30.5107 13.9961 29.11 13.9961C27.7094 13.9961 26.5726 12.7481 26.5726 11.2084C26.5726 9.66872 27.7094 8.42065 29.11 8.42065Z" fill="#888D98"/>
<path d="M29.164 8.42065C30.5346 8.42065 31.6474 9.66872 31.6474 11.2084C31.6474 12.7481 30.5346 13.9961 29.164 13.9961C27.7933 13.9961 26.6805 12.7481 26.6805 11.2084C26.6805 9.66872 27.7933 8.42065 29.164 8.42065Z" fill="black"/>
<path d="M39.3345 9.61328H28.3601V11.9315H39.3345V9.61328Z" fill="black"/>
<path d="M33.3539 12.582C34.0397 12.582 34.5956 12.0415 34.5956 11.3747C34.5956 10.708 34.0397 10.1675 33.3539 10.1675C32.6681 10.1675 32.1122 10.708 32.1122 11.3747C32.1122 12.0415 32.6681 12.582 33.3539 12.582Z" fill="black"/>
<path d="M6.11141 13.9407C6.07242 13.932 6.03043 13.9203 5.99144 13.9087C5.91346 13.8853 5.83548 13.8591 5.75749 13.827C5.7185 13.8124 5.68251 13.7949 5.64352 13.7774C5.49355 13.7075 5.35259 13.62 5.22062 13.5208C4.95668 13.3196 4.72873 13.063 4.54878 12.7685C4.28184 12.3223 4.12587 11.7858 4.12587 11.2084C4.12587 11.1384 4.12587 11.0684 4.13487 11.0014C4.13487 10.9926 4.13487 10.9839 4.13487 10.9751C4.14087 10.9051 4.14687 10.8381 4.15587 10.7681C4.16786 10.6748 4.18586 10.5814 4.20686 10.4911C4.20686 10.4911 4.20686 10.4881 4.20686 10.4852C4.22785 10.3977 4.25184 10.3132 4.27884 10.2286C4.27884 10.2199 4.28484 10.2111 4.28784 10.2024C4.31183 10.1324 4.33582 10.0653 4.36582 9.99824C4.39581 9.93117 4.4258 9.86702 4.4588 9.80286C4.4618 9.79411 4.46779 9.78537 4.47079 9.77662C4.50379 9.71538 4.53678 9.65706 4.57277 9.60166C4.57877 9.59291 4.58477 9.58124 4.59077 9.5725C4.62676 9.51709 4.66575 9.46168 4.70474 9.4092C4.71374 9.39753 4.72273 9.38878 4.72873 9.37712C4.75273 9.34504 4.77972 9.31588 4.80372 9.28381C4.81271 9.27214 4.82171 9.26339 4.83071 9.25173C4.8667 9.2109 4.89969 9.173 4.93868 9.13509C4.97468 9.09718 5.01367 9.06219 5.04966 9.03011C5.05866 9.02428 5.06465 9.01553 5.07365 9.0097C5.10964 8.98054 5.14264 8.94846 5.18163 8.92222C5.18763 8.9193 5.19063 8.91347 5.19662 8.91055C5.24461 8.87556 5.2896 8.84057 5.34059 8.80849C5.34659 8.80557 5.35259 8.79974 5.35859 8.79683C5.40358 8.76766 5.45156 8.7385 5.49955 8.71226C5.50255 8.71226 5.50855 8.70643 5.51155 8.70643C5.56254 8.67727 5.61353 8.65394 5.66452 8.62769C5.67351 8.62478 5.68251 8.61895 5.69151 8.61603C5.7395 8.59562 5.79049 8.57521 5.84147 8.55479C5.84447 8.55479 5.85047 8.55188 5.85347 8.54896C5.90746 8.53146 5.96145 8.51397 6.01543 8.49939C6.02743 8.49647 6.03943 8.49356 6.05142 8.49064C6.10241 8.47606 6.1564 8.4644 6.21039 8.45565C6.21339 8.45565 6.21639 8.45565 6.21939 8.45565C6.27637 8.4469 6.33036 8.43815 6.38735 8.43232C6.40234 8.43232 6.41434 8.43232 6.42934 8.4294C6.48632 8.42357 6.54331 8.42065 6.6033 8.42065H5.16663C5.10964 8.42065 5.04966 8.42357 4.99267 8.4294C4.97768 8.4294 4.96568 8.4294 4.95068 8.43232C4.89369 8.43815 4.83671 8.44398 4.78272 8.45565C4.77972 8.45565 4.77672 8.45565 4.77372 8.45565C4.71974 8.4644 4.66875 8.47606 4.61476 8.49064C4.60276 8.49356 4.59077 8.49647 4.57877 8.49939C4.52478 8.51397 4.47079 8.53146 4.41681 8.54896C4.41381 8.54896 4.40781 8.55188 4.40481 8.55479C4.35382 8.57229 4.30583 8.5927 4.25484 8.61603C4.24585 8.61895 4.23685 8.62478 4.22785 8.62769C4.17686 8.65102 4.12287 8.67727 4.07489 8.70643C4.07189 8.70643 4.06589 8.71226 4.06289 8.71226C4.0149 8.7385 3.96691 8.76766 3.92192 8.79683C3.91592 8.79974 3.90992 8.80557 3.90393 8.80849C3.85594 8.84057 3.80795 8.87556 3.75996 8.91055C3.75996 8.91055 3.75996 8.91055 3.75696 8.91347C3.75396 8.91347 3.75096 8.9193 3.74796 8.92222C3.71197 8.95138 3.67598 8.98054 3.63999 9.01261C3.63099 9.01844 3.62499 9.02719 3.61599 9.03303C3.577 9.06802 3.54101 9.10301 3.50502 9.14092C3.46903 9.17883 3.43304 9.21965 3.39704 9.25756C3.38805 9.26631 3.37905 9.27797 3.37005 9.28964C3.34306 9.3188 3.31906 9.35087 3.29507 9.38295C3.28907 9.38878 3.28307 9.39753 3.27707 9.40336C3.27707 9.40628 3.27107 9.41211 3.26807 9.41503C3.22908 9.46752 3.19009 9.52292 3.1541 9.57833C3.1481 9.58707 3.1421 9.59874 3.1361 9.60749C3.10011 9.66581 3.06712 9.72413 3.03413 9.78245C3.03113 9.7912 3.02513 9.79995 3.02213 9.80869C2.98914 9.87285 2.95915 9.937 2.92915 10.0041C2.90216 10.0711 2.87517 10.1382 2.85117 10.2082C2.85117 10.214 2.84517 10.2199 2.84517 10.2257C2.84517 10.2257 2.84517 10.2315 2.84517 10.2344C2.81818 10.319 2.79418 10.4036 2.77319 10.4911C2.77319 10.4911 2.77319 10.494 2.77319 10.4969C2.7372 10.6514 2.7102 10.8147 2.69821 10.978C2.69821 10.9868 2.69821 10.9955 2.69821 11.0043C2.69521 11.0713 2.68921 11.1413 2.68921 11.2113C2.68921 11.9812 2.96814 12.6781 3.41504 13.1826C3.583 13.3721 3.77496 13.5325 3.98791 13.6637C4.16486 13.7716 4.35382 13.8562 4.55177 13.9116C4.74973 13.9699 4.95668 13.9991 5.17263 13.9991H6.60929C6.52232 13.9991 6.43833 13.9932 6.35435 13.9845C6.27037 13.9757 6.18939 13.9612 6.10841 13.9437L6.11141 13.9407Z" fill="#231F20"/>
<path d="M6.55828 8.42065C7.96195 8.42065 9.09569 9.66872 9.09569 11.2084C9.09569 12.7481 7.95896 13.9961 6.55828 13.9961C5.15761 13.9961 4.02087 12.7481 4.02087 11.2084C4.02087 9.66872 5.15761 8.42065 6.55828 8.42065Z" fill="#888D98"/>
<path d="M6.61221 8.42065C7.98289 8.42065 9.09563 9.66872 9.09563 11.2084C9.09563 12.7481 7.98289 13.9961 6.61221 13.9961C5.24152 13.9961 4.12878 12.7481 4.12878 11.2084C4.12878 9.66872 5.24152 8.42065 6.61221 8.42065Z" fill="black"/>
<path d="M16.7829 9.61328H5.80847V11.9315H16.7829V9.61328Z" fill="black"/>
<path d="M10.8023 12.582C11.488 12.582 12.044 12.0415 12.044 11.3747C12.044 10.708 11.488 10.1675 10.8023 10.1675C10.1165 10.1675 9.56055 10.708 9.56055 11.3747C9.56055 12.0415 10.1165 12.582 10.8023 12.582Z" fill="black"/>
<path d="M5.92846 6.12012H44.9913V7.03576C44.9913 9.459 42.9668 11.4273 40.4744 11.4273H2.13434C1.67545 11.4273 1.30054 11.0657 1.30054 10.6167C1.30054 8.13511 3.37305 6.12012 5.92546 6.12012H5.92846Z" fill="black"/>
<path d="M38.9808 13.9961H37.5441C36.1734 13.9961 35.0607 12.7481 35.0607 11.2084C35.0607 9.66872 36.1734 8.42065 37.5441 8.42065H38.9808C37.6101 8.42065 36.4973 9.66872 36.4973 11.2084C36.4973 12.7481 37.6101 13.9961 38.9808 13.9961Z" fill="black"/>
<mask id="mask0_2226_4817" style="mask-type:luminance" maskUnits="userSpaceOnUse" x="35" y="8" width="4" height="6">
<path d="M38.9808 13.9961H37.5441C36.1734 13.9961 35.0607 12.7481 35.0607 11.2084C35.0607 9.66872 36.1734 8.42065 37.5441 8.42065H38.9808C37.6101 8.42065 36.4973 9.66872 36.4973 11.2084C36.4973 12.7481 37.6101 13.9961 38.9808 13.9961Z" fill="white"/>
</mask>
<g mask="url(#mask0_2226_4817)">
<path d="M36.4973 11.2084C36.4973 11.0597 36.5093 10.911 36.5273 10.7681H35.0907C35.0697 10.911 35.0607 11.0597 35.0607 11.2084C35.0607 12.7481 36.1734 13.9961 37.5441 13.9961H38.9808C37.6101 13.9961 36.4973 12.7481 36.4973 11.2084Z" fill="black"/>
<path d="M35.6546 9.40063C35.4716 9.64267 35.3216 9.91969 35.2197 10.223C35.1627 10.3979 35.1177 10.5787 35.0907 10.7683H36.5274C36.5544 10.5787 36.5963 10.3979 36.6563 10.223C36.7583 9.91969 36.9053 9.64267 37.0912 9.40063H35.6546Z" fill="black"/>
<path d="M36.1344 8.91357C35.9575 9.05063 35.7955 9.21393 35.6545 9.40056H37.0912C37.2322 9.21684 37.3941 9.05354 37.5711 8.91357H36.1344Z" fill="black"/>
<path d="M38.9807 8.42065H37.5441C37.0192 8.42065 36.5333 8.60437 36.1344 8.91347H37.5711C37.973 8.60145 38.4589 8.42065 38.9807 8.42065Z" fill="black"/>
</g>
<path d="M38.9238 8.42065C40.3274 8.42065 41.4612 9.66872 41.4612 11.2084C41.4612 12.7481 40.3244 13.9961 38.9238 13.9961C37.5231 13.9961 36.3864 12.7481 36.3864 11.2084C36.3864 9.66872 37.5231 8.42065 38.9238 8.42065Z" fill="#888D98"/>
<path d="M38.9807 8.42065C40.3514 8.42065 41.4642 9.66872 41.4642 11.2084C41.4642 12.7481 40.3514 13.9961 38.9807 13.9961C37.6101 13.9961 36.4973 12.7481 36.4973 11.2084C36.4973 9.66872 37.6101 8.42065 38.9807 8.42065Z" fill="#3F3B42"/>
<path d="M38.9807 9.13525C40.0005 9.13525 40.8283 10.0626 40.8283 11.2086C40.8283 12.3546 40.0005 13.2819 38.9807 13.2819C37.961 13.2819 37.1332 12.3546 37.1332 11.2086C37.1332 10.0626 37.961 9.13525 38.9807 9.13525Z" fill="#231F20"/>
<g style="mix-blend-mode:multiply">
<path d="M38.9807 9.43848C39.8535 9.43848 40.5583 10.2316 40.5583 11.2085C40.5583 12.1854 39.8535 12.9815 38.9807 12.9815C38.1079 12.9815 37.4031 12.1883 37.4031 11.2085C37.4031 10.2287 38.1079 9.43848 38.9807 9.43848Z" fill="black"/>
</g>
<path d="M38.9808 9.23145C38.009 9.23145 37.2202 10.1179 37.2202 11.2085C37.2202 12.2991 38.009 13.1856 38.9808 13.1856C39.9526 13.1856 40.7414 12.2991 40.7414 11.2085C40.7414 10.1179 39.9526 9.23145 38.9808 9.23145ZM39.2507 11.4068L40.5284 11.7917C40.4535 12.0396 40.3335 12.2641 40.1775 12.4537L39.2507 11.4068ZM40.2015 9.99253C40.3545 10.185 40.4715 10.4095 40.5404 10.6603L39.2687 11.0452L40.2015 9.99253ZM39.3377 9.42099L38.9988 10.8469L38.6569 9.41224C38.7619 9.38891 38.8698 9.37433 38.9808 9.37433C39.1038 9.37433 39.2237 9.39183 39.3377 9.41807V9.42099ZM37.7601 12.4274C37.6071 12.235 37.4902 12.0104 37.4212 11.7597L38.6929 11.3747L37.7601 12.4274ZM37.4332 10.6253C37.5081 10.3775 37.6281 10.1529 37.7841 9.96337L38.7109 11.0102L37.4332 10.6253ZM38.6239 12.999L38.9628 11.573L39.3047 13.0077C39.1998 13.0311 39.0918 13.0456 38.9808 13.0456C38.8578 13.0456 38.7409 13.0281 38.6239 13.0019V12.999Z" fill="#D5DDE8"/>
<g style="mix-blend-mode:multiply">
<path d="M38.9807 11.1472C39.5805 11.1472 40.1354 11.2639 40.5973 11.4651C40.6063 11.3805 40.6153 11.296 40.6153 11.2114C40.6153 10.1995 39.8835 9.3772 38.9837 9.3772C38.0839 9.3772 37.3521 10.1995 37.3521 11.2114C37.3521 11.2989 37.3581 11.3834 37.37 11.4651C37.8289 11.2639 38.3868 11.1472 38.9867 11.1472H38.9807Z" fill="#C1CCD4"/>
</g>
<path d="M38.9808 9.23145C38.009 9.23145 37.2202 10.1179 37.2202 11.2085C37.2202 12.2991 38.009 13.1856 38.9808 13.1856C39.9526 13.1856 40.7414 12.2991 40.7414 11.2085C40.7414 10.1179 39.9526 9.23145 38.9808 9.23145ZM38.9808 13.0456C38.078 13.0456 37.3432 12.2233 37.3432 11.2085C37.3432 10.1937 38.075 9.37142 38.9808 9.37142C39.8866 9.37142 40.6184 10.1937 40.6184 11.2085C40.6184 12.2233 39.8866 13.0456 38.9808 13.0456Z" fill="white"/>
<g style="mix-blend-mode:multiply">
<path d="M38.7497 10.6047C39.0466 10.6047 39.2896 10.8759 39.2896 11.2084C39.2896 11.5408 39.0496 12.3485 38.7497 12.3485C38.4498 12.3485 38.2098 11.5408 38.2098 11.2084C38.2098 10.8759 38.4498 10.6047 38.7497 10.6047Z" fill="#888D98"/>
</g>
<path d="M38.7497 10.6047C39.0466 10.6047 39.2896 10.8759 39.2896 11.2084C39.2896 11.5408 39.0496 11.812 38.7497 11.812C38.4498 11.812 38.2098 11.5408 38.2098 11.2084C38.2098 10.8759 38.4498 10.6047 38.7497 10.6047Z" fill="black"/>
<path d="M38.9807 10.6047C39.2776 10.6047 39.5205 10.8759 39.5205 11.2084C39.5205 11.5408 39.2806 11.812 38.9807 11.812C38.6807 11.812 38.4408 11.5408 38.4408 11.2084C38.4408 10.8759 38.6807 10.6047 38.9807 10.6047Z" fill="white"/>
<path d="M16.429 13.9961H14.9923C13.6217 13.9961 12.5089 12.7481 12.5089 11.2084C12.5089 9.66872 13.6217 8.42065 14.9923 8.42065H16.429C15.0583 8.42065 13.9456 9.66872 13.9456 11.2084C13.9456 12.7481 15.0583 13.9961 16.429 13.9961Z" fill="black"/>
<mask id="mask1_2226_4817" style="mask-type:luminance" maskUnits="userSpaceOnUse" x="12" y="8" width="5" height="6">
<path d="M16.429 13.9961H14.9923C13.6217 13.9961 12.5089 12.7481 12.5089 11.2084C12.5089 9.66872 13.6217 8.42065 14.9923 8.42065H16.429C15.0583 8.42065 13.9456 9.66872 13.9456 11.2084C13.9456 12.7481 15.0583 13.9961 16.429 13.9961Z" fill="white"/>
</mask>
<g mask="url(#mask1_2226_4817)">
<path d="M13.9456 11.2084C13.9456 11.0597 13.9576 10.911 13.9756 10.7681H12.5389C12.5179 10.911 12.5089 11.0597 12.5089 11.2084C12.5089 12.7481 13.6217 13.9961 14.9923 13.9961H16.429C15.0583 13.9961 13.9456 12.7481 13.9456 11.2084Z" fill="black"/>
<path d="M13.1028 9.40063C12.9199 9.64267 12.7699 9.91969 12.6679 10.223C12.6109 10.3979 12.5659 10.5787 12.5389 10.7683H13.9756C14.0026 10.5787 14.0446 10.3979 14.1046 10.223C14.2066 9.91969 14.3535 9.64267 14.5395 9.40063H13.1028Z" fill="black"/>
<path d="M13.5827 8.91357C13.4057 9.05063 13.2438 9.21393 13.1028 9.40056H14.5394C14.6804 9.21684 14.8424 9.05354 15.0193 8.91357H13.5827Z" fill="black"/>
<path d="M16.429 8.42065H14.9923C14.4674 8.42065 13.9815 8.60437 13.5826 8.91347H15.0193C15.4212 8.60145 15.9071 8.42065 16.429 8.42065Z" fill="black"/>
</g>
<path d="M16.3721 8.42065C17.7758 8.42065 18.9095 9.66872 18.9095 11.2084C18.9095 12.7481 17.7728 13.9961 16.3721 13.9961C14.9715 13.9961 13.8347 12.7481 13.8347 11.2084C13.8347 9.66872 14.9715 8.42065 16.3721 8.42065Z" fill="#888D98"/>
<path d="M16.429 8.42065C17.7997 8.42065 18.9124 9.66872 18.9124 11.2084C18.9124 12.7481 17.7997 13.9961 16.429 13.9961C15.0583 13.9961 13.9456 12.7481 13.9456 11.2084C13.9456 9.66872 15.0583 8.42065 16.429 8.42065Z" fill="#3F3B42"/>
<path d="M16.429 9.13525C17.4488 9.13525 18.2766 10.0626 18.2766 11.2086C18.2766 12.3546 17.4488 13.2819 16.429 13.2819C15.4092 13.2819 14.5814 12.3546 14.5814 11.2086C14.5814 10.0626 15.4092 9.13525 16.429 9.13525Z" fill="#231F20"/>
<g style="mix-blend-mode:multiply">
<path d="M16.4291 9.43848C17.3019 9.43848 18.0067 10.2316 18.0067 11.2085C18.0067 12.1854 17.3019 12.9815 16.4291 12.9815C15.5563 12.9815 14.8514 12.1883 14.8514 11.2085C14.8514 10.2287 15.5563 9.43848 16.4291 9.43848Z" fill="black"/>
</g>
<path d="M16.429 9.23145C15.4573 9.23145 14.6685 10.1179 14.6685 11.2085C14.6685 12.2991 15.4573 13.1856 16.429 13.1856C17.4008 13.1856 18.1896 12.2991 18.1896 11.2085C18.1896 10.1179 17.4008 9.23145 16.429 9.23145ZM16.699 11.4068L17.9767 11.7917C17.9017 12.0396 17.7817 12.2641 17.6258 12.4537L16.699 11.4068ZM17.6498 9.99253C17.8027 10.185 17.9197 10.4095 17.9887 10.6603L16.717 11.0452L17.6498 9.99253ZM16.786 9.42099L16.447 10.8469L16.1051 9.41224C16.2101 9.38891 16.3181 9.37433 16.429 9.37433C16.552 9.37433 16.672 9.39183 16.786 9.41807V9.42099ZM15.2083 12.4274C15.0554 12.235 14.9384 12.0104 14.8694 11.7597L16.1411 11.3747L15.2083 12.4274ZM14.8814 10.6253C14.9564 10.3775 15.0764 10.1529 15.2323 9.96337L16.1591 11.0102L14.8814 10.6253ZM16.0721 12.999L16.4111 11.573L16.753 13.0077C16.648 13.0311 16.54 13.0456 16.429 13.0456C16.3061 13.0456 16.1891 13.0281 16.0721 13.0019V12.999Z" fill="#D5DDE8"/>
<g style="mix-blend-mode:multiply">
<path d="M16.4289 11.1472C17.0288 11.1472 17.5836 11.2639 18.0455 11.4651C18.0545 11.3805 18.0635 11.296 18.0635 11.2114C18.0635 10.1995 17.3317 9.3772 16.4319 9.3772C15.5321 9.3772 14.8003 10.1995 14.8003 11.2114C14.8003 11.2989 14.8063 11.3834 14.8183 11.4651C15.2772 11.2639 15.8351 11.1472 16.4349 11.1472H16.4289Z" fill="#C1CCD4"/>
</g>
<path d="M16.429 9.23145C15.4573 9.23145 14.6685 10.1179 14.6685 11.2085C14.6685 12.2991 15.4573 13.1856 16.429 13.1856C17.4008 13.1856 18.1896 12.2991 18.1896 11.2085C18.1896 10.1179 17.4008 9.23145 16.429 9.23145ZM16.429 13.0456C15.5263 13.0456 14.7914 12.2233 14.7914 11.2085C14.7914 10.1937 15.5233 9.37142 16.429 9.37142C17.3348 9.37142 18.0667 10.1937 18.0667 11.2085C18.0667 12.2233 17.3348 13.0456 16.429 13.0456Z" fill="white"/>
<g style="mix-blend-mode:multiply">
<path d="M16.1981 10.6047C16.495 10.6047 16.738 10.8759 16.738 11.2084C16.738 11.5408 16.498 12.3485 16.1981 12.3485C15.8981 12.3485 15.6582 11.5408 15.6582 11.2084C15.6582 10.8759 15.8981 10.6047 16.1981 10.6047Z" fill="#888D98"/>
</g>
<path d="M16.1981 10.6047C16.495 10.6047 16.738 10.8759 16.738 11.2084C16.738 11.5408 16.498 11.812 16.1981 11.812C15.8981 11.812 15.6582 11.5408 15.6582 11.2084C15.6582 10.8759 15.8981 10.6047 16.1981 10.6047Z" fill="black"/>
<path d="M16.429 10.6047C16.726 10.6047 16.9689 10.8759 16.9689 11.2084C16.9689 11.5408 16.729 11.812 16.429 11.812C16.1291 11.812 15.8892 11.5408 15.8892 11.2084C15.8892 10.8759 16.1291 10.6047 16.429 10.6047Z" fill="white"/>
<path d="M33.2882 11.168H32.5114V12.5268H33.2882V11.168Z" fill="black"/>
<path d="M21.4079 11.168H20.6311V12.5268H21.4079V11.168Z" fill="black"/>
<path d="M27.3465 11.168H26.5697V12.5268H27.3465V11.168Z" fill="black"/>
<path d="M19.6713 11.6694H34.8208V12.5268H20.5501C20.0642 12.5268 19.6683 12.1418 19.6683 11.6694H19.6713Z" fill="#231F20"/>
<path d="M21.5458 11.6694H33.966C33.966 11.9056 33.768 12.0981 33.5251 12.0981H21.9837C21.7408 12.0981 21.5428 11.9056 21.5428 11.6694H21.5458Z" fill="white"/>
<path d="M19.6715 11.6694H20.6313V12.5268H20.5533C20.0674 12.5268 19.6715 12.1418 19.6715 11.6694Z" fill="#3F3B42"/>
<path d="M21.5458 11.6694H33.2851C33.2851 11.9056 33.0872 12.0981 32.8442 12.0981H21.9837C21.7408 12.0981 21.5428 11.9056 21.5428 11.6694H21.5458Z" fill="#C1CCD4"/>
<path d="M46.071 4.17509H33.1141C33.1141 3.57439 32.1123 0.492122 32.1123 0.492122C31.4375 -0.102753 22.5145 -0.231059 15.0643 0.51545C14.3295 0.588351 12.4849 1.54773 9.28163 4.24799C7.71299 4.42296 3.07907 4.97701 2.38024 5.46982C1.53443 6.06469 0.466684 8.20508 1.08754 10.9112H13.1897C13.1897 8.83494 14.6534 7.14947 16.462 7.14947C18.2705 7.14947 19.7342 8.83203 19.7342 10.9112H35.6755C35.6755 8.83494 37.1391 7.14947 38.9477 7.14947C40.7563 7.14947 42.2199 8.83203 42.2199 10.9112H42.4779C43.4976 10.5233 43.9086 10.3367 45.5942 9.63394C46.8119 9.12655 46.263 4.90702 46.077 4.17801L46.071 4.17509Z" fill="#6EBEA8"/>
<path d="M46.0711 4.17521H33.1141C33.1141 3.5745 32.7032 0.903399 32.1483 0.512648C31.4405 0.0169191 28.0033 0.151057 26.0537 0.512648C25.3279 0.646786 23.4743 1.54493 20.2711 4.24519C18.7024 4.42016 14.0685 4.97421 13.3697 5.46702C12.9348 5.7732 12.4429 6.48764 12.149 7.47909C11.7951 8.6805 10.6613 9.50866 9.37462 9.50866H0.907593C0.91959 9.9519 0.976577 10.4214 1.08755 10.9084H13.1897C13.1897 8.83214 14.6534 7.14666 16.462 7.14666C18.2705 7.14666 19.7342 8.82922 19.7342 10.9084H35.6755C35.6755 8.83214 37.1391 7.14666 38.9477 7.14666C40.7563 7.14666 42.22 8.82922 42.22 10.9084H42.4779C43.4977 10.5205 43.9086 10.3339 45.5942 9.63114C46.8119 9.12374 46.263 4.90422 46.0771 4.17521H46.0711Z" fill="#398F79"/>
<path d="M8.14192 9.86719H4.10786C2.94713 9.86719 2.88715 10.4387 2.69519 11.1911H10.4574C10.2624 10.4387 9.30265 9.86719 8.14192 9.86719Z" fill="black"/>
<path d="M31.1976 5.0675H46.2211C46.1671 4.65343 46.1102 4.32974 46.0712 4.17228H33.1142C33.1142 3.57157 32.7033 0.900469 32.1484 0.509718C31.4406 0.0139894 28.0034 0.148128 26.0538 0.509718C25.328 0.643856 23.4744 1.542 20.2712 4.24226C18.7025 4.41723 14.0686 4.97128 13.3698 5.46409C13.1778 5.60114 12.9739 5.81693 12.7789 6.1027C15.5743 5.14915 21.2909 5.06459 31.1946 5.06459L31.1976 5.0675Z" fill="#91CBA9"/>
<path d="M42.6549 7.8931C42.481 7.8931 42.316 7.80561 42.223 7.66564C41.4642 6.53422 40.3005 5.81104 38.9958 5.81104C37.991 5.81104 37.0702 6.24261 36.3504 6.95704C35.7535 7.55192 34.9377 7.89601 34.0799 7.89601H21.3749C20.5171 7.89601 19.7013 7.55483 19.1044 6.95704C18.3876 6.24261 17.4668 5.81104 16.459 5.81104C14.1346 5.81104 12.26 8.10597 12.314 10.9083H13.1868C13.1868 8.83206 14.6505 7.14659 16.459 7.14659C18.2676 7.14659 19.7313 8.82915 19.7313 10.9083H20.6011C20.6131 10.3309 20.5411 9.77395 20.4001 9.25489H35.0457C34.9047 9.77395 34.8328 10.3309 34.8448 10.9083H35.6666C35.6666 8.83206 37.1302 7.14659 38.9388 7.14659C40.7474 7.14659 42.211 8.82915 42.211 10.9083H42.469C42.7179 10.815 42.9309 10.7304 43.1348 10.6488C43.1228 10.1618 43.0538 9.6923 42.9339 9.25197H44.6975C45.1264 9.25197 45.5073 8.97787 45.6302 8.57837L45.8462 7.8931H42.6489H42.6549Z" fill="#B5E5DC"/>
<path d="M43.2637 7.89284C42.7538 7.89284 42.2619 7.67413 41.944 7.2863C41.1942 6.37358 40.1504 5.80786 38.9987 5.80786C37.637 5.80786 36.4313 6.5952 35.6755 7.81119C35.4685 8.14653 35.1026 8.35649 34.7037 8.35649H20.7629C20.361 8.35649 19.9981 8.14362 19.7912 7.81119C19.0354 6.5952 17.8296 5.80786 16.4679 5.80786C14.1435 5.80786 12.2689 8.10279 12.3229 10.9051H13.1957C13.1957 8.82889 14.6594 7.14341 16.4679 7.14341C18.2765 7.14341 19.7402 8.82597 19.7402 10.9051H20.61C20.622 10.3277 20.55 9.77077 20.409 9.25172H35.0546C34.9136 9.77077 34.8417 10.3277 34.8537 10.9051H35.6755C35.6755 8.82889 37.1391 7.14341 38.9477 7.14341C40.7563 7.14341 42.2199 8.82597 42.2199 10.9051H42.4779C42.7268 10.8118 42.9398 10.7272 43.1437 10.6456C43.1317 10.1586 43.0627 9.68912 42.9428 9.2488H44.7064C45.1353 9.2488 45.5162 8.97469 45.6391 8.57519L45.8551 7.88992H43.2667L43.2637 7.89284Z" fill="#6EBEA8"/>
<path d="M10.4064 3.3264C10.0525 3.60634 9.68057 3.91253 9.28467 4.24496C7.95898 4.39368 4.44979 4.81067 2.96814 5.2335C6.38434 5.15768 13.7146 4.90399 15.2173 4.14581C16.1981 3.65008 13.4327 3.42555 10.4064 3.32349V3.3264Z" fill="#B5E5DC"/>
<g style="mix-blend-mode:multiply">
<path d="M33.1711 11.0569H33.0151L33.1711 10.0071V5.00321L33.1141 4.17505H33.2731L33.3301 5.00321V10.0071L33.1711 11.0569Z" fill="black"/>
</g>
<path d="M26.2128 1.14245C25.6459 1.26201 24.2962 1.99685 22.0227 4.08183C21.9208 4.17514 21.8638 4.30636 21.8638 4.44342C21.8638 4.59505 21.9927 4.71753 22.1487 4.71461C23.0935 4.69128 26.2248 4.60672 29.0561 4.49007C29.0621 2.66754 29.0171 1.38448 28.9961 0.85376C27.8894 0.906249 26.8396 1.00831 26.2158 1.14245H26.2128Z" fill="#231F20"/>
<path d="M19.6893 4.24495C22.1067 2.20663 23.7534 1.19476 24.7281 0.763184H14.2606C13.2768 1.20059 11.6542 2.24454 9.28174 4.24495H19.6863H19.6893Z" fill="black"/>
<path d="M8.14192 9.25195H4.10786C2.94713 9.25195 2.88715 8.66582 2.69519 7.89307H10.4574C10.2624 8.66582 9.30265 9.25195 8.14192 9.25195Z" fill="black"/>
<path d="M13.6457 1.0752C12.7159 1.58842 11.4022 2.48948 9.6626 3.93001H18.9334C19.4133 3.93001 19.8782 3.76671 20.2501 3.46927C21.5848 2.402 22.6436 1.68757 23.4474 1.22683C23.5224 1.18309 23.4894 1.0752 23.4054 1.0752H13.6487H13.6457Z" fill="#6493A3"/>
<path d="M45.7713 5.75833L45.4864 7.12305C45.4414 7.34467 45.6153 7.5517 45.8463 7.5517H46.3652C46.3982 6.84894 46.3532 6.08493 46.2872 5.45215H46.1582C45.9723 5.45215 45.8103 5.58045 45.7743 5.75833H45.7713Z" fill="#6EBEA8"/>
<path d="M45.9391 6.30376L45.7531 7.19607C45.7231 7.34187 45.8371 7.47601 45.9871 7.47601C46.176 7.47601 46.332 7.32729 46.332 7.14358C46.332 6.81407 46.311 6.48164 46.281 6.18712C46.275 6.14046 46.236 6.10547 46.188 6.10547C46.065 6.10547 45.9631 6.19003 45.9361 6.30376H45.9391Z" fill="#53EDE6"/>
<path opacity="0.5" d="M45.8731 5.73523L45.7501 6.31844C45.7291 6.41175 45.8041 6.50215 45.9031 6.50215C46.0261 6.50215 46.128 6.40592 46.128 6.28344C46.128 6.06766 46.113 5.84895 46.095 5.65649C46.095 5.62733 46.0651 5.604 46.0351 5.604C45.9541 5.604 45.8881 5.65941 45.8701 5.73523H45.8731Z" fill="white"/>
<path d="M46.3651 7.58389H45.8463C45.7263 7.58389 45.6123 7.5314 45.5373 7.441C45.4623 7.35061 45.4323 7.23105 45.4563 7.11732L45.7413 5.75261C45.7803 5.56015 45.9572 5.4231 46.1582 5.4231H46.2871C46.3051 5.4231 46.3201 5.43768 46.3201 5.45517C46.3201 5.47267 46.3051 5.48725 46.2871 5.48725H46.1582C45.9872 5.48725 45.8403 5.60389 45.8073 5.76719L45.5223 7.1319C45.5013 7.22813 45.5283 7.32728 45.5913 7.40309C45.6543 7.47891 45.7503 7.52265 45.8493 7.52265H46.3681C46.3861 7.52265 46.4011 7.53723 46.4011 7.55473C46.4011 7.57222 46.3861 7.58681 46.3681 7.58681L46.3651 7.58389Z" fill="black"/>
<path d="M12.8329 6.05005H10.9164C10.4425 6.23959 9.70167 6.36207 8.86786 6.36207H4.4079C3.5741 6.36207 3.25617 6.23959 3.07321 6.05005H1.8315C1.46859 6.56327 1.14166 7.31561 0.991699 8.23417H12.0921C12.7999 8.23417 13.3698 7.6772 13.3698 6.99193V6.57202C13.3698 6.28333 13.1299 6.05005 12.8329 6.05005Z" fill="black"/>
<path d="M10.6614 6.8345L10.4814 7.19317C10.4004 7.35647 10.5234 7.5431 10.7094 7.5431H12.9918C13.0758 7.5431 13.1538 7.49061 13.1838 7.41479C13.2318 7.28357 13.2588 7.1436 13.2588 6.99488V6.57497C13.2588 6.5254 13.2498 6.47582 13.2378 6.43208C13.2078 6.33294 13.1148 6.26587 13.0098 6.26587H11.5941C11.1952 6.26587 10.8323 6.48749 10.6614 6.8345Z" fill="#D5DDE8"/>
<path d="M11.1713 7.00368L11.0573 7.23405C11.0063 7.33903 11.0843 7.45858 11.2012 7.45858H12.7429C12.7969 7.35361 12.8269 7.23405 12.8269 7.10866V6.84038C12.8269 6.76748 12.7999 6.69749 12.7579 6.64209H11.7651C11.5102 6.64209 11.2792 6.78206 11.1713 7.00368Z" fill="#C1CCD4"/>
<path d="M10.9103 6.68561L10.8323 6.84016C10.7963 6.91014 10.8503 6.99179 10.9313 6.99179H11.978C12.014 6.91889 12.035 6.84016 12.035 6.75268V6.57188C12.035 6.52231 12.017 6.47565 11.99 6.43774H11.3152C11.1442 6.43774 10.9853 6.53397 10.9103 6.68561Z" fill="white"/>
<path d="M12.173 6.89005L12.053 7.13208C11.999 7.24289 12.08 7.37119 12.206 7.37119H13.1957C13.2347 7.25164 13.2587 7.12625 13.2587 6.99502V6.57511C13.2587 6.55178 13.2587 6.52846 13.2527 6.50513H12.8058C12.5359 6.50513 12.29 6.65385 12.173 6.89005Z" fill="#CEF7B7"/>
<path d="M2.21533 6.26587H1.69346C1.48051 6.61288 1.28855 7.04445 1.14758 7.54602H2.66223C2.84819 7.54602 3.03414 7.35647 3.01015 7.19609L2.95616 6.83742C2.90217 6.49041 2.61424 6.26879 2.21833 6.26879L2.21533 6.26587Z" fill="#D5DDE8"/>
<path d="M2.56634 7.11432L2.59033 7.26887C2.60233 7.33886 2.52135 7.42051 2.44037 7.42051H1.39361C1.38161 7.3476 1.38761 7.26887 1.4176 7.18139L1.48059 7.00059C1.49859 6.95102 1.53158 6.90436 1.57357 6.86646H2.24841C2.41937 6.86646 2.54534 6.96268 2.56934 7.11432H2.56634Z" fill="#C1CCD4"/>
<path d="M1.51048 7.3711C1.63645 7.3711 1.76242 7.24279 1.74443 7.13198L1.70544 6.88995C1.68444 6.75873 1.61546 6.65667 1.51048 6.5896C1.39351 6.82288 1.28554 7.08533 1.19556 7.3711H1.50748H1.51048Z" fill="#CEF7B7"/>
<path d="M2.73711 6.74982L2.76111 6.90437C2.7731 6.97435 2.69212 7.056 2.61114 7.056H1.56439C1.55239 6.9831 1.55839 6.90437 1.58838 6.81689L1.65137 6.63609C1.66936 6.58652 1.70235 6.53986 1.74434 6.50195H2.41919C2.59015 6.50195 2.71612 6.59818 2.74011 6.74982H2.73711Z" fill="white"/>
<path d="M31.1136 5.9887H30.4328C30.1868 5.9887 29.9829 5.79916 29.9739 5.56004L29.7999 0.620253C29.7999 0.401549 31.4705 0.576512 31.4705 0.576512C32.1304 0.751475 32.4063 2.89186 32.5623 4.44028C32.6463 5.27135 31.9714 5.99162 31.1106 5.99162L31.1136 5.9887Z" fill="black"/>
<path d="M31.1075 5.0672H30.5797C30.3877 5.0672 30.2317 4.91848 30.2227 4.73185L30.0878 0.891413C30.0878 0.719366 31.3865 0.85642 31.3865 0.85642C31.8993 0.993475 32.1153 2.65562 32.2353 3.85995C32.2983 4.50732 31.7764 5.06428 31.1075 5.06428V5.0672Z" fill="#51545B"/>
<path opacity="0.5" d="M30.5797 2.39927C30.5797 2.23597 31.9263 2.35261 32.0403 2.36428C31.9023 1.59444 31.7014 0.941244 31.3865 0.859594C31.3865 0.859594 30.0878 0.72254 30.0878 0.894587L30.2227 4.73503C30.2287 4.92165 30.3877 5.07037 30.5797 5.07037H30.6876L30.5827 2.40218L30.5797 2.39927Z" fill="white"/>
<path d="M23.4054 1.0752H13.6487C12.7189 1.58842 11.4052 2.48948 9.66565 3.93001H11.0273C13.6907 2.19204 15.1574 1.57384 15.7362 1.46886C16.3961 1.3493 17.4728 1.25891 18.5946 1.21225C18.4896 1.63216 18.2437 2.58571 17.8477 3.93001H18.8495L19.4014 1.29682C19.4434 1.12477 20.7091 1.26182 20.7091 1.26182C21.018 1.3493 21.048 2.07248 20.982 2.89481C21.9778 2.13664 22.7936 1.60008 23.4444 1.22683C23.5194 1.18309 23.4864 1.0752 23.4024 1.0752H23.4054Z" fill="#231F20"/>
<path d="M22.1786 1.69652H20.394C20.1061 1.69652 19.8451 1.89189 19.8062 2.13101L19.6862 2.8921C19.6652 3.02332 19.5212 3.1283 19.3653 3.1283C19.1343 3.1283 18.9244 3.28285 18.8944 3.47531L18.8224 3.9273H18.9304C19.4102 3.9273 19.8751 3.764 20.2471 3.46656C21.1139 2.77254 21.8637 2.23016 22.5055 1.80733C22.4245 1.73734 22.3106 1.6936 22.1756 1.6936L22.1786 1.69652ZM22.0226 4.08477C21.9207 4.17808 21.8637 4.3093 21.8637 4.44636C21.8637 4.59799 21.9926 4.72046 22.1486 4.71755C22.3316 4.71172 22.5985 4.70588 22.9314 4.69714L23.1234 3.47823C23.1414 3.37033 23.0964 3.27702 23.0124 3.21287C22.7035 3.47239 22.3766 3.764 22.0256 4.08477H22.0226ZM28.1172 3.13122C27.9613 3.13122 27.8503 3.02624 27.8713 2.89502L27.9912 2.13393C28.0272 1.89481 27.8263 1.69944 27.5384 1.69944H25.7538C25.4658 1.69944 25.2049 1.89481 25.1659 2.13393L25.0459 2.89502C25.0249 3.02624 24.881 3.13122 24.725 3.13122C24.4941 3.13122 24.2841 3.28577 24.2541 3.47823L24.0682 4.66506C25.2619 4.63007 26.8005 4.58341 28.3152 4.52217L28.4801 3.47823C28.5101 3.28577 28.3482 3.13122 28.1172 3.13122Z" fill="#726350"/>
<path d="M11.7321 3.2478C11.1623 3.2478 10.6194 3.47817 10.2295 3.8835L10.1875 3.92724H18.9335C19.4133 3.92724 19.8782 3.76394 20.2502 3.46651C20.3431 3.39069 20.4361 3.31779 20.5261 3.2478H11.7291H11.7321Z" fill="#60C0C4"/>
<path opacity="0.5" d="M26.2127 1.14246C25.6459 1.26202 24.2962 1.99687 22.0227 4.08184C21.9177 4.17807 21.8608 4.31513 21.8638 4.4551C21.8668 4.6009 21.9957 4.71754 22.1487 4.71462C22.4726 4.70588 23.0605 4.6913 23.8013 4.67088C25.4719 3.25952 26.5037 2.72588 26.9806 2.62382C27.4665 2.51884 28.2103 2.43427 29.0381 2.37887C29.0261 1.66735 29.0051 1.14829 28.9931 0.856689C27.8864 0.909178 26.8366 1.01124 26.2127 1.14538V1.14246Z" fill="white"/>
<path opacity="0.5" d="M18.2736 2.16288H21.9898C22.5446 1.77505 23.0305 1.46595 23.4474 1.22683C23.5224 1.18309 23.4894 1.0752 23.4054 1.0752H13.6487C12.7189 1.58842 11.4052 2.48948 9.66565 3.93001H12.545C14.2156 2.78108 16.2191 2.16288 18.2766 2.16288H18.2736Z" fill="white"/>
<g style="mix-blend-mode:multiply">
<path d="M28.4232 5.78473C28.6932 5.78473 28.9121 5.6359 28.9121 5.4523C28.9121 5.26871 28.6932 5.11987 28.4232 5.11987C28.1532 5.11987 27.9343 5.26871 27.9343 5.4523C27.9343 5.6359 28.1532 5.78473 28.4232 5.78473Z" fill="#888D98"/>
</g>
<g style="mix-blend-mode:multiply">
<path d="M28.7832 5.26562H27.9404C27.8344 5.26562 27.7484 5.34918 27.7484 5.45225C27.7484 5.55532 27.8344 5.63888 27.9404 5.63888H28.7832C28.8892 5.63888 28.9751 5.55532 28.9751 5.45225C28.9751 5.34918 28.8892 5.26562 28.7832 5.26562Z" fill="#888D98"/>
</g>
<path d="M28.9032 5.26562H28.0604C27.9543 5.26562 27.8684 5.34918 27.8684 5.45225C27.8684 5.55532 27.9543 5.63888 28.0604 5.63888H28.9032C29.0092 5.63888 29.0951 5.55532 29.0951 5.45225C29.0951 5.34918 29.0092 5.26562 28.9032 5.26562Z" fill="white"/>
<path d="M29.4431 0.588323V0.52417C28.1054 0.570827 26.8187 0.690385 26.0539 0.850768C25.727 0.917837 24.4343 1.3465 21.5219 3.97094C21.405 4.07592 21.339 4.22464 21.339 4.37627V10.6604H29.3261V10.602C29.6471 5.02947 29.4581 0.955745 29.4401 0.588323H29.4431ZM21.408 4.37627C21.408 4.23922 21.468 4.108 21.5699 4.0176C24.4673 1.40482 25.748 0.98199 26.0719 0.914921C26.8037 0.76037 28.0634 0.646644 29.3801 0.597071C29.3981 0.990738 29.5841 5.04988 29.2661 10.5962H21.408V4.37627Z" fill="black"/>
<path d="M29.0411 0.807047C29.0411 0.807047 29.0111 0.789551 28.9931 0.789551C27.8234 0.844956 26.8036 0.949934 26.2008 1.07824C25.8948 1.14239 24.6861 1.55064 21.9807 4.03512C21.8668 4.14009 21.8008 4.28881 21.8008 4.44336C21.8008 4.53376 21.8368 4.61832 21.9058 4.68248C21.9687 4.74372 22.0557 4.77579 22.1427 4.77579C22.1457 4.77579 22.1487 4.77579 22.1517 4.77579C23.0545 4.75246 26.2158 4.67081 29.0591 4.55126C29.0951 4.55126 29.1221 4.5221 29.1221 4.4871C29.1281 2.7054 29.0861 1.44275 29.0621 0.847872C29.0621 0.830376 29.0531 0.815795 29.0411 0.804131V0.807047ZM28.9901 4.42878C26.9206 4.51335 24.6921 4.58042 23.2974 4.61833V3.88348C23.2974 3.34401 23.5554 2.8337 23.9903 2.49836C25.343 1.46607 26.0118 1.24737 26.2277 1.20071C26.8126 1.07532 27.7964 0.973262 28.9331 0.917857C28.9571 1.52731 28.9931 2.74039 28.9901 4.42587V4.42878Z" fill="black"/>
<g style="mix-blend-mode:multiply">
<path d="M24.977 6.6069L23.3214 5.29176C23.2104 5.20428 23.1475 5.07306 23.1475 4.936V4.07577C23.1475 3.82207 23.3604 3.78416 23.6213 3.9912L24.977 5.06723C25.106 5.16929 25.211 5.35591 25.211 5.4813V6.56608C25.211 6.69147 25.106 6.70896 24.977 6.6069Z" fill="#888D98"/>
</g>
<path d="M24.5272 3.08763C24.9051 3.08763 25.208 3.38507 25.208 3.74958V3.96245C25.208 4.32987 24.9021 4.62439 24.5272 4.62439H23.1445V4.42902C23.1445 3.68834 23.7624 3.08472 24.5272 3.08472V3.08763Z" fill="#3F3B42"/>
<path d="M24.3414 3.08765C24.6683 3.08765 24.9323 3.34426 24.9323 3.66211V4.05286C24.9323 4.37071 24.6683 4.62732 24.3414 4.62732H23.1477V4.25115C23.1477 3.60962 23.6816 3.09056 24.3414 3.09056V3.08765Z" fill="#767B85"/>
<path d="M23.7205 3.34131H24.6682C24.8122 3.34131 24.9322 3.45503 24.9322 3.59792V3.86037H23.1896C23.1896 3.57459 23.4265 3.34422 23.7205 3.34422V3.34131Z" fill="#AEB6C0"/>
<path d="M24.4343 3.59501H23.6455C23.5165 3.59501 23.4086 3.49295 23.4086 3.36465C23.4086 3.23926 23.5135 3.13428 23.6455 3.13428H24.4343C24.5633 3.13428 24.6713 3.23634 24.6713 3.36465C24.6713 3.49004 24.5663 3.59501 24.4343 3.59501Z" fill="white"/>
<path d="M23.8194 4.62719H22.9976C22.8926 4.62719 22.8086 4.54554 22.8086 4.44348C22.8086 4.34142 22.8926 4.25977 22.9976 4.25977H23.8194C23.9243 4.25977 24.0083 4.34142 24.0083 4.44348C24.0083 4.54554 23.9243 4.62719 23.8194 4.62719Z" fill="#3F3B42"/>
<path d="M23.7354 4.62719H22.9136C22.8086 4.62719 22.7246 4.54554 22.7246 4.44348C22.7246 4.34142 22.8086 4.25977 22.9136 4.25977H23.7354C23.8403 4.25977 23.9243 4.34142 23.9243 4.44348C23.9243 4.54554 23.8403 4.62719 23.7354 4.62719Z" fill="#767B85"/>
<path d="M23.6845 4.25977H22.9106C22.8057 4.25977 22.7217 4.34142 22.7217 4.44348H23.4955C23.6005 4.44348 23.6845 4.36183 23.6845 4.25977Z" fill="#D5DDE8"/>
<path d="M7.96206 8.89038H4.26392C3.88901 8.89038 3.57408 8.6396 3.54109 8.313L3.40912 7.01536C3.38513 6.7879 3.59208 6.59253 3.85302 6.59253H9.69865C10.0376 6.59253 10.2535 6.91329 10.0856 7.17282L9.47971 8.11762C9.17078 8.59586 8.59191 8.89329 7.96206 8.89329V8.89038Z" fill="#D5DDE8"/>
<path d="M7.7191 8.74736H4.59083C4.27291 8.74736 4.00597 8.53741 3.97897 8.2633L3.868 7.17853C3.85 6.98898 4.02096 6.82568 4.24291 6.82568H9.18576C9.47369 6.82568 9.65365 7.09396 9.51268 7.30975L8.9998 8.1C8.73886 8.4995 8.24998 8.75028 7.7161 8.75028L7.7191 8.74736Z" fill="black"/>
</svg>
