<svg width="20" height="14" viewBox="0 0 20 14" fill="none" xmlns="http://www.w3.org/2000/svg">
<path d="M2.12699 5.04593C1.84987 4.95621 1.60216 4.87698 1.35332 4.79541C0.958566 4.66608 0.803605 4.41789 0.859029 3.99959C0.908797 3.62091 1.1961 3.34709 1.5671 3.3401C2.00257 3.33311 2.43805 3.32495 2.87239 3.3436C3.08051 3.35292 3.19815 3.28534 3.30447 3.10124C3.65624 2.49068 4.01933 1.88712 4.39259 1.29171C4.91855 0.457437 5.68431 0.0239889 6.63896 0.0158326C8.8808 -0.00397547 11.1238 -0.00397547 13.3656 0.0158326C14.3203 0.0239889 15.0849 0.459767 15.6097 1.29404C15.9954 1.90809 16.3642 2.53496 16.7329 3.16066C16.8098 3.29 16.8924 3.34709 17.044 3.3436C17.4862 3.33311 17.9296 3.33777 18.3719 3.34126C18.8956 3.34476 19.236 3.76539 19.1399 4.29438C19.0969 4.53325 18.9578 4.69521 18.7282 4.76861C18.4533 4.85717 18.1796 4.95038 17.8832 5.04826C17.9534 5.16944 18.0054 5.27547 18.071 5.37101C18.5483 6.05731 18.7519 6.8438 18.7904 7.66526C18.8469 8.84326 18.8537 10.0248 18.8707 11.2051C18.8809 11.952 18.8718 12.7 18.8696 13.4469C18.8684 13.8174 18.6954 13.998 18.3368 13.9992C17.7351 14.0004 17.1322 14.0004 16.5304 13.998C16.1968 13.9969 16.0203 13.8151 16.0169 13.4725C16.0135 13.1218 16.0158 12.7711 16.0158 12.3994C12.0106 12.3994 8.01777 12.3994 4.00462 12.3994C4.0001 12.4437 3.98879 12.5008 3.98765 12.5567C3.98539 12.8631 3.98879 13.1696 3.98539 13.476C3.98087 13.8058 3.80215 13.9957 3.48884 13.9969C2.86447 14.0004 2.24123 14.0015 1.61687 13.9969C1.3273 13.9945 1.13162 13.8058 1.13276 13.5075C1.1418 11.6688 1.14746 9.83017 1.17913 7.99267C1.18592 7.57787 1.24813 7.15374 1.35784 6.75525C1.47209 6.33695 1.6655 5.93962 1.83856 5.53997C1.90756 5.37684 2.01501 5.23352 2.12699 5.04593ZM10.0017 5.05408C12.0185 5.05408 14.0341 5.05408 16.0508 5.05408C16.1379 5.05408 16.2262 5.05758 16.311 5.04593C16.5565 5.01214 16.6707 4.80823 16.5791 4.5717C16.5519 4.50295 16.5112 4.44003 16.4727 4.37595C15.957 3.51954 15.4389 2.66429 14.9231 1.80672C14.5612 1.20432 14.0273 0.89205 13.3509 0.88972C11.1034 0.878068 8.85478 0.876903 6.60615 0.893215C5.9569 0.897876 5.43773 1.21248 5.08822 1.78808C4.66518 2.48486 4.24555 3.1828 3.82591 3.88191C3.69583 4.09747 3.55897 4.30953 3.4436 4.53325C3.3056 4.80124 3.4402 5.02961 3.73542 5.04826C3.844 5.05525 3.95259 5.05292 4.06118 5.05292C6.04173 5.05408 8.02116 5.05408 10.0017 5.05408ZM15.9468 8.91899C16.2013 8.91899 16.4547 8.92132 16.7091 8.91783C17.1559 8.912 17.4964 8.71742 17.6774 8.28863C17.8459 7.88897 17.786 7.50446 17.5021 7.18404C17.191 6.83215 16.7996 6.76108 16.3687 6.91721C15.8902 7.09082 15.4129 7.2691 14.9356 7.44504C14.5284 7.59651 14.3384 7.89713 14.396 8.30028C14.4481 8.66382 14.749 8.90967 15.1629 8.91783C15.4242 8.92366 15.6855 8.91899 15.9468 8.91899ZM4.06683 8.91783C4.3349 8.91783 4.6041 8.92366 4.87218 8.91666C5.26127 8.90501 5.54631 8.66615 5.60513 8.3131C5.66847 7.93558 5.48863 7.61166 5.11649 7.46951C4.60071 7.27143 4.08493 7.06869 3.55897 6.90439C3.36894 6.84497 3.13707 6.8473 2.94365 6.89857C2.46859 7.02324 2.18694 7.51029 2.24915 8.02297C2.3091 8.51584 2.70159 8.88637 3.21851 8.9155C3.50015 8.93065 3.78406 8.91783 4.06683 8.91783ZM10.0074 11.268C10.617 11.268 11.2267 11.268 11.8352 11.268C12.4958 11.268 12.4958 11.268 12.4935 10.5817C12.4924 10.2112 12.42 10.1366 12.0603 10.1366C10.7765 10.1366 9.49159 10.1366 8.20779 10.1366C7.49746 10.1366 7.49746 10.1366 7.50764 10.866C7.51217 11.1771 7.597 11.2668 7.89561 11.268C8.60029 11.2692 9.30383 11.268 10.0074 11.268Z" fill="url(#paint0_linear_1529_1093)"/>
<path d="M9.22901 4.66944C7.75971 4.66944 6.32548 4.66944 4.85278 4.66944C4.89916 4.55992 4.93196 4.46787 4.97607 4.38164C5.18533 3.98548 5.51108 3.71865 5.90244 3.53572C5.96239 3.50776 6.07437 3.5264 6.12753 3.56951C6.73833 4.06471 7.33668 4.06588 7.94861 3.56834C7.99272 3.53222 8.07303 3.49028 8.11262 3.50776C8.62387 3.7338 9.01637 4.08452 9.22901 4.66944Z" fill="url(#paint1_linear_1529_1093)"/>
<path d="M10.7754 4.66134C10.9892 4.0869 11.3783 3.73269 11.8907 3.50897C11.9314 3.49149 12.0117 3.53344 12.0558 3.57073C12.6508 4.06593 13.2695 4.0636 13.8746 3.56723C13.9176 3.53111 13.9979 3.49266 14.0375 3.51014C14.5476 3.73618 14.9412 4.08457 15.1505 4.66134C13.688 4.66134 12.2492 4.66134 10.7754 4.66134Z" fill="url(#paint2_linear_1529_1093)"/>
<path d="M8.04373 2.45934C8.04033 3.07572 7.5992 3.55811 7.03931 3.55695C6.4681 3.55578 6.03037 3.07106 6.0315 2.43953C6.03263 1.82781 6.47602 1.34193 7.03591 1.3396C7.6026 1.33844 8.04712 1.83131 8.04373 2.45934Z" fill="url(#paint3_linear_1529_1093)"/>
<path d="M13.9684 2.44168C13.9706 3.06156 13.5374 3.55094 12.9821 3.55676C12.4052 3.56259 11.9595 3.0837 11.9573 2.45799C11.955 1.82996 12.3995 1.33825 12.9651 1.34058C13.525 1.34175 13.9661 1.82647 13.9684 2.44168Z" fill="url(#paint4_linear_1529_1093)"/>
<defs>
<linearGradient id="paint0_linear_1529_1093" x1="10.0021" y1="-6.59084" x2="10.0021" y2="14" gradientUnits="userSpaceOnUse">
<stop stop-color="#6BFFDA"/>
<stop offset="1" stop-color="#00E1A9"/>
</linearGradient>
<linearGradient id="paint1_linear_1529_1093" x1="7.0409" y1="2.95472" x2="7.0409" y2="4.66944" gradientUnits="userSpaceOnUse">
<stop stop-color="#6BFFDA"/>
<stop offset="1" stop-color="#00E1A9"/>
</linearGradient>
<linearGradient id="paint2_linear_1529_1093" x1="12.9629" y1="2.96033" x2="12.9629" y2="4.66134" gradientUnits="userSpaceOnUse">
<stop stop-color="#6BFFDA"/>
<stop offset="1" stop-color="#00E1A9"/>
</linearGradient>
<linearGradient id="paint3_linear_1529_1093" x1="7.03762" y1="0.295499" x2="7.03762" y2="3.55695" gradientUnits="userSpaceOnUse">
<stop stop-color="#6BFFDA"/>
<stop offset="1" stop-color="#00E1A9"/>
</linearGradient>
<linearGradient id="paint4_linear_1529_1093" x1="12.9628" y1="0.296998" x2="12.9628" y2="3.55682" gradientUnits="userSpaceOnUse">
<stop stop-color="#6BFFDA"/>
<stop offset="1" stop-color="#00E1A9"/>
</linearGradient>
</defs>
</svg>
