<svg width="16" height="16" viewBox="0 0 16 16" fill="none" xmlns="http://www.w3.org/2000/svg">
<path d="M7.88442 1.67331e-05C8.43787 -0.00224831 8.73596 0.225389 8.9264 0.713505C9.29374 1.6552 9.65892 2.59745 10.0246 3.53971C10.1799 3.93893 10.3455 4.33418 10.4856 4.73849C10.5532 4.93328 10.6506 5.00067 10.8497 5.01482C12.2649 5.11505 13.6791 5.22887 15.0933 5.34439C15.5391 5.38063 15.841 5.62808 15.9562 6.05334C16.0731 6.48427 15.9535 6.84554 15.6262 7.1349C14.5475 8.08962 13.4725 9.04886 12.3894 9.99792C12.252 10.1185 12.213 10.2205 12.2574 10.4062C12.5982 11.8241 12.9288 13.2449 13.2599 14.6656C13.4178 15.3423 13.0792 15.8916 12.4456 15.9912C12.1816 16.0326 11.9582 15.9221 11.7418 15.7817C10.5586 15.0156 9.37273 14.2545 8.19334 13.4816C8.04456 13.3842 7.9461 13.3887 7.79948 13.4849C6.60278 14.2681 5.4012 15.0433 4.198 15.8157C3.63103 16.1792 3.00563 15.9873 2.75676 15.3859C2.65992 15.1526 2.67886 14.9187 2.73512 14.6798C3.07217 13.2392 3.40381 11.7969 3.7468 10.3575C3.78197 10.2086 3.75276 10.1276 3.64672 10.0342C2.56146 9.07661 1.48053 8.11397 0.396892 7.15415C0.182112 6.96389 0.0273845 6.74192 0.00358019 6.43953C-0.0407823 5.87384 0.33143 5.39648 0.881093 5.34552C1.73534 5.26624 2.59121 5.20452 3.44709 5.1377C4.04652 5.0907 4.64596 5.04257 5.24593 5.00576C5.3893 4.9967 5.43799 4.91969 5.48506 4.79794C6.02011 3.41683 6.55896 2.03742 7.09726 0.657445C7.26172 0.235015 7.56685 0.0204021 7.88442 1.67331e-05Z" fill="url(#paint0_linear_1539_4539)"/>
<defs>
<linearGradient id="paint0_linear_1539_4539" x1="8" y1="-7.53405" x2="8" y2="16" gradientUnits="userSpaceOnUse">
<stop stop-color="#6BFFDA"/>
<stop offset="1" stop-color="#00E1A9"/>
</linearGradient>
</defs>
</svg>
