<svg width="55" height="62" viewBox="0 0 55 62" fill="none" xmlns="http://www.w3.org/2000/svg">
<g clip-path="url(#clip0_1753_6230)">
<path d="M54.9999 25.332L45.9101 24.7874C43.5936 14.1595 34.1351 6.20838 22.8168 6.20838C20.8689 6.20838 18.9756 6.44297 17.166 6.89122L12.5205 0L39.7231 2.95757L54.9999 25.332Z" fill="url(#paint0_linear_1753_6230)"/>
<path d="M9.31608 48.4019L9.31189 48.406C9.32027 48.4144 9.33283 48.4228 9.34121 48.427L9.31608 48.4019Z" fill="white"/>
<path d="M36.5019 32.3447C36.5019 35.8175 35.2662 39.0055 33.2011 41.4855C30.5789 44.6441 26.6204 46.6549 22.1927 46.6549C18.9547 46.6549 15.9639 45.5783 13.5678 43.7644L13.6642 43.6555H13.6684C15.4612 44.908 17.6436 45.637 19.9936 45.637C24.6893 45.637 28.7022 42.7213 30.315 38.5991C30.8092 37.3465 31.0815 35.9767 31.0815 34.5482C31.0815 28.4236 26.1177 23.4594 19.9936 23.4594C13.8694 23.4594 8.90559 28.4236 8.90559 34.5482C8.90559 36.9402 9.66378 39.1563 10.954 40.966L10.8492 41.0624C8.98937 38.6494 7.8877 35.6248 7.8877 32.3447C7.8877 24.4438 14.2925 18.0386 22.1927 18.0386C30.0971 18.0386 36.5019 24.4438 36.5019 32.3447Z" fill="url(#paint1_linear_1753_6230)"/>
<path d="M45.6337 30.0158C45.6337 37.1919 42.3454 43.5175 37.1386 47.7779L22.9174 62.0002L9.3412 48.4273L9.31607 48.4021L13.5678 43.7647C15.9638 45.5786 18.9547 46.6552 22.1927 46.6552C26.6203 46.6552 30.5788 44.6444 33.2011 41.4858C35.2662 39.0058 36.5019 35.8178 36.5019 32.345C36.5019 24.4442 30.0971 18.0389 22.1927 18.0389C14.2925 18.0389 7.88766 24.4442 7.88766 32.345C7.88766 35.6251 8.98934 38.6497 10.8492 41.0627L6.18279 45.6205C2.43793 41.557 0 35.9728 0 30.0158C0 17.4105 10.2167 7.19727 22.8168 7.19727C35.4212 7.19727 45.6337 17.4105 45.6337 30.0158Z" fill="url(#paint2_linear_1753_6230)"/>
<path d="M13.3081 30.8994C13.1741 30.8994 13.0358 30.8659 12.906 30.7989C12.4997 30.5768 12.3489 30.07 12.5709 29.6636C12.6044 29.6008 16.1607 23.2332 23.3698 26.0274C23.8013 26.195 24.0149 26.6809 23.8473 27.1124C23.6798 27.5439 23.1939 27.7575 22.7624 27.59C16.9483 25.332 14.1585 30.2543 14.0454 30.4637C13.8904 30.7444 13.6013 30.8994 13.3081 30.8994Z" fill="url(#paint3_linear_1753_6230)"/>
</g>
<defs>
<linearGradient id="paint0_linear_1753_6230" x1="59.9153" y1="24.3894" x2="17.9262" y2="-1.433" gradientUnits="userSpaceOnUse">
<stop stop-color="#00A682"/>
<stop offset="1" stop-color="#00FEBE"/>
</linearGradient>
<linearGradient id="paint1_linear_1753_6230" x1="5.20845" y1="37.4109" x2="36.9458" y2="27.9495" gradientUnits="userSpaceOnUse">
<stop stop-color="#00A682"/>
<stop offset="1" stop-color="#5FEAC7"/>
</linearGradient>
<linearGradient id="paint2_linear_1753_6230" x1="46.149" y1="25.3746" x2="3.96384" y2="40.7494" gradientUnits="userSpaceOnUse">
<stop stop-color="#039C7B"/>
<stop offset="1" stop-color="#00FEBE"/>
</linearGradient>
<linearGradient id="paint3_linear_1753_6230" x1="12.4693" y1="28.1099" x2="23.9027" y2="28.1099" gradientUnits="userSpaceOnUse">
<stop stop-color="#00A682"/>
<stop offset="1" stop-color="#5FEAC7"/>
</linearGradient>
<clipPath id="clip0_1753_6230">
<rect width="55" height="62" fill="white"/>
</clipPath>
</defs>
</svg>
