<svg width="18" height="15" viewBox="0 0 18 15" fill="none" xmlns="http://www.w3.org/2000/svg">
<path d="M13.9133 12.3702C10.6215 12.3702 7.35924 12.3702 4.07784 12.3702C4.07349 12.4417 4.06653 12.5063 4.06566 12.5709C4.06131 13.1944 4.06566 13.8188 4.05348 14.4424C4.04652 14.7886 3.90211 14.9333 3.55849 14.9824C3.49759 14.991 3.43496 14.997 3.37406 14.997C2.9069 14.9979 2.43975 14.9979 1.97259 14.997C1.91083 14.997 1.84906 14.991 1.78817 14.9824C1.44367 14.9307 1.30187 14.7877 1.29404 14.4407C1.28099 13.8447 1.27316 13.2487 1.28708 12.6527C1.2923 12.4391 1.23141 12.3125 1.03306 12.2315C0.578086 12.0472 0.321455 11.6812 0.219672 11.2299C0.11267 10.7545 0.0143674 10.267 0.00392814 9.78213C-0.0134706 8.97686 0.0300262 8.169 0.0735229 7.36373C0.102231 6.82458 0.370171 6.3931 0.781651 6.04343C0.853855 5.98142 0.915621 5.89271 0.950418 5.804C1.52371 4.33556 2.09003 2.8654 2.66158 1.39609C2.95736 0.635606 3.89863 0 4.71985 0C7.56193 0 10.4031 0.000860782 13.2452 0.000860782C14.0978 0.000860782 15.026 0.639051 15.3313 1.43141C15.8942 2.89123 16.4579 4.35106 17.0242 5.81003C17.0529 5.88409 17.0999 5.96333 17.1599 6.01242C17.6471 6.40774 17.8811 6.92277 17.9307 7.53512C18.0073 8.48594 18.0377 9.43763 17.9307 10.3876C17.9011 10.652 17.8454 10.9147 17.7785 11.1731C17.6497 11.6726 17.3792 12.067 16.8763 12.2677C16.7337 12.3246 16.6832 12.4159 16.6867 12.5735C16.698 13.1307 16.6928 13.6879 16.691 14.2443C16.6893 14.8455 16.5345 14.9988 15.9333 14.9996C15.5114 15.0005 15.0895 14.9996 14.6676 14.9996C14.6171 14.9996 14.5658 14.9996 14.5153 14.9962C14.0865 14.9678 13.9246 14.8162 13.9168 14.3924C13.9055 13.7913 13.9125 13.1893 13.9125 12.5872C13.9133 12.5218 13.9133 12.4563 13.9133 12.3702ZM8.97384 5.94955C10.7233 5.94955 12.4727 5.94955 14.2222 5.94955C14.7511 5.94955 15.28 5.95041 15.8081 5.94783C16.0542 5.9461 16.1317 5.84017 16.0629 5.60591C16.0351 5.51031 15.9994 5.41643 15.9629 5.32256C15.514 4.1478 15.0573 2.97477 14.6171 1.79658C14.3953 1.20145 13.8185 0.781158 13.1765 0.781158C10.3866 0.781158 7.59673 0.780296 4.80597 0.778574C4.20311 0.778574 3.5698 1.19714 3.38537 1.70787C3.16441 2.32022 2.93561 2.92999 2.70421 3.5389C2.44584 4.22101 2.1779 4.89882 1.9204 5.58179C1.82818 5.82553 1.9117 5.94869 2.15441 5.94955C4.42842 5.94955 6.7007 5.94955 8.97384 5.94955ZM4.61459 9.02767C4.60676 8.38604 4.09263 7.87962 3.45409 7.88479C2.82078 7.88996 2.29795 8.41532 2.30143 9.04232C2.30491 9.665 2.84166 10.1835 3.47671 10.1766C4.10481 10.1706 4.62242 9.64778 4.61459 9.02767ZM14.5432 10.1731C15.18 10.1818 15.7054 9.68051 15.7124 9.05868C15.7193 8.41704 15.22 7.89685 14.5832 7.88393C13.9481 7.87101 13.4149 8.38259 13.4053 9.01303C13.3949 9.65036 13.8985 10.1645 14.5432 10.1731Z" fill="url(#paint0_linear_1526_978)"/>
<defs>
<linearGradient id="paint0_linear_1526_978" x1="9" y1="-7.06317" x2="9" y2="15" gradientUnits="userSpaceOnUse">
<stop stop-color="#6BFFDA"/>
<stop offset="1" stop-color="#00E1A9"/>
</linearGradient>
</defs>
</svg>
