<svg width="198" height="192" viewBox="0 0 198 192" fill="none" xmlns="http://www.w3.org/2000/svg">
<path d="M197.798 72.3392V73.1889H197.704C197.798 72.8585 197.798 72.6461 197.798 72.3392Z" fill="white"/>
<path d="M35.6004 109.087V109.299H35.5059L35.6004 109.087Z" fill="white"/>
<path d="M40.325 109.087V109.299H40.2305L40.325 109.087Z" fill="white"/>
<path d="M95.769 191.363C148.661 191.363 191.538 148.525 191.538 95.6813C191.538 42.838 148.661 0 95.769 0C42.8773 0 0 42.838 0 95.6813C0 148.525 42.8773 191.363 95.769 191.363Z" fill="#0A0A0A"/>
<path d="M91.1861 123.484C92.0838 122.752 92.5563 121.761 92.7216 120.699L92.2492 120.439L85.044 116.498L84.7842 116.333H84.7369L52.6564 117.914L81.3824 119.283L60.5939 137.267C58.5859 139.061 58.3733 142.059 60.1214 144.041C61.1136 145.15 62.4365 145.717 63.7594 145.717C64.9169 145.717 66.0272 145.292 66.9249 144.513L90.501 124.121L91.1861 123.484Z" fill="white"/>
<path d="M102.762 66.4623C108.03 66.4623 112.4 62.4264 113.061 57.2577H116.628L111.36 50.1063L110.888 49.3747V49.5399C108.998 47.1325 105.998 45.5512 102.738 45.5512C96.9029 45.5512 92.2255 50.2243 92.2255 55.9596C92.2491 61.7184 96.9266 66.4623 102.762 66.4623Z" fill="white"/>
<path d="M107.746 116.923C108.644 113.902 108.053 110.81 104.982 108.993L90.9971 101.369L97.5171 85.9101L103.919 93.9582C104.935 95.2327 106.4 95.9644 107.911 96.0116C108.124 96.0588 108.337 96.0588 108.549 96.0588H108.715C108.974 96.0588 109.234 96.0116 109.494 95.8936C109.541 95.8936 109.541 95.8936 109.589 95.8936L110.108 95.752L145.874 85.3436C147.41 84.8716 148.52 83.4555 148.733 81.8742V81.4257V75.1241H115.424V85.8865L112.471 86.7361L98.8873 69.6957C98.1077 68.7516 97.1155 68.138 95.9816 67.8076C95.8871 67.7604 95.7218 67.7132 95.6273 67.6423C91.1625 65.7542 85.9417 67.8076 84.0518 72.3155L73.4686 97.3333C72.4764 99.6463 72.5709 102.172 73.5158 104.272L45.0733 105.688L75.4293 107.175C75.8545 107.6 76.3743 107.954 76.9176 108.284L96.3124 118.858L87.0048 138.896C85.8945 141.303 86.9575 144.135 89.3671 145.245C90.0049 145.552 90.69 145.717 91.3751 145.717C93.2177 145.717 94.9422 144.655 95.7454 142.932C97.3754 139.415 99.029 135.875 100.659 132.358C102.809 127.756 104.935 123.13 107.085 118.528C107.368 117.985 107.581 117.466 107.746 116.923Z" fill="white"/>
<path d="M151 86.807L125.44 94.5956C128.18 95.2328 130.377 96.3185 131.96 97.8998C134.275 100.26 135.433 103.847 135.433 108.615C135.433 119.661 130.33 125.065 119.392 125.49C118.92 125.537 118.447 125.537 117.975 125.537H117.597V125.49H108.549L99.4542 144.82L102.076 145.127C106.399 145.599 111.219 145.811 116.487 145.811C129.739 145.811 140.323 142.295 147.102 135.615C154.048 128.983 157.686 119.543 157.686 108.332C157.686 99.7879 155.418 92.5894 151 86.807Z" fill="white"/>
<path d="M66.6414 99.67L68.2242 99.7644L68.2714 99.67L81.1698 70.2386C66.3816 65.9195 58.5386 72.5044 54.5463 79.1129L39.7581 80.4818L53.2234 81.5911C52.0186 84.0692 51.3335 86.3114 50.9555 87.7511L37.0178 89.002L52.4202 90.3237L55.255 92.0466L62.9798 96.6253L33.8286 98.0886L66.6414 99.67Z" fill="#5FEAC7"/>
</svg>
