<svg width="36" height="36" viewBox="0 0 36 36" fill="none" xmlns="http://www.w3.org/2000/svg">
<g id="Group 75912">
<g id="Group 75898">
<circle id="Ellipse 34" cx="18.4839" cy="18.4839" r="17.5161" fill="#D9D9D9"/>
</g>
<g id="Group">
<path id="Vector" d="M15.0572 10.8798C15.1917 10.4021 15.2452 9.98157 15.4251 9.62926C15.6997 9.09174 16.2091 8.85779 16.8008 8.85501C18.3124 8.84665 19.8241 8.83969 21.3357 8.8564C22.3242 8.86754 22.9475 9.51229 22.9969 10.5177C23.0024 10.6208 23.0121 10.7238 23.0244 10.8812C24.061 10.8812 25.0701 10.8798 26.0792 10.8812C27.6471 10.8839 28.4709 11.7236 28.4723 13.3251C28.475 16.8607 28.475 20.395 28.4723 23.9307C28.4709 25.5586 27.6499 26.3815 26.0326 26.3815C21.3906 26.3829 16.75 26.3829 12.108 26.3815C10.5127 26.3815 9.68753 25.5377 9.68616 23.907C9.68478 20.3894 9.68341 16.8733 9.68616 13.3557C9.68753 11.7348 10.525 10.8825 12.1149 10.8812C13.1076 10.8798 14.1016 10.8798 15.0572 10.8798ZM19.0703 13.3418C16.172 13.3529 13.8476 15.7175 13.8558 18.6474C13.8641 21.5703 16.2228 23.9557 19.0923 23.9432C21.981 23.9307 24.3081 21.5536 24.3013 18.6251C24.2944 15.6826 21.9659 13.332 19.0703 13.3418ZM25.6591 12.4102C25.2115 12.4074 24.8079 12.821 24.812 13.2735C24.8161 13.7289 25.2294 14.13 25.6783 14.116C26.1136 14.1021 26.4856 13.7206 26.4939 13.2805C26.5021 12.8196 26.1122 12.413 25.6591 12.4102Z" fill="black"/>
<path id="Vector_2" d="M15.1895 18.5992C15.1991 16.4157 16.951 14.6695 19.1189 14.6792C21.2648 14.689 22.992 16.477 22.9796 18.6717C22.9673 20.8552 21.2113 22.6042 19.0489 22.5903C16.8933 22.5763 15.1785 20.8036 15.1895 18.5992Z" fill="black"/>
</g>
</g>
</svg>
