<svg width="35" height="35" viewBox="0 0 35 35" fill="none" xmlns="http://www.w3.org/2000/svg">
<g id="Group 75926">
<circle id="Ellipse 36" cx="17.5" cy="17.5" r="17.5" fill="#EBEBEB"/>
<g id="Group 75925">
<g id="Group">
<path id="Vector" d="M24.4616 23.8311C24.4733 24.1864 24.4883 24.5535 24.174 24.7819C24.0168 24.8969 23.801 24.9815 23.6087 24.99C23.0819 25.012 22.8445 24.6601 22.7809 23.8294C20.7391 23.8294 18.6972 23.8294 16.6236 23.8294C16.6236 23.9292 16.6269 24.0358 16.6236 24.1407C16.6085 24.6449 16.2507 25.0035 15.769 25.0001C15.3075 24.9968 14.9563 24.6262 14.9479 24.1322C14.9463 24.0324 14.9479 23.9309 14.9479 23.8396C14.8041 23.804 14.677 23.7854 14.56 23.7397C14.2389 23.6162 14.065 23.3185 14.065 22.9141C14.065 20.4712 14.0633 18.0299 14.0633 15.5869C14.0633 14.7681 14.0733 13.9492 14.0583 13.1304C14.0533 12.8512 14.1553 12.6516 14.3559 12.479C14.8242 12.0781 15.3744 11.8361 15.948 11.645C16.8276 11.3506 17.7356 11.2102 18.6587 11.1476C19.7106 11.0765 20.7575 11.0917 21.7993 11.2389C22.7492 11.3726 23.6739 11.6027 24.5201 12.0848C24.6305 12.1474 24.7342 12.2219 24.8412 12.2912C25.1974 12.5247 25.3563 12.8275 25.3529 13.286C25.3345 16.4379 25.3429 19.5914 25.3429 22.7433C25.3429 23.4758 25.184 23.6754 24.4616 23.8311ZM15.1085 19.6743C18.1838 19.6743 21.2374 19.6743 24.301 19.6743C24.301 17.8065 24.301 15.9506 24.301 14.0879C21.2307 14.0879 18.1721 14.0879 15.1085 14.0879C15.1085 15.954 15.1085 17.8065 15.1085 19.6743ZM18.1604 13.1355C19.2006 13.1355 20.219 13.1355 21.2491 13.1355C21.2491 12.9612 21.2491 12.7971 21.2491 12.6262C20.214 12.6262 19.1905 12.6262 18.1604 12.6262C18.1604 12.8005 18.1604 12.9595 18.1604 13.1355ZM15.7841 22.4489C16.1804 22.4489 16.4998 22.1342 16.5032 21.7383C16.5082 21.3458 16.1854 21.0142 15.7958 21.0125C15.3911 21.0092 15.065 21.334 15.0667 21.7366C15.07 22.1325 15.3878 22.4489 15.7841 22.4489ZM23.6171 21.0142C23.2207 21.0176 22.913 21.334 22.913 21.7383C22.913 22.1359 23.2325 22.454 23.6288 22.4523C24.0385 22.4489 24.3462 22.1308 24.3412 21.7163C24.3362 21.3171 24.0201 21.0108 23.6171 21.0142Z" fill="#515050"/>
<path id="Vector_2" d="M9.35406 12.9679C8.03128 12.731 7.49113 11.6195 7.63996 10.6636C7.78712 9.72129 8.67344 8.97182 9.61159 9.01073C10.6618 9.05471 11.4511 9.83633 11.5113 10.936C11.5581 11.7955 10.9778 12.7649 9.78216 12.9577C9.78216 16.6188 9.78216 20.2833 9.78216 23.963C10.2956 24.0797 10.6802 24.3639 10.8859 24.9002C9.99956 24.9002 9.13499 24.9002 8.247 24.9002C8.44433 24.3741 8.82394 24.0848 9.35239 23.9613C9.35406 20.3002 9.35406 16.6408 9.35406 12.9679Z" fill="#515050"/>
<path id="Vector_3" d="M13.9028 16.409C13.9028 16.7541 13.9044 17.0992 13.9028 17.4444C13.9011 17.7303 13.769 17.8572 13.4797 17.8572C13.177 17.8589 13.0349 17.7303 13.0332 17.4444C13.0298 16.7609 13.0315 16.0774 13.0332 15.3939C13.0349 15.0995 13.1737 14.9676 13.4696 14.9693C13.779 14.9726 13.9011 15.0928 13.9028 15.3939C13.9044 15.7323 13.9028 16.0706 13.9028 16.409Z" fill="#515050"/>
<path id="Vector_4" d="M26.3829 16.4107C26.3829 16.7473 26.3846 17.0857 26.3829 17.4224C26.3812 17.7286 26.2458 17.8589 25.9364 17.8572C25.6387 17.8555 25.5083 17.7286 25.5066 17.4291C25.505 16.7541 25.505 16.0791 25.5066 15.4041C25.5083 15.0995 25.6354 14.9709 25.9297 14.9693C26.2441 14.9676 26.3779 15.0928 26.3812 15.399C26.3862 15.7356 26.3829 16.0723 26.3829 16.4107Z" fill="#515050"/>
</g>
</g>
</g>
</svg>
