<svg width="35" height="35" viewBox="0 0 35 35" fill="none" xmlns="http://www.w3.org/2000/svg">
<g id="Group 75931">
<circle id="Ellipse 36" cx="17.5" cy="17.5" r="17.5" fill="#EBEBEB"/>
<g id="Group">
<path id="Vector" d="M17.4953 27.9994C14.8639 27.9802 12.5241 27.1367 10.5601 25.3806C8.04767 23.1413 6.86625 20.3001 7.01201 16.9412C7.12324 14.3837 8.08987 12.1445 9.85817 10.2925C12.0906 7.95357 14.8562 6.86078 18.0783 7.01416C20.4949 7.12919 22.6391 7.99958 24.4419 9.61766C26.9582 11.8722 28.1434 14.7173 27.9862 18.0838C27.8673 20.6298 26.893 22.8499 25.1477 24.7096C23.1109 26.8798 20.2762 28.0301 17.4953 27.9994ZM10.4029 14.3032C15.1439 13.2986 19.8696 13.2986 24.6222 14.307C24.0506 13.0801 23.2681 12.0755 22.2133 11.2856C20.6598 10.1276 18.9107 9.60232 16.9736 9.71735C13.9011 9.9014 11.3733 11.9873 10.4029 14.3032ZM9.69707 17.2518C9.67022 19.4144 10.3645 21.274 11.8144 22.8307C13.0112 24.1152 14.4957 24.8898 16.2409 25.1965C16.2179 25.0853 16.1949 24.9933 16.1757 24.9013C16.0185 24.2073 15.8075 23.5324 15.539 22.8729C15.2551 22.1789 14.9061 21.5156 14.4842 20.8982C14.1044 20.3384 13.6786 19.817 13.1723 19.3683C12.8309 19.0654 12.4819 18.7702 12.1175 18.498C11.5766 18.0992 10.9821 17.7809 10.3645 17.5202C10.1497 17.4282 9.93489 17.3477 9.69707 17.2518ZM18.7649 25.1927C20.7135 24.8859 23.0111 23.6705 24.3422 21.2433C25.0173 20.0125 25.328 18.6897 25.305 17.2748C25.2589 17.2863 25.2321 17.2901 25.2091 17.2978C24.603 17.5164 24.02 17.7848 23.4676 18.1184C22.8692 18.4826 22.3054 18.8891 21.8105 19.3875C21.6072 19.5946 21.3963 19.794 21.2122 20.0163C20.9513 20.3269 20.6905 20.6452 20.468 20.9826C20.0576 21.5999 19.72 22.2556 19.4438 22.9419C19.1485 23.6705 18.926 24.4143 18.7649 25.1927ZM17.4991 15.6567C16.4558 15.6951 15.6617 16.5003 15.6656 17.501C15.6694 18.5401 16.4979 19.3377 17.5068 19.3338C18.5501 19.33 19.3441 18.498 19.3403 17.4972C19.3326 16.4543 18.5079 15.6874 17.4991 15.6567Z" fill="#515050"/>
</g>
</g>
</svg>
