<?xml version="1.0" encoding="utf-8"?>
<!-- Generator: Adobe Illustrator 27.9.0, SVG Export Plug-In . SVG Version: 6.00 Build 0)  -->
<svg version="1.1" id="Layer_1" xmlns="http://www.w3.org/2000/svg" xmlns:xlink="http://www.w3.org/1999/xlink" x="0px" y="0px"
	 viewBox="0 0 371.29 60.44" style="enable-background:new 0 0 371.29 60.44;" xml:space="preserve">
<style type="text/css">
	.st0{fill:#0F1112;}
	.st1{fill:#00C795;}
	.st2{fill:#FFFFFF;}
	.st3{fill:#00FEBE;}
	.st4{fill:url(#SVGID_1_);}
</style>
<g>
	<g>
		<path class="st2" d="M351.99,60.38h10.45l1.52-10.32c1.65-11.17,3.31-22.34,4.94-33.7H358.5c-1.17,8.2-2.39,16.35-3.61,24.5
			C353.91,47.37,352.94,53.87,351.99,60.38z"/>
		<polygon class="st3" points="360.68,1.9 359.53,9.36 369.96,9.36 371.29,0.37 		"/>
		<path class="st2" d="M248.56,27.36l-1.9-1.02l1.67-1.38c3.77-3.12,6.22-7.7,6.71-12.57c0.19-1.89,0.2-5.43-1.9-7.95
			c-2.09-2.51-5.8-3.34-8.4-3.75c-7.83-1.24-15.99-0.55-23.87,0.11c-2.82,0.24-5.65,0.47-8.47,0.63c-0.09,0.65-0.19,1.46-0.25,2
			l-0.08,0.63l-7.76,52.78c-0.05,0.29-0.12,0.62-0.2,0.96c-0.06,0.27-0.14,0.6-0.18,0.88c0.05,0.01,0.1,0.01,0.15,0.02
			c1.74,0.22,3.48,0.43,5.22,0.62c8.44,0.95,14.87,1.27,20.83,1.04c4.81-0.18,8.36-0.73,11.49-1.77c2.73-0.91,6.53-2.72,9.17-6.16
			c2.12-2.77,3.39-6.55,3.69-10.93c0.21-3.13-0.12-5.89-0.98-8.2C252.48,30.64,250.73,28.52,248.56,27.36z M240.75,46.02
			c-1.37,3.38-4.23,5.31-8.07,5.43c-2.07,0.07-4.15,0.09-6.22,0.09c-1.16,0-2.31-0.01-3.47-0.01l-4.61-0.13L217.25,51l0.03-1.22
			l1.01-7.3c0.35-2.4,0.69-4.8,1.02-7.21c0.23-1.73,1.48-1.99,2.21-1.99c0.01,0,0.01,0,0.02,0c1.64,0.01,3.28,0.01,4.92,0.01
			c2.19,0,4.38,0,6.57,0.03c1.33,0.02,2.65,0.16,3.91,0.42c2.65,0.55,4.35,2.44,4.66,5.18C241.89,41.51,241.61,43.9,240.75,46.02z
			 M242.37,16.17c-0.42,2.77-1.56,5.4-3.4,7.8c-0.34,0.45-1.04,0.99-1.87,0.99c-2.27,0.01-4.55,0.01-6.82,0.01
			c-1.79,0-3.58,0-5.37,0l-2.8-0.11l-1.12-0.39l0.02-1.23l1.92-13.68L224.47,9L225.33,9c3.7,0.03,7.39,0.05,11.09,0.1
			c0.56,0.01,1.09,0.11,1.58,0.22C240.39,9.84,243.08,11.46,242.37,16.17z"/>
		<path class="st2" d="M293.96,17.1c-4.03-0.62-8.16-0.32-12.39,0.08c-0.97,0.09-1.94,0.2-2.94,0.3l-3.42,0.36l2.47-17.61
			l-3.36,0.51c-2.33,0.37-4.64,0.74-7.04,1.09c-0.7,4.99-1.39,9.68-2.13,14.57l-0.99,6.76c-0.6,4.08-1.2,8.18-1.81,12.23
			c-0.45,3.15-0.92,6.32-1.4,9.49c-0.48,3.16-0.95,6.32-1.4,9.48c-0.18,1.26-0.37,2.53-0.56,3.8c-0.11,0.76-0.23,1.51-0.34,2.27
			h10.74l3.1-22.77c0.49-3.64,0.99-7.28,1.5-10.92c0.12-0.9,1.05-1.73,1.94-1.73l2.03-0.01c2.53-0.01,5.16-0.02,7.75,0.1
			c3.02,0.14,5.11,1.99,5.61,4.95c0.15,0.88,0.19,1.83,0.11,2.75c-0.1,1.21-0.26,2.42-0.43,3.63l-3.28,23.99h10.56l1.46-10.55
			c0.62-4.45,1.24-8.89,1.83-13.35c0.39-2.94,0.79-5.99,1-9c0.18-2.53-0.35-4.75-1.56-6.58C299.6,18.82,297.42,17.63,293.96,17.1z"
			/>
		<path class="st2" d="M348.34,17.56c-2.81-0.32-5.61-0.63-8.43-0.85c-2.92-0.23-5.8-0.42-8.65-0.42c-2.25,0-4.47,0.12-6.68,0.45
			c-4.86,0.72-8.47,2.81-11.03,6.39c-1.4,1.97-2.52,4.33-3.41,7.21c-1.13,3.65-1.84,7.72-2.22,12.83c-0.26,3.46-0.13,6.25,0.43,8.79
			c0.9,4.1,3.09,6.6,6.69,7.66c1.81,0.53,3.8,0.79,6.26,0.81c7.95,0.07,15.73-0.42,23.91-1.48c0.42-3.08,0.92-6.14,1.41-9.2
			c0.44-2.73,0.89-5.47,1.27-8.2l3.36-23.68L348.34,17.56z M335.95,51.76l-0.98,0.56l-0.6,0.09c-1.02-0.03-2.05-0.04-3.09-0.05
			c-2.44-0.03-4.97-0.05-7.46-0.31c-1.72-0.18-3.04-0.82-3.91-1.92c-0.93-1.18-1.27-2.78-1.01-4.76l0.26-2.01
			c0.48-3.71,0.96-7.41,1.49-11.11c0.14-0.95,0.42-1.93,0.89-3.11c1.14-2.87,3.53-4.54,6.74-4.69c2.23-0.11,4.46-0.11,6.7-0.11
			l3.03-0.01l1.51,0.55l0.01,1.21L335.95,51.76z"/>
	</g>
	<g>
		<polygon class="st3" points="205.7,0.39 195.1,1.93 193.94,9.39 204.38,9.39 		"/>
		<g>
			<path class="st2" d="M138.57,43.52c0.19-0.03,0.35-0.06,0.51-0.07l2.58-0.2c1.77-0.13,3.54-0.27,5.31-0.46
				c3.44-0.38,7.48-0.97,11.38-2.5c5.19-2.04,7.91-5.43,8.3-10.38c0.27-3.45-0.28-6.07-1.75-8.22c-1.52-2.24-3.85-3.66-7.32-4.49
				c-2.23-0.53-4.56-0.8-7.02-0.8c-1.63,0-3.31,0.12-5.08,0.35c-7.74,1.01-12.94,4.89-15.92,11.86c-1.33,3.12-2.2,6.6-2.82,11.3
				c-0.44,3.26-0.8,7.1-0.16,10.92c0.62,3.7,2.31,6.22,5.18,7.7c1.51,0.78,3.24,1.27,5.59,1.58c2.87,0.38,5.98,0.42,9.77,0.12
				c3-0.24,5.99-0.54,8.99-0.85l4.12-0.41c0.12-0.87,0.26-1.74,0.39-2.6l0.52-3.47l-4.01,0c-4.62-0.01-9.18,0-13.77-0.04
				c-1.1-0.01-2.29-0.2-3.54-0.55c-1.88-0.54-2.99-2.06-2.95-4.07c0.01-0.79,0.09-1.59,0.17-2.38l0.19-2.12l1.12-0.18 M137.9,37.74
				l0.33-2.16c0.39-2.62,0.8-5.33,2.1-7.82c1.46-2.82,3.91-4.31,7.08-4.33c1.69-0.01,3.12-0.01,4.54,0.08
				c3.06,0.21,4.78,2.03,4.84,5.13c0.07,3.57-1.35,5.63-4.75,6.87c-2.95,1.08-6.02,1.42-8.99,1.75c-0.79,0.09-1.48,0.15-2.2,0.21
				L137.9,37.74z"/>
			<path class="st2" d="M180.38,1.51l-2.56,0.37c-0.27,1.91-0.55,3.8-0.83,5.68c-0.3,2-0.6,3.99-0.88,5.98
				c-0.43,2.96-0.87,5.91-1.31,8.86c-0.44,2.94-0.88,5.89-1.31,8.84c-0.54,3.9-1.14,7.84-1.73,11.78l-2.57,17.38h10.32
				c1.4-9.49,3.29-22.26,5.1-34.49l3.78-25.56C185.67,0.74,183.03,1.13,180.38,1.51z"/>
			<path class="st2" d="M192.92,16.39c-1.17,8.2-2.39,16.35-3.61,24.5c-0.98,6.5-1.95,13-2.9,19.52h10.45l1.52-10.32
				c1.65-11.17,3.31-22.34,4.94-33.7H192.92z"/>
			<path class="st2" d="M113.16,0.13l-2.3,16.47l-4.25-0.45c-2.61-0.25-5.27-0.51-7.94-0.51c-1.42,0-2.85,0.07-4.27,0.26
				c-4.87,0.65-8.5,2.71-11.1,6.32c-1.48,2.05-2.64,4.51-3.55,7.52c-1.22,4.03-1.95,8.51-2.23,13.71c-0.19,3.53-0.02,6.21,0.56,8.7
				c0.98,4.19,3.31,6.66,7.12,7.56c1.56,0.36,3.09,0.58,4.55,0.63c7.49,0.27,15.45-0.16,25.84-1.41c0.67-4.83,1.31-9.41,1.96-14
				l6.26-44.79H113.16z M109.61,25.69l-3.72,26.11l-1.03,0.47l-0.56,0.09l-1.76-0.02c-2.67-0.03-5.34-0.05-8.01-0.11
				c-0.81-0.02-1.55-0.24-2.18-0.46c-2.46-0.85-3.8-2.87-3.77-5.68c0.03-1.94,0.25-3.83,0.47-5.42c0.41-3.05,0.83-6.2,1.43-9.34
				c0.7-3.71,2.83-6.09,6.14-6.89c0.78-0.19,1.56-0.36,2.37-0.38c2.23-0.05,4.46-0.06,6.69-0.08l2.27-0.02l1.68,0.37L109.61,25.69z"
				/>
		</g>
	</g>
	<path class="st2" d="M58.41,60.3v0.14H58.4C58.41,60.38,58.41,60.35,58.41,60.3z"/>
	<g>
		<path class="st0" d="M16.68,21.87v0.25h-0.03C16.68,22.02,16.68,21.96,16.68,21.87z"/>
		<g>
			<g>
				<polygon class="st3" points="20.56,32.85 19.62,32.79 0,31.85 17.44,30.97 				"/>
				<path class="st3" d="M11.11,27.19L1.89,26.4l8.34-0.76c-0.13,0.57-0.19,0.91-0.19,0.91L11.11,27.19z"/>
				<path class="st3" d="M12.37,20.48c-0.28,0.5-0.57,1.01-0.79,1.48L3.53,21.3L12.37,20.48z"/>
				<path class="st3" d="M28.31,15.16l-7.71,17.63l-0.03,0.06l-3.12-1.89l-4.63-2.74l-1.7-1.04l-1.07-0.63c0,0,0.06-0.35,0.19-0.91
					c0.22-0.85,0.63-2.2,1.35-3.68c0.22-0.47,0.5-0.98,0.79-1.48C14.77,16.51,19.46,12.58,28.31,15.16z"/>
			</g>
		</g>
		<g>
			<g>
				<polygon class="st2" points="20.59,32.79 20.59,32.85 20.56,32.85 				"/>
				<g>
					<g>
						<path class="st2" d="M24.28,36.44c-0.19-0.28-0.38-0.57-0.5-0.88h0.16C24.02,35.88,24.12,36.16,24.28,36.44z"/>
					</g>
				</g>
				<g>
					<g>
						<path class="st2" d="M25,37.29h-0.09c-0.22-0.25-0.41-0.5-0.6-0.79C24.5,36.79,24.75,37.04,25,37.29z"/>
					</g>
				</g>
				<path class="st2" d="M35.23,45.39c-0.09,0.63-0.38,1.23-0.91,1.67l-0.44,0.38L19.77,59.65c-0.54,0.47-1.2,0.72-1.89,0.72
					c-0.79,0-1.57-0.35-2.17-1.01c-1.04-1.2-0.91-2.99,0.28-4.06l12.44-10.77l1.57-1.39l0.44-0.38h0.03l0.16,0.09l4.31,2.36
					L35.23,45.39z"/>
				<g>
					<polygon class="st2" points="30.45,42.77 30.01,43.15 28.43,44.54 11.24,43.72 					"/>
				</g>
				<g>
					<path class="st2" d="M25,37.29h-0.09L6.74,36.41l17.03-0.85h0.16c0.09,0.31,0.19,0.6,0.35,0.88c0.03,0.03,0.03,0.03,0.03,0.06
						C24.5,36.79,24.75,37.04,25,37.29z"/>
				</g>
				<g>
					<g>
						<path class="st2" d="M49.56,7.38h-2.14c-0.41,3.09-3.02,5.51-6.17,5.51c-3.49,0-6.3-2.83-6.3-6.3c0-3.43,2.8-6.23,6.3-6.23
							c1.95,0,3.75,0.94,4.88,2.39c0.09,0.13,0.16,0.22,0.28,0.35L49.56,7.38z"/>
						<path class="st2" d="M46.41,3.1c-0.13-0.13-0.19-0.22-0.28-0.35V2.66L46.41,3.1z"/>
					</g>
				</g>
				<g>
					<path class="st2" d="M48.83,18.09v6.45l-1.76,0.5l-8.12-10.2c-0.47-0.57-1.07-0.94-1.73-1.13c-0.06-0.03-0.16-0.06-0.22-0.09
						c-2.68-1.13-5.79,0.09-6.93,2.8l-6.33,14.99c-0.6,1.39-0.54,2.9,0.03,4.16h0.16c0.09,0.31,0.19,0.6,0.38,0.94
						c0.19,0.28,0.44,0.54,0.69,0.79h-0.09c0.25,0.25,0.57,0.47,0.88,0.66l11.62,6.33l-5.57,12c-0.66,1.45-0.03,3.15,1.42,3.81
						c0.38,0.19,0.79,0.28,1.2,0.28c1.1,0,2.14-0.63,2.61-1.67l7.02-15.11c0,0,0.25-0.54,0.25-0.54c0.78-1.65-0.23-3.86-1.76-4.69
						c0,0-8.38-4.57-8.38-4.57l3.9-9.26l3.84,4.82c0.6,0.76,1.48,1.2,2.39,1.23c0.13,0.03,0.25,0.03,0.38,0.03h0.09
						c0.16,0,0.31-0.03,0.53-0.09l0.32-0.09l21.41-6.23c0.91-0.28,1.57-1.13,1.67-2.08c0.03-0.09,0.03-0.16,0.03-0.25v-3.78H48.83z"
						/>
				</g>
				<g>
					<path class="st2" d="M74.12,37.99c0,6.71-2.17,12.37-6.33,16.34c-4.06,4-10.39,6.11-18.32,6.11c-3.15,0-6.05-0.13-8.63-0.41
						l-1.57-0.19l5.45-11.59h5.42v0.03h0.22c0.28,0,0.57,0,0.85-0.03c6.55-0.25,9.6-3.5,9.6-10.11c0-2.87-0.69-5.01-2.08-6.42
						c-0.94-0.94-2.27-1.61-3.9-1.98l15.3-4.66C72.76,28.54,74.12,32.85,74.12,37.99z"/>
				</g>
			</g>
		</g>
	</g>
</g>
</svg>
