<svg width="35" height="35" viewBox="0 0 35 35" fill="none" xmlns="http://www.w3.org/2000/svg">
<g id="Group 75905">
<g id="Group 75899">
<circle id="Ellipse 35" cx="17.5" cy="17.5" r="17.5" fill="#EBEBEB"/>
</g>
<g id="Group">
<path id="Vector" d="M21.7905 10.8525C22.0843 11.0103 22.3912 11.1506 22.6761 11.3304C25.2191 12.9306 26.644 15.228 26.872 18.2225C27.2139 22.7165 24.0923 26.8158 19.6685 27.7497C14.3065 28.8808 9.08034 25.3383 8.15086 19.9412C7.18631 14.3468 10.9481 9.0505 16.5469 8.12103C16.8625 8.06841 17.1782 8.02896 17.4939 8.00265C17.8052 7.97634 17.9849 8.14733 17.9849 8.45424C17.9893 9.48894 17.9893 10.5193 17.9849 11.554C17.9849 11.8652 17.8315 12.0055 17.4763 12.0187C16.5205 12.045 15.613 12.2686 14.7537 12.6895C12.2941 13.904 10.7946 16.5083 10.9744 19.2441C11.2024 22.7515 13.8812 25.5926 17.358 26.0135C21.2995 26.4914 24.9516 23.9485 25.8723 20.0815C26.7141 16.5477 25.1445 12.8736 22.001 11.041C21.922 10.9971 21.8475 10.9489 21.7686 10.9051C21.773 10.8875 21.7817 10.87 21.7905 10.8525Z" fill="#515050"/>
<path id="Vector_2" d="M20.4534 9.6598C20.8436 9.6598 21.2075 9.6598 21.5714 9.6598C21.8388 9.6598 21.8651 9.69049 21.8651 10.0062C21.8651 10.2999 21.8344 10.335 21.5714 10.335C21.2075 10.335 20.8392 10.335 20.449 10.335C20.449 10.734 20.4577 11.111 20.4446 11.4924C20.4402 11.5977 20.392 11.7774 20.335 11.7862C20.1684 11.8213 19.9842 11.7994 19.8132 11.7687C19.7782 11.7643 19.7475 11.6284 19.7475 11.5494C19.7387 11.1549 19.7431 10.7603 19.7431 10.3306C19.4976 10.3306 19.2652 10.3306 19.0372 10.3306C18.9408 10.3306 18.8443 10.3306 18.7479 10.3306C18.327 10.3306 18.327 10.3218 18.3313 9.90093C18.3357 9.72556 18.4015 9.65103 18.5769 9.65103C18.9583 9.65541 19.3354 9.65103 19.7431 9.65103C19.7431 9.26959 19.7431 8.90569 19.7431 8.54179C19.7431 8.21297 20.05 8.03321 20.3437 8.20858C20.4095 8.25243 20.449 8.36203 20.449 8.44095C20.4621 8.76539 20.4534 9.08983 20.4534 9.41866C20.4534 9.49319 20.4534 9.56773 20.4534 9.6598Z" fill="#515050"/>
</g>
</g>
</svg>
