<svg width="35" height="35" viewBox="0 0 35 35" fill="none" xmlns="http://www.w3.org/2000/svg">
<g id="Group 75923">
<circle id="Ellipse 36" cx="17.5" cy="17.5" r="17.5" fill="#EBEBEB"/>
<path id="&#240;&#159;&#142;&#168; Icon &#208;&#161;olor" fill-rule="evenodd" clip-rule="evenodd" d="M8 17C8 11.486 12.486 7 18 7C23.514 7 28 11.486 28 17C28 22.514 23.514 27 18 27C12.486 27 8 22.514 8 17ZM18 18H22C22.553 18 23 17.553 23 17C23 16.447 22.553 16 22 16H19V13C19 12.447 18.552 12 18 12C17.448 12 17 12.447 17 13V17C17 17.553 17.448 18 18 18Z" fill="#515050"/>
</g>
</svg>
