<svg width="35" height="35" viewBox="0 0 35 35" fill="none" xmlns="http://www.w3.org/2000/svg">
<g id="Group 75910">
<g id="Group 75900">
<circle id="Ellipse 35" cx="17.5" cy="17.5" r="17.5" fill="#EBEBEB"/>
</g>
<path id="Vector" d="M14.7224 28C14.7224 25.0964 14.7224 22.2012 14.7224 19.2975C13.4731 19.2975 12.2408 19.2975 11 19.2975C11 18.023 11 16.7569 11 15.4739C12.2323 15.4739 13.4731 15.4739 14.7309 15.4739C14.7309 15.3894 14.7309 15.3304 14.7309 15.2628C14.7309 14.4188 14.7309 13.5747 14.7309 12.7222C14.7309 11.8781 14.8754 11.0593 15.1813 10.2828C15.3768 9.76788 15.6997 9.30363 16.1416 8.9238C16.7025 8.44267 17.3484 8.16413 18.0708 8.07128C18.3428 8.03751 18.6147 8.00375 18.8867 8.00375C19.9745 7.99531 21.0538 8.00375 22.1416 8.00375C22.2096 8.00375 22.2691 8.00375 22.3456 8.00375C22.3456 9.26987 22.3456 10.5191 22.3456 11.7937C22.1331 11.7937 21.9122 11.7937 21.6997 11.7937C21.2663 11.7937 20.8329 11.7852 20.4079 11.7937C20.068 11.8021 19.7365 11.8359 19.4306 11.9794C18.9972 12.1735 18.7082 12.5196 18.6657 12.9754C18.5892 13.7941 18.5807 14.6298 18.5467 15.4654C20.051 15.4654 21.4958 15.4654 23 15.4654C22.966 15.6511 22.932 15.8199 22.898 15.9803C22.8555 16.2082 22.8215 16.4445 22.7875 16.6725C22.7365 16.9763 22.6856 17.2802 22.6346 17.5841C22.5666 18.0061 22.4901 18.4281 22.4221 18.8417C22.4051 18.943 22.3966 19.0528 22.3881 19.154C22.3711 19.2722 22.3031 19.2807 22.2011 19.2807C21.0708 19.2807 19.932 19.2807 18.8017 19.2807C18.7337 19.2807 18.6742 19.2807 18.5892 19.2807C18.5892 22.1843 18.5892 25.0795 18.5892 27.9916C17.2975 28 16.0227 28 14.7224 28Z" fill="#515050"/>
</g>
</svg>
