<svg width="35" height="35" viewBox="0 0 35 35" fill="none" xmlns="http://www.w3.org/2000/svg">
<g id="Group 75902">
<g id="Group 75899">
<circle id="Ellipse 35" cx="17.5" cy="17.5" r="17.5" fill="#EBEBEB"/>
</g>
<g id="Group 75901">
<path id="Vector" d="M27.9999 22.1683C27.8156 22.5384 27.6111 22.896 27.3863 23.2402C26.4745 24.6418 25.242 25.8256 23.79 26.6933C23.5951 26.8094 23.3969 26.9193 23.1945 27.025C21.6339 27.8336 19.8528 28.2918 17.9619 28.2918C16.0445 28.2918 14.2399 27.8212 12.6644 26.9908C12.0529 26.6695 11.4766 26.2942 10.9408 25.8702V25.5354C10.8641 25.5074 10.7874 25.4794 10.7107 25.4514C10.6819 25.5043 10.6531 25.5571 10.6244 25.61C9.48775 24.6438 8.55564 23.4558 7.8973 22.1144C7.77693 21.8708 7.66614 21.6209 7.56494 21.367C8.3788 20.4671 9.33009 19.7332 10.5264 19.3911C11.3797 19.1464 12.3022 19.1101 13.1981 19.0397C13.7595 18.9961 14.4508 18.8759 14.862 19.1298C15.2743 19.3849 15.4106 20.0608 15.6674 20.5532C16.1723 21.5235 16.6751 22.4938 17.1811 23.4631C17.2035 23.5056 17.2471 23.5388 17.3931 23.7015C17.2674 22.0812 17.1534 20.5967 17.0362 19.0759H18.5287C18.4008 20.5677 18.2741 22.0418 18.1473 23.5149C18.2016 23.5274 18.257 23.5388 18.3113 23.5502C18.7289 22.7436 19.1476 21.9371 19.5641 21.1306C19.8666 20.5438 20.1543 19.9509 20.477 19.3755C20.5559 19.2335 20.7465 19.0521 20.8829 19.0542C22.0344 19.0739 23.1935 19.0625 24.3344 19.1952C25.6425 19.3475 26.4883 20.2681 27.267 21.1959C27.5312 21.51 27.7752 21.8345 27.9999 22.1683Z" fill="#515050"/>
<path id="Vector_2" d="M17.5464 8.71002C20.2448 8.63331 22.4925 10.7554 22.6011 13.4838C22.7045 16.0682 20.4322 18.3375 17.6828 18.3976C15.0079 18.4557 12.6973 16.2973 12.6206 13.6673C12.5429 11.0114 14.7501 8.78985 17.5464 8.71002Z" fill="#515050"/>
</g>
</g>
</svg>
