<svg width="35" height="35" viewBox="0 0 35 35" fill="none" xmlns="http://www.w3.org/2000/svg">
<g id="Group 75911">
<g id="Group 75899">
<circle id="Ellipse 35" cx="17.5" cy="17.5" r="17.5" fill="#EBEBEB"/>
</g>
<path id="Vector" d="M25.4984 14.9337C24.5685 10.8421 20.9994 9 17.8643 9C17.8643 9 17.8643 9 17.8555 9C14.7292 9 11.1513 10.8332 10.2214 14.9248C9.18521 19.4946 11.9838 23.3648 14.5167 25.8002C15.4554 26.7036 16.6599 27.1552 17.8643 27.1552C19.0688 27.1552 20.2732 26.7036 21.2031 25.8002C23.736 23.3648 26.5346 19.5035 25.4984 14.9337ZM17.8643 19.3706C16.3233 19.3706 15.0746 18.1219 15.0746 16.5809C15.0746 15.0399 16.3233 13.7912 17.8643 13.7912C19.4053 13.7912 20.654 15.0399 20.654 16.5809C20.654 18.1219 19.4053 19.3706 17.8643 19.3706Z" fill="#515050"/>
</g>
</svg>
