<svg width="35" height="35" viewBox="0 0 35 35" fill="none" xmlns="http://www.w3.org/2000/svg">
<g id="Group 75906">
<circle id="Ellipse 35" cx="17.5" cy="17.5" r="17.5" fill="#EBEBEB"/>
<path id="Vector" d="M26.9918 21.0722C26.9959 18.4326 27.004 15.7965 26.9918 13.1604C26.9837 11.7225 26.215 11.0529 24.5845 11.007C24.5116 11.007 24.4348 11.0035 24.3619 11.0035C19.7576 11 15.1533 10.9965 10.549 11.007C8.90225 11.0106 8.39651 11.37 8 12.7374V22.2634C8.39651 23.6308 8.90225 23.9762 10.549 23.9974H10.7715C15.2302 24.0009 19.6848 24.0009 24.1394 23.9974C24.4348 23.9974 24.7342 24.0044 25.0255 23.9727C26.1422 23.8529 26.7572 23.3242 26.9473 22.3551C27.0282 21.9251 26.9918 21.4987 26.9918 21.0722ZM19.7617 14.4115C21.113 14.4115 22.4603 14.415 23.8117 14.4115C24.2082 14.4079 24.5157 14.5383 24.5319 14.8978C24.5521 15.3031 24.2284 15.4405 23.8036 15.4405C23.1158 15.437 22.428 15.4405 21.7401 15.4405C21.0807 15.4405 20.4171 15.4405 19.7536 15.437C19.3611 15.437 19.0698 15.2996 19.0738 14.9225C19.0779 14.5489 19.3692 14.4115 19.7617 14.4115ZM13.9193 14.0696C15.0036 14.0731 15.8735 14.852 15.8613 15.807C15.8492 16.7621 14.955 17.5198 13.8667 17.4952C12.7783 17.474 11.9367 16.6952 11.9651 15.7295C11.9893 14.8097 12.8673 14.0626 13.9193 14.0696ZM16.5734 20.9489C15.6874 20.9348 14.8053 20.9454 13.9193 20.9454C13.0332 20.9454 12.1471 20.9348 11.2651 20.9489C10.6056 20.9595 10.3386 20.7057 10.3588 20.1278C10.3993 19.0388 11.253 18.2352 12.5436 18.1859C13.4499 18.1507 14.3643 18.1542 15.2706 18.1859C16.5613 18.2317 17.4231 19.0317 17.4676 20.1172C17.4878 20.6846 17.2451 20.9595 16.5734 20.9489ZM23.8562 20.9383C22.4846 20.9489 21.113 20.9489 19.7414 20.9383C19.3571 20.9348 19.0536 20.7903 19.0698 20.4062C19.0819 20.022 19.3935 19.9163 19.7778 19.9163H21.8373C22.5008 19.9163 23.1603 19.9198 23.8238 19.9163C24.2163 19.9163 24.5238 20.0396 24.5359 20.4097C24.5521 20.7797 24.2406 20.9348 23.8562 20.9383ZM23.8117 18.1753H19.7657C19.3813 18.1718 19.0698 18.0661 19.0698 17.6784C19.0698 17.2943 19.3692 17.1568 19.7536 17.1533C21.1009 17.1427 22.4482 17.1463 23.7955 17.1498C24.2082 17.1498 24.5481 17.2907 24.5359 17.696C24.5238 18.0626 24.1961 18.1753 23.8117 18.1753Z" fill="#515050"/>
</g>
</svg>
