<svg width="35" height="35" viewBox="0 0 35 35" fill="none" xmlns="http://www.w3.org/2000/svg">
<g id="Group 75930">
<circle id="Ellipse 35" cx="17.5" cy="17.5" r="17.5" fill="#EBEBEB"/>
<g id="Group 75929">
<g id="Group">
<path id="Vector" d="M23.5112 6.65137C23.8533 6.7519 24.1857 6.86053 24.4662 7.1005C25.0645 7.61449 25.3369 8.46574 25.0159 9.18403C24.4646 10.4195 23.8549 11.6307 23.2566 12.876C23.2145 12.8063 23.1853 12.7625 23.1642 12.7171C22.6324 11.6226 22.0989 10.5314 21.5736 9.43372C21.1455 8.54032 21.3466 7.61936 22.1362 7.02916C22.3794 6.84756 22.7053 6.7746 22.9939 6.65137C23.1658 6.65137 23.3393 6.65137 23.5112 6.65137ZM24.283 8.516C24.2619 7.93878 23.7901 7.48478 23.229 7.50261C22.6502 7.52045 22.1751 8.01336 22.2027 8.56951C22.2303 9.14187 22.7118 9.6056 23.2631 9.58776C23.8436 9.56992 24.3041 9.08674 24.283 8.516Z" fill="#515050"/>
<path id="Vector_2" d="M12.6557 27.0002C12.5617 26.8072 12.4839 26.6483 12.4076 26.4894C11.3975 24.4091 10.3938 22.324 9.37559 20.2486C8.86971 19.2157 8.76756 18.1683 9.1794 17.0836C9.73717 15.6129 11.2483 14.6482 12.826 14.7147C14.5074 14.7844 16.0023 16.0264 16.3299 17.7451C16.4888 18.5801 16.3623 19.3762 15.9942 20.1367C14.9046 22.384 13.815 24.6313 12.7254 26.8786C12.7109 26.9077 12.693 26.9353 12.6557 27.0002ZM12.6573 20.5048C13.7826 20.5064 14.7214 19.5724 14.7263 18.452C14.7295 17.3284 13.7972 16.3912 12.6719 16.3863C11.5353 16.3815 10.59 17.3187 10.5933 18.4472C10.5949 19.5676 11.5337 20.5031 12.6573 20.5048Z" fill="#515050"/>
<path id="Vector_3" d="M13.468 26.9028C13.7566 26.3094 14.0209 25.763 14.2852 25.2182C14.5819 24.6053 14.8803 23.9924 15.1721 23.3778C15.2192 23.2773 15.2775 23.2368 15.3943 23.2238C16.2115 23.1265 17.0108 22.9676 17.7421 22.5558C18.6647 22.0353 19.156 21.2441 19.3051 20.2063C19.4267 19.3648 19.3019 18.5557 19.0441 17.7629C18.5398 16.2112 19.0798 15.0583 20.2164 14.1228C20.8698 13.5845 21.8962 13.0478 22.7425 12.7705C22.7912 12.8451 22.8431 12.9262 22.9063 13.0251C22.7263 13.1629 22.5431 13.2813 22.3875 13.4288C21.974 13.8179 21.5394 14.1925 21.1746 14.6238C20.6736 15.2156 20.5617 15.9015 20.8374 16.6489C21.1017 17.3672 21.4 18.0823 21.5638 18.8249C22.1475 21.4824 21.2492 23.981 18.7247 25.4565C17.387 26.238 15.931 26.6304 14.4052 26.8071C14.1085 26.8396 13.8134 26.8671 13.468 26.9028Z" fill="#515050"/>
</g>
</g>
</g>
</svg>
