<svg width="35" height="35" viewBox="0 0 35 35" fill="none" xmlns="http://www.w3.org/2000/svg">
<circle cx="17.5" cy="17.5" r="17.5" fill="#EBEBEB"/>
<path d="M7.00122 14.8553C7.0669 14.5213 7.1152 14.1834 7.2002 13.8552C7.72662 11.8183 9.51935 10.2255 11.6048 9.93011C14.0852 9.57872 16.359 10.8375 17.3828 13.1283C18.341 15.2704 17.6919 17.9473 15.8635 19.4205C15.2153 19.9427 14.4967 20.3182 13.6863 20.5132C13.58 20.5383 13.5028 20.5605 13.5047 20.7044C13.5124 21.4216 13.5086 22.1389 13.5095 22.8561C13.5095 22.8822 13.5173 22.9083 13.5269 22.9681C13.7974 22.7548 14.0514 22.555 14.318 22.3455C14.6986 22.8059 15.0714 23.2568 15.4549 23.7201C14.9314 24.1478 14.4194 24.5658 13.9085 24.9838C13.469 25.3419 13.0285 25.6991 12.591 26.0601C12.5089 26.1287 12.4499 26.1634 12.3485 26.0775C11.4435 25.3072 10.5326 24.5416 9.62464 23.7752C9.60435 23.7578 9.5889 23.7365 9.55702 23.7018C9.93083 23.2558 10.3027 22.8127 10.6891 22.3522C10.9112 22.5414 11.1276 22.7258 11.3729 22.9353C11.3797 22.8494 11.3874 22.7944 11.3874 22.7393C11.3884 22.0839 11.3836 21.4274 11.3913 20.772C11.3932 20.6223 11.3507 20.5644 11.201 20.5258C9.18611 20.0055 7.86571 18.7409 7.22531 16.7706C7.11423 16.4317 7.07366 16.0688 7.00122 15.7164C7.00122 15.4297 7.00122 15.142 7.00122 14.8553ZM15.7147 15.2579C15.7041 13.4382 14.234 11.9767 12.421 11.9824C10.6099 11.9882 9.13106 13.471 9.13878 15.2753C9.14651 17.0853 10.6273 18.5545 12.4383 18.5497C14.2533 18.5449 15.7253 17.066 15.7147 15.2579Z" fill="#515050"/>
<path d="M20.6448 12.2229C20.9491 12.2229 21.2408 12.2229 21.5586 12.2229C21.5586 11.7962 21.5586 11.384 21.5586 10.9602C22.2782 10.9602 22.9707 10.9602 23.6855 10.9602C23.6855 11.3753 23.6855 11.7827 23.6855 12.2113C23.9695 12.2113 24.2332 12.2113 24.5143 12.2113C24.5143 12.8089 24.5143 13.3861 24.5143 13.9885C24.2544 13.9885 23.9859 13.9885 23.6923 13.9885C23.6923 14.449 23.6874 14.8844 23.7 15.3188C23.701 15.3641 23.8014 15.4307 23.8661 15.4462C24.6823 15.6499 25.4232 16.0071 26.0559 16.5592C27.5588 17.8682 28.2272 19.519 27.9317 21.498C27.6429 23.4325 26.5678 24.8294 24.7896 25.6316C23.1678 26.3624 21.5325 26.2803 19.9812 25.4144C18.3798 24.5205 17.4361 23.1275 17.2352 21.3039C17.0226 19.3723 17.7142 17.7659 19.1998 16.511C19.8412 15.9694 20.584 15.6161 21.404 15.4278C21.4562 15.4163 21.5064 15.397 21.5605 15.3805C21.5605 14.922 21.5605 14.4721 21.5605 14.003C21.2572 14.003 20.9597 14.003 20.6458 14.003C20.6448 13.4083 20.6448 12.832 20.6448 12.2229ZM22.6191 17.4116C20.8187 17.4049 19.3302 18.8877 19.3244 20.6958C19.3177 22.4942 20.8032 23.9828 22.6105 23.9895C24.4099 23.9963 25.8994 22.5116 25.9061 20.7044C25.9119 18.905 24.4283 17.4184 22.6191 17.4116Z" fill="#515050"/>
</svg>
