<svg width="35" height="35" viewBox="0 0 35 35" fill="none" xmlns="http://www.w3.org/2000/svg">
<g id="Group 75914">
<g id="Group 75900">
<circle id="Ellipse 35" cx="17.5" cy="17.5" r="17.5" fill="#EBEBEB"/>
</g>
<path id="Vector" d="M28 13.8808C27.8665 14.2395 27.6677 14.5294 27.2887 14.6237C27.1926 14.6473 27.0918 14.6522 26.977 14.668C26.9891 14.7171 26.9947 14.7662 27.0125 14.8105C27.3812 15.748 27.5482 16.7238 27.5426 17.738C27.5352 19.1551 27.5426 20.5722 27.5398 21.9893C27.5389 22.5838 27.2859 23.0103 26.795 23.0663C26.2592 23.1272 25.7066 23.1233 25.1709 23.0644C24.7172 23.0142 24.4409 22.5867 24.4353 22.0954C24.4316 21.7337 24.4335 21.3721 24.4316 21.0105C24.4316 20.9967 24.4251 20.982 24.4139 20.9377C24.3392 20.9377 24.2561 20.9377 24.173 20.9377C22.183 20.9377 20.1921 20.9407 18.2021 20.9328C18.0126 20.9318 17.909 20.9957 17.8082 21.1579C17.0521 22.3686 16.0057 23.1626 14.6663 23.4958C13.2018 23.8594 11.8297 23.5999 10.564 22.7361C10.4987 22.6909 10.4333 22.6457 10.3531 22.5897C10.2952 22.6477 10.2373 22.7017 10.1832 22.7597C9.25163 23.7405 8.32196 24.7222 7.38762 25.701C6.99186 26.1157 6.45795 26.0951 6.1574 25.6637C5.94738 25.362 5.94645 24.9767 6.16113 24.678C6.21713 24.6004 6.28247 24.5296 6.34781 24.4608C7.25321 23.5066 8.15955 22.5514 9.06682 21.5991C9.12189 21.5411 9.1947 21.5018 9.26377 21.4507C8.8652 20.8699 8.59358 20.2862 8.41997 19.6514C7.84873 17.5631 8.54971 15.237 10.1664 13.8847C10.2924 13.7796 10.3521 13.6774 10.3372 13.5093C10.3241 13.3521 10.3316 13.1929 10.3409 13.0347C10.368 12.5531 10.7497 12.2318 11.1968 12.3291C11.5179 12.3988 11.8325 12.4961 12.1704 12.5865C12.2329 12.4342 12.2964 12.2849 12.3552 12.1335C12.5886 11.535 12.8182 10.9356 13.0525 10.3381C13.3754 9.51455 14.1007 9.00354 14.9473 9.00255C17.7549 8.99961 20.5617 8.99961 23.3675 9.00059C24.2216 9.00059 24.9356 9.50178 25.2633 10.3312C25.5349 11.0181 25.8056 11.706 26.066 12.3979C26.1276 12.56 26.1948 12.5954 26.3525 12.5384C26.5887 12.4539 26.8323 12.392 27.0769 12.3389C27.5146 12.2436 27.7816 12.4008 27.9589 12.8381C27.9664 12.8568 27.9851 12.8706 27.9981 12.8863C28 13.2175 28 13.5496 28 13.8808ZM13.4324 12.6475C13.4828 12.6534 13.5108 12.6593 13.5388 12.6603C15.1638 12.7094 16.4874 13.4042 17.5272 14.7151C17.5841 14.7869 17.7064 14.834 17.7988 14.834C20.1753 14.8409 22.5508 14.8399 24.9272 14.838C25.4583 14.838 25.6357 14.5559 25.4322 14.0321C24.9907 12.8912 24.5483 11.7502 24.0984 10.6123C23.8874 10.0786 23.5001 9.80446 22.9465 9.80446C20.4273 9.80347 17.908 9.80347 15.3888 9.80446C14.825 9.80446 14.4264 10.0875 14.2089 10.6388C14.0531 11.0348 13.8991 11.4309 13.745 11.8279C13.6414 12.0972 13.5388 12.3674 13.4324 12.6475ZM13.4464 14.3083C11.4358 14.3102 9.80701 16.0202 9.79207 18.1439C9.77714 20.2557 11.4311 21.9952 13.451 21.9922C15.4821 21.9893 17.1025 20.2754 17.095 18.1389C17.0866 16.0143 15.4597 14.3063 13.4464 14.3083ZM24.0256 19.046C24.4475 19.046 24.8694 19.0489 25.2922 19.045C25.589 19.0421 25.7225 18.9006 25.7253 18.588C25.7281 18.1891 25.7281 17.7901 25.7253 17.3901C25.7234 17.0874 25.5983 16.9292 25.3155 16.9253C24.4568 16.9154 23.599 16.9154 22.7403 16.9253C22.4584 16.9282 22.3296 17.0884 22.3268 17.3881C22.323 17.7871 22.323 18.1861 22.3268 18.5861C22.3296 18.8976 22.4658 19.0421 22.7599 19.045C23.1818 19.0489 23.6037 19.046 24.0256 19.046Z" fill="#515050"/>
</g>
</svg>
