<svg width="35" height="35" viewBox="0 0 35 35" fill="none" xmlns="http://www.w3.org/2000/svg">
<g id="Group 75915">
<g id="Group 75902">
<circle id="Ellipse 35" cx="17.5" cy="17.5" r="17.5" fill="#EBEBEB"/>
</g>
<g id="Group">
<path id="Vector" d="M26.4032 23C20.2324 23 14.0577 23 7.88684 23C7.87112 22.996 7.85147 22.9882 7.83575 22.9882C7.01035 22.8899 6.34217 22.3004 6.14172 21.4946C6.11814 21.3964 6.10242 21.2981 6.08276 21.1998C6.08276 18.4485 6.08276 15.7011 6.08276 12.9498C6.08669 12.9302 6.09456 12.9105 6.09456 12.8908C6.19282 12.0733 6.79025 11.3973 7.58813 11.2047C7.69032 11.185 7.78858 11.1693 7.88684 11.1497C14.0577 11.1497 20.2324 11.1497 26.4032 11.1497C26.4229 11.1536 26.4425 11.1614 26.4622 11.1614C27.2915 11.2558 27.9833 11.8847 28.1601 12.7022C28.1758 12.7847 28.1916 12.8673 28.2073 12.9498C28.2073 15.7011 28.2073 18.4485 28.2073 21.1998C28.2034 21.2155 28.1955 21.2352 28.1955 21.2509C28.1051 22.037 27.5548 22.6934 26.7923 22.9174C26.6665 22.9567 26.5329 22.9764 26.4032 23ZM17.1509 11.9397C15.6063 11.9397 14.0616 11.9397 12.5208 11.9397C11.0509 11.9397 9.58087 11.9436 8.11088 11.9357C7.4034 11.9318 6.87672 12.4782 6.87672 13.1345C6.87672 15.7601 6.87278 18.3856 6.88065 21.0151C6.88065 21.53 7.13613 21.8994 7.60385 22.1156C7.78858 22.2021 7.9851 22.2139 8.18163 22.2139C14.1363 22.2139 20.0948 22.2139 26.0495 22.2139C26.1084 22.2139 26.1674 22.2139 26.2263 22.2139C26.5919 22.21 26.9024 22.0685 27.1382 21.7894C27.3308 21.5654 27.4173 21.2981 27.4173 21.0033C27.4173 18.3896 27.4173 15.7797 27.4173 13.166C27.4173 12.8398 27.319 12.5528 27.091 12.3131C26.8434 12.0497 26.5329 11.9397 26.1752 11.9397C23.1684 11.9397 20.1616 11.9397 17.1509 11.9397Z" fill="#515050"/>
<path id="Vector_2" d="M26.6233 15.1035C26.6233 16.4163 26.6233 17.7291 26.6233 19.0418C20.3071 19.0418 13.9908 19.0418 7.67065 19.0418C7.67065 17.7291 7.67065 16.4163 7.67065 15.1035C13.9869 15.1035 20.3031 15.1035 26.6233 15.1035ZM23.8641 15.4926C23.0073 15.4848 22.2919 16.1923 22.2802 17.057C22.2684 17.9295 22.9798 18.6527 23.8563 18.6566C24.721 18.6606 25.4324 17.9531 25.4363 17.0805C25.4481 16.2119 24.7406 15.5005 23.8641 15.4926ZM20.3071 18.6566C21.1796 18.6488 21.8871 17.9413 21.8832 17.0687C21.8792 16.1962 21.1639 15.4848 20.2953 15.4926C19.4266 15.5005 18.7192 16.2158 18.7231 17.0805C18.731 17.9492 19.4463 18.6606 20.3071 18.6566ZM10.4298 18.6566C11.2945 18.6606 12.0099 17.9492 12.0138 17.0805C12.0177 16.2119 11.3063 15.4966 10.4377 15.4926C9.56906 15.4887 8.85765 16.2001 8.85765 17.0687C8.84979 17.9413 9.55727 18.6566 10.4298 18.6566ZM12.4069 17.0766C12.4069 17.9452 13.1183 18.6566 13.9908 18.6566C14.8516 18.6566 15.563 17.9452 15.5669 17.0805C15.5709 16.2119 14.8516 15.4926 13.9869 15.4926C13.1143 15.4966 12.4069 16.204 12.4069 17.0766ZM17.937 17.4696C17.937 17.4421 17.937 17.4186 17.937 17.391C17.937 17.1749 17.937 16.9587 17.937 16.7425C17.937 16.6914 17.9252 16.6757 17.8702 16.6757C17.3867 16.6796 16.9033 16.6757 16.4198 16.6757C16.4002 16.6757 16.3805 16.6757 16.357 16.6796C16.357 16.6993 16.353 16.715 16.353 16.7307C16.353 16.9548 16.353 17.1827 16.353 17.4068C16.353 17.4579 16.3727 17.4696 16.4198 17.4696C16.9072 17.4696 17.3946 17.4696 17.882 17.4696C17.8977 17.4736 17.9134 17.4696 17.937 17.4696Z" fill="#515050"/>
<path id="Vector_3" d="M7.6665 14.3058C7.6665 14.2783 7.6665 14.2587 7.6665 14.2351C7.6665 13.8735 7.6665 13.508 7.6665 13.1464C7.6665 12.8948 7.83158 12.7297 8.08313 12.7297C14.1242 12.7297 20.1653 12.7297 26.2065 12.7297C26.4659 12.7297 26.627 12.8909 26.627 13.1542C26.627 13.5119 26.627 13.8735 26.627 14.2312C26.627 14.2548 26.627 14.2783 26.627 14.3058C20.3068 14.3058 13.9906 14.3058 7.6665 14.3058ZM12.7997 13.9167C12.9215 13.9167 13.0434 13.9207 13.1613 13.9167C13.2084 13.9167 13.2595 13.9128 13.3028 13.901C13.4914 13.8499 13.6054 13.6691 13.5818 13.4687C13.5583 13.2721 13.3932 13.1306 13.1849 13.1267C12.9294 13.1228 12.6739 13.1267 12.4184 13.1267C12.3084 13.1267 12.2101 13.1582 12.1315 13.2368C12.0097 13.3586 11.9743 13.504 12.0372 13.6652C12.1001 13.8263 12.2258 13.9089 12.3948 13.9167C12.5324 13.9207 12.666 13.9167 12.7997 13.9167ZM21.4938 13.9167C21.6196 13.9167 21.7493 13.9167 21.8751 13.9167C21.9851 13.9167 22.0795 13.8814 22.162 13.8028C22.2799 13.6888 22.3153 13.5198 22.2524 13.3665C22.1895 13.2171 22.0441 13.1228 21.8633 13.1228C21.6157 13.1228 21.372 13.1228 21.1244 13.1228C21.0772 13.1228 21.0261 13.1306 20.9829 13.1424C20.7942 13.2014 20.6842 13.3822 20.7117 13.5787C20.7392 13.7674 20.9003 13.9089 21.1008 13.9128C21.2266 13.9167 21.3602 13.9167 21.4938 13.9167Z" fill="#515050"/>
<path id="Vector_4" d="M26.6271 19.8477C26.6271 19.8712 26.6271 19.8948 26.6271 19.9145C26.6271 20.28 26.6271 20.6455 26.6271 21.0071C26.6271 21.2508 26.462 21.4198 26.2183 21.4198C20.1772 21.4198 14.1361 21.4198 8.09891 21.4238C7.85522 21.4238 7.66263 21.2351 7.66656 20.9914C7.67835 20.6337 7.67049 20.2761 7.67049 19.9223C7.67049 19.8988 7.67049 19.8752 7.67049 19.8477C13.9867 19.8477 20.299 19.8477 26.6271 19.8477ZM21.49 21.0268C21.6157 21.0268 21.7415 21.0268 21.8634 21.0268C21.9813 21.0268 22.0874 20.9914 22.1699 20.9049C22.2839 20.7831 22.3154 20.6377 22.2525 20.4844C22.1896 20.3232 22.0599 20.2368 21.8869 20.2368C21.6236 20.2328 21.3603 20.2328 21.093 20.2368C20.9869 20.2368 20.8965 20.2761 20.8218 20.3508C20.7039 20.4726 20.6724 20.6141 20.7314 20.7752C20.7864 20.9285 20.9279 21.0229 21.1087 21.0268C21.2345 21.0307 21.3603 21.0268 21.49 21.0268ZM12.7958 21.0229C12.9334 21.0268 13.0709 21.0268 13.2085 21.0268C13.2242 21.0268 13.2399 21.0229 13.2557 21.0229C13.464 20.9914 13.6094 20.8028 13.5858 20.5944C13.5622 20.3861 13.4011 20.2407 13.181 20.2368C12.9255 20.2328 12.674 20.2368 12.4185 20.2368C12.391 20.2368 12.3635 20.2407 12.3359 20.2446C12.1198 20.28 11.9743 20.4962 12.0176 20.7084C12.0529 20.8814 12.1866 21.0071 12.3635 21.0189C12.5089 21.0307 12.6543 21.0229 12.7958 21.0229Z" fill="#515050"/>
<path id="Vector_5" d="M23.8603 17.863C23.424 17.863 23.0742 17.5093 23.0742 17.073C23.0742 16.6406 23.428 16.283 23.8642 16.283C24.3045 16.283 24.6582 16.6328 24.6582 17.073C24.6503 17.5171 24.3005 17.863 23.8603 17.863Z" fill="#515050"/>
<path id="Vector_6" d="M19.5171 17.0767C19.5132 16.6443 19.863 16.2906 20.2875 16.2867C20.7356 16.2827 21.0893 16.6286 21.0932 17.061C21.0972 17.5051 20.7513 17.8628 20.315 17.8628C19.8709 17.8667 19.5211 17.5208 19.5171 17.0767Z" fill="#515050"/>
<path id="Vector_7" d="M10.4297 17.863C9.98554 17.863 9.63966 17.5093 9.64359 17.0612C9.64359 16.6288 10.0013 16.283 10.4493 16.283C10.8778 16.283 11.2276 16.6446 11.2276 17.0769C11.2197 17.5171 10.866 17.8669 10.4297 17.863Z" fill="#515050"/>
<path id="Vector_8" d="M14.7768 17.0767C14.7729 17.5169 14.4231 17.8628 13.9829 17.8628C13.5427 17.8588 13.1968 17.5051 13.2007 17.061C13.2046 16.6286 13.5623 16.2827 14.0025 16.2867C14.4309 16.2906 14.7768 16.6443 14.7768 17.0767Z" fill="#515050"/>
</g>
</g>
</svg>
