<svg width="35" height="35" viewBox="0 0 35 35" fill="none" xmlns="http://www.w3.org/2000/svg">
<g id="Group 75913">
<g id="Group 75900">
<circle id="Ellipse 35" cx="17.5" cy="17.5" r="17.5" fill="#EBEBEB"/>
</g>
<path id="Vector" d="M22.9133 22.3702C19.6215 22.3702 16.3592 22.3702 13.0778 22.3702C13.0735 22.4417 13.0665 22.5063 13.0657 22.5709C13.0613 23.1944 13.0657 23.8188 13.0535 24.4424C13.0465 24.7886 12.9021 24.9333 12.5585 24.9824C12.4976 24.991 12.435 24.997 12.3741 24.997C11.9069 24.9979 11.4397 24.9979 10.9726 24.997C10.9108 24.997 10.8491 24.991 10.7882 24.9824C10.4437 24.9307 10.3019 24.7877 10.294 24.4407C10.281 23.8447 10.2732 23.2487 10.2871 22.6527C10.2923 22.4391 10.2314 22.3125 10.0331 22.2315C9.57809 22.0472 9.32145 21.6812 9.21967 21.2299C9.11267 20.7545 9.01437 20.267 9.00393 19.7821C8.98653 18.9769 9.03003 18.169 9.07352 17.3637C9.10223 16.8246 9.37017 16.3931 9.78165 16.0434C9.85386 15.9814 9.91562 15.8927 9.95042 15.804C10.5237 14.3356 11.09 12.8654 11.6616 11.3961C11.9574 10.6356 12.8986 10 13.7199 10C16.5619 10 19.4031 10.0009 22.2452 10.0009C23.0978 10.0009 24.026 10.6391 24.3313 11.4314C24.8942 12.8912 25.4579 14.3511 26.0242 15.81C26.0529 15.8841 26.0999 15.9633 26.1599 16.0124C26.6471 16.4077 26.8811 16.9228 26.9307 17.5351C27.0073 18.4859 27.0377 19.4376 26.9307 20.3876C26.9011 20.652 26.8454 20.9147 26.7785 21.1731C26.6497 21.6726 26.3792 22.067 25.8763 22.2677C25.7337 22.3246 25.6832 22.4159 25.6867 22.5735C25.698 23.1307 25.6928 23.6879 25.691 24.2443C25.6893 24.8455 25.5345 24.9988 24.9333 24.9996C24.5114 25.0005 24.0895 24.9996 23.6676 24.9996C23.6171 24.9996 23.5658 24.9996 23.5153 24.9962C23.0865 24.9678 22.9246 24.8162 22.9168 24.3924C22.9055 23.7913 22.9125 23.1893 22.9125 22.5872C22.9133 22.5218 22.9133 22.4563 22.9133 22.3702ZM17.9738 15.9495C19.7233 15.9495 21.4727 15.9495 23.2222 15.9495C23.7511 15.9495 24.28 15.9504 24.8081 15.9478C25.0542 15.9461 25.1317 15.8402 25.0629 15.6059C25.0351 15.5103 24.9994 15.4164 24.9629 15.3226C24.514 14.1478 24.0573 12.9748 23.6171 11.7966C23.3953 11.2015 22.8185 10.7812 22.1765 10.7812C19.3866 10.7812 16.5967 10.7803 13.806 10.7786C13.2031 10.7786 12.5698 11.1971 12.3854 11.7079C12.1644 12.3202 11.9356 12.93 11.7042 13.5389C11.4458 14.221 11.1779 14.8988 10.9204 15.5818C10.8282 15.8255 10.9117 15.9487 11.1544 15.9495C13.4284 15.9495 15.7007 15.9495 17.9738 15.9495ZM13.6146 19.0277C13.6068 18.386 13.0926 17.8796 12.4541 17.8848C11.8208 17.89 11.2979 18.4153 11.3014 19.0423C11.3049 19.665 11.8417 20.1835 12.4767 20.1766C13.1048 20.1706 13.6224 19.6478 13.6146 19.0277ZM23.5432 20.1731C24.18 20.1818 24.7054 19.6805 24.7124 19.0587C24.7193 18.417 24.22 17.8968 23.5832 17.8839C22.9481 17.871 22.4149 18.3826 22.4053 19.013C22.3949 19.6504 22.8985 20.1645 23.5432 20.1731Z" fill="#515050"/>
</g>
</svg>
