<svg width="69" height="72" viewBox="0 0 69 72" fill="none" xmlns="http://www.w3.org/2000/svg">
<g id="Group">
<g id="Group_2">
<g id="Group_3">
<g id="Group_4">
<path id="Vector" d="M44.2477 71.9935C43.9264 71.9935 43.6454 71.7597 43.5874 71.4314C43.5784 71.3775 42.7486 66.179 47.4108 63.881C50.971 62.1272 62.7537 55.6156 66.769 44.679C66.5682 44.5936 66.305 44.5261 66.0284 44.5846C65.3949 44.7105 64.913 45.421 64.6186 45.9921C61.7276 51.6178 54.1877 56.1957 47.9417 59.5594C47.6696 59.7033 47.335 59.6449 47.1297 59.4155C46.9245 59.1862 46.9022 58.8444 47.0717 58.5881C47.0941 58.5566 49.2668 55.2738 49.5657 51.8606C49.6014 51.4559 49.5255 51.2446 49.4631 51.2311C49.124 51.1591 48.0443 51.8022 47.6205 53.0883C46.8799 55.3323 46.0412 57.293 43.3018 58.5296C43.2795 58.5386 40.1922 60.0136 39.0322 61.7495C38.015 63.2649 36.9086 65.7203 37.377 71.2695C37.4083 71.6383 37.1361 71.9666 36.7658 71.998C36.4 72.025 36.0743 71.7552 36.0431 71.382C35.6549 66.7231 36.2349 63.5213 37.9258 60.994C39.2955 58.9523 42.6058 57.3694 42.7486 57.3065C45.0106 56.2857 45.6709 54.7387 46.3535 52.6656C46.9245 50.9433 48.5039 49.6571 49.7397 49.9135C50.0475 49.9764 51.0513 50.3182 50.9041 51.9821C50.7257 53.9832 49.9984 55.8989 49.3382 57.2705C53.7728 54.8017 60.813 50.4711 63.4363 45.376C64.0653 44.1529 64.8595 43.4423 65.7919 43.2625C67.0277 43.0286 67.9825 43.8516 68.0226 43.8875C68.2279 44.0674 68.3037 44.3552 68.2145 44.616C64.217 56.3486 51.7339 63.2604 47.9997 65.0997C44.2298 66.9569 44.899 71.1706 44.9035 71.2111C44.9659 71.5798 44.7206 71.9261 44.3592 71.989C44.3235 71.989 44.2833 71.9935 44.2477 71.9935Z" fill="#002F50"/>
</g>
<g id="Group_5">
<path id="Vector_2" d="M49.5256 56.115C49.2624 56.115 49.0126 55.9576 48.9055 55.6967C48.7672 55.3505 48.9278 54.9592 49.2713 54.8153C49.2936 54.8063 51.7251 53.7676 56.1687 50.17C56.9495 49.5404 57.6499 48.8389 58.2656 48.2183C59.1356 47.3459 59.8895 46.5949 60.6525 46.2172C62.5976 45.2683 63.6951 46.1092 63.8111 46.2082C64.0967 46.4465 64.1368 46.8692 63.9004 47.157C63.6684 47.4403 63.2579 47.4808 62.9724 47.2605C62.9278 47.229 62.3656 46.8782 61.2324 47.4313C60.6703 47.7056 59.9877 48.3892 59.2025 49.1762C58.56 49.8192 57.8328 50.5477 56.9985 51.2223C52.3765 54.9682 49.8736 56.025 49.771 56.0655C49.6952 56.1015 49.6104 56.115 49.5256 56.115Z" fill="#002F50"/>
</g>
</g>
<g id="Group_6">
<g id="Group_7">
<path id="Vector_3" d="M24.7645 71.9935C24.7289 71.9935 24.6887 71.989 24.6486 71.9845C24.2827 71.9215 24.0418 71.5752 24.1043 71.2065C24.1355 71.0221 24.7556 66.9389 21.008 65.0951C17.2783 63.2559 4.7907 56.344 0.793259 44.6115C0.70403 44.3507 0.779875 44.0628 0.985101 43.883C1.02525 43.847 1.98446 43.0196 3.21582 43.2579C4.14826 43.4378 4.94239 44.1483 5.57146 45.3715C8.19032 50.4665 15.2349 54.7971 19.6696 57.2659C19.0093 55.8899 18.2821 53.9786 18.1036 51.9775C17.9564 50.3181 18.9558 49.9763 19.2681 49.9089C20.5039 49.6526 22.0832 50.9342 22.6543 52.661C23.3414 54.7341 24.0016 56.2811 26.2502 57.2974C26.4019 57.3693 29.7123 58.9478 31.0819 60.9894C32.7728 63.5167 33.3528 66.7185 32.9647 71.3774C32.9334 71.7506 32.6078 72.0204 32.2419 71.9935C31.8761 71.962 31.5995 71.6382 31.6307 71.265C32.0947 65.7157 30.9883 63.2604 29.9755 61.7449C28.8155 60.0136 25.7282 58.5386 25.697 58.5206C22.9711 57.2884 22.1323 55.3277 21.3872 53.0837C20.9634 51.8021 19.8837 51.1546 19.5447 51.2265C19.4822 51.24 19.4064 51.4469 19.4421 51.8561C19.7454 55.2693 21.9137 58.552 21.936 58.5835C22.1055 58.8399 22.0832 59.1816 21.878 59.411C21.6728 59.6403 21.3382 59.6988 21.066 59.5549C14.82 56.1956 7.28019 51.6132 4.38918 45.9875C4.09472 45.4119 3.60842 44.7014 2.97044 44.58C2.69829 44.526 2.43953 44.5935 2.23876 44.6789C6.25406 55.6155 18.0367 62.1271 21.5969 63.8809C26.2591 66.1789 25.4293 71.3819 25.4204 71.4313C25.3668 71.7596 25.0858 71.9935 24.7645 71.9935Z" fill="#002F50"/>
</g>
<g id="Group_8">
<path id="Vector_4" d="M19.4866 56.1149C19.4018 56.1149 19.3171 56.0969 19.2323 56.0654C19.1297 56.0205 16.6268 54.9682 12.0048 51.2222C11.1705 50.5477 10.4433 49.8192 9.80083 49.1761C9.01562 48.3891 8.33302 47.7101 7.77088 47.4313C6.61091 46.8647 6.05323 47.2469 6.03092 47.2649C5.74539 47.5032 5.33494 47.4538 5.09848 47.1704C4.86203 46.8826 4.9111 46.4509 5.19663 46.2126C5.31709 46.1137 6.41461 45.2682 8.35533 46.2216C9.11824 46.5948 9.87222 47.3503 10.7422 48.2227C11.3623 48.8433 12.0628 49.5448 12.8391 50.1744C17.3094 53.799 19.7141 54.8108 19.7365 54.8198C20.08 54.9592 20.2406 55.3549 20.1023 55.7012C19.9997 55.9575 19.7498 56.1149 19.4866 56.1149Z" fill="#002F50"/>
</g>
</g>
</g>
<g id="Group_9">
<path id="Vector_5" opacity="0.3" d="M32.5542 59.3525C45.4827 59.3525 55.9634 48.8911 55.9634 35.9863C55.9634 23.0815 45.4827 12.6201 32.5542 12.6201C19.6257 12.6201 9.14508 23.0815 9.14508 35.9863C9.14508 48.8911 19.6257 59.3525 32.5542 59.3525Z" fill="url(#paint0_radial_1269_4311)"/>
<g id="Group_10">
<path id="Vector_6" d="M35.1061 0.248824C36.7524 11.2079 61.7364 33.2205 42.7798 45.124C35.7263 49.5535 26.4509 47.3815 22.0564 40.2718C13.5039 26.4436 32.8486 11.5317 34.544 0.248824C34.5663 0.09143 34.7135 -0.0164971 34.8652 0.0104847C34.9946 0.0284725 35.0883 0.127406 35.1061 0.248824Z" fill="url(#paint1_linear_1269_4311)"/>
<g id="Group_11">
<path id="Vector_7" d="M38.5906 10.9341C44.9481 22.5947 51.2834 36.0046 38.9163 44.6298C38.2961 45.066 37.6537 45.4393 37.0023 45.7585C38.256 45.3808 39.4829 44.8322 40.6473 44.0992C54.1432 35.6224 45.3586 22.0191 38.5906 10.9341Z" fill="white"/>
</g>
</g>
</g>
</g>
<defs>
<radialGradient id="paint0_radial_1269_4311" cx="0" cy="0" r="1" gradientUnits="userSpaceOnUse" gradientTransform="translate(32.553 35.9878) scale(23.4103 23.3668)">
<stop offset="0.5547" stop-color="#5C5C5C"/>
<stop offset="0.5738" stop-color="#696969"/>
<stop offset="0.6464" stop-color="#979797"/>
<stop offset="0.7193" stop-color="#BCBCBC"/>
<stop offset="0.7915" stop-color="#D9D9D9"/>
<stop offset="0.8628" stop-color="#EEEEEE"/>
<stop offset="0.9328" stop-color="#FBFBFB"/>
<stop offset="1" stop-color="white"/>
</radialGradient>
<linearGradient id="paint1_linear_1269_4311" x1="46.6188" y1="12.4065" x2="25.8" y2="42.2405" gradientUnits="userSpaceOnUse">
<stop stop-color="#FF5E58"/>
<stop offset="0.5448" stop-color="#EF150D"/>
<stop offset="0.6788" stop-color="#E11209"/>
<stop offset="0.8856" stop-color="#C30D00"/>
<stop offset="1" stop-color="#EF150D"/>
</linearGradient>
</defs>
</svg>
