<svg width="58" height="58" viewBox="0 0 58 58" fill="none" xmlns="http://www.w3.org/2000/svg">
<g id="Group">
<path id="Vector" d="M57.9996 55.8299C57.4593 57.4481 56.3023 58.0031 54.6605 58.0001C37.4548 57.976 20.2477 57.985 3.042 57.985C1.6052 57.985 0.641345 57.3983 0.187855 56.2687C-0.0695714 55.6263 0.000771894 54.9627 0.0396852 54.3021C0.0965585 53.3535 0.172888 52.4064 0.231258 51.4593C0.273165 50.7987 0.473718 50.5634 1.13075 50.4443C1.71595 50.4262 2.11706 50.7911 2.06168 51.4291C1.99583 52.1862 2.02875 52.9493 1.92099 53.7019C1.84915 54.1935 1.85514 54.6882 1.87909 55.1814C1.90752 55.768 2.17692 56.0802 2.75015 56.0998C4.27675 56.1511 5.80335 56.1224 7.33144 56.1149C7.60234 56.1134 7.7535 55.9867 7.76098 55.7032C7.76547 55.5509 7.76847 55.4 7.76847 55.2477C7.76847 50.5544 7.76847 45.8625 7.76847 41.1692C7.76847 41.0546 7.76248 40.9414 7.76697 40.8268C7.78194 40.4332 7.63077 40.3156 7.25212 40.4649C5.00862 41.3441 3.47154 42.905 2.70225 45.2155C2.45381 45.9605 2.3655 46.7327 2.3221 47.5124C2.30564 47.799 2.29815 48.0901 2.15148 48.3404C1.94943 48.6828 1.70248 48.9663 1.24151 48.7763C0.653318 48.6677 0.452765 48.2921 0.458752 47.7145C0.508142 43.4827 2.94172 40.029 6.90339 38.6114C10.7244 37.245 14.5499 35.8922 18.3694 34.5243C18.9381 34.3207 19.4754 34.2965 19.9783 34.66C20.1653 34.7957 20.3345 34.7475 20.5111 34.6932C21.2834 34.4564 22.0482 34.1925 22.8264 33.9798C23.1332 33.8954 23.2245 33.7446 23.1871 33.4595C23.1826 33.4218 23.1811 33.3826 23.1871 33.3464C23.3802 32.167 22.9761 31.3677 22.0062 30.5729C19.8705 28.8235 18.5355 26.4964 18.0865 23.7305C17.9892 23.1272 17.8949 22.8165 17.2109 22.6914C16.2845 22.5224 15.6634 21.601 15.6424 20.6358C15.623 19.7429 15.629 18.8486 15.6409 17.9558C15.6454 17.6753 15.5736 17.4792 15.367 17.265C14.3343 16.1958 14.7145 13.834 16.0211 13.2006C16.3114 13.0603 16.268 12.8643 16.2725 12.6486C16.3219 10.1451 17.0538 7.87382 18.5789 5.88608C20.3075 3.63442 22.554 2.21525 25.3513 1.72209C25.7539 1.65121 26.0697 1.52754 26.3047 1.13693C26.5726 0.692026 27.0201 0.41151 27.5125 0.242598C28.7906 -0.194765 31.0147 -0.160077 31.8708 1.37823C32.0309 1.66629 32.3078 1.66176 32.5503 1.70399C35.5825 2.23637 37.9487 3.81389 39.7357 6.31289C40.1593 6.90408 40.1413 7.20269 39.6534 7.76523C39.2089 8.10306 38.8572 8.07139 38.4486 7.59934C38.0655 7.15594 37.7332 6.6673 37.3276 6.242C36.1378 4.99326 34.7234 4.12155 33.0591 3.67816C32.4814 3.52432 32.4365 3.56354 32.4335 4.15171C32.429 5.08224 32.4275 6.01427 32.438 6.94631C32.239 8.36849 31.0386 9.47698 29.6318 9.53429C29.2172 9.55088 28.8011 9.55088 28.3865 9.53429C26.8375 9.47698 25.5713 8.17394 25.5533 6.62055C25.5444 5.82123 25.5593 5.02342 25.5489 4.2241C25.5414 3.62537 25.4486 3.54242 24.8709 3.71586C22.0841 4.55137 20.0875 6.31892 18.8962 8.98231C18.2661 10.3909 18.0655 11.896 18.064 13.4328C18.0625 14.4433 17.9697 14.5896 17.0238 14.9078C16.7021 15.0164 16.7125 15.2426 16.714 15.493C16.7155 15.7644 16.8398 15.9198 17.1196 15.9349C17.3277 15.9454 17.5342 15.9439 17.7422 15.9439C24.7811 15.9469 31.8199 15.9394 38.8587 15.9469C39.4798 15.9349 40.1024 15.9484 40.7235 15.9409C40.9959 15.9379 41.2683 15.9379 41.2878 15.5533C41.3043 15.226 41.2728 14.9787 40.8657 14.8837C40.1892 14.7253 39.9543 14.4116 39.9468 13.7179C39.9348 12.6516 39.8256 11.6004 39.646 10.5508C39.5113 9.76503 39.7372 9.37292 40.3284 9.25226C41.0932 9.28092 41.2968 9.47547 41.4554 10.2371C41.623 11.0394 41.7143 11.8508 41.7203 12.6682C41.7233 12.9774 41.8041 13.1433 42.1035 13.2549C42.6333 13.4509 42.9985 13.8566 43.0628 14.4207C43.1841 15.4839 43.4475 16.5969 42.4597 17.443C42.298 17.5818 42.3714 17.7627 42.3699 17.9226C42.3624 18.7792 42.3729 19.6343 42.3639 20.491C42.3519 21.7201 41.5901 22.616 40.3853 22.8196C40.1862 22.8527 40.0051 22.803 39.9782 23.1317C39.7702 25.5478 38.7045 27.5823 37.1779 29.4041C36.5658 30.1356 35.8579 30.7599 35.1006 31.3315C34.9524 31.4431 34.7983 31.5306 34.8042 31.7704C34.8222 32.3782 34.8147 32.9875 34.8072 33.5968C34.8042 33.8049 34.8895 33.8848 35.0886 33.9436C35.9178 34.188 36.7409 34.4534 37.5641 34.7158C37.7617 34.7792 37.9143 34.7294 38.0879 34.6178C38.5459 34.3222 39.0353 34.3131 39.5472 34.4956C43.4235 35.8801 47.3104 37.2344 51.1763 38.6475C54.3806 39.8179 56.44 42.0906 57.2647 45.4342C57.579 46.7101 57.5536 48.0373 57.6449 49.3433C57.7391 50.6901 57.8065 52.0384 57.8858 53.3852C57.8903 53.4666 57.9083 53.5314 57.9981 53.5495C57.9981 53.7019 57.9981 53.8542 57.9981 54.0065C57.9262 54.0819 57.9262 54.1588 57.9981 54.2342C57.9996 54.7651 57.9996 55.2975 57.9996 55.8299Z" fill="#2C3B44"/>
<path id="Vector_2" d="M1.24005 48.7764C1.95546 48.6271 2.12309 48.3964 2.15302 47.5217C2.22037 45.5143 2.86393 43.7407 4.23787 42.2567C5.13288 41.2915 6.23293 40.6641 7.44224 40.1921C7.85831 40.0292 7.90022 40.171 7.89872 40.542C7.88824 44.0756 7.89273 47.6091 7.89273 51.1427C7.89273 52.7006 7.88375 54.2586 7.90021 55.8165C7.90471 56.1769 7.82089 56.3066 7.43326 56.3006C5.90666 56.2765 4.37856 56.2961 2.85196 56.2885C2.0273 56.284 1.65313 55.8919 1.69205 55.0443C1.74443 53.9072 1.82675 52.77 1.90308 51.6329C1.95097 50.9271 1.78933 50.6692 1.13379 50.4429C1.16821 49.8879 1.20413 49.3314 1.24005 48.7764Z" fill="#30D0A7"/>
<path id="Vector_3" d="M40.3271 9.25115C39.7927 9.50301 39.6595 9.94791 39.7868 10.4818C40.0337 11.5239 40.0786 12.5811 40.0801 13.6459C40.0816 14.4573 40.3016 14.7031 41.1008 14.7318C41.4076 14.7423 41.472 14.8509 41.4795 15.1344C41.5094 16.1162 41.5199 16.1177 40.5531 16.1147C39.9873 16.1132 39.4231 16.1027 38.8573 16.0951C38.6134 15.7965 38.7181 15.4391 38.7062 15.1058C38.6792 14.3788 38.567 14.2054 37.8456 14.0923C37.3711 14.0184 37.3487 13.7092 37.3457 13.3488C37.3352 12.1468 37.2095 10.9629 36.8787 9.80162C36.2277 7.51829 34.8972 5.72962 33.0024 4.34816C32.8901 4.26672 32.7764 4.09329 32.6147 4.20187C32.4965 4.2818 32.5549 4.44921 32.5534 4.5774C32.5489 5.14748 32.5624 5.71907 32.5444 6.28764C32.5384 6.49576 32.6087 6.75818 32.3109 6.8547C32.3154 5.86837 32.3408 4.88054 32.3124 3.89572C32.2989 3.43272 32.4471 3.34977 32.8632 3.45836C35.0348 4.02693 36.8084 5.19122 38.1674 6.99496C38.4023 7.30564 38.5745 7.67815 38.992 7.82142C39.2345 7.90437 39.4335 7.7807 39.6536 7.76562C39.9424 8.23164 40.1265 8.74592 40.3271 9.25115Z" fill="#40D2AD"/>
<path id="Vector_4" d="M29.0047 56.2916C24.8529 56.2916 20.7012 56.2826 16.5494 56.3037C16.084 56.3052 15.9597 56.1996 15.9612 55.7185C15.9792 49.7101 15.9717 43.7001 15.9807 37.6917C15.9807 37.4971 15.8295 37.2181 16.1588 37.108C16.4491 37.0115 16.5644 37.2573 16.7096 37.4126C18.097 38.8997 19.5622 40.2887 21.3537 41.2826C24.4982 43.029 27.8433 43.6277 31.3918 43.0969C35.2517 42.5207 38.3678 40.6009 40.9825 37.7505C41.2234 37.4881 41.415 36.924 41.879 37.1502C42.2187 37.3146 42.0212 37.8033 42.0212 38.1411C42.0316 43.9972 42.0227 49.8549 42.0406 55.711C42.0421 56.1815 41.9344 56.3052 41.4599 56.3022C37.3082 56.2826 33.1564 56.2916 29.0047 56.2916Z" fill="#30D0A7"/>
<path id="Vector_5" d="M29.9087 31.5111C28.0035 31.8323 26.2015 31.413 24.5986 30.4373C22.0976 28.914 20.4543 26.6729 19.7868 23.7713C19.673 23.2766 19.6506 22.7548 19.6416 22.245C19.6221 20.9525 19.6551 19.6601 19.6251 18.3691C19.6147 17.9227 19.7329 17.8005 20.1834 17.802C24.841 17.8201 29.5001 17.8126 34.1578 17.8141C34.704 17.8141 35.2503 17.8277 35.7966 17.8367C35.9104 17.9528 35.9463 18.1006 35.9433 18.2545C35.9089 19.9421 36.0286 21.6312 35.8655 23.3203C35.7308 24.7169 35.2384 25.9822 34.5349 27.1616C33.6444 28.6561 32.5279 29.9592 31.0642 30.9304C30.7005 31.1702 30.3248 31.3799 29.9087 31.5111Z" fill="#00FEBE"/>
<path id="Vector_6" d="M32.3124 6.85445C32.5084 6.18634 32.3573 5.50164 32.3977 4.82599C32.4171 4.5123 32.4007 4.19559 32.4007 3.77934C33.3032 4.30418 34.0395 4.88481 34.6681 5.57705C35.8789 6.90874 36.753 8.44102 37.1556 10.2206C37.3936 11.2748 37.5223 12.3426 37.4893 13.4224C37.4774 13.813 37.5926 13.9563 37.9952 13.9503C38.54 13.9427 38.8453 14.2881 38.8558 14.8416C38.8633 15.2594 38.8573 15.6771 38.8588 16.0949C38.0476 16.1024 37.2364 16.1145 36.4252 16.1145C29.9881 16.116 23.5509 16.116 17.1122 16.113C16.8354 16.113 16.4253 16.2276 16.539 15.7103C16.6183 15.3498 16.1529 14.6847 17.0658 14.7255C17.654 14.7511 17.9264 14.3937 17.9204 13.7045C17.907 12.2913 17.9848 10.8887 18.4877 9.55403C19.6641 6.43217 21.8372 4.39014 25.0431 3.48224C25.4906 3.35555 25.7196 3.36611 25.6911 3.95881C25.6447 4.88783 25.6896 5.82137 25.7046 6.75341C25.7151 7.38984 25.971 7.93127 26.3856 8.39879C27.4542 9.60682 28.8491 9.53141 30.2126 9.2509C31.4398 8.99904 32.1103 8.09867 32.3124 6.85445Z" fill="#30D0A7"/>
<path id="Vector_7" d="M53.8089 56.2704C52.7343 56.2764 51.6597 56.2674 50.5851 56.2991C50.208 56.3096 50.1077 56.192 50.1122 55.8225C50.1286 54.0172 50.1196 52.2105 50.1196 50.4052C50.1196 47.1355 50.1271 43.8659 50.1107 40.5977C50.1077 40.1498 50.1975 40.005 50.6225 40.2192C50.9234 40.3715 51.2317 40.5103 51.5355 40.6535C52.1566 41.2131 52.3572 42.0063 52.6505 42.7408C53.1923 44.1012 53.318 45.5429 53.4063 46.9878C53.5455 49.2424 53.6638 51.4986 53.8359 53.7503C53.8853 54.3943 53.8718 55.0413 53.9631 55.6837C53.99 55.8888 53.9676 56.1045 53.8089 56.2704Z" fill="#30D0A7"/>
<path id="Vector_8" d="M11.7796 38.7006C12.5967 38.3899 13.4139 38.0807 14.3044 37.7429C14.3044 38.0114 14.3044 38.1969 14.3044 38.3809C14.3044 44.151 14.2969 49.9227 14.3179 55.6929C14.3194 56.2011 14.1937 56.3429 13.7013 56.3037C13.0652 56.2524 12.4216 56.278 11.7825 56.272C11.5775 56.0563 11.6029 55.7803 11.6029 55.5179C11.5985 50.1655 11.5985 44.8131 11.6015 39.4592C11.6029 39.1922 11.597 38.9238 11.7796 38.7006Z" fill="#979797"/>
<path id="Vector_9" d="M45.8871 38.5752C46.6684 38.8421 47.4436 39.1257 48.2309 39.37C48.5991 39.4846 48.4704 39.7576 48.4704 39.9732C48.4778 45.0648 48.4763 50.1562 48.4763 55.2493C48.4763 56.2914 48.4763 56.2929 47.4616 56.2899C46.9348 56.2884 46.4065 56.2763 45.8796 56.2703C45.6746 56.0546 45.7 55.7786 45.7 55.5162C45.6955 50.1185 45.6955 44.7224 45.7 39.3247C45.7 39.0638 45.6701 38.7863 45.8871 38.5752Z" fill="#979797"/>
<path id="Vector_10" d="M45.8871 38.5754C45.8841 44.4737 45.8811 50.3721 45.8796 56.2704C45.2765 56.278 44.6718 56.2689 44.0702 56.2976C43.7693 56.3112 43.6825 56.2131 43.693 55.9145C43.714 55.2871 43.699 54.6597 43.699 54.0323C43.699 48.8036 43.708 43.5749 43.687 38.3476C43.6855 37.8017 43.8277 37.761 44.2677 37.9525C44.796 38.1832 45.3453 38.3702 45.8871 38.5754Z" fill="#C4C4C4"/>
<path id="Vector_11" d="M11.7796 38.7004C11.7811 44.5566 11.7811 50.4142 11.7826 56.2703C11.1989 56.2779 10.6122 56.2538 10.0315 56.302C9.58553 56.3397 9.51519 56.1708 9.51669 55.7636C9.53166 51.6222 9.52567 47.4824 9.52567 43.341C9.52567 42.2008 9.54512 41.0607 9.51519 39.922C9.50471 39.542 9.6454 39.3882 9.97616 39.2886C10.5838 39.1076 11.1795 38.898 11.7796 38.7004Z" fill="#C4C4C4"/>
<path id="Vector_12" d="M30.5897 38.8287C29.0646 39.1062 27.5589 38.9841 26.0697 38.595C24.3875 38.1546 22.8968 37.3523 21.5154 36.1427C22.2068 35.9225 22.8309 35.7204 23.4581 35.5244C24.5581 35.1805 24.829 34.811 24.8335 33.6347C24.8365 32.4915 24.8335 32.5036 25.8946 32.8022C27.3524 33.2124 28.8296 33.4643 30.3487 33.2199C30.8097 33.1611 30.7453 33.5306 30.7558 33.7764C30.7917 34.6617 30.7678 35.5485 30.7708 36.4353C30.7723 37.0009 30.7753 37.5664 30.7693 38.132C30.7648 38.3793 30.7633 38.6266 30.5897 38.8287Z" fill="#00FEBE"/>
<path id="Vector_13" d="M53.809 56.2707C53.6623 54.0839 53.5111 51.8985 53.3719 49.7117C53.327 48.9954 53.2836 48.2745 53.2642 47.5596C53.1983 45.1979 52.8316 42.9311 51.6044 40.8695C51.567 40.8061 51.558 40.7262 51.5355 40.6538C53.4602 41.5361 54.692 43.0382 55.4134 45.0124C55.825 46.1389 55.8429 47.3198 55.9237 48.4901C56.0734 50.6498 56.1946 52.8125 56.3099 54.9752C56.3608 55.9253 55.9956 56.2888 55.0512 56.2918C54.6366 56.2903 54.2235 56.2782 53.809 56.2707Z" fill="#555555"/>
<path id="Vector_14" d="M29.9087 31.5111C30.8995 30.8279 31.9262 30.2035 32.7509 29.2926C34.1592 27.7362 35.2263 25.9988 35.6364 23.9161C35.7517 23.3294 35.813 22.7231 35.8041 22.1123C35.7816 20.6871 35.7966 19.2619 35.7966 17.8367C36.5314 17.8292 37.2663 17.8292 37.9997 17.8096C38.2616 17.802 38.3708 17.879 38.3634 18.161C38.3244 19.8697 38.4801 21.586 38.2825 23.2841C38.0595 25.2055 37.1391 26.8328 35.9118 28.2882C34.4166 30.0603 32.5443 31.1702 30.2439 31.5081C30.1347 31.5232 30.0209 31.5111 29.9087 31.5111Z" fill="#03D7A1"/>
<path id="Vector_15" d="M39.8705 36.4472C36.5779 40.2296 32.48 41.9957 27.538 41.5357C23.8487 41.1933 20.8195 39.4499 18.3425 36.7006C18.1674 36.506 18.0865 36.4246 18.4173 36.2873C18.8693 36.0988 19.1612 36.1259 19.5293 36.512C22.2622 39.379 25.6193 40.7846 29.5645 40.6263C33.0083 40.489 35.9388 39.1181 38.3619 36.6493C38.9815 36.0189 38.986 36.0234 39.8705 36.4472Z" fill="#555555"/>
<path id="Vector_16" d="M30.5897 38.8287C30.5882 37.1426 30.5897 35.4565 30.5837 33.7704C30.5822 33.5638 30.684 33.2908 30.3488 33.2199C31.1899 32.9575 32.0744 32.8595 32.8961 32.5277C33.164 32.4191 33.1685 32.5805 33.1655 32.7735C33.161 33.1159 33.1595 33.4582 33.1655 33.7991C33.1819 34.7703 33.5052 35.2062 34.4302 35.5002C35.0902 35.7099 35.7532 35.9074 36.5001 36.1367C34.743 37.6313 32.8347 38.5965 30.5897 38.8287Z" fill="#03D7A1"/>
<path id="Vector_17" d="M28.0932 1.84153C28.6769 1.61983 29.2861 1.65904 29.8608 1.80232C30.4086 1.93805 30.678 2.40105 30.6855 2.9651C30.7019 4.10375 30.7079 5.24391 30.684 6.38105C30.666 7.23466 30.2185 7.67806 29.3804 7.68409C28.9194 7.6871 28.442 7.79418 28.0004 7.55137C27.8972 7.25728 27.9151 6.95264 27.9151 6.64799C27.9151 5.31781 27.9121 3.98611 27.9166 2.65593C27.9196 2.37541 27.8897 2.08283 28.0932 1.84153Z" fill="#14B289"/>
<path id="Vector_18" d="M28.0932 1.84155C28.0947 3.56386 28.0962 5.28767 28.0932 7.00997C28.0932 7.19396 28.1486 7.39153 28.0019 7.5529C27.514 7.36137 27.3374 6.93909 27.3269 6.47458C27.2985 5.28465 27.2955 4.09322 27.3269 2.90329C27.3389 2.41163 27.5664 1.99689 28.0932 1.84155Z" fill="#30D0A7"/>
<path id="Vector_19" d="M18.0027 19.496C18.0027 19.9122 18.0117 20.3285 17.9982 20.7447C17.9937 20.8759 18.094 21.072 17.88 21.1263C17.7004 21.1715 17.5582 21.0675 17.44 20.9333C17.3157 20.793 17.3112 20.6211 17.3112 20.4522C17.3068 19.6951 17.3142 18.938 17.3053 18.1809C17.3023 17.9411 17.3277 17.7978 17.63 17.7993C17.9264 17.8008 18.0252 17.8928 18.0087 18.1899C17.9862 18.6243 18.0027 19.0601 18.0027 19.496Z" fill="#30D0A7"/>
<path id="Vector_20" d="M40.6892 19.3616C40.6892 19.7401 40.6892 20.1172 40.6892 20.4957C40.6892 20.7129 40.6383 20.9074 40.4482 21.0387C40.3345 21.1171 40.2103 21.1744 40.0801 21.1126C39.9528 21.0522 40.0037 20.915 40.0022 20.8124C39.9977 19.9241 40.0112 19.0343 39.9933 18.146C39.9873 17.855 40.1085 17.8097 40.3584 17.8007C40.6473 17.7901 40.7042 17.9153 40.6937 18.1687C40.6787 18.5653 40.6892 18.9619 40.6892 19.3601C40.6907 19.3616 40.6907 19.3616 40.6892 19.3616Z" fill="#30D0A7"/>
<path id="Vector_21" d="M24.3576 8.46073C24.3591 9.98697 23.5509 11.1467 22.2728 11.4589C21.6801 11.6037 20.9557 11.296 20.6279 10.7591C19.6985 9.24044 20.7462 6.7701 22.4688 6.4187C23.3429 6.24074 24.2768 6.99632 24.3546 7.94796C24.3681 8.11838 24.3561 8.29031 24.3576 8.46073Z" fill="#14B289"/>
</g>
</svg>
