<svg width="21" height="21" viewBox="0 0 21 21" fill="none" xmlns="http://www.w3.org/2000/svg">
<path d="M10.5849 0.522705C5.0539 0.522705 0.564941 5.01167 0.564941 10.5427C0.564941 16.0738 5.0539 20.5627 10.5849 20.5627C16.116 20.5627 20.605 16.0738 20.605 10.5427C20.605 5.01167 16.116 0.522705 10.5849 0.522705ZM13.2503 12.2762L11.9677 13.0177L10.6851 13.7591C9.03185 14.711 7.67915 13.9295 7.67915 12.0257V10.5427V9.05975C7.67915 7.14593 9.03185 6.37439 10.6851 7.32629L11.9677 8.06777L13.2503 8.80925C14.9036 9.76115 14.9036 11.3243 13.2503 12.2762Z" fill="url(#paint0_linear_1503_4766)"/>
<defs>
<linearGradient id="paint0_linear_1503_4766" x1="10.5849" y1="-8.9137" x2="10.585" y2="20.5627" gradientUnits="userSpaceOnUse">
<stop stop-color="#6BFFDA"/>
<stop offset="1" stop-color="#00E1A9"/>
</linearGradient>
</defs>
</svg>
