<svg width="35" height="35" viewBox="0 0 35 35" fill="none" xmlns="http://www.w3.org/2000/svg">
<g id="Group 75928">
<circle id="Ellipse 36" cx="17.5" cy="17.5" r="17.5" fill="#EBEBEB"/>
<path id="Vector" d="M25.9401 25.1194C25.2837 22.6603 24.6264 20.2013 23.9672 17.7422C23.7672 16.9957 23.7135 16.9578 22.9298 16.9578C21.5623 16.9569 20.1948 16.9578 18.8282 16.9578H18.2793C18.3972 16.7137 18.4783 16.5633 18.5443 16.4062C18.9706 15.3939 19.461 14.4013 19.8024 13.3606C20.3551 11.6745 19.8685 10.1985 18.5613 9.05557C17.2504 7.90789 15.7254 7.71298 14.1184 8.38853C12.417 9.10288 11.042 11.2223 11.9087 13.5848C12.3189 14.7022 12.8225 15.7856 13.3045 16.9332C13.2262 16.9408 13.1498 16.9541 13.0744 16.956C12.2548 16.9853 12.252 16.9834 12.0322 17.798C11.3758 20.2249 10.7213 22.6518 10.0687 25.0796C9.88478 25.7646 10.0574 25.9983 10.7421 25.9993C15.5821 26.0002 20.4221 26.0002 25.2621 25.9993C25.926 25.9983 26.1108 25.7599 25.9401 25.1194ZM13.8024 12.2252C13.8005 11.1002 14.7163 10.1957 15.8518 10.2023C16.9571 10.2089 17.854 11.1144 17.854 12.2242C17.854 13.3435 16.9203 14.2727 15.8056 14.2604C14.7125 14.2481 13.8034 13.3256 13.8024 12.2252ZM12.98 18.4092C13.0178 18.273 13.1649 18.0639 13.2545 18.0677C13.5393 18.0781 13.8911 17.8766 14.0995 18.2579C14.274 18.5748 14.4447 18.8946 14.6399 19.1993C15.2473 20.1473 16.4535 20.1275 17.0373 19.1662C17.0618 19.1255 17.092 19.0867 17.1071 19.0422C17.4249 18.0999 18.0784 17.8217 19.0442 18.1188C18.7198 18.9381 18.3274 19.7622 18.07 20.628C17.8323 21.4275 17.44 21.7161 16.5789 21.6877C15.2482 21.6432 13.9118 21.7823 12.5773 21.8419C12.4227 21.8495 12.2661 21.8428 12.0549 21.8428C12.3727 20.6516 12.666 19.5276 12.98 18.4092ZM11.2466 24.8582C11.3966 24.2716 11.5258 23.6945 11.704 23.1343C11.7361 23.034 11.9728 22.9508 12.119 22.9432C13.9524 22.8486 15.7848 22.7653 17.6182 22.6906C18.3755 22.6603 18.3755 22.6726 18.6679 21.945C18.7433 21.7567 18.8244 21.5703 18.9348 21.3073C19.4271 21.5874 19.8817 21.8277 20.3136 22.103C20.4249 22.174 20.5069 22.3471 20.5315 22.4862C20.6691 23.2583 20.7842 24.0351 20.9153 24.8582H11.2466ZM22.3045 24.9453C22.0112 24.95 21.9885 24.7655 21.9555 24.5517C21.8263 23.7304 21.6783 22.911 21.5623 22.0879C21.5038 21.6792 21.3218 21.4114 20.9455 21.2222C20.4013 20.9487 19.8864 20.6195 19.3328 20.2987C19.6082 19.608 19.8647 18.9372 20.1495 18.2787C20.1957 18.1727 20.3702 18.0601 20.489 18.0573C21.2095 18.0365 21.932 18.0365 22.6525 18.0573C22.7694 18.0601 22.959 18.1765 22.9864 18.2758C23.5626 20.3612 24.12 22.4522 24.6802 24.5432C24.7075 24.6472 24.7188 24.756 24.7528 24.9415C23.9002 24.9415 23.1024 24.933 22.3045 24.9453Z" fill="#515050"/>
</g>
</svg>
