<svg width="69" height="70" viewBox="0 0 69 70" fill="none" xmlns="http://www.w3.org/2000/svg">
<g id="emojione-v1:motorcycle" clip-path="url(#clip0_1046_4612)">
<path id="Vector" d="M56.4461 34.5823L63.1835 31.2771C63.1835 31.2771 65.3076 31.3535 64.7887 32.8048C64.7887 32.8048 63.907 34.0353 63.7293 34.0386L57.8059 36.7602L56.5215 36.6063L56.1404 35.6104L56.4461 34.5823Z" fill="#939598"/>
<path id="Vector_2" d="M45.8158 37.4653L58.8943 31.473C58.8943 31.473 63.3536 31.4213 62.7281 33.8523C62.7281 33.8523 61.2682 35.9463 60.8893 35.9646L49.3384 40.9288L46.6071 40.7899L45.4993 39.1804L45.8158 37.4653Z" fill="#A7A9AC"/>
<path id="Vector_3" d="M28.2177 13.4712C28.2177 13.4712 35.4245 11.3234 40.59 17.2716C40.59 17.2716 46.7847 23.4426 47.5793 25.4807L31.5885 26.4345C31.5885 26.4345 24.6315 26.2041 22.3599 21.0085C22.3599 21.0074 25.622 13.4766 28.2177 13.4723" fill="#3C3C3C"/>
<path id="Vector_4" d="M28.3727 20.2841C29.4493 19.5444 31.075 14.9958 30.1986 13.1419C25.4293 13.0935 24.104 15.2951 24.104 15.2951C22.909 15.2973 23.9135 20.0967 23.472 21.0441C25.2 21.2293 26.816 21.351 28.3727 20.2841Z" fill="#3C3C3C"/>
<path id="Vector_5" d="M34.4943 37.1587C34.4943 37.1587 43.1286 39.9568 50.7186 35.3866C50.7186 35.3866 54.533 33.03 57.5905 32.5735C57.5905 32.5735 63.4397 29.5019 63.7476 26.7135C63.7476 26.7135 62.9025 25.4572 59.9332 26.0256C59.9332 26.0256 52.3324 24.4861 50.3956 25.6692C50.3956 25.6692 46.6911 28.8388 44.5497 29.3588L37.3752 28.3123L28.8443 26.6425L21.6967 27.8386L19.3024 31.1158L26.283 35.4889L34.4921 37.1587" fill="#25333A"/>
<path id="Vector_6" d="M47.7365 54.4177C47.7365 54.4177 47.8581 55.0626 48.3038 56.0068C48.9194 57.2908 49.7698 58.4484 50.8112 59.4196C53.7773 62.433 58.369 63.6291 62.2501 61.9668C63.005 61.6896 63.7192 61.3119 64.3732 60.8439C67.4027 58.5766 68.7011 54.4489 68.6203 50.5678C68.5096 48.9802 68.1227 47.4242 67.477 45.9696C66.1872 43.0402 63.8768 40.5167 60.8462 39.1784C60.2285 38.9071 59.5889 38.6889 58.9342 38.526C56.1156 37.8305 52.2948 38.0416 48.2748 41.6632C48.2748 41.6632 45.0665 50.3514 47.7365 54.4177Z" fill="#2C3B44"/>
<path id="Vector_7" d="M62.1962 42.3125C61.6649 42.0101 61.1101 41.7509 60.5372 41.5374C59.5726 41.1853 58.7027 41.0443 57.9211 41.0572C54.0216 41.1132 52.341 44.947 52.341 44.947C52.3238 44.9674 52.313 44.9922 52.298 45.0137L53.4263 43.9156C53.4263 43.9156 59.1408 41.7365 62.3631 49.7184C62.3631 49.7184 64.1093 56.7336 58.9352 58.1235L57.6799 57.6433C59.5801 58.5186 61.0959 58.5649 62.277 58.2354C63.4548 57.9081 64.2956 57.204 64.8425 56.585C66.5683 54.6568 66.7707 52.2054 66.6673 49.8692C66.6006 48.7753 66.2722 47.6912 65.7792 46.6695C65.2839 45.6554 64.6581 44.7103 63.9177 43.8585C62.9951 42.8433 62.1962 42.3125 62.1962 42.3125Z" fill="#25333A"/>
<path id="Vector_8" d="M62.363 49.7194C59.1408 41.7375 53.4262 43.9166 53.4262 43.9166L52.2979 45.0147C50.8101 47.3111 53.0752 53.2151 53.0752 53.2151C53.6523 54.1841 54.1744 54.9226 54.6406 55.4846C55.9691 56.9079 57.415 58.0448 59.4002 58.0652C59.9622 57.9608 60.4984 57.6615 60.9484 57.0963C61.4781 56.6032 61.856 56.0197 62.1187 55.3856C63.163 52.8674 62.363 49.7194 62.363 49.7194Z" fill="#30D0A7"/>
<path id="Vector_9" d="M56.9004 47.1119C56.9004 47.1119 59.9074 43.1629 62.7238 47.0796C62.7238 47.0796 66.0332 52.455 59.706 53.5607C59.706 53.5607 56.7163 52.511 55.8174 49.995L55.7151 48.0894L56.9004 47.1151" fill="#26292D"/>
<path id="Vector_10" d="M44.0156 41.6922C44.0156 41.6922 51.3936 38.7886 49.8874 46.7447C49.8874 46.7447 47.0086 49.5482 46.691 49.1595C46.3723 48.7687 43.2588 47.6641 43.2588 47.6641L41.7085 46.3743L44.0156 41.6922Z" fill="#F05E27"/>
<path id="Vector_11" d="M15.9444 29.8735C15.9444 29.8735 19.2808 22.9046 25.8211 25.3668C25.8211 25.3668 32.9644 26.4973 37.2901 32.8826C37.2901 32.8826 41.2316 36.7002 42.9875 36.6474C42.9875 36.6474 48.5158 44.5432 40.858 48.1778L29.0789 37.6767L18.8254 32.4702L15.9444 29.8735Z" fill="#26292D"/>
<path id="Vector_12" d="M20.211 55.6364C20.211 55.6364 21.2155 57.6044 23.486 57.6249C23.486 57.6249 45.3012 57.6873 46.887 58.0221C46.887 58.0221 51.9761 54.3402 52.1494 48.8517C52.1494 48.8517 49.782 47.1732 48.2801 47.9979C48.2801 47.9979 43.907 53.4746 40.8064 45.9901C40.8064 45.9901 36.8219 43.8067 33.8752 44.9361C33.8752 44.9361 26.7944 47.5307 25.7092 45.582C25.707 45.582 17.0426 50.1877 20.211 55.6364Z" fill="#14B289"/>
<path id="Vector_13" d="M12.34 29.7817C12.34 29.7817 19.6619 27.9859 21.8571 31.1307C21.8571 31.1307 24.8866 32.5733 25.9223 32.5152C25.9223 32.5152 31.779 33.2753 38.3571 38.5398C38.3571 38.5398 43.3008 43.6698 36.2674 46.4496C36.2674 46.4496 25.9223 50.6516 23.5527 48.1873L15.4739 35.858L10.7121 35.3445L8.48358 34.9838L12.34 29.7817Z" fill="#30D0A7"/>
<path id="Vector_14" d="M31.3721 37.5107C32.7391 37.1917 34.0982 36.8395 35.4481 36.4545C32.3496 34.4747 29.614 33.4605 27.8796 32.9631C24.9879 33.5714 22.0207 34.0387 19.4401 35.5265C18.4077 36.123 17.5227 36.8895 16.7002 37.7303L18.9966 41.2368C22.8336 39.2925 27.1604 38.4742 31.3689 37.5107" fill="#94E1E1"/>
<path id="Vector_15" d="M7.0765 39.7932C7.0765 39.7932 2.6969 38.2246 5.78243 36.5903C5.78243 36.5903 12.9235 32.9891 15.7151 33.4358C15.7151 33.4358 30.1168 39.201 26.1302 44.0953C26.1302 44.0953 24.034 47.7901 23.8564 49.5428C23.8564 49.5428 21.2779 50.3977 20.4823 49.5235L13.9689 41.6514L7.07866 39.7932" fill="#009175"/>
<path id="Vector_16" d="M14.7042 25.3343C14.7042 25.3343 15.6129 23.5246 16.9102 23.4966L20.1723 24.318L20.506 23.6656L22.4181 24.2685L22.7389 25.1556L28.9789 27.4219C28.9789 27.4219 29.4547 28.1034 28.4589 28.6815L22.3179 26.6316L21.2715 26.6564L19.7201 26.3797L19.6071 25.8328L18.3701 27.1872L14.7398 27.0375L14.7021 25.3343" fill="#121416"/>
<g id="Group">
<path id="Vector_17" d="M64.7789 22.787C64.7789 22.787 64.9878 25.2341 60.4294 26.5712C60.4294 26.5712 53.4671 27.6069 51.1997 26.7273L51.0049 25.3687L53.3153 24.4116L54.3036 23.5837L55.3759 23.0949C55.377 23.0949 63.3438 21.7567 64.7746 22.787" fill="#2C3B44"/>
<path id="Vector_18" d="M4.67782 41.3119C4.67782 41.3119 1.37266 43.0162 0.316512 47.0297C0.0884778 47.9085 -0.0173072 48.8146 0.00214547 49.7223C0.211006 56.2357 5.13214 62.4143 11.5648 63.1173C12.6149 63.1654 13.6656 63.0366 14.673 62.7362C15.7668 62.4154 16.9123 61.8846 18.1084 61.088C18.1084 61.088 23.3051 57.9787 21.8743 48.9719L17.765 41.3377L9.50529 39.4817L4.67782 41.3119Z" fill="#2C3B44"/>
</g>
<path id="Vector_19" d="M7.30798 43.5007C7.30798 43.5007 5.76952 44.2952 4.7629 46.106C4.38999 46.7754 4.13438 47.5036 4.00713 48.2592C3.58726 52.8649 6.3272 57.8216 10.9533 59.1329C11.88 59.3753 12.848 59.4146 13.7913 59.2481C14.8151 59.0704 15.91 58.6398 17.0663 57.87C17.0663 57.87 20.8494 55.6081 19.8062 49.0634L16.8197 43.5146L10.8177 42.1667L7.30798 43.492" fill="#25333A"/>
<path id="Vector_20" d="M9.44717 45.6456C9.44717 45.6456 5.51866 47.6717 8.22523 52.8696C8.22523 52.8696 11.2408 57.7767 15.6785 54.8225C15.6785 54.8225 18.0858 53.3788 17.4248 49.1994L15.5203 45.6574L11.6876 44.7961L9.44717 45.6456Z" fill="#30D0A7"/>
<path id="Vector_21" d="M2.97253 41.0743C2.97253 41.0743 6.24432 37.1372 13.2261 38.5379C13.2261 38.5379 16.0877 38.4657 16.388 40.1614C16.388 40.1614 14.9131 47.5727 13.5028 50.0413C13.5028 50.0413 13.8483 53.4542 11.2042 51.1567C11.2042 51.1567 10.6304 47.0129 11.3765 45.2709C11.3765 45.2709 12.0687 41.491 9.1576 41.5211C9.15652 41.5201 4.19124 42.1057 2.97253 41.0743Z" fill="#374149"/>
<path id="Vector_22" d="M12.7577 46.8513C12.7577 46.8513 16.3761 41.8559 18.1515 50.5947C18.1515 50.5947 15.474 54.5813 12.649 51.007L12.1376 48.6008L12.7566 47.0214" fill="#323C45"/>
<path id="Vector_23" d="M47.6395 54.9301C47.6395 54.9301 57.2191 52.0857 58.6176 51.0468C58.6176 51.0468 61.94 52.0954 62.0821 49.9056C62.0821 49.9056 62.5967 46.2915 58.3915 47.451L57.9727 47.0699C57.9727 47.0699 53.2637 44.8951 47.1529 46.6015C47.1529 46.6015 41.9982 46.1472 40.5663 44.4946C40.5674 44.4957 31.3032 51.6572 47.6385 54.9301" fill="#46484E"/>
<path id="Vector_24" d="M44.0696 23.4944C44.0696 23.4944 34.8851 22.8302 36.95 27.6232C39.015 32.4162 36.9436 27.9968 36.9436 27.9968C36.9436 27.9968 39.3649 33.762 42.5559 35.3984C45.7502 37.0391 42.6194 35.6869 42.6194 35.6869L47.0162 34.9021C47.0162 34.9021 44.2257 29.5083 43.6712 28.9969C43.6712 28.9969 45.3529 31.9694 47.7709 27.7179C47.7688 27.7168 48.4234 23.2231 44.0696 23.4944Z" fill="#3C3C3C"/>
<path id="Vector_25" d="M41.406 35.0669C41.406 35.0669 45.847 31.878 47.056 35.1616C47.056 35.1616 48.9239 39.9492 49.8519 40.7029C49.8519 40.7029 52.5036 42.7333 50.6971 44.6723C50.6971 44.6723 47.8139 47.9613 45.2818 48.0679C45.2818 48.0679 42.7981 47.2152 44.5346 44.9457C44.5346 44.9457 44.7252 41.8279 44.385 41.0205C44.385 41.0215 41.4889 35.8291 41.4103 35.0669" fill="#2C3B44"/>
<path id="Vector_26" d="M29.065 25.0188C29.065 25.0188 30.9286 24.0401 34.1057 24.4514C34.1057 24.4514 30.7187 18.1608 32.3788 16.3231C32.3788 16.3231 36.4462 13.834 37.9599 17.966C37.9599 17.966 40.0334 25.7272 39.9602 27.3711C39.9602 27.3711 39.1441 29.5233 35.8261 28.8848C35.8261 28.8848 30.5098 29.1648 28.9197 27.6651L29.065 25.0188Z" fill="#555555"/>
<path id="Vector_27" d="M23.4709 23.7303C23.4709 23.7303 19.2528 26.7469 25.13 28.4695C25.13 28.4695 28.0153 28.069 29.3772 28.4867C29.3772 28.4867 33.4058 26.1451 28.9885 24.3257C28.9885 24.3257 25.9546 24.6885 25.6274 24.4742C25.6274 24.4742 24.9426 23.0628 23.4742 23.7303" fill="#2C3B44"/>
<path id="Vector_28" d="M24.709 13.2119C24.6078 11.2266 23.6906 11.8898 23.6906 11.8898C23.6906 11.8898 23.6992 11.8758 23.7089 11.8522C23.6949 11.8769 23.6863 11.9006 23.6712 11.9264C21.5277 16.1392 17.4603 15.2757 17.4495 15.2736C18.0847 17.9339 19.8008 19.8265 20.9356 20.8342C25.6726 18.8242 24.709 13.2119 24.709 13.2119Z" fill="#3C3C3C"/>
<path id="Vector_29" d="M23.2825 7.73193C17.583 7.82883 17.2945 14.4607 17.2945 14.4607C17.3365 14.7406 17.3871 15.0119 17.4495 15.2746C17.4603 15.2767 21.5277 16.1391 23.6712 11.9274C23.6863 11.9016 23.6938 11.8779 23.7089 11.8532C23.6992 11.8758 23.6906 11.8908 23.6906 11.8908C23.6906 11.8908 24.6078 11.2266 24.709 13.2129C24.709 13.2129 25.6726 18.8263 20.9356 20.8363C21.5568 21.3875 22.0046 21.6739 22.0046 21.6739C26.24 21.1464 28.2963 15.463 28.2963 15.463C30.4042 8.28531 23.2825 7.73193 23.2825 7.73193Z" fill="#30D0A7"/>
<path id="Vector_30" d="M6.99146 24.9553C6.99146 24.9553 11.3194 19.4485 13.2379 19.0018C13.2379 19.0018 20.9894 16.9745 21.7602 20.959L15.0401 24.9747L11.6477 26.3818L10.3494 26.1999L6.99146 24.9553Z" fill="#30D0A7"/>
<path id="Vector_31" d="M6.44025 37.0177C6.44025 37.0177 2.89285 36.7981 3.38917 33.1947C3.38917 33.1947 4.29243 27.3627 7.38981 24.5604C7.38981 24.5604 9.65605 23.7874 11.7856 25.5702C11.7856 25.5702 15.9283 20.803 23.1017 20.2507C23.1017 20.2507 24.1266 21.8807 22.3061 22.461C22.3061 22.461 14.5976 23.7098 15.2813 27.8418C15.2813 27.8418 14.7602 30.8692 12.537 32.3151C12.537 32.3151 8.83245 35.9206 6.8106 36.9337" fill="#26292D"/>
<path id="Vector_32" d="M10.0317 26.4497C10.0317 26.4497 3.94032 30.9337 5.08152 34.7126C5.08152 34.7126 5.07936 35.7461 6.32822 34.6459C7.57707 33.5456 6.3659 34.789 6.3659 34.789C6.3659 34.789 8.78502 34.6093 8.68489 32.3161L9.67321 31.0608C9.67321 31.0619 8.88191 28.8634 10.0317 26.4497Z" fill="#A7A9AC"/>
<path id="Vector_33" fill-rule="evenodd" clip-rule="evenodd" d="M35.0659 18.358C35.1251 18.4387 35.2576 18.4473 35.348 18.386C35.4004 18.3462 35.4404 18.2925 35.4634 18.2309C35.4865 18.1694 35.4916 18.1026 35.4783 18.0382C35.4223 17.7734 35.1704 17.6636 34.9615 17.6873C34.6633 17.7249 34.4598 17.9747 34.4598 18.2955C34.4598 18.7111 34.7828 18.9673 35.1574 18.9932C35.5569 19.0233 35.9068 18.7682 36.0219 18.3655C36.059 18.2261 36.0653 18.0802 36.0404 17.9381C36.0155 17.796 35.96 17.6609 35.8778 17.5424C35.7956 17.4238 35.6886 17.3245 35.5642 17.2514C35.4398 17.1782 35.301 17.133 35.1574 17.1188C34.4307 17.037 33.8795 17.6054 33.8817 18.2912C33.8838 18.7854 34.1099 19.1557 34.5384 19.4034C34.6439 19.468 34.6816 19.6036 34.6191 19.7145C34.5836 19.7759 34.5739 19.7812 34.5072 19.7489C34.2324 19.6219 33.9981 19.4215 33.83 19.1697C33.5167 18.7046 33.4801 18.2105 33.689 17.6926C33.8365 17.3277 34.0905 17.0704 34.4447 16.911C35.0347 16.644 35.882 16.8098 36.2437 17.5365C36.5721 18.1954 36.2771 18.8823 35.7517 19.1794C35.236 19.4712 34.5416 19.286 34.2552 18.7757C33.9947 18.3074 34.1659 17.6829 34.6493 17.4536C35.0089 17.2814 35.5127 17.3621 35.7259 17.7895C35.8949 18.1265 35.7711 18.5259 35.4632 18.682C35.1607 18.8349 34.8603 18.7046 34.744 18.4818C34.6958 18.3884 34.6862 18.2798 34.7172 18.1793C34.7482 18.0789 34.8174 17.9946 34.9098 17.9446C35.0487 17.8724 35.2522 17.9607 35.2888 18.1147C35.2957 18.1429 35.2962 18.1723 35.2903 18.2007C35.2843 18.2291 35.2721 18.2559 35.2544 18.2789C35.2367 18.302 35.2141 18.3208 35.1882 18.3339C35.1623 18.347 35.1337 18.3541 35.1047 18.3547C35.0939 18.3547 35.0788 18.358 35.0638 18.358" fill="#30D0A7"/>
</g>
<defs>
<clipPath id="clip0_1046_4612">
<rect width="68.9024" height="68.9024" fill="white" transform="translate(0 0.970947)"/>
</clipPath>
</defs>
</svg>
